<svg width="24" height="24" viewBox="0 0 24 24" fill="none" xmlns="http://www.w3.org/2000/svg">
<g id="add-square-04">
<path id="Icon" d="M12.9999 7.20002C12.9999 6.64774 12.5522 6.20002 11.9999 6.20002C11.4476 6.20002 10.9999 6.64774 10.9999 7.20002L12.9999 7.20002ZM10.9999 16.8C10.9999 17.3523 11.4476 17.8 11.9999 17.8C12.5522 17.8 12.9999 17.3523 12.9999 16.8H10.9999ZM16.7999 13C17.3522 13 17.7999 12.5523 17.7999 12C17.7999 11.4477 17.3522 11 16.7999 11V13ZM7.1999 11C6.64762 11 6.1999 11.4477 6.1999 12C6.1999 12.5523 6.64762 13 7.1999 13V11ZM20.5999 12C20.5999 16.7497 16.7496 20.6 11.9999 20.6V22.6C17.8541 22.6 22.5999 17.8542 22.5999 12H20.5999ZM11.9999 20.6C7.25025 20.6 3.3999 16.7497 3.3999 12H1.3999C1.3999 17.8542 6.14568 22.6 11.9999 22.6V20.6ZM3.3999 12C3.3999 7.25038 7.25025 3.40002 11.9999 3.40002V1.40002C6.14568 1.40002 1.3999 6.14581 1.3999 12H3.3999ZM11.9999 3.40002C16.7496 3.40002 20.5999 7.25038 20.5999 12H22.5999C22.5999 6.14581 17.8541 1.40002 11.9999 1.40002V3.40002ZM10.9999 7.20002L10.9999 12H12.9999L12.9999 7.20002L10.9999 7.20002ZM10.9999 12V16.8H12.9999V12H10.9999ZM16.7999 11H11.9999V13H16.7999V11ZM11.9999 11H7.1999V13H11.9999V11Z" fill="currentColor"/>
</g>
</svg>
