<svg width="25" height="24" viewBox="0 0 25 24" fill="none" xmlns="http://www.w3.org/2000/svg">
<g id="alarm-off">
<path id="Vector" d="M2.65002 7.00799V6.23999C2.65002 5.37536 2.93579 4.57747 3.41802 3.93562M17.242 2.39999L18.01 2.39999C20.1308 2.39999 21.85 4.11922 21.85 6.23999V7.00799M6.10602 18.912L3.41802 21.6M21.082 21.6L3.80202 3.49768M9.85002 4.66577C10.6108 4.44076 11.4163 4.31999 12.25 4.31999C16.9157 4.31999 20.698 8.10229 20.698 12.768C20.698 14.1049 20.3875 15.3694 19.8345 16.493M18.01 18.9479C16.501 20.355 14.4761 21.216 12.25 21.216C7.58432 21.216 3.80202 17.4337 3.80202 12.768C3.80202 10.542 4.66299 8.51702 6.07008 7.00799" stroke="currentColor" stroke-width="2" stroke-linecap="round" stroke-linejoin="round"/>
</g>
</svg>
