<svg width="24" height="24" viewBox="0 0 24 24" fill="none" xmlns="http://www.w3.org/2000/svg">
<g id="alarm-check">
<path id="Vector" d="M1.40002 7.00799C1.40002 7.56028 1.84774 8.00799 2.40002 8.00799C2.95231 8.00799 3.40002 7.56028 3.40002 7.00799H1.40002ZM7.00802 3.39999C7.56031 3.39999 8.00802 2.95228 8.00802 2.39999C8.00802 1.84771 7.56031 1.39999 7.00802 1.39999V3.39999ZM16.992 1.39999C16.4397 1.39999 15.992 1.84771 15.992 2.39999C15.992 2.95228 16.4397 3.39999 16.992 3.39999V1.39999ZM17.76 2.39999V1.39999V2.39999ZM21.6 6.23999H20.6H21.6ZM20.6 7.00799C20.6 7.56028 21.0477 8.00799 21.6 8.00799C22.1523 8.00799 22.6 7.56028 22.6 7.00799H20.6ZM6.56313 19.6191C6.95365 19.2286 6.95365 18.5954 6.56313 18.2049C6.17261 17.8144 5.53944 17.8144 5.14892 18.2049L6.56313 19.6191ZM2.46092 20.8929C2.07039 21.2834 2.07039 21.9166 2.46092 22.3071C2.85144 22.6976 3.48461 22.6976 3.87513 22.3071L2.46092 20.8929ZM20.1249 22.3071C20.5154 22.6976 21.1486 22.6976 21.5391 22.3071C21.9297 21.9166 21.9297 21.2834 21.5391 20.8929L20.1249 22.3071ZM18.8511 18.2049C18.4606 17.8144 17.8274 17.8144 17.4369 18.2049C17.0464 18.5954 17.0464 19.2286 17.4369 19.6191L18.8511 18.2049ZM9.70713 11.8929C9.31661 11.5024 8.68344 11.5024 8.29292 11.8929C7.90239 12.2834 7.90239 12.9166 8.29292 13.3071L9.70713 11.8929ZM10.8 14.4L10.0929 15.1071C10.4834 15.4976 11.1166 15.4976 11.5071 15.1071L10.8 14.4ZM15.7071 10.9071C16.0977 10.5166 16.0977 9.88341 15.7071 9.49289C15.3166 9.10236 14.6834 9.10236 14.2929 9.49289L15.7071 10.9071ZM3.40002 7.00799V6.23999H1.40002V7.00799H3.40002ZM6.24002 3.39999H7.00802V1.39999H6.24002V3.39999ZM3.40002 6.23999C3.40002 4.67151 4.67154 3.39999 6.24002 3.39999V1.39999C3.56697 1.39999 1.40002 3.56694 1.40002 6.23999H3.40002ZM16.992 3.39999H17.76V1.39999L16.992 1.39999V3.39999ZM20.6 6.23999V7.00799H22.6V6.23999H20.6ZM17.76 3.39999C19.3285 3.39999 20.6 4.67151 20.6 6.23999H22.6C22.6 3.56694 20.4331 1.39999 17.76 1.39999V3.39999ZM5.14892 18.2049L2.46092 20.8929L3.87513 22.3071L6.56313 19.6191L5.14892 18.2049ZM21.5391 20.8929L18.8511 18.2049L17.4369 19.6191L20.1249 22.3071L21.5391 20.8929ZM19.448 12.768C19.448 16.8814 16.1134 20.216 12 20.216V22.216C17.218 22.216 21.448 17.986 21.448 12.768H19.448ZM12 20.216C7.88661 20.216 4.55202 16.8814 4.55202 12.768H2.55202C2.55202 17.986 6.78204 22.216 12 22.216V20.216ZM4.55202 12.768C4.55202 8.65458 7.88661 5.31999 12 5.31999V3.31999C6.78204 3.31999 2.55202 7.55001 2.55202 12.768H4.55202ZM12 5.31999C16.1134 5.31999 19.448 8.65458 19.448 12.768H21.448C21.448 7.55001 17.218 3.31999 12 3.31999V5.31999ZM8.29292 13.3071L10.0929 15.1071L11.5071 13.6929L9.70713 11.8929L8.29292 13.3071ZM11.5071 15.1071L15.7071 10.9071L14.2929 9.49289L10.0929 13.6929L11.5071 15.1071Z" fill="currentColor"/>
</g>
</svg>
