<svg width="25" height="24" viewBox="0 0 25 24" fill="none" xmlns="http://www.w3.org/2000/svg">
<g id="alarm-minus">
<path id="Vector" d="M2.65002 7.00802V6.24002C2.65002 4.11925 4.36925 2.40002 6.49002 2.40002H7.25802M17.242 2.40002L18.01 2.40002C20.1308 2.40002 21.85 4.11925 21.85 6.24002V7.00802M6.10602 18.912L3.41802 21.6M21.082 21.6L18.394 18.912M15.25 12.6H9.25002M20.698 12.768C20.698 17.4337 16.9157 21.216 12.25 21.216C7.58432 21.216 3.80202 17.4337 3.80202 12.768C3.80202 8.10232 7.58432 4.32002 12.25 4.32002C16.9157 4.32002 20.698 8.10232 20.698 12.768Z" stroke="currentColor" stroke-width="2" stroke-linecap="round"/>
</g>
</svg>
