<svg width="24" height="24" viewBox="0 0 24 24" fill="none" xmlns="http://www.w3.org/2000/svg">
<g id="alarm-03">
<path id="Vector" d="M9.70716 11.8929C9.31663 11.5024 8.68347 11.5024 8.29294 11.8929C7.90242 12.2834 7.90242 12.9166 8.29294 13.3071L9.70716 11.8929ZM10.8 14.4L10.0929 15.1071C10.4835 15.4976 11.1166 15.4976 11.5072 15.1071L10.8 14.4ZM15.7072 10.9071C16.0977 10.5166 16.0977 9.88341 15.7072 9.49289C15.3166 9.10236 14.6835 9.10236 14.2929 9.49289L15.7072 10.9071ZM6.56316 19.6191C6.95368 19.2286 6.95368 18.5954 6.56316 18.2049C6.17263 17.8144 5.53947 17.8144 5.14894 18.2049L6.56316 19.6191ZM2.46094 20.8929C2.07042 21.2834 2.07042 21.9166 2.46094 22.3071C2.85147 22.6976 3.48463 22.6976 3.87516 22.3071L2.46094 20.8929ZM20.1249 22.3071C20.5155 22.6976 21.1486 22.6976 21.5392 22.3071C21.9297 21.9166 21.9297 21.2834 21.5392 20.8929L20.1249 22.3071ZM18.8512 18.2049C18.4606 17.8144 17.8275 17.8144 17.4369 18.2049C17.0464 18.5954 17.0464 19.2286 17.4369 19.6191L18.8512 18.2049ZM5.50716 3.1071C5.89768 2.71658 5.89768 2.08341 5.50716 1.69289C5.11663 1.30236 4.48347 1.30236 4.09294 1.69289L5.50716 3.1071ZM1.09294 4.69289C0.702418 5.08341 0.702418 5.71658 1.09294 6.1071C1.48347 6.49762 2.11663 6.49762 2.50716 6.1071L1.09294 4.69289ZM21.4929 6.1071C21.8835 6.49762 22.5166 6.49762 22.9072 6.1071C23.2977 5.71658 23.2977 5.08341 22.9072 4.69289L21.4929 6.1071ZM19.9072 1.69289C19.5166 1.30236 18.8835 1.30236 18.4929 1.69289C18.1024 2.08341 18.1024 2.71658 18.4929 3.1071L19.9072 1.69289ZM8.29294 13.3071L10.0929 15.1071L11.5072 13.6929L9.70716 11.8929L8.29294 13.3071ZM11.5072 15.1071L15.7072 10.9071L14.2929 9.49289L10.0929 13.6929L11.5072 15.1071ZM5.14894 18.2049L2.46094 20.8929L3.87516 22.3071L6.56316 19.6191L5.14894 18.2049ZM21.5392 20.8929L18.8512 18.2049L17.4369 19.6191L20.1249 22.3071L21.5392 20.8929ZM19.448 12.768C19.448 16.8814 16.1135 20.216 12 20.216V22.216C17.218 22.216 21.448 17.986 21.448 12.768H19.448ZM12 20.216C7.88663 20.216 4.55205 16.8814 4.55205 12.768H2.55205C2.55205 17.986 6.78206 22.216 12 22.216V20.216ZM4.55205 12.768C4.55205 8.65458 7.88663 5.31999 12 5.31999V3.31999C6.78206 3.31999 2.55205 7.55001 2.55205 12.768H4.55205ZM12 5.31999C16.1135 5.31999 19.448 8.65458 19.448 12.768H21.448C21.448 7.55001 17.218 3.31999 12 3.31999V5.31999ZM4.09294 1.69289L1.09294 4.69289L2.50716 6.1071L5.50716 3.1071L4.09294 1.69289ZM22.9072 4.69289L19.9072 1.69289L18.4929 3.1071L21.4929 6.1071L22.9072 4.69289Z" fill="currentColor"/>
</g>
</svg>
