<svg width="25" height="24" viewBox="0 0 25 24" fill="none" xmlns="http://www.w3.org/2000/svg">
<g id="alarm-plus">
<path id="Vector" d="M1.65002 7.00799C1.65002 7.56028 2.09774 8.00799 2.65002 8.00799C3.20231 8.00799 3.65002 7.56028 3.65002 7.00799H1.65002ZM7.25802 3.39999C7.81031 3.39999 8.25802 2.95228 8.25802 2.39999C8.25802 1.84771 7.81031 1.39999 7.25802 1.39999V3.39999ZM17.242 1.39999C16.6897 1.39999 16.242 1.84771 16.242 2.39999C16.242 2.95228 16.6897 3.39999 17.242 3.39999V1.39999ZM18.01 2.39999V1.39999V2.39999ZM21.85 6.23999H20.85H21.85ZM20.85 7.00799C20.85 7.56028 21.2977 8.00799 21.85 8.00799C22.4023 8.00799 22.85 7.56028 22.85 7.00799H20.85ZM6.81313 19.6191C7.20365 19.2286 7.20365 18.5954 6.81313 18.2049C6.42261 17.8144 5.78944 17.8144 5.39892 18.2049L6.81313 19.6191ZM2.71092 20.8929C2.32039 21.2834 2.32039 21.9166 2.71092 22.3071C3.10144 22.6976 3.73461 22.6976 4.12513 22.3071L2.71092 20.8929ZM20.3749 22.3071C20.7654 22.6976 21.3986 22.6976 21.7891 22.3071C22.1797 21.9166 22.1797 21.2834 21.7891 20.8929L20.3749 22.3071ZM19.1011 18.2049C18.7106 17.8144 18.0774 17.8144 17.6869 18.2049C17.2964 18.5954 17.2964 19.2286 17.6869 19.6191L19.1011 18.2049ZM13.25 9.59999C13.25 9.04771 12.8023 8.59999 12.25 8.59999C11.6977 8.59999 11.25 9.04771 11.25 9.59999H13.25ZM11.25 15.6C11.25 16.1523 11.6977 16.6 12.25 16.6C12.8023 16.6 13.25 16.1523 13.25 15.6H11.25ZM15.25 13.6C15.8023 13.6 16.25 13.1523 16.25 12.6C16.25 12.0477 15.8023 11.6 15.25 11.6V13.6ZM9.25002 11.6C8.69774 11.6 8.25002 12.0477 8.25002 12.6C8.25002 13.1523 8.69774 13.6 9.25002 13.6V11.6ZM3.65002 7.00799V6.23999H1.65002V7.00799H3.65002ZM6.49002 3.39999H7.25802V1.39999H6.49002V3.39999ZM3.65002 6.23999C3.65002 4.67151 4.92154 3.39999 6.49002 3.39999V1.39999C3.81697 1.39999 1.65002 3.56694 1.65002 6.23999H3.65002ZM17.242 3.39999H18.01V1.39999L17.242 1.39999V3.39999ZM20.85 6.23999V7.00799H22.85V6.23999H20.85ZM18.01 3.39999C19.5785 3.39999 20.85 4.67151 20.85 6.23999H22.85C22.85 3.56694 20.6831 1.39999 18.01 1.39999V3.39999ZM5.39892 18.2049L2.71092 20.8929L4.12513 22.3071L6.81313 19.6191L5.39892 18.2049ZM21.7891 20.8929L19.1011 18.2049L17.6869 19.6191L20.3749 22.3071L21.7891 20.8929ZM19.698 12.768C19.698 16.8814 16.3634 20.216 12.25 20.216V22.216C17.468 22.216 21.698 17.986 21.698 12.768H19.698ZM12.25 20.216C8.13661 20.216 4.80202 16.8814 4.80202 12.768H2.80202C2.80202 17.986 7.03204 22.216 12.25 22.216V20.216ZM4.80202 12.768C4.80202 8.65458 8.13661 5.31999 12.25 5.31999V3.31999C7.03204 3.31999 2.80202 7.55001 2.80202 12.768H4.80202ZM12.25 5.31999C16.3634 5.31999 19.698 8.65458 19.698 12.768H21.698C21.698 7.55001 17.468 3.31999 12.25 3.31999V5.31999ZM11.25 9.59999V12.6H13.25V9.59999H11.25ZM11.25 12.6V15.6H13.25V12.6H11.25ZM15.25 11.6H12.25V13.6H15.25V11.6ZM12.25 11.6H9.25002V13.6H12.25V11.6Z" fill="currentColor"/>
</g>
</svg>
