<svg width="24" height="24" viewBox="0 0 24 24" fill="none" xmlns="http://www.w3.org/2000/svg">
<g id="arrow-left-contained-01">
<path id="Icon" d="M12.3667 16.6691C12.7202 17.0934 13.3508 17.1507 13.7751 16.7972C14.1993 16.4436 14.2567 15.813 13.9031 15.3887L12.3667 16.6691ZM9.59932 11.7863L8.83109 11.1461C8.52206 11.5169 8.52206 12.0556 8.83109 12.4264L9.59932 11.7863ZM13.9031 8.18377C14.2567 7.7595 14.1993 7.12893 13.7751 6.77537C13.3508 6.4218 12.7202 6.47913 12.3667 6.90341L13.9031 8.18377ZM13.9031 15.3887L10.3675 11.1461L8.83109 12.4264L12.3667 16.6691L13.9031 15.3887ZM10.3675 12.4264L13.9031 8.18377L12.3667 6.90341L8.83109 11.1461L10.3675 12.4264ZM11.9999 3.40002C16.7495 3.40002 20.5999 7.25037 20.5999 12H22.5999C22.5999 6.1458 17.8541 1.40002 11.9999 1.40002V3.40002ZM20.5999 12C20.5999 16.7497 16.7496 20.6 11.9999 20.6V22.6C17.8541 22.6 22.5999 17.8542 22.5999 12H20.5999ZM11.9999 20.6C7.25025 20.6 3.3999 16.7497 3.3999 12H1.3999C1.3999 17.8542 6.14568 22.6 11.9999 22.6V20.6ZM3.3999 12C3.3999 7.25038 7.25025 3.40002 11.9999 3.40002V1.40002C6.14568 1.40002 1.3999 6.14581 1.3999 12H3.3999Z" fill="currentColor"/>
</g>
</svg>
