<svg width="24" height="24" viewBox="0 0 24 24" fill="none" xmlns="http://www.w3.org/2000/svg">
<g id="arrow-right-contained-01">
<path id="Icon" d="M11.5675 6.90437C11.214 6.48009 10.5834 6.42277 10.1591 6.77633C9.73484 7.1299 9.67752 7.76046 10.0311 8.18474L11.5675 6.90437ZM14.3349 11.7872L15.1031 12.4274C15.4121 12.0566 15.4121 11.5179 15.1031 11.147L14.3349 11.7872ZM10.0311 15.3897C9.67752 15.814 9.73484 16.4446 10.1591 16.7981C10.5834 17.1517 11.214 17.0944 11.5675 16.6701L10.0311 15.3897ZM10.0311 8.18474L13.5666 12.4274L15.1031 11.147L11.5675 6.90437L10.0311 8.18474ZM13.5666 11.147L10.0311 15.3897L11.5675 16.6701L15.1031 12.4274L13.5666 11.147ZM11.9999 3.40002C16.7495 3.40002 20.5999 7.25037 20.5999 12H22.5999C22.5999 6.1458 17.8541 1.40002 11.9999 1.40002V3.40002ZM20.5999 12C20.5999 16.7497 16.7496 20.6 11.9999 20.6V22.6C17.8541 22.6 22.5999 17.8542 22.5999 12H20.5999ZM11.9999 20.6C7.25025 20.6 3.3999 16.7497 3.3999 12H1.3999C1.3999 17.8542 6.14568 22.6 11.9999 22.6V20.6ZM3.3999 12C3.3999 7.25038 7.25025 3.40002 11.9999 3.40002V1.40002C6.14568 1.40002 1.3999 6.14581 1.3999 12H3.3999Z" fill="currentColor"/>
</g>
</svg>
