<svg width="24" height="24" viewBox="0 0 24 24" fill="none" xmlns="http://www.w3.org/2000/svg">
<g id="arrow-down-right-contained">
<path id="Icon" d="M16.4958 9.59058C16.5458 9.04057 16.1405 8.55416 15.5905 8.50416C15.0404 8.45415 14.554 8.8595 14.504 9.40951L16.4958 9.59058ZM14.9999 15.0001L15.0905 15.996C15.5712 15.9523 15.9521 15.5714 15.9958 15.0906L14.9999 15.0001ZM9.40935 14.5042C8.85933 14.5542 8.45399 15.0406 8.50399 15.5906C8.55399 16.1406 9.0404 16.546 9.59042 16.496L9.40935 14.5042ZM9.70699 8.29294C9.31646 7.90241 8.6833 7.90241 8.29278 8.29294C7.90225 8.68346 7.90225 9.31663 8.29278 9.70715L9.70699 8.29294ZM14.504 9.40951L14.004 14.9096L15.9958 15.0906L16.4958 9.59058L14.504 9.40951ZM14.9094 14.0042L9.40935 14.5042L9.59042 16.496L15.0905 15.996L14.9094 14.0042ZM15.707 14.293L9.70699 8.29294L8.29278 9.70715L14.2928 15.7072L15.707 14.293ZM20.5999 12C20.5999 16.7497 16.7496 20.6 11.9999 20.6V22.6C17.8541 22.6 22.5999 17.8542 22.5999 12H20.5999ZM11.9999 20.6C7.25025 20.6 3.3999 16.7497 3.3999 12H1.3999C1.3999 17.8542 6.14568 22.6 11.9999 22.6V20.6ZM3.3999 12C3.3999 7.25038 7.25025 3.40002 11.9999 3.40002V1.40002C6.14568 1.40002 1.3999 6.14581 1.3999 12H3.3999ZM11.9999 3.40002C16.7496 3.40002 20.5999 7.25038 20.5999 12H22.5999C22.5999 6.14581 17.8541 1.40002 11.9999 1.40002V3.40002Z" fill="currentColor"/>
</g>
</svg>
