<svg width="24" height="24" viewBox="0 0 24 24" fill="none" xmlns="http://www.w3.org/2000/svg">
<g id="arrow-down-contained-01">
<path id="Icon" d="M17.0956 11.5676C17.5198 11.2141 17.5772 10.5835 17.2236 10.1592C16.87 9.73496 16.2395 9.67764 15.8152 10.0312L17.0956 11.5676ZM12.2127 14.335L11.5725 15.1032C11.9434 15.4122 12.482 15.4122 12.8529 15.1032L12.2127 14.335ZM8.61021 10.0312C8.18594 9.67764 7.55537 9.73496 7.20181 10.1592C6.84824 10.5835 6.90557 11.2141 7.32985 11.5676L8.61021 10.0312ZM15.8152 10.0312L11.5725 13.5668L12.8529 15.1032L17.0956 11.5676L15.8152 10.0312ZM12.8529 13.5668L8.61021 10.0312L7.32985 11.5676L11.5725 15.1032L12.8529 13.5668ZM20.5999 12C20.5999 16.7497 16.7496 20.6 11.9999 20.6V22.6C17.8541 22.6 22.5999 17.8542 22.5999 12H20.5999ZM11.9999 20.6C7.25025 20.6 3.3999 16.7497 3.3999 12H1.3999C1.3999 17.8542 6.14568 22.6 11.9999 22.6V20.6ZM3.3999 12C3.3999 7.25038 7.25025 3.40002 11.9999 3.40002V1.40002C6.14568 1.40002 1.3999 6.14581 1.3999 12H3.3999ZM11.9999 3.40002C16.7496 3.40002 20.5999 7.25038 20.5999 12H22.5999C22.5999 6.14581 17.8541 1.40002 11.9999 1.40002V3.40002Z" fill="currentColor"/>
</g>
</svg>
