<svg width="24" height="24" viewBox="0 0 24 24" fill="none" xmlns="http://www.w3.org/2000/svg">
<g id="arrow-right-contained-02">
<path id="Icon" d="M13.4753 7.1172C13.1217 6.69292 12.4911 6.6356 12.0669 6.98916C11.6426 7.34273 11.5853 7.97329 11.9388 8.39757L13.4753 7.1172ZM16.2426 12.0001L17.0108 12.6402C17.3199 12.2694 17.3199 11.7307 17.0108 11.3599L16.2426 12.0001ZM11.9388 15.6025C11.5853 16.0268 11.6426 16.6574 12.0669 17.0109C12.4911 17.3645 13.1217 17.3072 13.4753 16.8829L11.9388 15.6025ZM7.75726 11.0001C7.20498 11.0001 6.75726 11.4478 6.75726 12.0001C6.75726 12.5523 7.20498 13.0001 7.75726 13.0001L7.75726 11.0001ZM11.9388 8.39757L15.4744 12.6402L17.0108 11.3599L13.4753 7.1172L11.9388 8.39757ZM15.4744 11.3599L11.9388 15.6025L13.4753 16.8829L17.0108 12.6402L15.4744 11.3599ZM16.2426 11.0001L7.75726 11.0001L7.75726 13.0001L16.2426 13.0001L16.2426 11.0001ZM18.081 5.91891C21.4395 9.27741 21.4395 14.7226 18.081 18.0811L19.4952 19.4954C23.6348 15.3558 23.6348 8.64425 19.4952 4.50469L18.081 5.91891ZM18.081 18.0811C14.7225 21.4396 9.27729 21.4396 5.91878 18.0811L4.50457 19.4954C8.64413 23.6349 15.3557 23.6349 19.4952 19.4954L18.081 18.0811ZM5.91878 18.0811C2.56028 14.7226 2.56028 9.27741 5.91878 5.91891L4.50457 4.50469C0.365013 8.64425 0.365013 15.3558 4.50457 19.4954L5.91878 18.0811ZM5.91878 5.91891C9.27729 2.5604 14.7225 2.5604 18.081 5.91891L19.4952 4.50469C15.3557 0.365135 8.64413 0.365135 4.50457 4.50469L5.91878 5.91891Z" fill="currentColor"/>
</g>
</svg>
