<svg width="24" height="24" viewBox="0 0 24 24" fill="none" xmlns="http://www.w3.org/2000/svg">
<g id="arrow-up-contained-01">
<path id="Icon" d="M7.33081 12.3668C6.90653 12.7203 6.84921 13.3509 7.20277 13.7752C7.55634 14.1995 8.1869 14.2568 8.61118 13.9032L7.33081 12.3668ZM12.2137 9.59944L12.8539 8.83122C12.483 8.52218 11.9443 8.52218 11.5735 8.83122L12.2137 9.59944ZM15.8162 13.9032C16.2404 14.2568 16.871 14.1995 17.2246 13.7752C17.5781 13.3509 17.5208 12.7203 17.0965 12.3668L15.8162 13.9032ZM8.61118 13.9032L12.8539 10.3677L11.5735 8.83122L7.33081 12.3668L8.61118 13.9032ZM11.5735 10.3677L15.8162 13.9032L17.0965 12.3668L12.8539 8.83122L11.5735 10.3677ZM20.5999 12C20.5999 16.7497 16.7496 20.6 11.9999 20.6V22.6C17.8541 22.6 22.5999 17.8542 22.5999 12H20.5999ZM11.9999 20.6C7.25025 20.6 3.3999 16.7497 3.3999 12H1.3999C1.3999 17.8542 6.14568 22.6 11.9999 22.6V20.6ZM3.3999 12C3.3999 7.25038 7.25025 3.40002 11.9999 3.40002V1.40002C6.14568 1.40002 1.3999 6.14581 1.3999 12H3.3999ZM11.9999 3.40002C16.7496 3.40002 20.5999 7.25038 20.5999 12H22.5999C22.5999 6.14581 17.8541 1.40002 11.9999 1.40002V3.40002Z" fill="currentColor"/>
</g>
</svg>
