<svg width="24" height="24" viewBox="0 0 24 24" fill="none" xmlns="http://www.w3.org/2000/svg">
<g id="arrow-down-contained-02">
<path id="Icon" d="M16.8827 13.4754C17.307 13.1218 17.3643 12.4913 17.0108 12.067C16.6572 11.6427 16.0266 11.5854 15.6024 11.9389L16.8827 13.4754ZM11.9999 16.2427L11.3597 17.0109C11.7305 17.32 12.2692 17.32 12.6401 17.0109L11.9999 16.2427ZM8.39739 11.9389C7.97311 11.5854 7.34255 11.6427 6.98898 12.067C6.63542 12.4913 6.69274 13.1218 7.11702 13.4754L8.39739 11.9389ZM12.9999 7.75739C12.9999 7.2051 12.5522 6.75739 11.9999 6.75739C11.4476 6.75739 10.9999 7.2051 10.9999 7.75739H12.9999ZM15.6024 11.9389L11.3597 15.4745L12.6401 17.0109L16.8827 13.4754L15.6024 11.9389ZM12.6401 15.4745L8.39739 11.9389L7.11702 13.4754L11.3597 17.0109L12.6401 15.4745ZM12.9999 16.2427V7.75739H10.9999V16.2427L12.9999 16.2427ZM18.081 18.0811C14.7225 21.4396 9.27729 21.4396 5.91878 18.0811L4.50457 19.4954C8.64413 23.6349 15.3557 23.6349 19.4952 19.4954L18.081 18.0811ZM5.91878 18.0811C2.56028 14.7226 2.56028 9.27741 5.91878 5.91891L4.50457 4.50469C0.365013 8.64425 0.365013 15.3558 4.50457 19.4954L5.91878 18.0811ZM5.91878 5.91891C9.27729 2.5604 14.7225 2.5604 18.081 5.91891L19.4952 4.50469C15.3557 0.365135 8.64413 0.365135 4.50457 4.50469L5.91878 5.91891ZM18.081 5.91891C21.4395 9.27741 21.4395 14.7226 18.081 18.0811L19.4952 19.4954C23.6348 15.3558 23.6348 8.64425 19.4952 4.50469L18.081 5.91891Z" fill="currentColor"/>
</g>
</svg>
