<svg width="24" height="24" viewBox="0 0 24 24" fill="none" xmlns="http://www.w3.org/2000/svg">
<g id="arrow-expand-03">
<path id="Icon" d="M14.6476 1.3999C14.0954 1.3999 13.6476 1.84762 13.6476 2.3999C13.6476 2.95219 14.0954 3.3999 14.6476 3.3999V1.3999ZM21.5994 2.3999H22.5994C22.5994 1.84762 22.1517 1.3999 21.5994 1.3999V2.3999ZM20.5994 9.35163C20.5994 9.90392 21.0471 10.3516 21.5994 10.3516C22.1517 10.3516 22.5994 9.90392 22.5994 9.35163H20.5994ZM13.489 10.5103L12.7819 9.80314L12.7819 9.80319L13.489 10.5103ZM9.35236 22.5999C9.90465 22.5999 10.3524 22.1522 10.3524 21.5999C10.3524 21.0476 9.90465 20.5999 9.35236 20.5999V22.5999ZM2.40063 21.5999H1.40063C1.40063 22.1522 1.84835 22.5999 2.40063 22.5999V21.5999ZM3.40063 14.6482C3.40063 14.0959 2.95292 13.6482 2.40063 13.6482C1.84835 13.6482 1.40063 14.0959 1.40063 14.6482H3.40063ZM14.6476 3.3999H21.5994V1.3999H14.6476V3.3999ZM20.5994 2.3999V9.35163H22.5994V2.3999H20.5994ZM20.8923 1.6928L12.7819 9.80314L14.1961 11.2174L22.3065 3.10701L20.8923 1.6928ZM9.35236 20.5999H2.40063V22.5999H9.35236V20.5999ZM3.40063 21.5999V14.6482H1.40063V21.5999H3.40063ZM3.10778 22.307L14.1962 11.2173L12.7819 9.80319L1.69349 20.8928L3.10778 22.307Z" fill="currentColor"/>
</g>
</svg>
