<svg width="24" height="24" viewBox="0 0 24 24" fill="none" xmlns="http://www.w3.org/2000/svg">
<g id="arrow-down-left-contained">
<path id="Icon" d="M14.4093 16.4959C14.9594 16.5459 15.4458 16.1406 15.4958 15.5906C15.5458 15.0406 15.1404 14.5542 14.5904 14.5042L14.4093 16.4959ZM8.99984 15L8.00394 15.0906C8.04765 15.5713 8.42855 15.9522 8.9093 15.9959L8.99984 15ZM9.49573 9.40947C9.44573 8.85946 8.95932 8.45411 8.4093 8.50411C7.85928 8.55412 7.45394 9.04053 7.50394 9.59054L9.49573 9.40947ZM15.707 9.70711C16.0975 9.31659 16.0975 8.68342 15.707 8.2929C15.3165 7.90237 14.6833 7.90237 14.2928 8.2929L15.707 9.70711ZM14.5904 14.5042L9.09037 14.0042L8.9093 15.9959L14.4093 16.4959L14.5904 14.5042ZM9.99573 14.9095L9.49573 9.40947L7.50394 9.59054L8.00394 15.0906L9.99573 14.9095ZM9.70694 15.7072L15.707 9.70711L14.2928 8.2929L8.29273 14.2929L9.70694 15.7072ZM11.9999 20.6C7.25025 20.6 3.3999 16.7497 3.3999 12H1.3999C1.3999 17.8542 6.14568 22.6 11.9999 22.6V20.6ZM3.3999 12C3.3999 7.25037 7.25025 3.40002 11.9999 3.40002V1.40002C6.14568 1.40002 1.3999 6.1458 1.3999 12H3.3999ZM11.9999 3.40002C16.7496 3.40002 20.5999 7.25038 20.5999 12H22.5999C22.5999 6.14581 17.8541 1.40002 11.9999 1.40002V3.40002ZM20.5999 12C20.5999 16.7497 16.7495 20.6 11.9999 20.6V22.6C17.8541 22.6 22.5999 17.8542 22.5999 12H20.5999Z" fill="currentColor"/>
</g>
</svg>
