<svg width="24" height="24" viewBox="0 0 24 24" fill="none" xmlns="http://www.w3.org/2000/svg">
<g id="arrow-up-right-contained">
<path id="Icon" d="M7.50394 14.4095C7.45394 14.9595 7.85928 15.4459 8.4093 15.4959C8.95932 15.5459 9.44573 15.1406 9.49573 14.5906L7.50394 14.4095ZM8.99984 9L8.9093 8.00411C8.42855 8.04781 8.04765 8.42872 8.00395 8.90947L8.99984 9ZM14.5904 9.49589C15.1404 9.44589 15.5458 8.95948 15.4958 8.40946C15.4458 7.85945 14.9594 7.4541 14.4093 7.50411L14.5904 9.49589ZM14.2928 15.7072C14.6833 16.0977 15.3165 16.0977 15.707 15.7072C16.0975 15.3166 16.0975 14.6835 15.707 14.2929L14.2928 15.7072ZM9.49573 14.5906L9.99573 9.09054L8.00395 8.90947L7.50394 14.4095L9.49573 14.5906ZM9.09037 9.9959L14.5904 9.49589L14.4093 7.50411L8.9093 8.00411L9.09037 9.9959ZM8.29273 9.70711L14.2928 15.7072L15.707 14.2929L9.70695 8.2929L8.29273 9.70711ZM11.9999 3.40002C16.7495 3.40002 20.5999 7.25037 20.5999 12H22.5999C22.5999 6.1458 17.8541 1.40002 11.9999 1.40002V3.40002ZM20.5999 12C20.5999 16.7497 16.7496 20.6 11.9999 20.6V22.6C17.8541 22.6 22.5999 17.8542 22.5999 12H20.5999ZM11.9999 20.6C7.25025 20.6 3.3999 16.7497 3.3999 12H1.3999C1.3999 17.8542 6.14568 22.6 11.9999 22.6V20.6ZM3.3999 12C3.3999 7.25038 7.25025 3.40002 11.9999 3.40002V1.40002C6.14568 1.40002 1.3999 6.14581 1.3999 12H3.3999Z" fill="currentColor"/>
</g>
</svg>
