<svg width="24" height="24" viewBox="0 0 24 24" fill="none" xmlns="http://www.w3.org/2000/svg">
<g id="arrow-left-contained-02">
<path id="Icon" d="M10.5245 16.8828C10.8781 17.3071 11.5087 17.3644 11.9329 17.0108C12.3572 16.6573 12.4145 16.0267 12.061 15.6024L10.5245 16.8828ZM7.7572 11.9999L6.98898 11.3597C6.67994 11.7306 6.67994 12.2693 6.98898 12.6401L7.7572 11.9999ZM12.061 8.39745C12.4145 7.97317 12.3572 7.3426 11.9329 6.98904C11.5087 6.63548 10.8781 6.6928 10.5245 7.11708L12.061 8.39745ZM16.2425 12.9999C16.7948 12.9999 17.2425 12.5522 17.2425 11.9999C17.2425 11.4476 16.7948 10.9999 16.2425 10.9999V12.9999ZM12.061 15.6024L8.52542 11.3597L6.98898 12.6401L10.5245 16.8828L12.061 15.6024ZM8.52542 12.6401L12.061 8.39745L10.5245 7.11708L6.98898 11.3597L8.52542 12.6401ZM7.7572 12.9999H16.2425V10.9999H7.7572V12.9999ZM5.91878 5.91878C9.27729 2.56028 14.7225 2.56028 18.081 5.91878L19.4952 4.50457C15.3557 0.365013 8.64413 0.365013 4.50457 4.50457L5.91878 5.91878ZM18.081 5.91878C21.4395 9.27729 21.4395 14.7225 18.081 18.081L19.4952 19.4952C23.6348 15.3557 23.6348 8.64413 19.4952 4.50457L18.081 5.91878ZM18.081 18.081C14.7225 21.4395 9.27729 21.4395 5.91878 18.081L4.50457 19.4952C8.64413 23.6348 15.3557 23.6348 19.4952 19.4952L18.081 18.081ZM5.91878 18.081C2.56028 14.7225 2.56028 9.27729 5.91878 5.91878L4.50457 4.50457C0.365013 8.64413 0.365013 15.3557 4.50457 19.4952L5.91878 18.081Z" fill="currentColor"/>
</g>
</svg>
