<svg width="24" height="24" viewBox="0 0 24 24" fill="none" xmlns="http://www.w3.org/2000/svg">
<g id="arrow-up-left-contained">
<path id="Icon" d="M9.59042 7.50394C9.0404 7.45394 8.55399 7.85928 8.50399 8.4093C8.45399 8.95932 8.85933 9.44573 9.40935 9.49573L9.59042 7.50394ZM14.9999 8.99984L15.9958 8.9093C15.9521 8.42855 15.5712 8.04765 15.0905 8.00395L14.9999 8.99984ZM14.504 14.5904C14.554 15.1404 15.0404 15.5458 15.5905 15.4958C16.1405 15.4458 16.5458 14.9594 16.4958 14.4093L14.504 14.5904ZM8.29277 14.2928C7.90225 14.6833 7.90225 15.3165 8.29277 15.707C8.6833 16.0975 9.31646 16.0975 9.70699 15.707L8.29277 14.2928ZM9.40935 9.49573L14.9094 9.99573L15.0905 8.00395L9.59042 7.50394L9.40935 9.49573ZM14.004 9.09037L14.504 14.5904L16.4958 14.4093L15.9958 8.9093L14.004 9.09037ZM14.2928 8.29273L8.29277 14.2928L9.70699 15.707L15.707 9.70695L14.2928 8.29273ZM20.5999 11.9999C20.5999 16.7496 16.7496 20.5999 11.9999 20.5999V22.5999C17.8541 22.5999 22.5999 17.8541 22.5999 11.9999H20.5999ZM11.9999 20.5999C7.25025 20.5999 3.3999 16.7496 3.3999 11.9999H1.3999C1.3999 17.8541 6.14568 22.5999 11.9999 22.5999V20.5999ZM3.3999 11.9999C3.3999 7.25025 7.25025 3.3999 11.9999 3.3999V1.3999C6.14568 1.3999 1.3999 6.14568 1.3999 11.9999H3.3999ZM11.9999 3.3999C16.7496 3.3999 20.5999 7.25025 20.5999 11.9999H22.5999C22.5999 6.14568 17.8541 1.3999 11.9999 1.3999V3.3999Z" fill="currentColor"/>
</g>
</svg>
