<svg width="24" height="24" viewBox="0 0 24 24" fill="none" xmlns="http://www.w3.org/2000/svg">
<g id="arrow-up-contained-02">
<path id="Icon" d="M7.11702 10.5247C6.69274 10.8782 6.63542 11.5088 6.98898 11.9331C7.34254 12.3573 7.97311 12.4147 8.39739 12.0611L7.11702 10.5247ZM11.9999 7.75732L12.6401 6.9891C12.2692 6.68006 11.7305 6.68006 11.3597 6.9891L11.9999 7.75732ZM15.6024 12.0611C16.0266 12.4147 16.6572 12.3573 17.0108 11.9331C17.3643 11.5088 17.307 10.8782 16.8827 10.5247L15.6024 12.0611ZM10.9999 16.2427C10.9999 16.7949 11.4476 17.2427 11.9999 17.2427C12.5522 17.2427 12.9999 16.7949 12.9999 16.2427H10.9999ZM8.39739 12.0611L12.6401 8.52554L11.3597 6.9891L7.11702 10.5247L8.39739 12.0611ZM11.3597 8.52554L15.6024 12.0611L16.8827 10.5247L12.6401 6.9891L11.3597 8.52554ZM10.9999 7.75732V16.2427H12.9999V7.75732H10.9999ZM18.081 5.91891C21.4395 9.27741 21.4395 14.7226 18.081 18.0811L19.4952 19.4954C23.6348 15.3558 23.6348 8.64425 19.4952 4.50469L18.081 5.91891ZM18.081 18.0811C14.7225 21.4396 9.27729 21.4396 5.91878 18.0811L4.50457 19.4954C8.64413 23.6349 15.3557 23.6349 19.4952 19.4954L18.081 18.0811ZM5.91878 18.0811C2.56028 14.7226 2.56028 9.27741 5.91878 5.91891L4.50457 4.50469C0.365013 8.64425 0.365013 15.3558 4.50457 19.4954L5.91878 18.0811ZM5.91878 5.91891C9.27729 2.5604 14.7225 2.5604 18.081 5.91891L19.4952 4.50469C15.3557 0.365135 8.64413 0.365135 4.50457 4.50469L5.91878 5.91891Z" fill="currentColor"/>
</g>
</svg>
