<svg width="24" height="24" viewBox="0 0 24 24" fill="none" xmlns="http://www.w3.org/2000/svg">
<g id="bank-note-06">
<path id="Icon" d="M5.9999 6.00015V10.2001M17.9999 6.00015V10.2001M17.3999 14.4001H19.7999C20.794 14.4001 21.5999 13.5943 21.5999 12.6001V4.20015C21.5999 3.20603 20.794 2.40015 19.7999 2.40015H4.1999C3.20579 2.40015 2.3999 3.20603 2.3999 4.20015V12.6001C2.3999 13.5943 3.20579 14.4001 4.1999 14.4001H6.5999M8.60484 18.2058L11.9989 21.5999M11.9989 21.5999L15.1644 18.4345M11.9989 21.5999L11.9991 14.6576M14.3999 8.40015C14.3999 9.72563 13.3254 10.8001 11.9999 10.8001C10.6744 10.8001 9.5999 9.72563 9.5999 8.40015C9.5999 7.07466 10.6744 6.00015 11.9999 6.00015C13.3254 6.00015 14.3999 7.07466 14.3999 8.40015Z" stroke="currentColor" stroke-width="2" stroke-linecap="round" stroke-linejoin="round"/>
</g>
</svg>
