<svg width="24" height="24" viewBox="0 0 24 24" fill="none" xmlns="http://www.w3.org/2000/svg">
<g id="bank-note-04">
<g id="Icon">
<path d="M2.3999 18.0815L2.40012 6.2576C2.40014 5.58416 3.05233 5.10325 3.69568 5.30229L4.04375 5.40998C6.71575 6.23665 9.60455 6.23665 12.2765 5.40998C15.1974 4.50632 18.3688 4.59282 21.2274 5.65411L21.6002 5.7925L21.5999 18.5749C21.5999 18.7676 21.4078 18.9012 21.2272 18.8341V18.8341C18.3685 17.7728 15.1971 17.6863 12.2763 18.59C9.6043 19.4166 6.7155 19.4166 4.04351 18.59L2.3999 18.0815Z" stroke="currentColor" stroke-width="2" stroke-linejoin="round"/>
<path d="M14.3999 11.99C14.3999 13.3155 13.3254 14.39 11.9999 14.39C10.6744 14.39 9.5999 13.3155 9.5999 11.99C9.5999 10.6645 10.6744 9.58998 11.9999 9.58998C13.3254 9.58998 14.3999 10.6645 14.3999 11.99Z" stroke="currentColor" stroke-width="2" stroke-linejoin="round"/>
</g>
</g>
</svg>
