<svg width="24" height="24" viewBox="0 0 24 24" fill="none" xmlns="http://www.w3.org/2000/svg">
<g id="bank-note-03">
<path id="Icon" d="M6.02317 11.9763L5.99967 11.9998M17.9997 11.9762L17.9762 11.9997M4.1999 18H19.7999C20.794 18 21.5999 17.1941 21.5999 16.2V7.8C21.5999 6.80589 20.794 6 19.7999 6H4.1999C3.20579 6 2.3999 6.80589 2.3999 7.8V16.2C2.3999 17.1941 3.20579 18 4.1999 18ZM14.3999 12C14.3999 13.3255 13.3254 14.4 11.9999 14.4C10.6744 14.4 9.5999 13.3255 9.5999 12C9.5999 10.6745 10.6744 9.6 11.9999 9.6C13.3254 9.6 14.3999 10.6745 14.3999 12Z" stroke="currentColor" stroke-width="2" stroke-linecap="round" stroke-linejoin="round"/>
</g>
</svg>
