<svg width="24" height="24" viewBox="0 0 24 24" fill="none" xmlns="http://www.w3.org/2000/svg">
<g id="bell-ringing-01">
<path id="Icon" d="M3.67769 17.1833L2.86306 16.6033L2.86306 16.6033L3.67769 17.1833ZM4.90398 13.4734L3.90398 13.4619V13.4734H4.90398ZM4.92972 11.2304L5.92972 11.2419V11.2304H4.92972ZM20.3326 17.2013L21.1585 16.6374L21.1585 16.6374L20.3326 17.2013ZM19.1525 13.4734L18.1525 13.4613V13.4734H19.1525ZM19.1782 11.3416L20.1782 11.3536V11.3416H19.1782ZM9.19005 20.5999C8.63776 20.5999 8.19005 21.0476 8.19005 21.5999C8.19005 22.1522 8.63776 22.5999 9.19005 22.5999V20.5999ZM14.8137 22.5999C15.366 22.5999 15.8137 22.1522 15.8137 21.5999C15.8137 21.0476 15.366 20.5999 14.8137 20.5999V22.5999ZM2.0718 5.63236C1.86631 6.14499 2.11529 6.72714 2.62792 6.93264C3.14055 7.13813 3.72271 6.88915 3.9282 6.37652L2.0718 5.63236ZM6.64241 3.28028C7.12863 3.01834 7.31045 2.41184 7.04851 1.92563C6.78658 1.43941 6.18008 1.25759 5.69386 1.51953L6.64241 3.28028ZM18.2932 1.53432C17.8098 1.26723 17.2014 1.44259 16.9343 1.926C16.6672 2.40941 16.8426 3.01781 17.326 3.28489L18.2932 1.53432ZM20.0679 6.35674C20.2679 6.87154 20.8473 7.12673 21.3621 6.92672C21.8769 6.72672 22.1321 6.14725 21.9321 5.63246L20.0679 6.35674ZM4.49231 17.7632C5.20098 16.7679 5.90398 15.2836 5.90398 13.4734H3.90398C3.90398 14.7591 3.40241 15.8457 2.86306 16.6033L4.49231 17.7632ZM5.90391 13.4849L5.92965 11.2419L3.92978 11.2189L3.90404 13.4619L5.90391 13.4849ZM21.1585 16.6374C20.6416 15.8803 20.1525 14.7811 20.1525 13.4734H18.1525C18.1525 15.2829 18.8264 16.7686 19.5068 17.7651L21.1585 16.6374ZM20.1524 13.4855L20.1782 11.3536L18.1783 11.3295L18.1526 13.4613L20.1524 13.4855ZM20.1782 11.3416C20.1782 6.62259 16.5776 2.68477 12.0019 2.68477V4.68477C15.3529 4.68477 18.1782 7.60309 18.1782 11.3416H20.1782ZM19.9032 19.2408C20.683 19.2408 21.1369 18.6631 21.3083 18.2336C21.4833 17.795 21.5209 17.1682 21.1585 16.6374L19.5068 17.7651C19.452 17.6849 19.4397 17.6134 19.4378 17.5768C19.4359 17.5412 19.4417 17.515 19.4507 17.4924C19.459 17.4717 19.4836 17.4204 19.5498 17.365C19.6233 17.3033 19.747 17.2408 19.9032 17.2408V19.2408ZM5.92972 11.2304C5.92972 7.55333 8.70838 4.68477 12.0019 4.68477V2.68477C7.48369 2.68477 3.92972 6.57283 3.92972 11.2304H5.92972ZM4.10164 17.2408C4.26115 17.2408 4.38629 17.3058 4.45919 17.368C4.52449 17.4237 4.54754 17.4742 4.55472 17.4928C4.56265 17.5133 4.56812 17.5379 4.56586 17.5727C4.56353 17.6084 4.55044 17.6816 4.49231 17.7632L2.86306 16.6033C2.48399 17.1357 2.51867 17.7731 2.68949 18.2145C2.85629 18.6456 3.30897 19.2408 4.10164 19.2408V17.2408ZM19.9032 17.2408H4.10164V19.2408H19.9032V17.2408ZM9.19005 22.5999H14.8137V20.5999H9.19005V22.5999ZM3.9282 6.37652C4.463 5.04239 5.41492 3.94156 6.64241 3.28028L5.69386 1.51953C4.02686 2.41757 2.76901 3.89308 2.0718 5.63236L3.9282 6.37652ZM17.326 3.28489C18.5894 3.98297 19.5652 5.06285 20.0679 6.35674L21.9321 5.63246C21.2476 3.87055 19.9361 2.44203 18.2932 1.53432L17.326 3.28489Z" fill="currentColor"/>
</g>
</svg>
