<svg width="24" height="24" viewBox="0 0 24 24" fill="none" xmlns="http://www.w3.org/2000/svg">
<g id="bell-ringing-04">
<path id="Icon" d="M8.69686 21.6229L8.19463 20.7581L8.69686 21.6229ZM7.87037 20.9977L6.87793 20.875V20.875L7.87037 20.9977ZM7.21612 17.5006L6.34276 17.9878L6.34881 17.9983L7.21612 17.5006ZM6.22841 15.7301L7.10177 15.2429L7.09572 15.2323L6.22841 15.7301ZM21.7707 14.0296L22.2729 14.8943L21.7707 14.0296ZM21.6584 13.0084L22.0681 12.0962L22.0681 12.0962L21.6584 13.0084ZM19.005 10.6536L18.1313 11.1403L18.1377 11.1514L19.005 10.6536ZM18.0673 8.97025L18.941 8.48357L18.9346 8.47249L18.0673 8.97025ZM8.68537 6.41728L9.18761 7.28201L8.68537 6.41728ZM14.8833 21.5403L15.3855 22.4051L14.8833 21.5403ZM1.0776 11.6167C1.15548 12.1635 1.66186 12.5436 2.20863 12.4657C2.75539 12.3878 3.13549 11.8815 3.05761 11.3347L1.0776 11.6167ZM3.76303 7.75984C4.0519 7.28913 3.90449 6.67336 3.43377 6.38449C2.96306 6.09562 2.34729 6.24304 2.05842 6.71375L3.76303 7.75984ZM11.9236 1.00139C11.3715 1.01187 10.9323 1.468 10.9428 2.02018C10.9533 2.57237 11.4094 3.01151 11.9616 3.00103L11.9236 1.00139ZM15.3935 4.13873C15.8231 4.4858 16.4527 4.41889 16.7998 3.98928C17.1469 3.55967 17.08 2.93005 16.6503 2.58298L15.3935 4.13873ZM8.86282 21.1204C9.00273 19.9889 8.91814 18.4572 8.08343 17.0028L6.34881 17.9983C6.90678 18.9705 6.98206 20.0328 6.87793 20.875L8.86282 21.1204ZM8.08941 17.0134L7.1017 15.2429L5.35512 16.2173L6.34283 17.9878L8.08941 17.0134ZM22.0681 12.0962C21.3129 11.757 20.4407 11.1462 19.8723 10.1558L18.1377 11.1514C18.9715 12.6042 20.2244 13.4606 21.2487 13.9206L22.0681 12.0962ZM19.8786 10.167L18.9409 8.48361L17.1937 9.4569L18.1314 11.1402L19.8786 10.167ZM18.9346 8.47249C16.7601 4.68359 11.948 3.36591 8.18314 5.55255L9.18761 7.28201C11.9812 5.65952 15.57 6.62785 17.2 9.46802L18.9346 8.47249ZM22.2729 14.8943C22.9092 14.5248 23.0443 13.8461 22.9874 13.3828C22.9307 12.9205 22.656 12.3602 22.0681 12.0962L21.2487 13.9206C21.045 13.8292 21.0081 13.674 21.0023 13.6264C20.9963 13.5778 20.9955 13.3234 21.2684 13.1649L22.2729 14.8943ZM7.09572 15.2323C5.49135 12.4369 6.43808 8.87893 9.18761 7.28201L8.18314 5.55255C4.46944 7.70946 3.21613 12.4905 5.3611 16.2279L7.09572 15.2323ZM8.19463 20.7581C8.47644 20.5944 8.7025 20.7315 8.73926 20.76C8.7758 20.7884 8.89022 20.8987 8.86282 21.1204L6.87793 20.875C6.79794 21.5219 7.1417 22.0517 7.51267 22.3397C7.88387 22.6279 8.54947 22.8649 9.1991 22.4876L8.19463 20.7581ZM21.2684 13.1649L8.19463 20.7581L9.1991 22.4876L22.2729 14.8943L21.2684 13.1649ZM15.2966 17.7838C15.8291 18.7115 15.4976 20.0271 14.381 20.6756L15.3855 22.4051C17.3527 21.2626 18.1679 18.7687 17.0312 16.7882L15.2966 17.7838ZM14.381 20.6756C13.2672 21.3225 11.9778 20.9546 11.4478 20.0311L9.71314 21.0266C10.8522 23.0114 13.4157 23.5492 15.3855 22.4051L14.381 20.6756ZM8.60468 3.96181C8.92562 4.521 8.73278 5.23331 8.18314 5.55255L9.18761 7.28201C10.6937 6.40725 11.2053 4.47514 10.3393 2.96627L8.60468 3.96181ZM8.18314 5.55255C7.63701 5.86974 6.93593 5.68393 6.61698 5.12819L4.88236 6.12373C5.75031 7.63605 7.67795 8.15882 9.18761 7.28201L8.18314 5.55255ZM6.61698 5.12819C6.29604 4.569 6.48888 3.85668 7.03852 3.53745L6.03405 1.80799C4.52792 2.68275 4.01639 4.61486 4.88236 6.12373L6.61698 5.12819ZM7.03852 3.53745C7.58465 3.22026 8.28573 3.40607 8.60468 3.96181L10.3393 2.96627C9.47134 1.45394 7.54371 0.93118 6.03405 1.80799L7.03852 3.53745ZM3.05761 11.3347C2.87789 10.073 3.11981 8.80798 3.76303 7.75984L2.05842 6.71375C1.15505 8.1858 0.83674 9.9259 1.0776 11.6167L3.05761 11.3347ZM11.9616 3.00103C13.2297 2.97698 14.4448 3.37229 15.3935 4.13873L16.6503 2.58298C15.3102 1.50032 13.6284 0.969053 11.9236 1.00139L11.9616 3.00103Z" fill="currentColor"/>
</g>
</svg>
