<svg width="24" height="24" viewBox="0 0 24 24" fill="none" xmlns="http://www.w3.org/2000/svg">
<g id="bell-off-01">
<path id="Icon" d="M20.4181 16.5984C19.817 15.714 19.2331 14.4103 19.2331 12.8382L19.2589 10.6879C19.2589 6.42243 16.0326 2.96461 12.0527 2.96461C11.6245 2.96461 11.2052 3.00522 10.7979 3.08304M9.22913 20.6587C9.97844 21.244 10.9679 21.5999 12.0527 21.5999C13.1374 21.5999 14.1269 21.244 14.8762 20.6587M16.0056 17.6469H4.11953C3.67311 17.6469 3.42378 16.9612 3.69382 16.5802C4.32042 15.6962 4.92521 14.3996 4.92521 12.8382L4.95106 10.5757C4.95106 8.76168 5.54322 7.09585 6.53167 5.78816M18.2645 20.4706L5.27616 2.3999" stroke="currentColor" stroke-width="2" stroke-linecap="round"/>
</g>
</svg>
