<svg width="24" height="24" viewBox="0 0 24 24" fill="none" xmlns="http://www.w3.org/2000/svg">
<g id="bell-01">
<path id="Icon" d="M3.11877 16.8666L2.30292 16.2884L2.30292 16.2884L3.11877 16.8666ZM4.42712 12.8908L3.42712 12.8793V12.8908H4.42712ZM4.45458 10.4869L5.45458 10.4983V10.4869H4.45458ZM20.8882 16.8859L21.7153 16.3238L21.7153 16.3238L20.8882 16.8859ZM19.6291 12.8908L18.6291 12.8787V12.8908H19.6291ZM19.6566 10.606L20.6566 10.6181V10.606H19.6566ZM9 20.6C8.44772 20.6 8 21.0477 8 21.6C8 22.1523 8.44772 22.6 9 22.6V20.6ZM15 22.6C15.5523 22.6 16 22.1523 16 21.6C16 21.0477 15.5523 20.6 15 20.6V22.6ZM3.93462 17.4449C4.68473 16.3866 5.42712 14.8108 5.42712 12.8908H3.42712C3.42712 14.2887 2.88433 15.4681 2.30292 16.2884L3.93462 17.4449ZM5.42706 12.9022L5.45452 10.4983L3.45465 10.4755L3.42719 12.8793L5.42706 12.9022ZM21.7153 16.3238C21.158 15.5039 20.6291 14.3114 20.6291 12.8908H18.6291C18.6291 14.8108 19.3411 16.3886 20.0612 17.4481L21.7153 16.3238ZM20.629 12.9028L20.6565 10.618L18.6566 10.594L18.6292 12.8787L20.629 12.9028ZM20.6566 10.606C20.6566 5.58815 16.845 1.40015 12 1.40015V3.40015C15.6122 3.40015 18.6566 6.55994 18.6566 10.606H20.6566ZM20.43 19C21.2272 19 21.6917 18.4071 21.8676 17.9643C22.0475 17.5114 22.0848 16.8675 21.7153 16.3238L20.0612 17.4481C20.0114 17.3748 20.0017 17.3119 20.0003 17.2843C19.9989 17.2577 20.0031 17.2406 20.0088 17.226C20.0139 17.2133 20.0337 17.1687 20.0942 17.1178C20.1622 17.0606 20.2799 17 20.43 17V19ZM5.45458 10.4869C5.45458 6.50661 8.4492 3.40015 12 3.40015V1.40015C7.21637 1.40015 3.45458 5.53482 3.45458 10.4869H5.45458ZM3.57109 17C3.72452 17 3.84358 17.063 3.91081 17.1206C3.9704 17.1717 3.98865 17.2153 3.99263 17.2257C3.99738 17.238 4.00128 17.2533 3.99962 17.279C3.9979 17.3056 3.9876 17.3701 3.93462 17.4449L2.30292 16.2884C1.9164 16.8337 1.95063 17.4885 2.12631 17.9446C2.2976 18.3893 2.76091 19 3.57109 19V17ZM20.43 17H3.57109V19H20.43V17ZM9 22.6H15V20.6H9V22.6Z" fill="currentColor"/>
</g>
</svg>
