<svg width="24" height="24" viewBox="0 0 24 24" fill="none" xmlns="http://www.w3.org/2000/svg">
<g id="bell-ringing-02">
<path id="Icon" d="M3.67666 16.7742L2.87061 16.1824L2.87061 16.1824L3.67666 16.7742ZM4.903 13.1768L3.903 13.165V13.1768H4.903ZM4.92874 11.0018L5.92874 11.0137V11.0018H4.92874ZM20.3324 16.7917L21.15 16.216L21.15 16.216L20.3324 16.7917ZM19.1522 13.1768L18.1522 13.1644V13.1768H19.1522ZM19.1779 11.1096L20.1779 11.1221V11.1096H19.1779ZM9.79131 19.8966C9.35033 19.5641 8.7233 19.6521 8.3908 20.093C8.0583 20.534 8.14624 21.1611 8.58722 21.4936L9.79131 19.8966ZM15.4152 21.4936C15.8562 21.1611 15.9442 20.534 15.6117 20.093C15.2792 19.6521 14.6521 19.5641 14.2111 19.8966L15.4152 21.4936ZM2.07181 5.63229C1.8663 6.14492 2.11527 6.72708 2.6279 6.93259C3.14053 7.13809 3.72269 6.88912 3.92819 6.37649L2.07181 5.63229ZM6.64253 3.28029C7.12876 3.01837 7.31059 2.41187 7.04867 1.92565C6.78674 1.43942 6.18025 1.25759 5.69402 1.51952L6.64253 3.28029ZM18.293 1.53434C17.8096 1.26726 17.2012 1.44264 16.9341 1.92606C16.6671 2.40947 16.8424 3.01786 17.3258 3.28494L18.293 1.53434ZM20.0679 6.35675C20.2679 6.87154 20.8474 7.12672 21.3622 6.9267C21.877 6.72669 22.1321 6.14722 21.9321 5.63243L20.0679 6.35675ZM4.48271 17.3661C5.19348 16.3981 5.903 14.9487 5.903 13.1768H3.903C3.903 14.407 3.4079 15.4506 2.87061 16.1824L4.48271 17.3661ZM5.90293 13.1887L5.92867 11.0137L3.92881 10.99L3.90307 13.165L5.90293 13.1887ZM21.15 16.216C20.6353 15.485 20.1522 14.4291 20.1522 13.1768H18.1522C18.1522 14.9473 18.8321 16.3979 19.5147 17.3674L21.15 16.216ZM20.1521 13.1893L20.1778 11.122L18.178 11.0971L18.1522 13.1644L20.1521 13.1893ZM20.1779 11.1096C20.1779 6.48905 16.5488 2.68486 12.0012 2.68486V4.68486C15.3807 4.68486 18.1779 7.52901 18.1779 11.1096H20.1779ZM19.9029 18.7997C20.6648 18.7997 21.1248 18.2494 21.304 17.8139C21.4845 17.3752 21.523 16.7457 21.15 16.216L19.5147 17.3674C19.4555 17.2834 19.4401 17.2048 19.4376 17.1591C19.4351 17.1151 19.4428 17.0811 19.4544 17.0529C19.4655 17.0259 19.4935 16.9725 19.5612 16.9176C19.6359 16.8569 19.7557 16.7997 19.9029 16.7997V18.7997ZM5.92874 11.0018C5.92874 7.48076 8.67925 4.68486 12.0012 4.68486V2.68486C7.51116 2.68486 3.92874 6.4408 3.92874 11.0018H5.92874ZM4.10062 16.7997C4.25103 16.7997 4.37233 16.8592 4.44655 16.9206C4.51344 16.9759 4.53989 17.0287 4.54985 17.0537C4.56038 17.0801 4.5676 17.1125 4.56469 17.1558C4.56168 17.2008 4.54525 17.2809 4.48271 17.3661L2.87061 16.1824C2.48078 16.7133 2.51603 17.3532 2.69229 17.795C2.86688 18.2325 3.32603 18.7997 4.10062 18.7997V16.7997ZM19.9029 16.7997H4.10062V18.7997H19.9029V16.7997ZM12.0012 20.5999C11.13 20.5999 10.3577 20.3237 9.79131 19.8966L8.58722 21.4936C9.51332 22.1918 10.7119 22.5999 12.0012 22.5999V20.5999ZM14.2111 19.8966C13.6448 20.3237 12.8724 20.5999 12.0012 20.5999V22.5999C13.2906 22.5999 14.4891 22.1918 15.4152 21.4936L14.2111 19.8966ZM3.92819 6.37649C4.46301 5.04239 5.41497 3.94157 6.64253 3.28029L5.69402 1.51952C4.02696 2.41754 2.76905 3.89303 2.07181 5.63229L3.92819 6.37649ZM17.3258 3.28494C18.5894 3.98301 19.5652 5.06289 20.0679 6.35675L21.9321 5.63243C21.2476 3.87053 19.936 2.44204 18.293 1.53434L17.3258 3.28494Z" fill="currentColor"/>
</g>
</svg>
