<svg width="24" height="24" viewBox="0 0 24 24" fill="none" xmlns="http://www.w3.org/2000/svg">
<g id="bell-04">
<path id="Icon" d="M6.46067 22.47L5.96067 21.604H5.96067L6.46067 22.47ZM5.53768 21.776L4.54533 21.6525L5.53768 21.776ZM4.80704 17.8938L3.93492 18.3832L3.94102 18.3938L4.80704 17.8938ZM3.70401 15.9283L4.57613 15.4389L4.57004 15.4283L3.70401 15.9283ZM21.0609 14.0405L21.5609 14.9066L21.0609 14.0405ZM20.9355 12.9069L21.3432 11.9938L21.3432 11.9938L20.9355 12.9069ZM17.9723 10.2928L17.0999 10.7817L17.1063 10.7928L17.9723 10.2928ZM16.9251 8.42406L17.7976 7.93516L17.7912 7.92406L16.9251 8.42406ZM6.44784 5.58995L6.94784 6.45597L6.44784 5.58995ZM13.3694 22.3784L13.8694 23.2444L13.3694 22.3784ZM6.53004 21.8994C6.68443 20.6582 6.59032 18.9825 5.67307 17.3938L3.94102 18.3938C4.57905 19.4989 4.66347 20.7028 4.54533 21.6525L6.53004 21.8994ZM5.6791 17.4044L4.57607 15.4389L2.83196 16.4178L3.93499 18.3832L5.6791 17.4044ZM21.3432 11.9938C20.4834 11.6099 19.4878 10.9176 18.8384 9.79278L17.1063 10.7928C18.0229 12.3803 19.4005 13.3167 20.5279 13.82L21.3432 11.9938ZM18.8447 9.80392L17.7975 7.9352L16.0528 8.91292L17.1 10.7816L18.8447 9.80392ZM17.7912 7.92406C15.3929 3.77012 10.0921 2.33124 5.94784 4.72392L6.94784 6.45597C10.1277 4.62005 14.2086 5.71893 16.0591 8.92406L17.7912 7.92406ZM21.5609 14.9066C22.2189 14.5267 22.3641 13.8244 22.3037 13.3352C22.2435 12.8475 21.9528 12.266 21.3432 11.9938L20.5279 13.82C20.3473 13.7394 20.3222 13.6076 20.3188 13.5803C20.3152 13.5514 20.3086 13.3202 20.5609 13.1745L21.5609 14.9066ZM4.57004 15.4283C2.75039 12.2766 3.82109 8.2612 6.94784 6.45597L5.94784 4.72392C1.85675 7.08591 0.470546 12.3278 2.83799 16.4283L4.57004 15.4283ZM5.96067 21.604C6.07724 21.5367 6.19929 21.5261 6.28769 21.5397C6.36725 21.552 6.41356 21.5815 6.43413 21.5973C6.45555 21.6139 6.4783 21.638 6.49775 21.6777C6.51819 21.7196 6.54277 21.797 6.53004 21.8994L4.54533 21.6525C4.46157 22.3259 4.82189 22.8794 5.2121 23.1806C5.60295 23.4823 6.29175 23.7222 6.96067 23.336L5.96067 21.604ZM20.5609 13.1745L5.96067 21.604L6.96067 23.336L21.5609 14.9066L20.5609 13.1745ZM13.9335 18.1555C14.5595 19.2397 14.1664 20.7635 12.8694 21.5124L13.8694 23.2444C16.016 22.0051 16.9036 19.2999 15.6656 17.1555L13.9335 18.1555ZM12.8694 21.5124C11.5723 22.2612 10.0561 21.8397 9.4302 20.7555L7.69815 21.7555C8.93618 23.8999 11.7227 24.4838 13.8694 23.2444L12.8694 21.5124ZM6.46027 2.81148C6.84687 3.48109 6.61745 4.33732 5.94784 4.72392L6.94784 6.45597C8.57403 5.51709 9.13121 3.43768 8.19232 1.81148L6.46027 2.81148ZM5.94784 4.72392C5.27823 5.11052 4.422 4.88109 4.0354 4.21148L2.30335 5.21148C3.24223 6.83768 5.32164 7.39486 6.94784 6.45597L5.94784 4.72392ZM4.0354 4.21148C3.6488 3.54188 3.87823 2.68565 4.54784 2.29905L3.54784 0.566998C1.92164 1.50588 1.36447 3.58529 2.30335 5.21148L4.0354 4.21148ZM4.54784 2.29905C5.21745 1.91245 6.07367 2.14188 6.46027 2.81148L8.19232 1.81148C7.25344 0.18529 5.17403 -0.371886 3.54784 0.566998L4.54784 2.29905Z" fill="currentColor"/>
</g>
</svg>
