<svg width="24" height="26" viewBox="0 0 24 26" fill="none" xmlns="http://www.w3.org/2000/svg">
<g id="bell-03">
<path id="Icon" d="M3.11877 19.9625L2.32109 19.3595H2.32109L3.11877 19.9625ZM4.42712 16.2351L3.42712 16.2229V16.2351H4.42712ZM4.45458 13.9815L5.45458 13.9937V13.9815H4.45458ZM20.8882 19.9806L21.6978 19.3937L21.6978 19.3937L20.8882 19.9806ZM19.6291 16.2351L18.6291 16.2223V16.2351H19.6291ZM19.6566 14.0932L20.6566 14.106V14.0932H19.6566ZM3.91645 20.5656C4.67079 19.5679 5.42712 18.0696 5.42712 16.2351H3.42712C3.42712 17.5112 2.89827 18.596 2.32109 19.3595L3.91645 20.5656ZM5.42705 16.2473L5.45451 13.9937L3.45466 13.9693L3.4272 16.2229L5.42705 16.2473ZM21.6978 19.3937C21.1452 18.6313 20.6291 17.534 20.6291 16.2351H18.6291C18.6291 18.0682 19.3539 19.568 20.0786 20.5676L21.6978 19.3937ZM20.629 16.2479L20.6565 14.106L18.6566 14.0804L18.6292 16.2223L20.629 16.2479ZM20.6566 14.0932C20.6566 9.29661 16.7854 5.4001 12 5.4001V7.4001C15.6718 7.4001 18.6566 10.3922 18.6566 14.0932H20.6566ZM20.43 22.0251C21.1898 22.0251 21.6667 21.4895 21.859 21.0356C22.0507 20.5831 22.0897 19.9342 21.6978 19.3937L20.0786 20.5676C19.9625 20.4075 20.0067 20.2808 20.0174 20.2554C20.0288 20.2286 20.1387 20.0251 20.43 20.0251V22.0251ZM5.45458 13.9815C5.45458 10.3422 8.38955 7.4001 12 7.4001V5.4001C7.27602 5.4001 3.45458 9.24662 3.45458 13.9815H5.45458ZM3.57109 20.0251C3.70569 20.0251 3.81669 20.0769 3.88642 20.133C3.94916 20.1834 3.97456 20.232 3.98443 20.2561C3.99471 20.2811 4.00238 20.3133 3.99933 20.3575C3.99613 20.4039 3.97867 20.4833 3.91645 20.5656L2.32109 19.3595C1.91184 19.9008 1.94716 20.5602 2.13451 21.0162C2.32215 21.4729 2.79869 22.0251 3.57109 22.0251V20.0251ZM20.43 20.0251H3.57109V22.0251H20.43V20.0251ZM14.6 21.0251C14.6 22.277 13.4977 23.4001 12 23.4001V25.4001C14.4787 25.4001 16.6 23.5011 16.6 21.0251H14.6ZM12 23.4001C10.5023 23.4001 9.4 22.277 9.4 21.0251H7.4C7.4 23.5011 9.52126 25.4001 12 25.4001V23.4001ZM13.4 4.0001C13.4 4.7733 12.7732 5.4001 12 5.4001V7.4001C13.8778 7.4001 15.4 5.87787 15.4 4.0001H13.4ZM12 5.4001C11.2268 5.4001 10.6 4.7733 10.6 4.0001H8.6C8.6 5.87787 10.1222 7.4001 12 7.4001V5.4001ZM10.6 4.0001C10.6 3.2269 11.2268 2.6001 12 2.6001V0.600098C10.1222 0.600098 8.6 2.12233 8.6 4.0001H10.6ZM12 2.6001C12.7732 2.6001 13.4 3.2269 13.4 4.0001H15.4C15.4 2.12233 13.8778 0.600098 12 0.600098V2.6001Z" fill="currentColor"/>
</g>
</svg>
