<svg width="24" height="24" viewBox="0 0 24 24" fill="none" xmlns="http://www.w3.org/2000/svg">
<g id="bezier-01">
<path id="Vector" d="M4.5095 9.78034C5.26949 7.22674 7.37434 5.25234 10.0027 4.67851M9.47555 18.9637C7.09509 18.2553 5.21796 16.3781 4.5095 13.9977M18.6589 13.9977C17.9505 16.3781 16.0733 18.2553 13.6929 18.9637M13.1657 4.67851C15.9723 5.29125 18.182 7.50092 18.7947 10.3075M10.3634 6.8393H13.027C13.5173 6.8393 13.9149 6.44179 13.9149 5.95144V3.28786C13.9149 2.7975 13.5173 2.39999 13.027 2.39999H10.3634C9.87306 2.39999 9.47555 2.7975 9.47555 3.28785V5.95144C9.47555 6.44179 9.87306 6.8393 10.3634 6.8393ZM10.3634 21.6H13.027C13.5173 21.6 13.9149 21.2025 13.9149 20.7121V18.0485C13.9149 17.5582 13.5173 17.1607 13.027 17.1607H10.3634C9.87306 17.1607 9.47555 17.5582 9.47555 18.0485V20.7121C9.47555 21.2025 9.87306 21.6 10.3634 21.6ZM16.1065 10.6679V13.3315C16.1065 13.8219 16.504 14.2194 16.9944 14.2194H19.658C20.1483 14.2194 20.5458 13.8219 20.5458 13.3315V10.6679C20.5458 10.1776 20.1483 9.78008 19.658 9.78008H16.9944C16.504 9.78008 16.1065 10.1776 16.1065 10.6679ZM2.40015 10.6679L2.40015 13.3315C2.40015 13.8219 2.79766 14.2194 3.28801 14.2194H5.95159C6.44194 14.2194 6.83945 13.8219 6.83945 13.3315L6.83945 10.6679C6.83945 10.1776 6.44194 9.78008 5.95159 9.78008H3.28801C2.79766 9.78008 2.40015 10.1776 2.40015 10.6679Z" stroke="currentColor" stroke-width="2"/>
</g>
</svg>
