<svg width="24" height="24" viewBox="0 0 24 24" fill="none" xmlns="http://www.w3.org/2000/svg">
<g id="bezier-02">
<path id="Vector" d="M9.12639 7.63445C9.67867 7.63445 10.1264 7.18674 10.1264 6.63445C10.1264 6.08217 9.67867 5.63445 9.12639 5.63445V7.63445ZM3.623 5.63445C3.07071 5.63445 2.623 6.08217 2.623 6.63445C2.623 7.18674 3.07071 7.63445 3.623 7.63445V5.63445ZM20.4 7.63445C20.9523 7.63445 21.4 7.18674 21.4 6.63445C21.4 6.08217 20.9523 5.63445 20.4 5.63445V7.63445ZM14.6298 5.63445C14.0775 5.63445 13.6298 6.08217 13.6298 6.63445C13.6298 7.18674 14.0775 7.63445 14.6298 7.63445V5.63445ZM10.5161 5.79999H13.2307V3.79999H10.5161V5.79999ZM13.1356 5.70485V8.41943H15.1356V5.70485H13.1356ZM13.2307 8.32429H10.5161V10.3243H13.2307V8.32429ZM10.6113 8.41943V5.70485H8.61128V8.41943H10.6113ZM10.5161 8.32429C10.5687 8.32429 10.6113 8.36688 10.6113 8.41943H8.61128C8.61128 9.47146 9.46412 10.3243 10.5161 10.3243V8.32429ZM13.1356 8.41943C13.1356 8.36689 13.1782 8.32429 13.2307 8.32429V10.3243C14.2827 10.3243 15.1356 9.47145 15.1356 8.41943H13.1356ZM13.2307 5.79999C13.1782 5.79999 13.1356 5.75739 13.1356 5.70485H15.1356C15.1356 4.65283 14.2827 3.79999 13.2307 3.79999V5.79999ZM10.5161 3.79999C9.46412 3.79999 8.61128 4.65282 8.61128 5.70485H10.6113C10.6113 5.75739 10.5687 5.79999 10.5161 5.79999V3.79999ZM3.30488 15.5838H6.01947V13.5838H3.30488V15.5838ZM5.92432 15.4886V18.2032H7.92432V15.4886H5.92432ZM6.01947 18.1081H3.30488V20.1081H6.01947V18.1081ZM3.40002 18.2032V15.4886H1.40002V18.2032H3.40002ZM3.30488 18.1081C3.35743 18.1081 3.40002 18.1507 3.40002 18.2032H1.40002C1.40002 19.2553 2.25286 20.1081 3.30488 20.1081V18.1081ZM5.92432 18.2032C5.92432 18.1507 5.96692 18.1081 6.01947 18.1081V20.1081C7.07149 20.1081 7.92432 19.2553 7.92432 18.2032H5.92432ZM6.01947 15.5838C5.96692 15.5838 5.92432 15.5412 5.92432 15.4886H7.92432C7.92432 14.4366 7.07149 13.5838 6.01947 13.5838V15.5838ZM3.30488 13.5838C2.25286 13.5838 1.40002 14.4366 1.40002 15.4886H3.40002C3.40002 15.5412 3.35743 15.5838 3.30488 15.5838V13.5838ZM17.9806 15.5838H20.6952V13.5838H17.9806V15.5838ZM20.6 15.4886V18.2032H22.6V15.4886H20.6ZM20.6952 18.1081H17.9806V20.1081H20.6952V18.1081ZM18.0757 18.2032V15.4886H16.0757V18.2032H18.0757ZM17.9806 18.1081C18.0331 18.1081 18.0757 18.1507 18.0757 18.2032H16.0757C16.0757 19.2553 16.9286 20.1081 17.9806 20.1081V18.1081ZM20.6 18.2032C20.6 18.1507 20.6426 18.1081 20.6952 18.1081V20.1081C21.7472 20.1081 22.6 19.2553 22.6 18.2032H20.6ZM20.6952 15.5838C20.6426 15.5838 20.6 15.5412 20.6 15.4886H22.6C22.6 14.4366 21.7472 13.5838 20.6952 13.5838V15.5838ZM17.9806 13.5838C16.9286 13.5838 16.0757 14.4366 16.0757 15.4886H18.0757C18.0757 15.5412 18.0331 15.5838 17.9806 15.5838V13.5838ZM9.12639 5.63445H3.623V7.63445H9.12639V5.63445ZM20.4 5.63445H14.6298V7.63445H20.4V5.63445ZM3.84597 13.3608V14.5838H5.84597V13.3608H3.84597ZM18.5217 13.3608V14.5838H20.5217V13.3608H18.5217ZM5.84597 13.3608C5.84597 11.0162 7.11863 8.9676 9.01562 7.87024L8.01417 6.13903C5.52459 7.57917 3.84597 10.2734 3.84597 13.3608H5.84597ZM15.352 7.87024C17.249 8.9676 18.5217 11.0162 18.5217 13.3608H20.5217C20.5217 10.2734 18.8431 7.57917 16.3535 6.13903L15.352 7.87024Z" fill="currentColor"/>
</g>
</svg>
