<svg width="24" height="24" viewBox="0 0 24 24" fill="none" xmlns="http://www.w3.org/2000/svg">
<g id="bluetooth-01">
<path id="Icon" d="M8.00002 21.6H7.00002C7.00002 21.9858 7.22192 22.3372 7.57025 22.503C7.91858 22.6688 8.33121 22.6194 8.63062 22.3761L8.00002 21.6ZM8.00002 2.40002L8.63062 1.62391C8.33121 1.38064 7.91858 1.33129 7.57025 1.49709C7.22192 1.66288 7.00002 2.01425 7.00002 2.40002H8.00002ZM14.4 7.60002L14.9678 8.42324C15.227 8.24445 15.3869 7.95398 15.3993 7.6393C15.4116 7.32462 15.275 7.0225 15.0306 6.82391L14.4 7.60002ZM14.4 16.4L15.0306 17.1761C15.275 16.9776 15.4116 16.6754 15.3993 16.3608C15.3869 16.0461 15.227 15.7556 14.9678 15.5768L14.4 16.4ZM2.96776 7.30095C2.51311 6.9874 1.89036 7.10178 1.57681 7.55643C1.26326 8.01108 1.37764 8.63382 1.83229 8.94737L2.96776 7.30095ZM1.83229 15.0527C1.37764 15.3662 1.26326 15.989 1.57681 16.4436C1.89036 16.8983 2.51311 17.0126 2.96776 16.6991L1.83229 15.0527ZM17.255 9.03064C16.7632 8.77934 16.1608 8.9743 15.9095 9.4661C15.6582 9.9579 15.8532 10.5603 16.345 10.8116L17.255 9.03064ZM16.345 13.1885C15.8532 13.4398 15.6582 14.0422 15.9095 14.534C16.1608 15.0258 16.7632 15.2207 17.255 14.9694L16.345 13.1885ZM19.3911 6.33872C18.9154 6.05811 18.3023 6.21625 18.0217 6.69194C17.7411 7.16763 17.8993 7.78072 18.375 8.06133L19.3911 6.33872ZM18.375 15.9387C17.8993 16.2193 17.7411 16.8324 18.0217 17.3081C18.3023 17.7838 18.9154 17.9419 19.3911 17.6613L18.375 15.9387ZM9.00002 21.6V12.0138H7.00002V21.6H9.00002ZM9.00002 12.0138V11.9862H7.00002V12.0138H9.00002ZM9.00002 11.9862V2.40002H7.00002V11.9862H9.00002ZM7.36943 3.17614L13.7694 8.37614L15.0306 6.82391L8.63062 1.62391L7.36943 3.17614ZM8.63062 22.3761L15.0306 17.1761L13.7694 15.6239L7.36943 20.8239L8.63062 22.3761ZM14.9678 15.5768L8.58776 11.1768L7.45229 12.8232L13.8323 17.2232L14.9678 15.5768ZM8.58774 11.1768L8.56774 11.163L7.4323 12.8095L7.4523 12.8232L8.58774 11.1768ZM8.56776 11.163L2.96776 7.30095L1.83229 8.94737L7.43229 12.8094L8.56776 11.163ZM13.8323 6.77681L7.45229 11.1768L8.58776 12.8232L14.9678 8.42324L13.8323 6.77681ZM7.4523 11.1768L7.4323 11.1906L8.56774 12.837L8.58774 12.8232L7.4523 11.1768ZM7.43229 11.1906L1.83229 15.0527L2.96776 16.6991L8.56776 12.837L7.43229 11.1906ZM16.345 10.8116C16.879 11.0845 17.1585 11.5467 17.1585 12H19.1585C19.1585 10.6767 18.3453 9.58772 17.255 9.03064L16.345 10.8116ZM17.1585 12C17.1585 12.4534 16.879 12.9156 16.345 13.1885L17.255 14.9694C18.3453 14.4124 19.1585 13.3234 19.1585 12H17.1585ZM18.375 8.06133C19.7012 8.8437 20.6 10.3108 20.6 12H22.6C22.6 9.58708 21.3133 7.47259 19.3911 6.33872L18.375 8.06133ZM20.6 12C20.6 13.6892 19.7012 15.1563 18.375 15.9387L19.3911 17.6613C21.3133 16.5275 22.6 14.413 22.6 12H20.6Z" fill="currentColor"/>
</g>
</svg>
