<svg width="24" height="24" viewBox="0 0 24 24" fill="none" xmlns="http://www.w3.org/2000/svg">
<g id="bold-02">
<path id="Vector" d="M8.40002 16.8H7.40002V17.8H8.40002V16.8ZM8.40002 7.20002V6.20002H7.40002V7.20002H8.40002ZM13.26 15.8H8.40002V17.8H13.26V15.8ZM9.40002 16.8V12H7.40002V16.8H9.40002ZM16.6 14.4C16.6 12.5463 15.1284 11 13.26 11V13C13.9764 13 14.6 13.6028 14.6 14.4H16.6ZM13.26 17.8C15.1284 17.8 16.6 16.2538 16.6 14.4H14.6C14.6 15.1972 13.9764 15.8 13.26 15.8V17.8ZM12.54 11H8.40002V13H12.54V11ZM9.40002 12V7.20002H7.40002V12H9.40002ZM12.54 6.20002H8.40002V8.20002H12.54V6.20002ZM15.88 9.60002C15.88 7.74627 14.4084 6.20002 12.54 6.20002V8.20002C13.2564 8.20002 13.88 8.80281 13.88 9.60002H15.88ZM12.54 13C14.4084 13 15.88 11.4538 15.88 9.60002H13.88C13.88 10.3972 13.2564 11 12.54 11V13ZM13.26 11H8.40002V13H13.26V11ZM4.80002 3.40002H19.2V1.40002H4.80002V3.40002ZM20.6 4.80002V19.2H22.6V4.80002H20.6ZM19.2 20.6H4.80002V22.6H19.2V20.6ZM3.40002 19.2V4.80002H1.40002V19.2H3.40002ZM4.80002 20.6C4.02683 20.6 3.40002 19.9732 3.40002 19.2H1.40002C1.40002 21.0778 2.92226 22.6 4.80002 22.6V20.6ZM20.6 19.2C20.6 19.9732 19.9732 20.6 19.2 20.6V22.6C21.0778 22.6 22.6 21.0778 22.6 19.2H20.6ZM19.2 3.40002C19.9732 3.40002 20.6 4.02683 20.6 4.80002H22.6C22.6 2.92226 21.0778 1.40002 19.2 1.40002V3.40002ZM4.80002 1.40002C2.92226 1.40002 1.40002 2.92226 1.40002 4.80002H3.40002C3.40002 4.02683 4.02683 3.40002 4.80002 3.40002V1.40002Z" fill="currentColor"/>
</g>
</svg>
