<svg width="24" height="24" viewBox="0 0 24 24" fill="none" xmlns="http://www.w3.org/2000/svg">
<g id="brackets-plus">
<path id="Vector" d="M7.08913 20.2376H6.5822C5.18235 20.2376 4.04755 19.1028 4.04755 17.7029V12.6336C4.04755 11.8528 2.40002 11.493 2.40002 11.493C2.40002 11.493 4.04755 11.1923 4.04755 10.3524V6.29698C4.04755 4.89713 5.18235 3.76233 6.5822 3.76233H7.08913M16.9109 3.76233H17.4178C18.8177 3.76233 19.9525 4.89713 19.9525 6.29698V11.3663C19.9525 12.1471 21.6 12.5069 21.6 12.5069C21.6 12.5069 19.9525 12.8076 19.9525 13.6475L19.9525 17.7029C19.9525 19.1028 18.8177 20.2376 17.4178 20.2376H16.9109M9.60002 12.1623H14.4M12 14.5623V9.76233" stroke="currentColor" stroke-width="2" stroke-linecap="round" stroke-linejoin="round"/>
</g>
</svg>
