<svg width="24" height="24" viewBox="0 0 24 24" fill="none" xmlns="http://www.w3.org/2000/svg">
<g id="brackets">
<path id="Vector" d="M7.08913 20.2377H6.5822C5.18235 20.2377 4.04755 19.1029 4.04755 17.703V12.6337C4.04755 11.8529 2.40002 11.4931 2.40002 11.4931C2.40002 11.4931 4.04755 11.1925 4.04755 10.3526V6.29711C4.04755 4.89725 5.18235 3.76245 6.5822 3.76245H7.08913M16.9109 3.76245H17.4178C18.8177 3.76245 19.9525 4.89725 19.9525 6.29711V11.3664C19.9525 12.1472 21.6 12.507 21.6 12.507C21.6 12.507 19.9525 12.8077 19.9525 13.6476L19.9525 17.703C19.9525 19.1029 18.8177 20.2377 17.4178 20.2377H16.9109" stroke="currentColor" stroke-width="2" stroke-linecap="round" stroke-linejoin="round"/>
</g>
</svg>
