<svg width="24" height="24" viewBox="0 0 24 24" fill="none" xmlns="http://www.w3.org/2000/svg">
<g id="camera-01">
<path id="Icon" d="M7.20002 6.11999V7.11999C7.55569 7.11999 7.88459 6.93108 8.0638 6.62386L7.20002 6.11999ZM8.88002 3.23999V2.23999C8.52436 2.23999 8.19546 2.4289 8.01624 2.73612L8.88002 3.23999ZM15.12 3.23999L15.9838 2.73612C15.8046 2.4289 15.4757 2.23999 15.12 2.23999V3.23999ZM16.8 6.11999L15.9362 6.62386C16.1155 6.93108 16.4444 7.11999 16.8 7.11999V6.11999ZM3.40002 18.36V8.51999H1.40002V18.36H3.40002ZM4.80002 7.11999H7.20002V5.11999H4.80002V7.11999ZM8.0638 6.62386L9.7438 3.74386L8.01624 2.73612L6.33624 5.61612L8.0638 6.62386ZM8.88002 4.23999H15.12V2.23999H8.88002V4.23999ZM14.2562 3.74386L15.9362 6.62386L17.6638 5.61612L15.9838 2.73612L14.2562 3.74386ZM16.8 7.11999H19.2V5.11999H16.8V7.11999ZM20.6 8.51999V18.36H22.6V8.51999H20.6ZM20.6 18.36C20.6 19.1332 19.9732 19.76 19.2 19.76V21.76C21.0778 21.76 22.6 20.2378 22.6 18.36H20.6ZM19.2 7.11999C19.9732 7.11999 20.6 7.74679 20.6 8.51999H22.6C22.6 6.64222 21.0778 5.11999 19.2 5.11999V7.11999ZM3.40002 8.51999C3.40002 7.74679 4.02682 7.11999 4.80002 7.11999V5.11999C2.92226 5.11999 1.40002 6.64222 1.40002 8.51999H3.40002ZM4.80002 19.76C4.02683 19.76 3.40002 19.1332 3.40002 18.36H1.40002C1.40002 20.2378 2.92226 21.76 4.80002 21.76V19.76ZM14.6 12.84C14.6 14.2759 13.436 15.44 12 15.44V17.44C14.5405 17.44 16.6 15.3805 16.6 12.84H14.6ZM12 15.44C10.5641 15.44 9.40002 14.2759 9.40002 12.84H7.40002C7.40002 15.3805 9.45951 17.44 12 17.44V15.44ZM9.40002 12.84C9.40002 11.404 10.5641 10.24 12 10.24V8.23999C9.45951 8.23999 7.40002 10.2995 7.40002 12.84H9.40002ZM12 10.24C13.436 10.24 14.6 11.404 14.6 12.84H16.6C16.6 10.2995 14.5405 8.23999 12 8.23999V10.24ZM19.2 19.76H4.80002V21.76H19.2V19.76Z" fill="currentColor"/>
</g>
</svg>
