<svg width="24" height="24" viewBox="0 0 24 24" fill="none" xmlns="http://www.w3.org/2000/svg">
<g id="camera-off">
<path id="Icon" d="M2.40002 7.97995V17.82C2.40002 19.1454 3.47454 20.22 4.80002 20.22H14.4M6.00002 5.57995H7.20002L8.88002 2.69995H15.12L16.8 5.57995H19.2C20.5255 5.57995 21.6 6.65447 21.6 7.97995V17.82C21.6 18.7083 21.1174 19.4839 20.4 19.8989M14.6834 14.7C15.2534 14.063 15.6 13.222 15.6 12.3C15.6 10.3117 13.9882 8.69995 12 8.69995C11.078 8.69995 10.2369 9.04658 9.60002 9.61662M11.4 15.8502C9.84277 15.5889 8.62453 14.3279 8.42784 12.7497M21 21.3L3.00002 2.69995" stroke="currentColor" stroke-width="2" stroke-linecap="round" stroke-linejoin="round"/>
</g>
</svg>
