<svg width="24" height="24" viewBox="0 0 24 24" fill="none" xmlns="http://www.w3.org/2000/svg">
<g id="camera-02">
<path id="Icon" d="M3.40002 18.12V5.87998H1.40002V18.12H3.40002ZM4.80002 4.47998H19.2V2.47998H4.80002V4.47998ZM20.6 5.87998V18.12H22.6V5.87998H20.6ZM20.6 18.12C20.6 18.8932 19.9732 19.52 19.2 19.52V21.52C21.0778 21.52 22.6 19.9978 22.6 18.12H20.6ZM19.2 4.47998C19.9732 4.47998 20.6 5.10678 20.6 5.87998H22.6C22.6 4.00221 21.0778 2.47998 19.2 2.47998V4.47998ZM3.40002 5.87998C3.40002 5.10678 4.02682 4.47998 4.80002 4.47998V2.47998C2.92226 2.47998 1.40002 4.00221 1.40002 5.87998H3.40002ZM4.80002 19.52C4.02683 19.52 3.40002 18.8932 3.40002 18.12H1.40002C1.40002 19.9978 2.92226 21.52 4.80002 21.52V19.52ZM14.6 12.0001C14.6 13.436 13.436 14.6001 12 14.6001V16.6001C14.5405 16.6001 16.6 14.5406 16.6 12.0001H14.6ZM12 14.6001C10.5641 14.6001 9.40002 13.436 9.40002 12.0001H7.40002C7.40002 14.5406 9.45951 16.6001 12 16.6001V14.6001ZM9.40002 12.0001C9.40002 10.5642 10.5641 9.4001 12 9.4001V7.4001C9.45951 7.4001 7.40002 9.45959 7.40002 12.0001H9.40002ZM12 9.4001C13.436 9.4001 14.6 10.5642 14.6 12.0001H16.6C16.6 9.45959 14.5405 7.4001 12 7.4001V9.4001ZM19.2 19.52H4.80002V21.52H19.2V19.52Z" fill="currentColor"/>
</g>
</svg>
