<svg width="24" height="24" viewBox="0 0 24 24" fill="none" xmlns="http://www.w3.org/2000/svg">
<g id="card-edit">
<path id="Icon" d="M1.50099 15.66L0.500989 15.66L1.50099 15.66ZM1.50073 6.66014L2.50073 6.66011L1.50073 6.66014ZM11.7006 19.0601C12.2529 19.0601 12.7007 18.6124 12.7007 18.0601C12.7007 17.5078 12.253 17.0601 11.7007 17.0601L11.7006 19.0601ZM3.90095 18.0599L3.90097 17.0599H3.90096L3.90095 18.0599ZM20.7002 6.65891L19.7002 6.65892V6.65893L20.7002 6.65891ZM2.10027 7.45992C1.54799 7.45992 1.10027 7.90764 1.10027 8.45992C1.10027 9.01221 1.54799 9.45992 2.10027 9.45992V7.45992ZM20.1003 9.45992C20.6526 9.45992 21.1003 9.01221 21.1003 8.45992C21.1003 7.90764 20.6526 7.45992 20.1003 7.45992V9.45992ZM15.2993 16.8599L14.5922 16.1528C14.4047 16.3404 14.2993 16.5947 14.2993 16.8599H15.2993ZM19.6193 12.5399L20.3264 11.8328C19.9359 11.4423 19.3027 11.4423 18.9122 11.8328L19.6193 12.5399ZM22.4993 15.4199L23.2064 16.127C23.394 15.9395 23.4993 15.6851 23.4993 15.4199C23.4993 15.1547 23.394 14.9004 23.2064 14.7128L22.4993 15.4199ZM18.1793 19.7399V20.7399C18.4445 20.7399 18.6989 20.6346 18.8864 20.447L18.1793 19.7399ZM15.2993 19.7399H14.2993C14.2993 20.2922 14.747 20.7399 15.2993 20.7399V19.7399ZM3.90073 5.26007H18.3V3.26007H3.90073V5.26007ZM2.50099 15.66L2.50073 6.66011L0.500732 6.66017L0.500989 15.66L2.50099 15.66ZM11.7007 17.0601L3.90097 17.0599L3.90093 19.0599L11.7006 19.0601L11.7007 17.0601ZM19.7002 6.65893L19.7003 9.06009L21.7003 9.06005L21.7002 6.65889L19.7002 6.65893ZM3.90073 3.26007C2.02293 3.26007 0.500679 4.78236 0.500732 6.66017L2.50073 6.66011C2.50071 5.8869 3.12752 5.26007 3.90073 5.26007V3.26007ZM18.3 5.26007C19.074 5.26007 19.7002 5.88635 19.7002 6.65892L21.7002 6.65891C21.7002 4.78031 20.1772 3.26007 18.3 3.26007V5.26007ZM0.500989 15.66C0.501043 17.5377 2.02322 19.0599 3.90093 19.0599L3.90096 17.0599C3.12779 17.0599 2.50101 16.4331 2.50099 15.66L0.500989 15.66ZM2.10027 9.45992H20.1003V7.45992H2.10027V9.45992ZM16.0064 17.567L20.3264 13.247L18.9122 11.8328L14.5922 16.1528L16.0064 17.567ZM18.9122 13.247L21.7922 16.127L23.2064 14.7128L20.3264 11.8328L18.9122 13.247ZM21.7922 14.7128L17.4722 19.0328L18.8864 20.447L23.2064 16.127L21.7922 14.7128ZM18.1793 18.7399H15.2993V20.7399H18.1793V18.7399ZM16.2993 19.7399V16.8599H14.2993V19.7399H16.2993Z" fill="currentColor"/>
</g>
</svg>
