<svg width="24" height="24" viewBox="0 0 24 24" fill="none" xmlns="http://www.w3.org/2000/svg">
<g id="card-shield">
<path id="Icon" d="M1.80055 15.4124L0.80055 15.4125L1.80055 15.4124ZM1.80029 6.41258L2.80029 6.41255L1.80029 6.41258ZM12.0002 18.8125C12.5525 18.8125 13.0002 18.3648 13.0002 17.8125C13.0002 17.2602 12.5525 16.8125 12.0002 16.8125L12.0002 18.8125ZM4.20051 17.8124L4.20053 16.8124H4.20053L4.20051 17.8124ZM20.9998 6.41244L19.9998 6.41245V6.41246L20.9998 6.41244ZM2.39983 7.21236C1.84755 7.21236 1.39983 7.66008 1.39983 8.21236C1.39983 8.76465 1.84755 9.21236 2.39983 9.21236V7.21236ZM20.3998 9.21236C20.9521 9.21236 21.3998 8.76465 21.3998 8.21236C21.3998 7.66008 20.9521 7.21236 20.3998 7.21236V9.21236ZM16.1998 13.4874L15.7526 12.593C15.4138 12.7624 15.1998 13.1087 15.1998 13.4874H16.1998ZM19.1998 19.9874L18.6659 20.8329C18.992 21.0389 19.4076 21.0389 19.7338 20.8329L19.1998 19.9874ZM22.1998 13.4874H23.1998C23.1998 13.1087 22.9858 12.7624 22.647 12.593L22.1998 13.4874ZM17.5899 12.7924L18.0371 13.6869L17.5899 12.7924ZM20.8098 12.7924L20.3626 13.6869L20.8098 12.7924ZM4.20029 5.01251H18.5992V3.01251H4.20029V5.01251ZM2.80055 15.4124L2.80029 6.41255L0.800293 6.41261L0.80055 15.4125L2.80055 15.4124ZM12.0002 16.8125L4.20053 16.8124L4.20049 18.8124L12.0002 18.8125L12.0002 16.8125ZM19.9998 6.41246L19.9998 8.21253L21.9998 8.21249L21.9998 6.41242L19.9998 6.41246ZM4.20029 3.01251C2.32249 3.01251 0.800239 4.5348 0.800293 6.41261L2.80029 6.41255C2.80027 5.63934 3.42708 5.01251 4.20029 5.01251V3.01251ZM18.5992 5.01251C19.373 5.01251 19.9998 5.63934 19.9998 6.41245L21.9998 6.41242C21.9998 4.53412 20.4769 3.01251 18.5992 3.01251V5.01251ZM0.80055 15.4125C0.800603 17.2902 2.32278 18.8123 4.20049 18.8124L4.20053 16.8124C3.42735 16.8124 2.80057 16.1856 2.80055 15.4124L0.80055 15.4125ZM2.39983 9.21236H20.3998V7.21236H2.39983V9.21236ZM17.1427 11.898L15.7526 12.593L16.647 14.3819L18.0371 13.6869L17.1427 11.898ZM15.1998 13.4874V16.8324H17.1998V13.4874H15.1998ZM15.1998 16.8324C15.1998 17.6784 15.6892 18.4034 16.2581 18.9887C16.8475 19.595 17.6744 20.2068 18.6659 20.8329L19.7338 19.1419C18.793 18.5478 18.1198 18.0345 17.6923 17.5947C17.2443 17.1338 17.1998 16.8915 17.1998 16.8324H15.1998ZM19.7338 20.8329C20.6861 20.2315 21.5251 19.6794 22.1197 19.1042C22.7417 18.5026 23.1998 17.7763 23.1998 16.8324H21.1998C21.1998 17.0436 21.1241 17.2847 20.7292 17.6667C20.3069 18.0752 19.6459 18.523 18.6659 19.1419L19.7338 20.8329ZM23.1998 16.8324C23.1998 16.8302 23.1998 16.8279 23.1998 16.8257C23.1998 16.8234 23.1998 16.8211 23.1998 16.8189C23.1998 16.8166 23.1998 16.8143 23.1998 16.812C23.1998 16.8098 23.1998 16.8075 23.1998 16.8052C23.1998 16.8029 23.1998 16.8006 23.1998 16.7983C23.1998 16.796 23.1998 16.7937 23.1998 16.7914C23.1998 16.7891 23.1998 16.7868 23.1998 16.7845C23.1998 16.7822 23.1998 16.7799 23.1998 16.7776C23.1998 16.7752 23.1998 16.7729 23.1998 16.7706C23.1998 16.7683 23.1998 16.7659 23.1998 16.7636C23.1998 16.7613 23.1998 16.7589 23.1998 16.7566C23.1998 16.7543 23.1998 16.7519 23.1998 16.7496C23.1998 16.7472 23.1998 16.7449 23.1998 16.7425C23.1998 16.7402 23.1998 16.7378 23.1998 16.7354C23.1998 16.7331 23.1998 16.7307 23.1998 16.7283C23.1998 16.726 23.1998 16.7236 23.1998 16.7212C23.1998 16.7188 23.1998 16.7165 23.1998 16.7141C23.1998 16.7117 23.1998 16.7093 23.1998 16.7069C23.1998 16.7045 23.1998 16.7021 23.1998 16.6997C23.1998 16.6973 23.1998 16.6949 23.1998 16.6925C23.1998 16.6901 23.1998 16.6877 23.1998 16.6853C23.1998 16.6829 23.1998 16.6805 23.1998 16.6781C23.1998 16.6757 23.1998 16.6732 23.1998 16.6708C23.1998 16.6684 23.1998 16.666 23.1998 16.6635C23.1998 16.6611 23.1998 16.6587 23.1998 16.6562C23.1998 16.6538 23.1998 16.6513 23.1998 16.6489C23.1998 16.6465 23.1998 16.644 23.1998 16.6416C23.1998 16.6391 23.1998 16.6366 23.1998 16.6342C23.1998 16.6317 23.1998 16.6293 23.1998 16.6268C23.1998 16.6243 23.1998 16.6219 23.1998 16.6194C23.1998 16.6169 23.1998 16.6145 23.1998 16.612C23.1998 16.6095 23.1998 16.607 23.1998 16.6045C23.1998 16.6021 23.1998 16.5996 23.1998 16.5971C23.1998 16.5946 23.1998 16.5921 23.1998 16.5896C23.1998 16.5871 23.1998 16.5846 23.1998 16.5821C23.1998 16.5796 23.1998 16.5771 23.1998 16.5746C23.1998 16.5721 23.1998 16.5696 23.1998 16.567C23.1998 16.5645 23.1998 16.562 23.1998 16.5595C23.1998 16.557 23.1998 16.5544 23.1998 16.5519C23.1998 16.5494 23.1998 16.5469 23.1998 16.5443C23.1998 16.5418 23.1998 16.5393 23.1998 16.5367C23.1998 16.5342 23.1998 16.5316 23.1998 16.5291C23.1998 16.5265 23.1998 16.524 23.1998 16.5214C23.1998 16.5189 23.1998 16.5163 23.1998 16.5138C23.1998 16.5112 23.1998 16.5087 23.1998 16.5061C23.1998 16.5035 23.1998 16.501 23.1998 16.4984C23.1998 16.4958 23.1998 16.4933 23.1998 16.4907C23.1998 16.4881 23.1998 16.4855 23.1998 16.483C23.1998 16.4804 23.1998 16.4778 23.1998 16.4752C23.1998 16.4726 23.1998 16.47 23.1998 16.4675C23.1998 16.4649 23.1998 16.4623 23.1998 16.4597C23.1998 16.4571 23.1998 16.4545 23.1998 16.4519C23.1998 16.4493 23.1998 16.4467 23.1998 16.4441C23.1998 16.4415 23.1998 16.4388 23.1998 16.4362C23.1998 16.4336 23.1998 16.431 23.1998 16.4284C23.1998 16.4258 23.1998 16.4232 23.1998 16.4205C23.1998 16.4179 23.1998 16.4153 23.1998 16.4127C23.1998 16.41 23.1998 16.4074 23.1998 16.4048C23.1998 16.4021 23.1998 16.3995 23.1998 16.3969C23.1998 16.3942 23.1998 16.3916 23.1998 16.3889C23.1998 16.3863 23.1998 16.3836 23.1998 16.381C23.1998 16.3784 23.1998 16.3757 23.1998 16.373C23.1998 16.3704 23.1998 16.3677 23.1998 16.3651C23.1998 16.3624 23.1998 16.3598 23.1998 16.3571C23.1998 16.3544 23.1998 16.3518 23.1998 16.3491C23.1998 16.3464 23.1998 16.3438 23.1998 16.3411C23.1998 16.3384 23.1998 16.3357 23.1998 16.3331C23.1998 16.3304 23.1998 16.3277 23.1998 16.325C23.1998 16.3223 23.1998 16.3197 23.1998 16.317C23.1998 16.3143 23.1998 16.3116 23.1998 16.3089C23.1998 16.3062 23.1998 16.3035 23.1998 16.3008C23.1998 16.2981 23.1998 16.2954 23.1998 16.2927C23.1998 16.29 23.1998 16.2873 23.1998 16.2846C23.1998 16.2819 23.1998 16.2792 23.1998 16.2765C23.1998 16.2738 23.1998 16.2711 23.1998 16.2684C23.1998 16.2657 23.1998 16.263 23.1998 16.2602C23.1998 16.2575 23.1998 16.2548 23.1998 16.2521C23.1998 16.2494 23.1998 16.2466 23.1998 16.2439C23.1998 16.2412 23.1998 16.2385 23.1998 16.2357C23.1998 16.233 23.1998 16.2303 23.1998 16.2275C23.1998 16.2248 23.1998 16.2221 23.1998 16.2193C23.1998 16.2166 23.1998 16.2138 23.1998 16.2111C23.1998 16.2084 23.1998 16.2056 23.1998 16.2029C23.1998 16.2001 23.1998 16.1974 23.1998 16.1946C23.1998 16.1919 23.1998 16.1891 23.1998 16.1864C23.1998 16.1836 23.1998 16.1809 23.1998 16.1781C23.1998 16.1754 23.1998 16.1726 23.1998 16.1698C23.1998 16.1671 23.1998 16.1643 23.1998 16.1615C23.1998 16.1588 23.1998 16.156 23.1998 16.1532C23.1998 16.1505 23.1998 16.1477 23.1998 16.1449C23.1998 16.1422 23.1998 16.1394 23.1998 16.1366C23.1998 16.1338 23.1998 16.1311 23.1998 16.1283C23.1998 16.1255 23.1998 16.1227 23.1998 16.1199C23.1998 16.1172 23.1998 16.1144 23.1998 16.1116C23.1998 16.1088 23.1998 16.106 23.1998 16.1032C23.1998 16.1004 23.1998 16.0976 23.1998 16.0949C23.1998 16.0921 23.1998 16.0893 23.1998 16.0865C23.1998 16.0837 23.1998 16.0809 23.1998 16.0781C23.1998 16.0753 23.1998 16.0725 23.1998 16.0697C23.1998 16.0669 23.1998 16.0641 23.1998 16.0613C23.1998 16.0585 23.1998 16.0557 23.1998 16.0528C23.1998 16.05 23.1998 16.0472 23.1998 16.0444C23.1998 16.0416 23.1998 16.0388 23.1998 16.036C23.1998 16.0332 23.1998 16.0303 23.1998 16.0275C23.1998 16.0247 23.1998 16.0219 23.1998 16.0191C23.1998 16.0163 23.1998 16.0134 23.1998 16.0106C23.1998 16.0078 23.1998 16.005 23.1998 16.0021C23.1998 15.9993 23.1998 15.9965 23.1998 15.9937C23.1998 15.9908 23.1998 15.988 23.1998 15.9852C23.1998 15.9823 23.1998 15.9795 23.1998 15.9767C23.1998 15.9738 23.1998 15.971 23.1998 15.9682C23.1998 15.9653 23.1998 15.9625 23.1998 15.9597C23.1998 15.9568 23.1998 15.954 23.1998 15.9511C23.1998 15.9483 23.1998 15.9454 23.1998 15.9426C23.1998 15.9398 23.1998 15.9369 23.1998 15.9341C23.1998 15.9312 23.1998 15.9284 23.1998 15.9255C23.1998 15.9227 23.1998 15.9198 23.1998 15.917C23.1998 15.9141 23.1998 15.9113 23.1998 15.9084C23.1998 15.9056 23.1998 15.9027 23.1998 15.8999C23.1998 15.897 23.1998 15.8941 23.1998 15.8913C23.1998 15.8884 23.1998 15.8856 23.1998 15.8827C23.1998 15.8799 23.1998 15.877 23.1998 15.8741C23.1998 15.8713 23.1998 15.8684 23.1998 15.8655C23.1998 15.8627 23.1998 15.8598 23.1998 15.857C23.1998 15.8541 23.1998 15.8512 23.1998 15.8484C23.1998 15.8455 23.1998 15.8426 23.1998 15.8397C23.1998 15.8369 23.1998 15.834 23.1998 15.8311C23.1998 15.8283 23.1998 15.8254 23.1998 15.8225C23.1998 15.8196 23.1998 15.8168 23.1998 15.8139C23.1998 15.811 23.1998 15.8081 23.1998 15.8053C23.1998 15.8024 23.1998 15.7995 23.1998 15.7966C23.1998 15.7938 23.1998 15.7909 23.1998 15.788C23.1998 15.7851 23.1998 15.7822 23.1998 15.7794C23.1998 15.7765 23.1998 15.7736 23.1998 15.7707C23.1998 15.7678 23.1998 15.765 23.1998 15.7621C23.1998 15.7592 23.1998 15.7563 23.1998 15.7534C23.1998 15.7505 23.1998 15.7476 23.1998 15.7448C23.1998 15.7419 23.1998 15.739 23.1998 15.7361C23.1998 15.7332 23.1998 15.7303 23.1998 15.7274C23.1998 15.7245 23.1998 15.7216 23.1998 15.7188C23.1998 15.7159 23.1998 15.713 23.1998 15.7101C23.1998 15.7072 23.1998 15.7043 23.1998 15.7014C23.1998 15.6985 23.1998 15.6956 23.1998 15.6927C23.1998 15.6898 23.1998 15.6869 23.1998 15.684C23.1998 15.6812 23.1998 15.6783 23.1998 15.6754C23.1998 15.6725 23.1998 15.6696 23.1998 15.6667C23.1998 15.6638 23.1998 15.6609 23.1998 15.658C23.1998 15.6551 23.1998 15.6522 23.1998 15.6493C23.1998 15.6464 23.1998 15.6435 23.1998 15.6406C23.1998 15.6377 23.1998 15.6348 23.1998 15.6319C23.1998 15.629 23.1998 15.6261 23.1998 15.6232C23.1998 15.6203 23.1998 15.6174 23.1998 15.6145C23.1998 15.6116 23.1998 15.6087 23.1998 15.6058C23.1998 15.6029 23.1998 15.6 23.1998 15.5971C23.1998 15.5942 23.1998 15.5913 23.1998 15.5884C23.1998 15.5855 23.1998 15.5826 23.1998 15.5797C23.1998 15.5768 23.1998 15.5739 23.1998 15.571C23.1998 15.5681 23.1998 15.5652 23.1998 15.5622C23.1998 15.5593 23.1998 15.5564 23.1998 15.5535C23.1998 15.5506 23.1998 15.5477 23.1998 15.5448C23.1998 15.5419 23.1998 15.539 23.1998 15.5361C23.1998 15.5332 23.1998 15.5303 23.1998 15.5274C23.1998 15.5245 23.1998 15.5216 23.1998 15.5187C23.1998 15.5158 23.1998 15.5129 23.1998 15.51C23.1998 15.5071 23.1998 15.5042 23.1998 15.5013C23.1998 15.4984 23.1998 15.4954 23.1998 15.4925C23.1998 15.4896 23.1998 15.4867 23.1998 15.4838C23.1998 15.4809 23.1998 15.478 23.1998 15.4751C23.1998 15.4722 23.1998 15.4693 23.1998 15.4664C23.1998 15.4635 23.1998 15.4606 23.1998 15.4577C23.1998 15.4548 23.1998 15.4519 23.1998 15.449C23.1998 15.4461 23.1998 15.4432 23.1998 15.4403C23.1998 15.4374 23.1998 15.4345 23.1998 15.4316C23.1998 15.4287 23.1998 15.4258 23.1998 15.4229C23.1998 15.42 23.1998 15.4171 23.1998 15.4141C23.1998 15.4112 23.1998 15.4083 23.1998 15.4054C23.1998 15.4025 23.1998 15.3996 23.1998 15.3967C23.1998 15.3938 23.1998 15.3909 23.1998 15.388C23.1998 15.3851 23.1998 15.3822 23.1998 15.3793C23.1998 15.3764 23.1998 15.3735 23.1998 15.3706C23.1998 15.3677 23.1998 15.3648 23.1998 15.3619C23.1998 15.359 23.1998 15.3562 23.1998 15.3533C23.1998 15.3504 23.1998 15.3475 23.1998 15.3446C23.1998 15.3417 23.1998 15.3388 23.1998 15.3359C23.1998 15.333 23.1998 15.3301 23.1998 15.3272C23.1998 15.3243 23.1998 15.3214 23.1998 15.3185C23.1998 15.3156 23.1998 15.3127 23.1998 15.3098C23.1998 15.3069 23.1998 15.304 23.1998 15.3012C23.1998 15.2983 23.1998 15.2954 23.1998 15.2925C23.1998 15.2896 23.1998 15.2867 23.1998 15.2838C23.1998 15.2809 23.1998 15.278 23.1998 15.2752C23.1998 15.2723 23.1998 15.2694 23.1998 15.2665C23.1998 15.2636 23.1998 15.2607 23.1998 15.2578C23.1998 15.255 23.1998 15.2521 23.1998 15.2492C23.1998 15.2463 23.1998 15.2434 23.1998 15.2405C23.1998 15.2377 23.1998 15.2348 23.1998 15.2319C23.1998 15.229 23.1998 15.2261 23.1998 15.2233C23.1998 15.2204 23.1998 15.2175 23.1998 15.2146C23.1998 15.2117 23.1998 15.2089 23.1998 15.206C23.1998 15.2031 23.1998 15.2002 23.1998 15.1974C23.1998 15.1945 23.1998 15.1916 23.1998 15.1887C23.1998 15.1859 23.1998 15.183 23.1998 15.1801C23.1998 15.1773 23.1998 15.1744 23.1998 15.1715C23.1998 15.1687 23.1998 15.1658 23.1998 15.1629C23.1998 15.1601 23.1998 15.1572 23.1998 15.1543C23.1998 15.1515 23.1998 15.1486 23.1998 15.1457C23.1998 15.1429 23.1998 15.14 23.1998 15.1371C23.1998 15.1343 23.1998 15.1314 23.1998 15.1286C23.1998 15.1257 23.1998 15.1228 23.1998 15.12C23.1998 15.1171 23.1998 15.1143 23.1998 15.1114C23.1998 15.1086 23.1998 15.1057 23.1998 15.1029C23.1998 15.1 23.1998 15.0972 23.1998 15.0943C23.1998 15.0915 23.1998 15.0886 23.1998 15.0858C23.1998 15.0829 23.1998 15.0801 23.1998 15.0772C23.1998 15.0744 23.1998 15.0715 23.1998 15.0687C23.1998 15.0659 23.1998 15.063 23.1998 15.0602C23.1998 15.0573 23.1998 15.0545 23.1998 15.0517C23.1998 15.0488 23.1998 15.046 23.1998 15.0431C23.1998 15.0403 23.1998 15.0375 23.1998 15.0346C23.1998 15.0318 23.1998 15.029 23.1998 15.0261C23.1998 15.0233 23.1998 15.0205 23.1998 15.0177C23.1998 15.0148 23.1998 15.012 23.1998 15.0092C23.1998 15.0064 23.1998 15.0035 23.1998 15.0007C23.1998 14.9979 23.1998 14.9951 23.1998 14.9922C23.1998 14.9894 23.1998 14.9866 23.1998 14.9838C23.1998 14.981 23.1998 14.9782 23.1998 14.9754C23.1998 14.9725 23.1998 14.9697 23.1998 14.9669C23.1998 14.9641 23.1998 14.9613 23.1998 14.9585C23.1998 14.9557 23.1998 14.9529 23.1998 14.9501C23.1998 14.9473 23.1998 14.9445 23.1998 14.9417C23.1998 14.9389 23.1998 14.9361 23.1998 14.9333C23.1998 14.9305 23.1998 14.9277 23.1998 14.9249C23.1998 14.9221 23.1998 14.9193 23.1998 14.9165C23.1998 14.9137 23.1998 14.9109 23.1998 14.9081C23.1998 14.9053 23.1998 14.9026 23.1998 14.8998C23.1998 14.897 23.1998 14.8942 23.1998 14.8914C23.1998 14.8886 23.1998 14.8859 23.1998 14.8831C23.1998 14.8803 23.1998 14.8775 23.1998 14.8748C23.1998 14.872 23.1998 14.8692 23.1998 14.8664C23.1998 14.8637 23.1998 14.8609 23.1998 14.8581C23.1998 14.8554 23.1998 14.8526 23.1998 14.8498C23.1998 14.8471 23.1998 14.8443 23.1998 14.8416C23.1998 14.8388 23.1998 14.836 23.1998 14.8333C23.1998 14.8305 23.1998 14.8278 23.1998 14.825C23.1998 14.8223 23.1998 14.8195 23.1998 14.8168C23.1998 14.814 23.1998 14.8113 23.1998 14.8085C23.1998 14.8058 23.1998 14.803 23.1998 14.8003C23.1998 14.7976 23.1998 14.7948 23.1998 14.7921C23.1998 14.7894 23.1998 14.7866 23.1998 14.7839C23.1998 14.7812 23.1998 14.7784 23.1998 14.7757C23.1998 14.773 23.1998 14.7702 23.1998 14.7675C23.1998 14.7648 23.1998 14.7621 23.1998 14.7594C23.1998 14.7566 23.1998 14.7539 23.1998 14.7512C23.1998 14.7485 23.1998 14.7458 23.1998 14.7431C23.1998 14.7403 23.1998 14.7376 23.1998 14.7349C23.1998 14.7322 23.1998 14.7295 23.1998 14.7268C23.1998 14.7241 23.1998 14.7214 23.1998 14.7187C23.1998 14.716 23.1998 14.7133 23.1998 14.7106C23.1998 14.7079 23.1998 14.7052 23.1998 14.7026C23.1998 14.6999 23.1998 14.6972 23.1998 14.6945C23.1998 14.6918 23.1998 14.6891 23.1998 14.6864C23.1998 14.6838 23.1998 14.6811 23.1998 14.6784C23.1998 14.6757 23.1998 14.6731 23.1998 14.6704C23.1998 14.6677 23.1998 14.6651 23.1998 14.6624C23.1998 14.6597 23.1998 14.6571 23.1998 14.6544C23.1998 14.6517 23.1998 14.6491 23.1998 14.6464C23.1998 14.6438 23.1998 14.6411 23.1998 14.6385C23.1998 14.6358 23.1998 14.6332 23.1998 14.6305C23.1998 14.6279 23.1998 14.6252 23.1998 14.6226C23.1998 14.6199 23.1998 14.6173 23.1998 14.6147C23.1998 14.612 23.1998 14.6094 23.1998 14.6068C23.1998 14.6041 23.1998 14.6015 23.1998 14.5989C23.1998 14.5963 23.1998 14.5936 23.1998 14.591C23.1998 14.5884 23.1998 14.5858 23.1998 14.5832C23.1998 14.5805 23.1998 14.5779 23.1998 14.5753C23.1998 14.5727 23.1998 14.5701 23.1998 14.5675C23.1998 14.5649 23.1998 14.5623 23.1998 14.5597C23.1998 14.5571 23.1998 14.5545 23.1998 14.5519C23.1998 14.5493 23.1998 14.5467 23.1998 14.5441C23.1998 14.5415 23.1998 14.5389 23.1998 14.5364C23.1998 14.5338 23.1998 14.5312 23.1998 14.5286C23.1998 14.526 23.1998 14.5235 23.1998 14.5209C23.1998 14.5183 23.1998 14.5158 23.1998 14.5132C23.1998 14.5106 23.1998 14.5081 23.1998 14.5055C23.1998 14.5029 23.1998 14.5004 23.1998 14.4978C23.1998 14.4953 23.1998 14.4927 23.1998 14.4902C23.1998 14.4876 23.1998 14.4851 23.1998 14.4825C23.1998 14.48 23.1998 14.4775 23.1998 14.4749C23.1998 14.4724 23.1998 14.4698 23.1998 14.4673C23.1998 14.4648 23.1998 14.4623 23.1998 14.4597C23.1998 14.4572 23.1998 14.4547 23.1998 14.4522C23.1998 14.4496 23.1998 14.4471 23.1998 14.4446C23.1998 14.4421 23.1998 14.4396 23.1998 14.4371C23.1998 14.4346 23.1998 14.4321 23.1998 14.4296C23.1998 14.4271 23.1998 14.4246 23.1998 14.4221C23.1998 14.4196 23.1998 14.4171 23.1998 14.4146C23.1998 14.4121 23.1998 14.4096 23.1998 14.4072C23.1998 14.4047 23.1998 14.4022 23.1998 14.3997C23.1998 14.3972 23.1998 14.3948 23.1998 14.3923C23.1998 14.3898 23.1998 14.3874 23.1998 14.3849C23.1998 14.3824 23.1998 14.38 23.1998 14.3775C23.1998 14.3751 23.1998 14.3726 23.1998 14.3702C23.1998 14.3677 23.1998 14.3653 23.1998 14.3628C23.1998 14.3604 23.1998 14.358 23.1998 14.3555C23.1998 14.3531 23.1998 14.3507 23.1998 14.3482C23.1998 14.3458 23.1998 14.3434 23.1998 14.3409C23.1998 14.3385 23.1998 14.3361 23.1998 14.3337C23.1998 14.3313 23.1998 14.3289 23.1998 14.3265C23.1998 14.324 23.1998 14.3216 23.1998 14.3192C23.1998 14.3168 23.1998 14.3144 23.1998 14.312C23.1998 14.3096 23.1998 14.3073 23.1998 14.3049C23.1998 14.3025 23.1998 14.3001 23.1998 14.2977C23.1998 14.2953 23.1998 14.293 23.1998 14.2906C23.1998 14.2882 23.1998 14.2858 23.1998 14.2835C23.1998 14.2811 23.1998 14.2787 23.1998 14.2764C23.1998 14.274 23.1998 14.2717 23.1998 14.2693C23.1998 14.267 23.1998 14.2646 23.1998 14.2623C23.1998 14.2599 23.1998 14.2576 23.1998 14.2553C23.1998 14.2529 23.1998 14.2506 23.1998 14.2483C23.1998 14.2459 23.1998 14.2436 23.1998 14.2413C23.1998 14.239 23.1998 14.2366 23.1998 14.2343C23.1998 14.232 23.1998 14.2297 23.1998 14.2274C23.1998 14.2251 23.1998 14.2228 23.1998 14.2205C23.1998 14.2182 23.1998 14.2159 23.1998 14.2136C23.1998 14.2113 23.1998 14.209 23.1998 14.2067C23.1998 14.2044 23.1998 14.2022 23.1998 14.1999C23.1998 14.1976 23.1998 14.1953 23.1998 14.1931C23.1998 14.1908 23.1998 14.1885 23.1998 14.1863C23.1998 14.184 23.1998 14.1818 23.1998 14.1795C23.1998 14.1773 23.1998 14.175 23.1998 14.1728C23.1998 14.1705 23.1998 14.1683 23.1998 14.166C23.1998 14.1638 23.1998 14.1616 23.1998 14.1593C23.1998 14.1571 23.1998 14.1549 23.1998 14.1527C23.1998 14.1504 23.1998 14.1482 23.1998 14.146C23.1998 14.1438 23.1998 14.1416 23.1998 14.1394C23.1998 14.1372 23.1998 14.135 23.1998 14.1328C23.1998 14.1306 23.1998 14.1284 23.1998 14.1262C23.1998 14.124 23.1998 14.1218 23.1998 14.1197C23.1998 14.1175 23.1998 14.1153 23.1998 14.1131C23.1998 14.111 23.1998 14.1088 23.1998 14.1066C23.1998 14.1045 23.1998 14.1023 23.1998 14.1001C23.1998 14.098 23.1998 14.0958 23.1998 14.0937C23.1998 14.0916 23.1998 14.0894 23.1998 14.0873C23.1998 14.0851 23.1998 14.083 23.1998 14.0809C23.1998 14.0787 23.1998 14.0766 23.1998 14.0745C23.1998 14.0724 23.1998 14.0703 23.1998 14.0682C23.1998 14.066 23.1998 14.0639 23.1998 14.0618C23.1998 14.0597 23.1998 14.0576 23.1998 14.0555C23.1998 14.0534 23.1998 14.0514 23.1998 14.0493C23.1998 14.0472 23.1998 14.0451 23.1998 14.043C23.1998 14.0409 23.1998 14.0389 23.1998 14.0368C23.1998 14.0347 23.1998 14.0327 23.1998 14.0306C23.1998 14.0286 23.1998 14.0265 23.1998 14.0245C23.1998 14.0224 23.1998 14.0204 23.1998 14.0183C23.1998 14.0163 23.1998 14.0143 23.1998 14.0122C23.1998 14.0102 23.1998 14.0082 23.1998 14.0061C23.1998 14.0041 23.1998 14.0021 23.1998 14.0001C23.1998 13.9981 23.1998 13.9961 23.1998 13.9941C23.1998 13.9921 23.1998 13.9901 23.1998 13.9881C23.1998 13.9861 23.1998 13.9841 23.1998 13.9821C23.1998 13.9801 23.1998 13.9781 23.1998 13.9762C23.1998 13.9742 23.1998 13.9722 23.1998 13.9703C23.1998 13.9683 23.1998 13.9663 23.1998 13.9644C23.1998 13.9624 23.1998 13.9605 23.1998 13.9585C23.1998 13.9566 23.1998 13.9546 23.1998 13.9527C23.1998 13.9508 23.1998 13.9488 23.1998 13.9469C23.1998 13.945 23.1998 13.943 23.1998 13.9411C23.1998 13.9392 23.1998 13.9373 23.1998 13.9354C23.1998 13.9335 23.1998 13.9316 23.1998 13.9297C23.1998 13.9278 23.1998 13.9259 23.1998 13.924C23.1998 13.9221 23.1998 13.9202 23.1998 13.9184C23.1998 13.9165 23.1998 13.9146 23.1998 13.9127C23.1998 13.9109 23.1998 13.909 23.1998 13.9071C23.1998 13.9053 23.1998 13.9034 23.1998 13.9016C23.1998 13.8997 23.1998 13.8979 23.1998 13.8961C23.1998 13.8942 23.1998 13.8924 23.1998 13.8906C23.1998 13.8887 23.1998 13.8869 23.1998 13.8851C23.1998 13.8833 23.1998 13.8815 23.1998 13.8796C23.1998 13.8778 23.1998 13.876 23.1998 13.8742C23.1998 13.8724 23.1998 13.8707 23.1998 13.8689C23.1998 13.8671 23.1998 13.8653 23.1998 13.8635C23.1998 13.8617 23.1998 13.86 23.1998 13.8582C23.1998 13.8564 23.1998 13.8547 23.1998 13.8529C23.1998 13.8512 23.1998 13.8494 23.1998 13.8477C23.1998 13.8459 23.1998 13.8442 23.1998 13.8425C23.1998 13.8407 23.1998 13.839 23.1998 13.8373C23.1998 13.8355 23.1998 13.8338 23.1998 13.8321C23.1998 13.8304 23.1998 13.8287 23.1998 13.827C23.1998 13.8253 23.1998 13.8236 23.1998 13.8219C23.1998 13.8202 23.1998 13.8185 23.1998 13.8168C23.1998 13.8152 23.1998 13.8135 23.1998 13.8118C23.1998 13.8101 23.1998 13.8085 23.1998 13.8068C23.1998 13.8052 23.1998 13.8035 23.1998 13.8019C23.1998 13.8002 23.1998 13.7986 23.1998 13.7969C23.1998 13.7953 23.1998 13.7937 23.1998 13.792C23.1998 13.7904 23.1998 13.7888 23.1998 13.7872C23.1998 13.7856 23.1998 13.784 23.1998 13.7823C23.1998 13.7807 23.1998 13.7791 23.1998 13.7776C23.1998 13.776 23.1998 13.7744 23.1998 13.7728C23.1998 13.7712 23.1998 13.7696 23.1998 13.7681C23.1998 13.7665 23.1998 13.7649 23.1998 13.7634C23.1998 13.7618 23.1998 13.7603 23.1998 13.7587C23.1998 13.7572 23.1998 13.7556 23.1998 13.7541C23.1998 13.7526 23.1998 13.751 23.1998 13.7495C23.1998 13.748 23.1998 13.7465 23.1998 13.7449C23.1998 13.7434 23.1998 13.7419 23.1998 13.7404C23.1998 13.7389 23.1998 13.7374 23.1998 13.7359C23.1998 13.7345 23.1998 13.733 23.1998 13.7315C23.1998 13.73 23.1998 13.7285 23.1998 13.7271C23.1998 13.7256 23.1998 13.7241 23.1998 13.7227C23.1998 13.7212 23.1998 13.7198 23.1998 13.7183C23.1998 13.7169 23.1998 13.7155 23.1998 13.714C23.1998 13.7126 23.1998 13.7112 23.1998 13.7098C23.1998 13.7083 23.1998 13.7069 23.1998 13.7055C23.1998 13.7041 23.1998 13.7027 23.1998 13.7013C23.1998 13.6999 23.1998 13.6985 23.1998 13.6972C23.1998 13.6958 23.1998 13.6944 23.1998 13.693C23.1998 13.6917 23.1998 13.6903 23.1998 13.6889C23.1998 13.6876 23.1998 13.6862 23.1998 13.6849C23.1998 13.6835 23.1998 13.6822 23.1998 13.6809C23.1998 13.6795 23.1998 13.6782 23.1998 13.6769C23.1998 13.6756 23.1998 13.6742 23.1998 13.6729C23.1998 13.6716 23.1998 13.6703 23.1998 13.669C23.1998 13.6677 23.1998 13.6664 23.1998 13.6652C23.1998 13.6639 23.1998 13.6626 23.1998 13.6613C23.1998 13.66 23.1998 13.6588 23.1998 13.6575C23.1998 13.6563 23.1998 13.655 23.1998 13.6538C23.1998 13.6525 23.1998 13.6513 23.1998 13.65C23.1998 13.6488 23.1998 13.6476 23.1998 13.6464C23.1998 13.6451 23.1998 13.6439 23.1998 13.6427C23.1998 13.6415 23.1998 13.6403 23.1998 13.6391C23.1998 13.6379 23.1998 13.6367 23.1998 13.6355C23.1998 13.6344 23.1998 13.6332 23.1998 13.632C23.1998 13.6308 23.1998 13.6297 23.1998 13.6285C23.1998 13.6274 23.1998 13.6262 23.1998 13.6251C23.1998 13.6239 23.1998 13.6228 23.1998 13.6217C23.1998 13.6205 23.1998 13.6194 23.1998 13.6183C23.1998 13.6172 23.1998 13.6161 23.1998 13.6149C23.1998 13.6138 23.1998 13.6127 23.1998 13.6117C23.1998 13.6106 23.1998 13.6095 23.1998 13.6084C23.1998 13.6073 23.1998 13.6062 23.1998 13.6052C23.1998 13.6041 23.1998 13.6031 23.1998 13.602C23.1998 13.601 23.1998 13.5999 23.1998 13.5989C23.1998 13.5978 23.1998 13.5968 23.1998 13.5958C23.1998 13.5947 23.1998 13.5937 23.1998 13.5927C23.1998 13.5917 23.1998 13.5907 23.1998 13.5897C23.1998 13.5887 23.1998 13.5877 23.1998 13.5867C23.1998 13.5857 23.1998 13.5848 23.1998 13.5838C23.1998 13.5828 23.1998 13.5819 23.1998 13.5809C23.1998 13.5799 23.1998 13.579 23.1998 13.5781C23.1998 13.5771 23.1998 13.5762 23.1998 13.5752C23.1998 13.5743 23.1998 13.5734 23.1998 13.5725C23.1998 13.5716 23.1998 13.5707 23.1998 13.5697C23.1998 13.5688 23.1998 13.568 23.1998 13.5671C23.1998 13.5662 23.1998 13.5653 23.1998 13.5644C23.1998 13.5635 23.1998 13.5627 23.1998 13.5618C23.1998 13.561 23.1998 13.5601 23.1998 13.5593C23.1998 13.5584 23.1998 13.5576 23.1998 13.5567C23.1998 13.5559 23.1998 13.5551 23.1998 13.5543C23.1998 13.5534 23.1998 13.5526 23.1998 13.5518C23.1998 13.551 23.1998 13.5502 23.1998 13.5494C23.1998 13.5487 23.1998 13.5479 23.1998 13.5471C23.1998 13.5463 23.1998 13.5455 23.1998 13.5448C23.1998 13.544 23.1998 13.5433 23.1998 13.5425C23.1998 13.5418 23.1998 13.541 23.1998 13.5403C23.1998 13.5396 23.1998 13.5389 23.1998 13.5381C23.1998 13.5374 23.1998 13.5367 23.1998 13.536C23.1998 13.5353 23.1998 13.5346 23.1998 13.5339C23.1998 13.5332 23.1998 13.5325 23.1998 13.5319C23.1998 13.5312 23.1998 13.5305 23.1998 13.5299C23.1998 13.5292 23.1998 13.5286 23.1998 13.5279C23.1998 13.5273 23.1998 13.5266 23.1998 13.526C23.1998 13.5254 23.1998 13.5247 23.1998 13.5241C23.1998 13.5235 23.1998 13.5229 23.1998 13.5223C23.1998 13.5217 23.1998 13.5211 23.1998 13.5205C23.1998 13.5199 23.1998 13.5194 23.1998 13.5188C23.1998 13.5182 23.1998 13.5177 23.1998 13.5171C23.1998 13.5166 23.1998 13.516 23.1998 13.5155C23.1998 13.5149 23.1998 13.5144 23.1998 13.5139C23.1998 13.5133 23.1998 13.5128 23.1998 13.5123C23.1998 13.5118 23.1998 13.5113 23.1998 13.5108C23.1998 13.5103 23.1998 13.5098 23.1998 13.5093C23.1998 13.5089 23.1998 13.5084 23.1998 13.5079C23.1998 13.5075 23.1998 13.507 23.1998 13.5066C23.1998 13.5061 23.1998 13.5057 23.1998 13.5052C23.1998 13.5048 23.1998 13.5044 23.1998 13.504C23.1998 13.5035 23.1998 13.5031 23.1998 13.5027C23.1998 13.5023 23.1998 13.5019 23.1998 13.5015C23.1998 13.5012 23.1998 13.5008 23.1998 13.5004C23.1998 13.5 23.1998 13.4997 23.1998 13.4993C23.1998 13.499 23.1998 13.4986 23.1998 13.4983C23.1998 13.4979 23.1998 13.4976 23.1998 13.4973C23.1998 13.4969 23.1998 13.4966 23.1998 13.4963C23.1998 13.496 23.1998 13.4957 23.1998 13.4954C23.1998 13.4951 23.1998 13.4948 23.1998 13.4946C23.1998 13.4943 23.1998 13.494 23.1998 13.4938C23.1998 13.4935 23.1998 13.4932 23.1998 13.493C23.1998 13.4928 23.1998 13.4925 23.1998 13.4923C23.1998 13.4921 23.1998 13.4918 23.1998 13.4916C23.1998 13.4914 23.1998 13.4912 23.1998 13.491C23.1998 13.4908 23.1998 13.4906 23.1998 13.4904C23.1998 13.4903 23.1998 13.4901 23.1998 13.4899C23.1998 13.4898 23.1998 13.4896 23.1998 13.4895C23.1998 13.4893 23.1998 13.4892 23.1998 13.489C23.1998 13.4889 23.1998 13.4888 23.1998 13.4887C23.1998 13.4885 23.1998 13.4884 23.1998 13.4883C23.1998 13.4882 23.1998 13.4881 23.1998 13.4881C23.1998 13.488 23.1998 13.4879 23.1998 13.4878C23.1998 13.4878 23.1998 13.4877 23.1998 13.4877C23.1998 13.4876 23.1998 13.4876 23.1998 13.4875C23.1998 13.4875 23.1998 13.4875 23.1998 13.4875C23.1998 13.4874 23.1998 13.4874 22.1998 13.4874C21.1998 13.4874 21.1998 13.4874 21.1998 13.4875C21.1998 13.4875 21.1998 13.4875 21.1998 13.4875C21.1998 13.4876 21.1998 13.4876 21.1998 13.4877C21.1998 13.4877 21.1998 13.4878 21.1998 13.4878C21.1998 13.4879 21.1998 13.488 21.1998 13.4881C21.1998 13.4881 21.1998 13.4882 21.1998 13.4883C21.1998 13.4884 21.1998 13.4885 21.1998 13.4887C21.1998 13.4888 21.1998 13.4889 21.1998 13.489C21.1998 13.4892 21.1998 13.4893 21.1998 13.4895C21.1998 13.4896 21.1998 13.4898 21.1998 13.4899C21.1998 13.4901 21.1998 13.4903 21.1998 13.4904C21.1998 13.4906 21.1998 13.4908 21.1998 13.491C21.1998 13.4912 21.1998 13.4914 21.1998 13.4916C21.1998 13.4918 21.1998 13.4921 21.1998 13.4923C21.1998 13.4925 21.1998 13.4928 21.1998 13.493C21.1998 13.4932 21.1998 13.4935 21.1998 13.4938C21.1998 13.494 21.1998 13.4943 21.1998 13.4946C21.1998 13.4948 21.1998 13.4951 21.1998 13.4954C21.1998 13.4957 21.1998 13.496 21.1998 13.4963C21.1998 13.4966 21.1998 13.4969 21.1998 13.4973C21.1998 13.4976 21.1998 13.4979 21.1998 13.4983C21.1998 13.4986 21.1998 13.499 21.1998 13.4993C21.1998 13.4997 21.1998 13.5 21.1998 13.5004C21.1998 13.5008 21.1998 13.5012 21.1998 13.5015C21.1998 13.5019 21.1998 13.5023 21.1998 13.5027C21.1998 13.5031 21.1998 13.5035 21.1998 13.504C21.1998 13.5044 21.1998 13.5048 21.1998 13.5052C21.1998 13.5057 21.1998 13.5061 21.1998 13.5066C21.1998 13.507 21.1998 13.5075 21.1998 13.5079C21.1998 13.5084 21.1998 13.5089 21.1998 13.5093C21.1998 13.5098 21.1998 13.5103 21.1998 13.5108C21.1998 13.5113 21.1998 13.5118 21.1998 13.5123C21.1998 13.5128 21.1998 13.5133 21.1998 13.5139C21.1998 13.5144 21.1998 13.5149 21.1998 13.5155C21.1998 13.516 21.1998 13.5166 21.1998 13.5171C21.1998 13.5177 21.1998 13.5182 21.1998 13.5188C21.1998 13.5194 21.1998 13.5199 21.1998 13.5205C21.1998 13.5211 21.1998 13.5217 21.1998 13.5223C21.1998 13.5229 21.1998 13.5235 21.1998 13.5241C21.1998 13.5247 21.1998 13.5254 21.1998 13.526C21.1998 13.5266 21.1998 13.5273 21.1998 13.5279C21.1998 13.5286 21.1998 13.5292 21.1998 13.5299C21.1998 13.5305 21.1998 13.5312 21.1998 13.5319C21.1998 13.5325 21.1998 13.5332 21.1998 13.5339C21.1998 13.5346 21.1998 13.5353 21.1998 13.536C21.1998 13.5367 21.1998 13.5374 21.1998 13.5381C21.1998 13.5389 21.1998 13.5396 21.1998 13.5403C21.1998 13.541 21.1998 13.5418 21.1998 13.5425C21.1998 13.5433 21.1998 13.544 21.1998 13.5448C21.1998 13.5455 21.1998 13.5463 21.1998 13.5471C21.1998 13.5479 21.1998 13.5487 21.1998 13.5494C21.1998 13.5502 21.1998 13.551 21.1998 13.5518C21.1998 13.5526 21.1998 13.5534 21.1998 13.5543C21.1998 13.5551 21.1998 13.5559 21.1998 13.5567C21.1998 13.5576 21.1998 13.5584 21.1998 13.5593C21.1998 13.5601 21.1998 13.561 21.1998 13.5618C21.1998 13.5627 21.1998 13.5635 21.1998 13.5644C21.1998 13.5653 21.1998 13.5662 21.1998 13.5671C21.1998 13.568 21.1998 13.5688 21.1998 13.5697C21.1998 13.5707 21.1998 13.5716 21.1998 13.5725C21.1998 13.5734 21.1998 13.5743 21.1998 13.5752C21.1998 13.5762 21.1998 13.5771 21.1998 13.5781C21.1998 13.579 21.1998 13.5799 21.1998 13.5809C21.1998 13.5819 21.1998 13.5828 21.1998 13.5838C21.1998 13.5848 21.1998 13.5857 21.1998 13.5867C21.1998 13.5877 21.1998 13.5887 21.1998 13.5897C21.1998 13.5907 21.1998 13.5917 21.1998 13.5927C21.1998 13.5937 21.1998 13.5947 21.1998 13.5958C21.1998 13.5968 21.1998 13.5978 21.1998 13.5989C21.1998 13.5999 21.1998 13.601 21.1998 13.602C21.1998 13.6031 21.1998 13.6041 21.1998 13.6052C21.1998 13.6062 21.1998 13.6073 21.1998 13.6084C21.1998 13.6095 21.1998 13.6106 21.1998 13.6117C21.1998 13.6127 21.1998 13.6138 21.1998 13.6149C21.1998 13.6161 21.1998 13.6172 21.1998 13.6183C21.1998 13.6194 21.1998 13.6205 21.1998 13.6217C21.1998 13.6228 21.1998 13.6239 21.1998 13.6251C21.1998 13.6262 21.1998 13.6274 21.1998 13.6285C21.1998 13.6297 21.1998 13.6308 21.1998 13.632C21.1998 13.6332 21.1998 13.6344 21.1998 13.6355C21.1998 13.6367 21.1998 13.6379 21.1998 13.6391C21.1998 13.6403 21.1998 13.6415 21.1998 13.6427C21.1998 13.6439 21.1998 13.6451 21.1998 13.6464C21.1998 13.6476 21.1998 13.6488 21.1998 13.65C21.1998 13.6513 21.1998 13.6525 21.1998 13.6538C21.1998 13.655 21.1998 13.6563 21.1998 13.6575C21.1998 13.6588 21.1998 13.66 21.1998 13.6613C21.1998 13.6626 21.1998 13.6639 21.1998 13.6652C21.1998 13.6664 21.1998 13.6677 21.1998 13.669C21.1998 13.6703 21.1998 13.6716 21.1998 13.6729C21.1998 13.6742 21.1998 13.6756 21.1998 13.6769C21.1998 13.6782 21.1998 13.6795 21.1998 13.6809C21.1998 13.6822 21.1998 13.6835 21.1998 13.6849C21.1998 13.6862 21.1998 13.6876 21.1998 13.6889C21.1998 13.6903 21.1998 13.6917 21.1998 13.693C21.1998 13.6944 21.1998 13.6958 21.1998 13.6972C21.1998 13.6985 21.1998 13.6999 21.1998 13.7013C21.1998 13.7027 21.1998 13.7041 21.1998 13.7055C21.1998 13.7069 21.1998 13.7083 21.1998 13.7098C21.1998 13.7112 21.1998 13.7126 21.1998 13.714C21.1998 13.7155 21.1998 13.7169 21.1998 13.7183C21.1998 13.7198 21.1998 13.7212 21.1998 13.7227C21.1998 13.7241 21.1998 13.7256 21.1998 13.7271C21.1998 13.7285 21.1998 13.73 21.1998 13.7315C21.1998 13.733 21.1998 13.7345 21.1998 13.7359C21.1998 13.7374 21.1998 13.7389 21.1998 13.7404C21.1998 13.7419 21.1998 13.7434 21.1998 13.7449C21.1998 13.7465 21.1998 13.748 21.1998 13.7495C21.1998 13.751 21.1998 13.7526 21.1998 13.7541C21.1998 13.7556 21.1998 13.7572 21.1998 13.7587C21.1998 13.7603 21.1998 13.7618 21.1998 13.7634C21.1998 13.7649 21.1998 13.7665 21.1998 13.7681C21.1998 13.7696 21.1998 13.7712 21.1998 13.7728C21.1998 13.7744 21.1998 13.776 21.1998 13.7776C21.1998 13.7791 21.1998 13.7807 21.1998 13.7823C21.1998 13.784 21.1998 13.7856 21.1998 13.7872C21.1998 13.7888 21.1998 13.7904 21.1998 13.792C21.1998 13.7937 21.1998 13.7953 21.1998 13.7969C21.1998 13.7986 21.1998 13.8002 21.1998 13.8019C21.1998 13.8035 21.1998 13.8052 21.1998 13.8068C21.1998 13.8085 21.1998 13.8101 21.1998 13.8118C21.1998 13.8135 21.1998 13.8152 21.1998 13.8168C21.1998 13.8185 21.1998 13.8202 21.1998 13.8219C21.1998 13.8236 21.1998 13.8253 21.1998 13.827C21.1998 13.8287 21.1998 13.8304 21.1998 13.8321C21.1998 13.8338 21.1998 13.8355 21.1998 13.8373C21.1998 13.839 21.1998 13.8407 21.1998 13.8425C21.1998 13.8442 21.1998 13.8459 21.1998 13.8477C21.1998 13.8494 21.1998 13.8512 21.1998 13.8529C21.1998 13.8547 21.1998 13.8564 21.1998 13.8582C21.1998 13.86 21.1998 13.8617 21.1998 13.8635C21.1998 13.8653 21.1998 13.8671 21.1998 13.8689C21.1998 13.8707 21.1998 13.8724 21.1998 13.8742C21.1998 13.876 21.1998 13.8778 21.1998 13.8796C21.1998 13.8815 21.1998 13.8833 21.1998 13.8851C21.1998 13.8869 21.1998 13.8887 21.1998 13.8906C21.1998 13.8924 21.1998 13.8942 21.1998 13.8961C21.1998 13.8979 21.1998 13.8997 21.1998 13.9016C21.1998 13.9034 21.1998 13.9053 21.1998 13.9071C21.1998 13.909 21.1998 13.9109 21.1998 13.9127C21.1998 13.9146 21.1998 13.9165 21.1998 13.9184C21.1998 13.9202 21.1998 13.9221 21.1998 13.924C21.1998 13.9259 21.1998 13.9278 21.1998 13.9297C21.1998 13.9316 21.1998 13.9335 21.1998 13.9354C21.1998 13.9373 21.1998 13.9392 21.1998 13.9411C21.1998 13.943 21.1998 13.945 21.1998 13.9469C21.1998 13.9488 21.1998 13.9508 21.1998 13.9527C21.1998 13.9546 21.1998 13.9566 21.1998 13.9585C21.1998 13.9605 21.1998 13.9624 21.1998 13.9644C21.1998 13.9663 21.1998 13.9683 21.1998 13.9703C21.1998 13.9722 21.1998 13.9742 21.1998 13.9762C21.1998 13.9781 21.1998 13.9801 21.1998 13.9821C21.1998 13.9841 21.1998 13.9861 21.1998 13.9881C21.1998 13.9901 21.1998 13.9921 21.1998 13.9941C21.1998 13.9961 21.1998 13.9981 21.1998 14.0001C21.1998 14.0021 21.1998 14.0041 21.1998 14.0061C21.1998 14.0082 21.1998 14.0102 21.1998 14.0122C21.1998 14.0143 21.1998 14.0163 21.1998 14.0183C21.1998 14.0204 21.1998 14.0224 21.1998 14.0245C21.1998 14.0265 21.1998 14.0286 21.1998 14.0306C21.1998 14.0327 21.1998 14.0347 21.1998 14.0368C21.1998 14.0389 21.1998 14.0409 21.1998 14.043C21.1998 14.0451 21.1998 14.0472 21.1998 14.0493C21.1998 14.0514 21.1998 14.0534 21.1998 14.0555C21.1998 14.0576 21.1998 14.0597 21.1998 14.0618C21.1998 14.0639 21.1998 14.066 21.1998 14.0682C21.1998 14.0703 21.1998 14.0724 21.1998 14.0745C21.1998 14.0766 21.1998 14.0787 21.1998 14.0809C21.1998 14.083 21.1998 14.0851 21.1998 14.0873C21.1998 14.0894 21.1998 14.0916 21.1998 14.0937C21.1998 14.0958 21.1998 14.098 21.1998 14.1001C21.1998 14.1023 21.1998 14.1045 21.1998 14.1066C21.1998 14.1088 21.1998 14.111 21.1998 14.1131C21.1998 14.1153 21.1998 14.1175 21.1998 14.1197C21.1998 14.1218 21.1998 14.124 21.1998 14.1262C21.1998 14.1284 21.1998 14.1306 21.1998 14.1328C21.1998 14.135 21.1998 14.1372 21.1998 14.1394C21.1998 14.1416 21.1998 14.1438 21.1998 14.146C21.1998 14.1482 21.1998 14.1504 21.1998 14.1527C21.1998 14.1549 21.1998 14.1571 21.1998 14.1593C21.1998 14.1616 21.1998 14.1638 21.1998 14.166C21.1998 14.1683 21.1998 14.1705 21.1998 14.1728C21.1998 14.175 21.1998 14.1773 21.1998 14.1795C21.1998 14.1818 21.1998 14.184 21.1998 14.1863C21.1998 14.1885 21.1998 14.1908 21.1998 14.1931C21.1998 14.1953 21.1998 14.1976 21.1998 14.1999C21.1998 14.2022 21.1998 14.2044 21.1998 14.2067C21.1998 14.209 21.1998 14.2113 21.1998 14.2136C21.1998 14.2159 21.1998 14.2182 21.1998 14.2205C21.1998 14.2228 21.1998 14.2251 21.1998 14.2274C21.1998 14.2297 21.1998 14.232 21.1998 14.2343C21.1998 14.2366 21.1998 14.239 21.1998 14.2413C21.1998 14.2436 21.1998 14.2459 21.1998 14.2483C21.1998 14.2506 21.1998 14.2529 21.1998 14.2553C21.1998 14.2576 21.1998 14.2599 21.1998 14.2623C21.1998 14.2646 21.1998 14.267 21.1998 14.2693C21.1998 14.2717 21.1998 14.274 21.1998 14.2764C21.1998 14.2787 21.1998 14.2811 21.1998 14.2835C21.1998 14.2858 21.1998 14.2882 21.1998 14.2906C21.1998 14.293 21.1998 14.2953 21.1998 14.2977C21.1998 14.3001 21.1998 14.3025 21.1998 14.3049C21.1998 14.3073 21.1998 14.3096 21.1998 14.312C21.1998 14.3144 21.1998 14.3168 21.1998 14.3192C21.1998 14.3216 21.1998 14.324 21.1998 14.3265C21.1998 14.3289 21.1998 14.3313 21.1998 14.3337C21.1998 14.3361 21.1998 14.3385 21.1998 14.3409C21.1998 14.3434 21.1998 14.3458 21.1998 14.3482C21.1998 14.3507 21.1998 14.3531 21.1998 14.3555C21.1998 14.358 21.1998 14.3604 21.1998 14.3628C21.1998 14.3653 21.1998 14.3677 21.1998 14.3702C21.1998 14.3726 21.1998 14.3751 21.1998 14.3775C21.1998 14.38 21.1998 14.3824 21.1998 14.3849C21.1998 14.3874 21.1998 14.3898 21.1998 14.3923C21.1998 14.3948 21.1998 14.3972 21.1998 14.3997C21.1998 14.4022 21.1998 14.4047 21.1998 14.4072C21.1998 14.4096 21.1998 14.4121 21.1998 14.4146C21.1998 14.4171 21.1998 14.4196 21.1998 14.4221C21.1998 14.4246 21.1998 14.4271 21.1998 14.4296C21.1998 14.4321 21.1998 14.4346 21.1998 14.4371C21.1998 14.4396 21.1998 14.4421 21.1998 14.4446C21.1998 14.4471 21.1998 14.4496 21.1998 14.4522C21.1998 14.4547 21.1998 14.4572 21.1998 14.4597C21.1998 14.4623 21.1998 14.4648 21.1998 14.4673C21.1998 14.4698 21.1998 14.4724 21.1998 14.4749C21.1998 14.4775 21.1998 14.48 21.1998 14.4825C21.1998 14.4851 21.1998 14.4876 21.1998 14.4902C21.1998 14.4927 21.1998 14.4953 21.1998 14.4978C21.1998 14.5004 21.1998 14.5029 21.1998 14.5055C21.1998 14.5081 21.1998 14.5106 21.1998 14.5132C21.1998 14.5158 21.1998 14.5183 21.1998 14.5209C21.1998 14.5235 21.1998 14.526 21.1998 14.5286C21.1998 14.5312 21.1998 14.5338 21.1998 14.5364C21.1998 14.5389 21.1998 14.5415 21.1998 14.5441C21.1998 14.5467 21.1998 14.5493 21.1998 14.5519C21.1998 14.5545 21.1998 14.5571 21.1998 14.5597C21.1998 14.5623 21.1998 14.5649 21.1998 14.5675C21.1998 14.5701 21.1998 14.5727 21.1998 14.5753C21.1998 14.5779 21.1998 14.5805 21.1998 14.5832C21.1998 14.5858 21.1998 14.5884 21.1998 14.591C21.1998 14.5936 21.1998 14.5963 21.1998 14.5989C21.1998 14.6015 21.1998 14.6041 21.1998 14.6068C21.1998 14.6094 21.1998 14.612 21.1998 14.6147C21.1998 14.6173 21.1998 14.6199 21.1998 14.6226C21.1998 14.6252 21.1998 14.6279 21.1998 14.6305C21.1998 14.6332 21.1998 14.6358 21.1998 14.6385C21.1998 14.6411 21.1998 14.6438 21.1998 14.6464C21.1998 14.6491 21.1998 14.6517 21.1998 14.6544C21.1998 14.6571 21.1998 14.6597 21.1998 14.6624C21.1998 14.6651 21.1998 14.6677 21.1998 14.6704C21.1998 14.6731 21.1998 14.6757 21.1998 14.6784C21.1998 14.6811 21.1998 14.6838 21.1998 14.6864C21.1998 14.6891 21.1998 14.6918 21.1998 14.6945C21.1998 14.6972 21.1998 14.6999 21.1998 14.7026C21.1998 14.7052 21.1998 14.7079 21.1998 14.7106C21.1998 14.7133 21.1998 14.716 21.1998 14.7187C21.1998 14.7214 21.1998 14.7241 21.1998 14.7268C21.1998 14.7295 21.1998 14.7322 21.1998 14.7349C21.1998 14.7376 21.1998 14.7403 21.1998 14.7431C21.1998 14.7458 21.1998 14.7485 21.1998 14.7512C21.1998 14.7539 21.1998 14.7566 21.1998 14.7594C21.1998 14.7621 21.1998 14.7648 21.1998 14.7675C21.1998 14.7702 21.1998 14.773 21.1998 14.7757C21.1998 14.7784 21.1998 14.7812 21.1998 14.7839C21.1998 14.7866 21.1998 14.7894 21.1998 14.7921C21.1998 14.7948 21.1998 14.7976 21.1998 14.8003C21.1998 14.803 21.1998 14.8058 21.1998 14.8085C21.1998 14.8113 21.1998 14.814 21.1998 14.8168C21.1998 14.8195 21.1998 14.8223 21.1998 14.825C21.1998 14.8278 21.1998 14.8305 21.1998 14.8333C21.1998 14.836 21.1998 14.8388 21.1998 14.8416C21.1998 14.8443 21.1998 14.8471 21.1998 14.8498C21.1998 14.8526 21.1998 14.8554 21.1998 14.8581C21.1998 14.8609 21.1998 14.8637 21.1998 14.8664C21.1998 14.8692 21.1998 14.872 21.1998 14.8748C21.1998 14.8775 21.1998 14.8803 21.1998 14.8831C21.1998 14.8859 21.1998 14.8886 21.1998 14.8914C21.1998 14.8942 21.1998 14.897 21.1998 14.8998C21.1998 14.9026 21.1998 14.9053 21.1998 14.9081C21.1998 14.9109 21.1998 14.9137 21.1998 14.9165C21.1998 14.9193 21.1998 14.9221 21.1998 14.9249C21.1998 14.9277 21.1998 14.9305 21.1998 14.9333C21.1998 14.9361 21.1998 14.9389 21.1998 14.9417C21.1998 14.9445 21.1998 14.9473 21.1998 14.9501C21.1998 14.9529 21.1998 14.9557 21.1998 14.9585C21.1998 14.9613 21.1998 14.9641 21.1998 14.9669C21.1998 14.9697 21.1998 14.9725 21.1998 14.9754C21.1998 14.9782 21.1998 14.981 21.1998 14.9838C21.1998 14.9866 21.1998 14.9894 21.1998 14.9922C21.1998 14.9951 21.1998 14.9979 21.1998 15.0007C21.1998 15.0035 21.1998 15.0064 21.1998 15.0092C21.1998 15.012 21.1998 15.0148 21.1998 15.0177C21.1998 15.0205 21.1998 15.0233 21.1998 15.0261C21.1998 15.029 21.1998 15.0318 21.1998 15.0346C21.1998 15.0375 21.1998 15.0403 21.1998 15.0431C21.1998 15.046 21.1998 15.0488 21.1998 15.0517C21.1998 15.0545 21.1998 15.0573 21.1998 15.0602C21.1998 15.063 21.1998 15.0659 21.1998 15.0687C21.1998 15.0715 21.1998 15.0744 21.1998 15.0772C21.1998 15.0801 21.1998 15.0829 21.1998 15.0858C21.1998 15.0886 21.1998 15.0915 21.1998 15.0943C21.1998 15.0972 21.1998 15.1 21.1998 15.1029C21.1998 15.1057 21.1998 15.1086 21.1998 15.1114C21.1998 15.1143 21.1998 15.1171 21.1998 15.12C21.1998 15.1228 21.1998 15.1257 21.1998 15.1286C21.1998 15.1314 21.1998 15.1343 21.1998 15.1371C21.1998 15.14 21.1998 15.1429 21.1998 15.1457C21.1998 15.1486 21.1998 15.1515 21.1998 15.1543C21.1998 15.1572 21.1998 15.1601 21.1998 15.1629C21.1998 15.1658 21.1998 15.1687 21.1998 15.1715C21.1998 15.1744 21.1998 15.1773 21.1998 15.1801C21.1998 15.183 21.1998 15.1859 21.1998 15.1887C21.1998 15.1916 21.1998 15.1945 21.1998 15.1974C21.1998 15.2002 21.1998 15.2031 21.1998 15.206C21.1998 15.2089 21.1998 15.2117 21.1998 15.2146C21.1998 15.2175 21.1998 15.2204 21.1998 15.2233C21.1998 15.2261 21.1998 15.229 21.1998 15.2319C21.1998 15.2348 21.1998 15.2377 21.1998 15.2405C21.1998 15.2434 21.1998 15.2463 21.1998 15.2492C21.1998 15.2521 21.1998 15.255 21.1998 15.2578C21.1998 15.2607 21.1998 15.2636 21.1998 15.2665C21.1998 15.2694 21.1998 15.2723 21.1998 15.2752C21.1998 15.278 21.1998 15.2809 21.1998 15.2838C21.1998 15.2867 21.1998 15.2896 21.1998 15.2925C21.1998 15.2954 21.1998 15.2983 21.1998 15.3012C21.1998 15.304 21.1998 15.3069 21.1998 15.3098C21.1998 15.3127 21.1998 15.3156 21.1998 15.3185C21.1998 15.3214 21.1998 15.3243 21.1998 15.3272C21.1998 15.3301 21.1998 15.333 21.1998 15.3359C21.1998 15.3388 21.1998 15.3417 21.1998 15.3446C21.1998 15.3475 21.1998 15.3504 21.1998 15.3533C21.1998 15.3562 21.1998 15.359 21.1998 15.3619C21.1998 15.3648 21.1998 15.3677 21.1998 15.3706C21.1998 15.3735 21.1998 15.3764 21.1998 15.3793C21.1998 15.3822 21.1998 15.3851 21.1998 15.388C21.1998 15.3909 21.1998 15.3938 21.1998 15.3967C21.1998 15.3996 21.1998 15.4025 21.1998 15.4054C21.1998 15.4083 21.1998 15.4112 21.1998 15.4141C21.1998 15.4171 21.1998 15.42 21.1998 15.4229C21.1998 15.4258 21.1998 15.4287 21.1998 15.4316C21.1998 15.4345 21.1998 15.4374 21.1998 15.4403C21.1998 15.4432 21.1998 15.4461 21.1998 15.449C21.1998 15.4519 21.1998 15.4548 21.1998 15.4577C21.1998 15.4606 21.1998 15.4635 21.1998 15.4664C21.1998 15.4693 21.1998 15.4722 21.1998 15.4751C21.1998 15.478 21.1998 15.4809 21.1998 15.4838C21.1998 15.4867 21.1998 15.4896 21.1998 15.4925C21.1998 15.4954 21.1998 15.4984 21.1998 15.5013C21.1998 15.5042 21.1998 15.5071 21.1998 15.51C21.1998 15.5129 21.1998 15.5158 21.1998 15.5187C21.1998 15.5216 21.1998 15.5245 21.1998 15.5274C21.1998 15.5303 21.1998 15.5332 21.1998 15.5361C21.1998 15.539 21.1998 15.5419 21.1998 15.5448C21.1998 15.5477 21.1998 15.5506 21.1998 15.5535C21.1998 15.5564 21.1998 15.5593 21.1998 15.5622C21.1998 15.5652 21.1998 15.5681 21.1998 15.571C21.1998 15.5739 21.1998 15.5768 21.1998 15.5797C21.1998 15.5826 21.1998 15.5855 21.1998 15.5884C21.1998 15.5913 21.1998 15.5942 21.1998 15.5971C21.1998 15.6 21.1998 15.6029 21.1998 15.6058C21.1998 15.6087 21.1998 15.6116 21.1998 15.6145C21.1998 15.6174 21.1998 15.6203 21.1998 15.6232C21.1998 15.6261 21.1998 15.629 21.1998 15.6319C21.1998 15.6348 21.1998 15.6377 21.1998 15.6406C21.1998 15.6435 21.1998 15.6464 21.1998 15.6493C21.1998 15.6522 21.1998 15.6551 21.1998 15.658C21.1998 15.6609 21.1998 15.6638 21.1998 15.6667C21.1998 15.6696 21.1998 15.6725 21.1998 15.6754C21.1998 15.6783 21.1998 15.6812 21.1998 15.684C21.1998 15.6869 21.1998 15.6898 21.1998 15.6927C21.1998 15.6956 21.1998 15.6985 21.1998 15.7014C21.1998 15.7043 21.1998 15.7072 21.1998 15.7101C21.1998 15.713 21.1998 15.7159 21.1998 15.7188C21.1998 15.7216 21.1998 15.7245 21.1998 15.7274C21.1998 15.7303 21.1998 15.7332 21.1998 15.7361C21.1998 15.739 21.1998 15.7419 21.1998 15.7448C21.1998 15.7476 21.1998 15.7505 21.1998 15.7534C21.1998 15.7563 21.1998 15.7592 21.1998 15.7621C21.1998 15.765 21.1998 15.7678 21.1998 15.7707C21.1998 15.7736 21.1998 15.7765 21.1998 15.7794C21.1998 15.7822 21.1998 15.7851 21.1998 15.788C21.1998 15.7909 21.1998 15.7938 21.1998 15.7966C21.1998 15.7995 21.1998 15.8024 21.1998 15.8053C21.1998 15.8081 21.1998 15.811 21.1998 15.8139C21.1998 15.8168 21.1998 15.8196 21.1998 15.8225C21.1998 15.8254 21.1998 15.8283 21.1998 15.8311C21.1998 15.834 21.1998 15.8369 21.1998 15.8397C21.1998 15.8426 21.1998 15.8455 21.1998 15.8484C21.1998 15.8512 21.1998 15.8541 21.1998 15.857C21.1998 15.8598 21.1998 15.8627 21.1998 15.8655C21.1998 15.8684 21.1998 15.8713 21.1998 15.8741C21.1998 15.877 21.1998 15.8799 21.1998 15.8827C21.1998 15.8856 21.1998 15.8884 21.1998 15.8913C21.1998 15.8941 21.1998 15.897 21.1998 15.8999C21.1998 15.9027 21.1998 15.9056 21.1998 15.9084C21.1998 15.9113 21.1998 15.9141 21.1998 15.917C21.1998 15.9198 21.1998 15.9227 21.1998 15.9255C21.1998 15.9284 21.1998 15.9312 21.1998 15.9341C21.1998 15.9369 21.1998 15.9398 21.1998 15.9426C21.1998 15.9454 21.1998 15.9483 21.1998 15.9511C21.1998 15.954 21.1998 15.9568 21.1998 15.9597C21.1998 15.9625 21.1998 15.9653 21.1998 15.9682C21.1998 15.971 21.1998 15.9738 21.1998 15.9767C21.1998 15.9795 21.1998 15.9823 21.1998 15.9852C21.1998 15.988 21.1998 15.9908 21.1998 15.9937C21.1998 15.9965 21.1998 15.9993 21.1998 16.0021C21.1998 16.005 21.1998 16.0078 21.1998 16.0106C21.1998 16.0134 21.1998 16.0163 21.1998 16.0191C21.1998 16.0219 21.1998 16.0247 21.1998 16.0275C21.1998 16.0303 21.1998 16.0332 21.1998 16.036C21.1998 16.0388 21.1998 16.0416 21.1998 16.0444C21.1998 16.0472 21.1998 16.05 21.1998 16.0528C21.1998 16.0557 21.1998 16.0585 21.1998 16.0613C21.1998 16.0641 21.1998 16.0669 21.1998 16.0697C21.1998 16.0725 21.1998 16.0753 21.1998 16.0781C21.1998 16.0809 21.1998 16.0837 21.1998 16.0865C21.1998 16.0893 21.1998 16.0921 21.1998 16.0949C21.1998 16.0976 21.1998 16.1004 21.1998 16.1032C21.1998 16.106 21.1998 16.1088 21.1998 16.1116C21.1998 16.1144 21.1998 16.1172 21.1998 16.1199C21.1998 16.1227 21.1998 16.1255 21.1998 16.1283C21.1998 16.1311 21.1998 16.1338 21.1998 16.1366C21.1998 16.1394 21.1998 16.1422 21.1998 16.1449C21.1998 16.1477 21.1998 16.1505 21.1998 16.1532C21.1998 16.156 21.1998 16.1588 21.1998 16.1615C21.1998 16.1643 21.1998 16.1671 21.1998 16.1698C21.1998 16.1726 21.1998 16.1754 21.1998 16.1781C21.1998 16.1809 21.1998 16.1836 21.1998 16.1864C21.1998 16.1891 21.1998 16.1919 21.1998 16.1946C21.1998 16.1974 21.1998 16.2001 21.1998 16.2029C21.1998 16.2056 21.1998 16.2084 21.1998 16.2111C21.1998 16.2138 21.1998 16.2166 21.1998 16.2193C21.1998 16.2221 21.1998 16.2248 21.1998 16.2275C21.1998 16.2303 21.1998 16.233 21.1998 16.2357C21.1998 16.2385 21.1998 16.2412 21.1998 16.2439C21.1998 16.2466 21.1998 16.2494 21.1998 16.2521C21.1998 16.2548 21.1998 16.2575 21.1998 16.2602C21.1998 16.263 21.1998 16.2657 21.1998 16.2684C21.1998 16.2711 21.1998 16.2738 21.1998 16.2765C21.1998 16.2792 21.1998 16.2819 21.1998 16.2846C21.1998 16.2873 21.1998 16.29 21.1998 16.2927C21.1998 16.2954 21.1998 16.2981 21.1998 16.3008C21.1998 16.3035 21.1998 16.3062 21.1998 16.3089C21.1998 16.3116 21.1998 16.3143 21.1998 16.317C21.1998 16.3197 21.1998 16.3223 21.1998 16.325C21.1998 16.3277 21.1998 16.3304 21.1998 16.3331C21.1998 16.3357 21.1998 16.3384 21.1998 16.3411C21.1998 16.3438 21.1998 16.3464 21.1998 16.3491C21.1998 16.3518 21.1998 16.3544 21.1998 16.3571C21.1998 16.3598 21.1998 16.3624 21.1998 16.3651C21.1998 16.3677 21.1998 16.3704 21.1998 16.373C21.1998 16.3757 21.1998 16.3784 21.1998 16.381C21.1998 16.3836 21.1998 16.3863 21.1998 16.3889C21.1998 16.3916 21.1998 16.3942 21.1998 16.3969C21.1998 16.3995 21.1998 16.4021 21.1998 16.4048C21.1998 16.4074 21.1998 16.41 21.1998 16.4127C21.1998 16.4153 21.1998 16.4179 21.1998 16.4205C21.1998 16.4232 21.1998 16.4258 21.1998 16.4284C21.1998 16.431 21.1998 16.4336 21.1998 16.4362C21.1998 16.4388 21.1998 16.4415 21.1998 16.4441C21.1998 16.4467 21.1998 16.4493 21.1998 16.4519C21.1998 16.4545 21.1998 16.4571 21.1998 16.4597C21.1998 16.4623 21.1998 16.4649 21.1998 16.4675C21.1998 16.47 21.1998 16.4726 21.1998 16.4752C21.1998 16.4778 21.1998 16.4804 21.1998 16.483C21.1998 16.4855 21.1998 16.4881 21.1998 16.4907C21.1998 16.4933 21.1998 16.4958 21.1998 16.4984C21.1998 16.501 21.1998 16.5035 21.1998 16.5061C21.1998 16.5087 21.1998 16.5112 21.1998 16.5138C21.1998 16.5163 21.1998 16.5189 21.1998 16.5214C21.1998 16.524 21.1998 16.5265 21.1998 16.5291C21.1998 16.5316 21.1998 16.5342 21.1998 16.5367C21.1998 16.5393 21.1998 16.5418 21.1998 16.5443C21.1998 16.5469 21.1998 16.5494 21.1998 16.5519C21.1998 16.5544 21.1998 16.557 21.1998 16.5595C21.1998 16.562 21.1998 16.5645 21.1998 16.567C21.1998 16.5696 21.1998 16.5721 21.1998 16.5746C21.1998 16.5771 21.1998 16.5796 21.1998 16.5821C21.1998 16.5846 21.1998 16.5871 21.1998 16.5896C21.1998 16.5921 21.1998 16.5946 21.1998 16.5971C21.1998 16.5996 21.1998 16.6021 21.1998 16.6045C21.1998 16.607 21.1998 16.6095 21.1998 16.612C21.1998 16.6145 21.1998 16.6169 21.1998 16.6194C21.1998 16.6219 21.1998 16.6243 21.1998 16.6268C21.1998 16.6293 21.1998 16.6317 21.1998 16.6342C21.1998 16.6366 21.1998 16.6391 21.1998 16.6416C21.1998 16.644 21.1998 16.6465 21.1998 16.6489C21.1998 16.6513 21.1998 16.6538 21.1998 16.6562C21.1998 16.6587 21.1998 16.6611 21.1998 16.6635C21.1998 16.666 21.1998 16.6684 21.1998 16.6708C21.1998 16.6732 21.1998 16.6757 21.1998 16.6781C21.1998 16.6805 21.1998 16.6829 21.1998 16.6853C21.1998 16.6877 21.1998 16.6901 21.1998 16.6925C21.1998 16.6949 21.1998 16.6973 21.1998 16.6997C21.1998 16.7021 21.1998 16.7045 21.1998 16.7069C21.1998 16.7093 21.1998 16.7117 21.1998 16.7141C21.1998 16.7165 21.1998 16.7188 21.1998 16.7212C21.1998 16.7236 21.1998 16.726 21.1998 16.7283C21.1998 16.7307 21.1998 16.7331 21.1998 16.7354C21.1998 16.7378 21.1998 16.7402 21.1998 16.7425C21.1998 16.7449 21.1998 16.7472 21.1998 16.7496C21.1998 16.7519 21.1998 16.7543 21.1998 16.7566C21.1998 16.7589 21.1998 16.7613 21.1998 16.7636C21.1998 16.7659 21.1998 16.7683 21.1998 16.7706C21.1998 16.7729 21.1998 16.7752 21.1998 16.7776C21.1998 16.7799 21.1998 16.7822 21.1998 16.7845C21.1998 16.7868 21.1998 16.7891 21.1998 16.7914C21.1998 16.7937 21.1998 16.796 21.1998 16.7983C21.1998 16.8006 21.1998 16.8029 21.1998 16.8052C21.1998 16.8075 21.1998 16.8098 21.1998 16.812C21.1998 16.8143 21.1998 16.8166 21.1998 16.8189C21.1998 16.8211 21.1998 16.8234 21.1998 16.8257C21.1998 16.8279 21.1998 16.8302 21.1998 16.8324H23.1998ZM22.647 12.593L21.257 11.898L20.3626 13.6869L21.7526 14.3819L22.647 12.593ZM18.0371 13.6869C18.769 13.3209 19.6306 13.3209 20.3626 13.6869L21.257 11.898C19.962 11.2505 18.4377 11.2505 17.1427 11.898L18.0371 13.6869Z" fill="currentColor"/>
</g>
</svg>
