<svg width="24" height="24" viewBox="0 0 24 24" fill="none" xmlns="http://www.w3.org/2000/svg">
<g id="cart">
<path id="Icon" d="M2.3999 1.99268C1.84762 1.99268 1.3999 2.44039 1.3999 2.99268C1.3999 3.54496 1.84762 3.99268 2.3999 3.99268V1.99268ZM4.69244 2.99268L5.65767 2.73126C5.53961 2.29536 5.14405 1.99268 4.69244 1.99268V2.99268ZM8.41781 16.7479L7.45259 17.0093C7.58285 17.4903 8.04737 17.802 8.54185 17.7402L8.41781 16.7479ZM19.8805 15.3151L20.0045 16.3073C20.4292 16.2543 20.773 15.9368 20.8598 15.5177L19.8805 15.3151ZM21.5999 7.00462L22.5792 7.20722C22.6401 6.91271 22.5652 6.60641 22.3753 6.37319C22.1854 6.13998 21.9007 6.00462 21.5999 6.00462V7.00462ZM5.77901 7.00462L4.81378 7.26603L5.77901 7.00462ZM2.3999 3.99268H4.69244V1.99268H2.3999V3.99268ZM8.54185 17.7402L20.0045 16.3073L19.7565 14.3228L8.29378 15.7556L8.54185 17.7402ZM20.8598 15.5177L22.5792 7.20722L20.6206 6.80201L18.9012 15.1125L20.8598 15.5177ZM3.72721 3.25409L4.81378 7.26603L6.74423 6.7432L5.65767 2.73126L3.72721 3.25409ZM4.81378 7.26603L7.45259 17.0093L9.38304 16.4865L6.74423 6.7432L4.81378 7.26603ZM21.5999 6.00462H5.77901V8.00462H21.5999V6.00462ZM10.9999 20.4999C10.9999 20.7761 10.776 20.9999 10.4999 20.9999V22.9999C11.8806 22.9999 12.9999 21.8807 12.9999 20.4999H10.9999ZM10.4999 20.9999C10.2238 20.9999 9.9999 20.7761 9.9999 20.4999H7.9999C7.9999 21.8807 9.11919 22.9999 10.4999 22.9999V20.9999ZM9.9999 20.4999C9.9999 20.2238 10.2238 19.9999 10.4999 19.9999V17.9999C9.11919 17.9999 7.9999 19.1192 7.9999 20.4999H9.9999ZM10.4999 19.9999C10.776 19.9999 10.9999 20.2238 10.9999 20.4999H12.9999C12.9999 19.1192 11.8806 17.9999 10.4999 17.9999V19.9999ZM18.9999 20.4999C18.9999 20.7761 18.776 20.9999 18.4999 20.9999V22.9999C19.8806 22.9999 20.9999 21.8807 20.9999 20.4999H18.9999ZM18.4999 20.9999C18.2238 20.9999 17.9999 20.7761 17.9999 20.4999H15.9999C15.9999 21.8807 17.1192 22.9999 18.4999 22.9999V20.9999ZM17.9999 20.4999C17.9999 20.2238 18.2238 19.9999 18.4999 19.9999V17.9999C17.1192 17.9999 15.9999 19.1192 15.9999 20.4999H17.9999ZM18.4999 19.9999C18.776 19.9999 18.9999 20.2238 18.9999 20.4999H20.9999C20.9999 19.1192 19.8806 17.9999 18.4999 17.9999V19.9999Z" fill="currentColor"/>
</g>
</svg>
