<svg width="25" height="24" viewBox="0 0 25 24" fill="none" xmlns="http://www.w3.org/2000/svg">
<g id="clock-01">
<path id="Vector" d="M15.7838 15.3487C16.3077 15.5233 16.8741 15.2402 17.0487 14.7162C17.2234 14.1923 16.9402 13.626 16.4163 13.4513L15.7838 15.3487ZM12.5 13.2H11.5C11.5 13.6304 11.7755 14.0126 12.1838 14.1487L12.5 13.2ZM13.5 8.18225C13.5 7.62997 13.0523 7.18225 12.5 7.18225C11.9477 7.18225 11.5 7.62997 11.5 8.18225H13.5ZM16.4163 13.4513L12.8163 12.2513L12.1838 14.1487L15.7838 15.3487L16.4163 13.4513ZM13.5 13.2V8.18225H11.5V13.2H13.5ZM21.1 12C21.1 16.7496 17.2497 20.6 12.5 20.6V22.6C18.3542 22.6 23.1 17.8542 23.1 12H21.1ZM12.5 20.6C7.75037 20.6 3.90002 16.7496 3.90002 12H1.90002C1.90002 17.8542 6.64581 22.6 12.5 22.6V20.6ZM3.90002 12C3.90002 7.25034 7.75037 3.39999 12.5 3.39999V1.39999C6.64581 1.39999 1.90002 6.14577 1.90002 12H3.90002ZM12.5 3.39999C17.2497 3.39999 21.1 7.25034 21.1 12H23.1C23.1 6.14577 18.3542 1.39999 12.5 1.39999V3.39999Z" fill="currentColor"/>
</g>
</svg>
