<svg width="24" height="24" viewBox="0 0 24 24" fill="none" xmlns="http://www.w3.org/2000/svg">
<g id="cloud-rain">
<path id="Icon" d="M12 15.6L10.2 18.6M15 18.6L13.2 21.6M21 8.39999C21 11.7137 18.3137 14.4 15 14.4C13.5438 14.4 11.4 14.4 11.4 14.4C11.4 14.4 9.11306 14.4 7.8 14.4C5.14903 14.4 3 12.251 3 9.59999C3 6.94903 5.14903 4.79999 7.8 4.79999C8.54469 4.79999 9.24977 4.96958 9.87873 5.27224C10.9331 3.54952 12.8323 2.39999 15 2.39999C18.3137 2.39999 21 5.08629 21 8.39999Z" stroke="currentColor" stroke-width="2" stroke-linecap="round" stroke-linejoin="round"/>
</g>
</svg>
