<svg width="24" height="24" viewBox="0 0 24 24" fill="none" xmlns="http://www.w3.org/2000/svg">
<g id="cloud-sun">
<path id="Icon" d="M8.39196 10.9581L8.14301 11.9266C8.62689 12.051 9.12833 11.7992 9.3175 11.3368L8.39196 10.9581ZM3.91997 10.9687C4.13688 11.4766 4.72447 11.7125 5.23237 11.4955C5.74027 11.2786 5.97616 10.691 5.75924 10.1831L3.91997 10.9687ZM6.73635 5.85126L6.34359 4.93162L6.73635 5.85126ZM5.58106 5.69224C5.79797 6.20014 6.38556 6.43603 6.89346 6.21911C7.40136 6.00219 7.63725 5.41461 7.42034 4.90671L5.58106 5.69224ZM6.71336 3.25136C6.49644 2.74345 5.90886 2.50757 5.40096 2.72448C4.89305 2.9414 4.65716 3.52898 4.87408 4.03689L6.71336 3.25136ZM9.01655 4.88905C8.81079 5.40157 9.05947 5.98386 9.572 6.18961C10.0845 6.39537 10.6668 6.14669 10.8726 5.63416L9.01655 4.88905ZM11.5432 3.96374C11.7489 3.45122 11.5002 2.86893 10.9877 2.66318C10.4752 2.45742 9.8929 2.7061 9.68715 3.21863L11.5432 3.96374ZM2.79415 6.16253C2.28162 5.95677 1.69934 6.20546 1.49358 6.71798C1.28782 7.23051 1.53651 7.81279 2.04903 8.01855L2.79415 6.16253ZM3.71945 8.68915C4.23198 8.89491 4.81426 8.64622 5.02002 8.1337C5.22577 7.62117 4.97709 7.03889 4.46456 6.83313L3.71945 8.68915ZM10.0651 7.40167C10.4389 7.80826 11.0715 7.83486 11.4781 7.46108C11.8847 7.0873 11.9113 6.4547 11.5375 6.04811L10.0651 7.40167ZM20.6 13.5517C20.6 16.7863 17.978 19.4088 14.7429 19.4088V21.4088C19.0827 21.4088 22.6 17.8907 22.6 13.5517H20.6ZM14.7429 7.69451C17.978 7.69451 20.6 10.317 20.6 13.5517H22.6C22.6 9.21261 19.0827 5.69451 14.7429 5.69451V7.69451ZM9.3175 11.3368C10.1923 9.19848 12.294 7.69451 14.7429 7.69451V5.69451C11.4542 5.69451 8.63806 7.71555 7.46642 10.5795L9.3175 11.3368ZM7.19999 11.8088C7.52879 11.8088 7.84424 11.8499 8.14301 11.9266L8.64091 9.98961C8.17896 9.87087 7.6962 9.8088 7.19999 9.8088V11.8088ZM3.39999 15.6088C3.39999 13.5099 5.10058 11.8088 7.19999 11.8088V9.8088C3.99583 9.8088 1.39999 12.4055 1.39999 15.6088H3.39999ZM7.19999 19.4088C5.10058 19.4088 3.39999 17.7077 3.39999 15.6088H1.39999C1.39999 18.8121 3.99583 21.4088 7.19999 21.4088V19.4088ZM14.7429 19.4088H7.19999V21.4088H14.7429V19.4088ZM5.75924 10.1831C5.19526 8.8626 5.80857 7.33488 7.12912 6.7709L6.34359 4.93162C4.00724 5.92944 2.92214 8.63232 3.91997 10.9687L5.75924 10.1831ZM7.42034 4.90671L6.71336 3.25136L4.87408 4.03689L5.58106 5.69224L7.42034 4.90671ZM10.8726 5.63416L11.5432 3.96374L9.68715 3.21863L9.01655 4.88905L10.8726 5.63416ZM2.04903 8.01855L3.71945 8.68915L4.46456 6.83313L2.79415 6.16253L2.04903 8.01855ZM7.12912 6.7709C8.16877 6.32688 9.33928 6.61213 10.0651 7.40167L11.5375 6.04811C10.256 4.65414 8.18694 4.14435 6.34359 4.93162L7.12912 6.7709Z" fill="currentColor"/>
</g>
</svg>
