<svg width="24" height="24" viewBox="0 0 24 24" fill="none" xmlns="http://www.w3.org/2000/svg">
<g id="coins-rotate">
<path id="Icon" d="M10.2 7.80001C10.7457 5.39523 12.8963 3.60001 15.4662 3.60001C18.4486 3.60001 20.8662 6.01767 20.8662 9.00001C20.8662 11.7625 18.7919 14.0405 16.1158 14.3613M6.60005 6.00001L9.00005 3.60001L6.60005 1.20001M1.80005 8.40001V6.80001C1.80005 5.0327 3.23274 3.60001 5.00005 3.60001H7.40005M17.4 18L15 20.4L17.4 22.8M22.2 15.6V17.2C22.2 18.9673 20.7674 20.4 19 20.4H16.6M12.6 16.2C12.6 19.1823 10.1824 21.6 7.20005 21.6C4.21771 21.6 1.80005 19.1823 1.80005 16.2C1.80005 13.2177 4.21771 10.8 7.20005 10.8C10.1824 10.8 12.6 13.2177 12.6 16.2Z" stroke="currentColor" stroke-width="2" stroke-linecap="round" stroke-linejoin="round"/>
</g>
</svg>
