<svg width="24" height="24" viewBox="0 0 24 24" fill="none" xmlns="http://www.w3.org/2000/svg">
<g id="coin-hand">
<path id="Icon" d="M7.44705 20.1898C6.92311 20.3644 6.63995 20.9308 6.8146 21.4547C6.98925 21.9786 7.55557 22.2618 8.07951 22.0872L7.44705 20.1898ZM13.9941 21.5539L13.9033 20.558L13.9941 21.5539ZM17.7325 20.7231L18.1711 21.6218L17.7325 20.7231ZM21.3047 17.4735L20.5276 16.8441L20.5276 16.8441L21.3047 17.4735ZM18.8615 15.4402L19.5686 16.1473L18.8615 15.4402ZM17.2163 17.0854L17.9234 17.7925L17.2163 17.0854ZM12.7479 16.8154C12.1956 16.8154 11.7479 17.2631 11.7479 17.8154C11.7479 18.3677 12.1956 18.8154 12.7479 18.8154V16.8154ZM20.9248 15.2359L20.3701 16.068L20.9248 15.2359ZM9.0277 14.6909L9.47491 15.5853L9.47491 15.5853L9.0277 14.6909ZM13.4992 14.2818L13.7624 13.3171L13.4992 14.2818ZM15.2454 14.7581L14.9823 15.7228L15.2454 14.7581ZM15.7987 16.8415L15.0916 16.1344L15.7987 16.8415ZM14.1177 17.1083C13.7272 17.4988 13.7272 18.132 14.1177 18.5225C14.5082 18.913 15.1414 18.913 15.5319 18.5225L14.1177 17.1083ZM8.07951 22.0872C8.19626 22.0482 8.44761 22.02 8.89936 22.0522C9.33067 22.083 9.83463 22.1586 10.412 22.2492C11.5078 22.4214 12.8949 22.6581 14.0848 22.5497L13.9033 20.558C13.0163 20.6388 11.911 20.4602 10.7223 20.2735C10.1573 20.1847 9.57089 20.095 9.04163 20.0573C8.5328 20.021 7.95337 20.021 7.44705 20.1898L8.07951 22.0872ZM14.0848 22.5497C14.8487 22.4801 15.5009 22.447 16.1017 22.3383C16.753 22.2204 17.3637 22.0158 18.1711 21.6218L17.2939 19.8244C16.6146 20.1559 16.1798 20.2916 15.7455 20.3702C15.2605 20.458 14.7869 20.4775 13.9033 20.558L14.0848 22.5497ZM18.1711 21.6218C18.9545 21.2395 19.7101 20.623 20.3592 19.9993C21.018 19.3664 21.6161 18.6779 22.0818 18.1029L20.5276 16.8441C20.0931 17.3806 19.5523 18.0011 18.9735 18.5572C18.3851 19.1225 17.8047 19.5752 17.2939 19.8244L18.1711 21.6218ZM18.1544 14.7331L16.5092 16.3783L17.9234 17.7925L19.5686 16.1473L18.1544 14.7331ZM15.454 16.8154H12.7479V18.8154H15.454V16.8154ZM16.5092 16.3783C16.2294 16.6582 15.8498 16.8154 15.454 16.8154V18.8154C16.3802 18.8154 17.2685 18.4475 17.9234 17.7925L16.5092 16.3783ZM21.4795 14.4039C20.4344 13.7071 19.0426 13.8449 18.1544 14.7331L19.5686 16.1473C19.7827 15.9332 20.1182 15.9 20.3701 16.068L21.4795 14.4039ZM22.0818 18.1029C23.0545 16.9019 22.6882 15.2097 21.4795 14.4039L20.3701 16.068C20.677 16.2726 20.7012 16.6297 20.5276 16.8441L22.0818 18.1029ZM3.19405 14.6616H6.51713V12.6616H3.19405V14.6616ZM6.3479 14.4923V21.9692H8.3479V14.4923H6.3479ZM6.51713 21.8H3.19405V23.8H6.51713V21.8ZM3.36328 21.9692V14.4923H1.36328V21.9692H3.36328ZM3.19405 21.8C3.28751 21.8 3.36328 21.8758 3.36328 21.9692H1.36328C1.36328 22.9804 2.18295 23.8 3.19405 23.8V21.8ZM6.3479 21.9692C6.3479 21.8758 6.42367 21.8 6.51713 21.8V23.8C7.52823 23.8 8.3479 22.9804 8.3479 21.9692H6.3479ZM6.51713 14.6616C6.42366 14.6616 6.3479 14.5858 6.3479 14.4923H8.3479C8.3479 13.4812 7.52823 12.6616 6.51713 12.6616V14.6616ZM3.19405 12.6616C2.18294 12.6616 1.36328 13.4812 1.36328 14.4923H3.36328C3.36328 14.5858 3.28751 14.6616 3.19405 14.6616V12.6616ZM8.21049 16.2175L9.47491 15.5853L8.58048 13.7965L7.31607 14.4287L8.21049 16.2175ZM11.6284 15.0769H11.9691V13.0769H11.6284V15.0769ZM13.2361 15.2466L14.9823 15.7228L15.5086 13.7933L13.7624 13.3171L13.2361 15.2466ZM15.0916 16.1344L14.1177 17.1083L15.5319 18.5225L16.5058 17.5486L15.0916 16.1344ZM14.9823 15.7228C15.1647 15.7726 15.2253 16.0007 15.0916 16.1344L16.5058 17.5486C17.7253 16.3291 17.1724 14.2471 15.5086 13.7933L14.9823 15.7228ZM11.9691 15.0769C12.3971 15.0769 12.8232 15.134 13.2361 15.2466L13.7624 13.3171C13.1779 13.1577 12.5749 13.0769 11.9691 13.0769V15.0769ZM9.47491 15.5853C10.1436 15.251 10.8809 15.0769 11.6284 15.0769V13.0769C10.5704 13.0769 9.52684 13.3233 8.58048 13.7965L9.47491 15.5853ZM17.1479 7.84617C17.1479 9.12917 16.1078 10.1692 14.8248 10.1692V12.1692C17.2124 12.1692 19.1479 10.2337 19.1479 7.84617H17.1479ZM14.8248 10.1692C13.5418 10.1692 12.5017 9.12917 12.5017 7.84617H10.5017C10.5017 10.2337 12.4373 12.1692 14.8248 12.1692V10.1692ZM12.5017 7.84617C12.5017 6.56317 13.5418 5.52309 14.8248 5.52309V3.52309C12.4373 3.52309 10.5017 5.4586 10.5017 7.84617H12.5017ZM14.8248 5.52309C16.1078 5.52309 17.1479 6.56317 17.1479 7.84617H19.1479C19.1479 5.4586 17.2124 3.52309 14.8248 3.52309V5.52309ZM11.5017 6.84617C10.2187 6.84617 9.17867 5.80609 9.17867 4.52309H7.17867C7.17867 6.91066 9.11417 8.84617 11.5017 8.84617V6.84617ZM9.17867 4.52309C9.17867 3.24009 10.2187 2.20001 11.5017 2.20001V0.200012C9.11417 0.200012 7.17867 2.13552 7.17867 4.52309H9.17867ZM11.5017 2.20001C12.7847 2.20001 13.8248 3.24009 13.8248 4.52309H15.8248C15.8248 2.13552 13.8893 0.200012 11.5017 0.200012V2.20001Z" fill="currentColor"/>
</g>
</svg>
