<svg width="24" height="24" viewBox="0 0 24 24" fill="none" xmlns="http://www.w3.org/2000/svg">
<g id="coin-number">
<path id="Icon" d="M7.85712 7.63639C8.63218 4.62508 11.3657 2.40002 14.619 2.40002C18.4749 2.40002 21.6008 5.52589 21.6008 9.38184C21.6008 12.456 19.6139 15.0662 16.8542 15.9982M7.85712 17.1257H9.38099M9.38099 17.1257H10.7992M9.38099 17.1257V11.5621C9.38099 11.5621 8.31718 12.2934 7.63553 12.7621M16.3628 14.6182C16.3628 18.4742 13.2369 21.6 9.38099 21.6C5.52504 21.6 2.39917 18.4742 2.39917 14.6182C2.39917 10.7623 5.52504 7.63639 9.38099 7.63639C13.2369 7.63639 16.3628 10.7623 16.3628 14.6182Z" stroke="currentColor" stroke-width="2" stroke-linecap="round" stroke-linejoin="round"/>
</g>
</svg>
