<svg width="24" height="24" viewBox="0 0 24 24" fill="none" xmlns="http://www.w3.org/2000/svg">
<g id="color-swatch-02">
<path id="Vector" d="M17.3334 21.6C16.2018 21.6 15.1165 21.1505 14.3164 20.3503C13.5162 19.5502 13.0667 18.4649 13.0667 17.3334V4.53336C13.0667 3.96756 13.2915 3.42494 13.6915 3.02486C14.0916 2.62479 14.6342 2.40002 15.2 2.40002H19.4667C20.0325 2.40002 20.5751 2.62479 20.9752 3.02486C21.3753 3.42494 21.6 3.96756 21.6 4.53336V17.3334C21.6 18.4649 21.1505 19.5502 20.3503 20.3503C19.5502 21.1505 18.4649 21.6 17.3334 21.6ZM17.3334 21.6H4.53336C3.96756 21.6 3.42494 21.3753 3.02486 20.9752C2.62479 20.5751 2.40002 20.0325 2.40002 19.4667V15.2C2.40002 14.6342 2.62479 14.0916 3.02486 13.6915C3.42494 13.2915 3.96756 13.0667 4.53336 13.0667H6.98669M13.0667 7.04002L10.9334 4.90669C10.5333 4.50675 9.99077 4.28208 9.42509 4.28208C8.85941 4.28208 8.31688 4.50675 7.91682 4.90669L4.90029 7.92322C4.50035 8.32328 4.27568 8.86581 4.27568 9.43149C4.27568 9.99717 4.50035 10.5397 4.90029 10.9398L14.5003 20.5398M17.3334 17.3334V17.344" stroke="currentColor" stroke-width="2" stroke-linecap="round" stroke-linejoin="round"/>
</g>
</svg>
