<svg width="24" height="24" viewBox="0 0 24 24" fill="none" xmlns="http://www.w3.org/2000/svg">
<g id="colors-02">
<path id="Icon" d="M5.8909 18.0198H7.05454M16.3636 13.3653H19.2727C20.558 13.3653 21.6 14.4072 21.6 15.6926V19.1835C21.6 20.4688 20.558 21.5107 19.2727 21.5107H7.05454M11.1273 6.74824L14.7044 3.17114C15.6132 2.26229 17.0868 2.26229 17.9956 3.17114L20.4641 5.63959C21.3729 6.54845 21.3729 8.02199 20.4641 8.93085L10.5454 18.8495M4.72727 21.5107H8.21817C9.50349 21.5107 10.5454 20.4688 10.5454 19.1835V5.21983C10.5454 3.93451 9.50349 2.89256 8.21817 2.89256H4.72727C3.44195 2.89256 2.39999 3.93451 2.39999 5.21983V19.1835C2.39999 20.4688 3.44195 21.5107 4.72727 21.5107Z" stroke="currentColor" stroke-width="2" stroke-linecap="round" stroke-linejoin="round"/>
</g>
</svg>
