<svg width="24" height="24" viewBox="0 0 24 24" fill="none" xmlns="http://www.w3.org/2000/svg">
<g id="colors-01">
<path id="Icon" d="M5.19997 9.44338C3.06859 10.482 1.59998 12.6695 1.59998 15.2C1.59998 18.7346 4.46535 21.6 7.99997 21.6C11.5346 21.6 14.4 18.7346 14.4 15.2C14.4 14.9291 14.3831 14.6621 14.3505 14.4M12.4 20.4923C13.4257 21.1913 14.6651 21.6 16 21.6C19.5346 21.6 22.4 18.7346 22.4 15.2C22.4 12.4505 20.6661 10.1059 18.2321 9.20002M18.4 8.80002C18.4 12.3346 15.5346 15.2 12 15.2C8.46535 15.2 5.59997 12.3346 5.59997 8.80002C5.59997 5.2654 8.46535 2.40002 12 2.40002C15.5346 2.40002 18.4 5.2654 18.4 8.80002Z" stroke="currentColor" stroke-width="2"/>
</g>
</svg>
