<svg width="24" height="24" viewBox="0 0 24 24" fill="none" xmlns="http://www.w3.org/2000/svg">
<g id="column-horizontal-01">
<g id="Vector">
<path d="M21.6 19.4666C21.6 20.6448 20.658 21.5999 19.4959 21.5999L4.5041 21.5999C3.34203 21.5999 2.39999 20.6448 2.39999 19.4666L2.39999 16.2666C2.39999 15.0884 3.34204 14.1332 4.5041 14.1332L19.4959 14.1332C20.658 14.1332 21.6 15.0884 21.6 16.2666V19.4666Z" stroke="currentColor" stroke-width="2" stroke-linecap="round" stroke-linejoin="round"/>
<path d="M21.6 4.53324C21.6 3.35503 20.658 2.3999 19.4959 2.3999L4.5041 2.3999C3.34204 2.3999 2.39999 3.35503 2.39999 4.53324L2.39999 7.73323C2.39999 8.91144 3.34204 9.86657 4.5041 9.86657H19.4959C20.658 9.86657 21.6 8.91144 21.6 7.73323V4.53324Z" stroke="currentColor" stroke-width="2" stroke-linecap="round" stroke-linejoin="round"/>
</g>
</g>
</svg>
