<svg width="24" height="24" viewBox="0 0 24 24" fill="none" xmlns="http://www.w3.org/2000/svg">
<g id="column-vertical-01">
<g id="Vector">
<path d="M19.4667 2.3999C20.6449 2.3999 21.6 3.34194 21.6 4.50401L21.6 19.4958C21.6 20.6579 20.6449 21.5999 19.4667 21.5999H16.2667C15.0885 21.5999 14.1333 20.6579 14.1333 19.4958L14.1333 4.50401C14.1333 3.34194 15.0885 2.3999 16.2667 2.3999L19.4667 2.3999Z" stroke="currentColor" stroke-width="2" stroke-linecap="round" stroke-linejoin="round"/>
<path d="M4.53333 2.3999C3.35512 2.3999 2.39999 3.34194 2.39999 4.50401L2.39999 19.4958C2.39999 20.6579 3.35512 21.5999 4.53333 21.5999H7.73333C8.91153 21.5999 9.86666 20.6579 9.86666 19.4958L9.86666 4.50401C9.86666 3.34194 8.91153 2.3999 7.73333 2.3999L4.53333 2.3999Z" stroke="currentColor" stroke-width="2" stroke-linecap="round" stroke-linejoin="round"/>
</g>
</g>
</svg>
