<svg width="24" height="24" viewBox="0 0 24 24" fill="none" xmlns="http://www.w3.org/2000/svg">
<g id="copy-right">
<path id="Icon" d="M6.0001 14.4L3.6001 14.4C2.93735 14.4 2.4001 13.8627 2.4001 13.2L2.4001 4.40001C2.4001 3.29544 3.29553 2.40001 4.4001 2.40001L13.2001 2.40001C13.8628 2.40001 14.4001 2.93727 14.4001 3.60001L14.4001 6.00001M12.0001 21.6L19.2001 21.6C20.5256 21.6 21.6001 20.5255 21.6001 19.2L21.6001 12C21.6001 10.6745 20.5256 9.60001 19.2001 9.60001L12.0001 9.60001C10.6746 9.60001 9.6001 10.6745 9.6001 12L9.6001 19.2C9.6001 20.5255 10.6746 21.6 12.0001 21.6Z" stroke="currentColor" stroke-width="2" stroke-linecap="round"/>
</g>
</svg>
