<svg width="24" height="24" viewBox="0 0 24 24" fill="none" xmlns="http://www.w3.org/2000/svg">
<g id="copy-left">
<path id="Icon" d="M17.9999 9.59999H20.3999C21.0626 9.59999 21.5999 10.1373 21.5999 10.8L21.5999 19.6C21.5999 20.7046 20.7045 21.6 19.5999 21.6L10.7999 21.6C10.1372 21.6 9.5999 21.0627 9.5999 20.4V18M11.9999 2.39999L4.7999 2.39999C3.47442 2.39999 2.3999 3.47451 2.3999 4.79999L2.3999 12C2.3999 13.3255 3.47442 14.4 4.7999 14.4L11.9999 14.4C13.3254 14.4 14.3999 13.3255 14.3999 12L14.3999 4.79999C14.3999 3.47451 13.3254 2.39999 11.9999 2.39999Z" stroke="currentColor" stroke-width="2" stroke-linecap="round"/>
</g>
</svg>
