<svg width="26" height="26" viewBox="0 0 26 26" fill="none" xmlns="http://www.w3.org/2000/svg">
<g id="target-01">
<path id="Icon" d="M12 5.8C12 6.35228 12.4477 6.8 13 6.8C13.5523 6.8 14 6.35228 14 5.8H12ZM14 1C14 0.447715 13.5523 0 13 0C12.4477 0 12 0.447715 12 1H14ZM12 25C12 25.5523 12.4477 26 13 26C13.5523 26 14 25.5523 14 25H12ZM14 20.2C14 19.6477 13.5523 19.2 13 19.2C12.4477 19.2 12 19.6477 12 20.2H14ZM20.2 12C19.6477 12 19.2 12.4477 19.2 13C19.2 13.5523 19.6477 14 20.2 14V12ZM25 14C25.5523 14 26 13.5523 26 13C26 12.4477 25.5523 12 25 12V14ZM1 12C0.447715 12 0 12.4477 0 13C0 13.5523 0.447715 14 1 14V12ZM5.8 14C6.35228 14 6.8 13.5523 6.8 13C6.8 12.4477 6.35228 12 5.8 12V14ZM21.6 12.9999C21.6 17.7496 17.7496 21.5999 13 21.5999V23.5999C18.8542 23.5999 23.6 18.8541 23.6 12.9999H21.6ZM13 21.5999C8.25035 21.5999 4.4 17.7496 4.4 12.9999H2.4C2.4 18.8541 7.14578 23.5999 13 23.5999V21.5999ZM4.4 12.9999C4.4 8.25028 8.25035 4.39993 13 4.39993V2.39993C7.14578 2.39993 2.4 7.14571 2.4 12.9999H4.4ZM13 4.39993C17.7496 4.39993 21.6 8.25028 21.6 12.9999H23.6C23.6 7.14571 18.8542 2.39993 13 2.39993V4.39993ZM14 5.8V1H12V5.8H14ZM14 25V20.2H12V25H14ZM20.2 14H25V12H20.2V14ZM1 14H5.8V12H1V14ZM15.6 13C15.6 14.4359 14.4359 15.6 13 15.6V17.6C15.5405 17.6 17.6 15.5405 17.6 13H15.6ZM13 15.6C11.5641 15.6 10.4 14.4359 10.4 13H8.4C8.4 15.5405 10.4595 17.6 13 17.6V15.6ZM10.4 13C10.4 11.5641 11.5641 10.4 13 10.4V8.4C10.4595 8.4 8.4 10.4595 8.4 13H10.4ZM13 10.4C14.4359 10.4 15.6 11.5641 15.6 13H17.6C17.6 10.4595 15.5405 8.4 13 8.4V10.4Z" fill="currentColor"/>
</g>
</svg>
