<svg width="24" height="24" viewBox="0 0 24 24" fill="none" xmlns="http://www.w3.org/2000/svg">
<g id="currency-coin-rupee">
<path id="Icon" d="M15.6 7.80002H8.40002H10.3637C11.058 7.80002 11.724 8.089 12.215 8.60339C12.706 9.11777 12.9818 9.81543 12.9818 10.5429C12.9818 11.2703 12.706 11.968 12.215 12.4824C11.724 12.9968 11.058 13.2857 10.3637 13.2857H8.40002L12.3273 17.4M8.40002 10.5429H15.6M21.6 12C21.6 17.302 17.302 21.6 12 21.6C6.69809 21.6 2.40002 17.302 2.40002 12C2.40002 6.69809 6.69809 2.40002 12 2.40002C17.302 2.40002 21.6 6.69809 21.6 12Z" stroke="currentColor" stroke-width="2" stroke-linecap="round" stroke-linejoin="round"/>
</g>
</svg>
