<svg width="24" height="24" viewBox="0 0 24 24" fill="none" xmlns="http://www.w3.org/2000/svg">
<g id="currency-coin-bath">
<path id="Icon" d="M11.7011 6.19186V7.59286M11.7011 15.9989V17.3999M21.5999 12C21.5999 17.302 17.3018 21.6 11.9999 21.6C6.69797 21.6 2.3999 17.302 2.3999 12C2.3999 6.69809 6.69797 2.40002 11.9999 2.40002C17.3018 2.40002 21.5999 6.69809 21.5999 12ZM9.59962 7.59286H13.1021C13.6595 7.59286 14.194 7.81427 14.5881 8.20837C14.9822 8.60248 15.2036 9.13701 15.2036 9.69436V9.79453C15.2036 10.3253 14.9928 10.8344 14.6174 11.2097C14.2421 11.585 13.7331 11.7959 13.2023 11.7959H9.59962H13.1021C13.6595 11.7959 14.194 12.0173 14.5881 12.4114C14.9822 12.8055 15.2036 13.34 15.2036 13.8974V13.9975C15.2036 14.5283 14.9928 15.0374 14.6174 15.4127C14.2421 15.788 13.7331 15.9989 13.2023 15.9989H9.59962V7.59286Z" stroke="currentColor" stroke-width="2" stroke-linecap="round" stroke-linejoin="round"/>
</g>
</svg>
