<svg width="24" height="24" viewBox="0 0 24 24" fill="none" xmlns="http://www.w3.org/2000/svg">
<g id="currency-coin-dollar">
<path id="Icon" d="M13.8749 9.98259C14.0555 10.5045 14.625 10.7812 15.1469 10.6006C15.6688 10.42 15.9455 9.85049 15.7649 9.32857L13.8749 9.98259ZM13.1999 8.43336L13.2438 7.43432C13.2292 7.43368 13.2146 7.43336 13.1999 7.43336V8.43336ZM10.7999 12.1V13.1V12.1ZM13.1999 15.7667V16.7667V15.7667ZM10.7999 15.7667L10.756 16.7657C10.7706 16.7664 10.7853 16.7667 10.7999 16.7667V15.7667ZM10.1249 14.2175C9.94432 13.6955 9.37481 13.4188 8.85289 13.5994C8.33097 13.78 8.05428 14.3496 8.23488 14.8715L10.1249 14.2175ZM12.9999 6.60002C12.9999 6.04774 12.5522 5.60002 11.9999 5.60002C11.4476 5.60002 10.9999 6.04774 10.9999 6.60002H12.9999ZM10.9999 8.43336C10.9999 8.98564 11.4476 9.43336 11.9999 9.43336C12.5522 9.43336 12.9999 8.98564 12.9999 8.43336H10.9999ZM12.9999 15.7667C12.9999 15.2144 12.5522 14.7667 11.9999 14.7667C11.4476 14.7667 10.9999 15.2144 10.9999 15.7667H12.9999ZM10.9999 17.6C10.9999 18.1523 11.4476 18.6 11.9999 18.6C12.5522 18.6 12.9999 18.1523 12.9999 17.6H10.9999ZM15.7649 9.32857C15.5812 8.79776 15.2448 8.33215 14.7959 7.99351L13.5914 9.59008C13.7199 9.68707 13.8197 9.82313 13.8749 9.98259L15.7649 9.32857ZM14.7959 7.99351C14.3468 7.65468 13.8063 7.45906 13.2438 7.43432L13.156 9.43239C13.3114 9.43922 13.4631 9.49327 13.5914 9.59008L14.7959 7.99351ZM13.1999 7.43336H10.7999V9.43336H13.1999V7.43336ZM10.7999 7.43336C10.0513 7.43336 9.33717 7.73641 8.81354 8.26974L10.2407 9.67092C10.3922 9.51661 10.5937 9.43336 10.7999 9.43336V7.43336ZM8.81354 8.26974C8.29053 8.80244 7.9999 9.5211 7.9999 10.2667H9.9999C9.9999 10.0398 10.0886 9.82585 10.2407 9.67092L8.81354 8.26974ZM7.9999 10.2667C7.9999 11.0123 8.29053 11.7309 8.81354 12.2636L10.2407 10.8625C10.0886 10.7075 9.9999 10.4936 9.9999 10.2667H7.9999ZM8.81354 12.2636C9.33717 12.797 10.0513 13.1 10.7999 13.1V11.1C10.5937 11.1 10.3922 11.0168 10.2407 10.8625L8.81354 12.2636ZM10.7999 13.1H13.1999V11.1H10.7999V13.1ZM13.1999 13.1C13.4061 13.1 13.6076 13.1833 13.7591 13.3376L15.1863 11.9364C14.6626 11.4031 13.9485 11.1 13.1999 11.1V13.1ZM13.7591 13.3376C13.9112 13.4925 13.9999 13.7065 13.9999 13.9334H15.9999C15.9999 13.1878 15.7093 12.4691 15.1863 11.9364L13.7591 13.3376ZM13.9999 13.9334C13.9999 14.1602 13.9112 14.3742 13.7591 14.5291L15.1863 15.9303C15.7093 15.3976 15.9999 14.6789 15.9999 13.9334H13.9999ZM13.7591 14.5291C13.6076 14.6834 13.4061 14.7667 13.1999 14.7667V16.7667C13.9485 16.7667 14.6626 16.4636 15.1863 15.9303L13.7591 14.5291ZM13.1999 14.7667H10.7999V16.7667H13.1999V14.7667ZM10.8438 14.7677C10.6884 14.7608 10.5367 14.7068 10.4084 14.61L9.20386 16.2065C9.65296 16.5454 10.1935 16.741 10.756 16.7657L10.8438 14.7677ZM10.4084 14.61C10.2799 14.513 10.1801 14.3769 10.1249 14.2175L8.23488 14.8715C8.41856 15.4023 8.755 15.8679 9.20386 16.2065L10.4084 14.61ZM10.9999 6.60002V8.43336H12.9999V6.60002H10.9999ZM10.9999 15.7667V17.6H12.9999V15.7667H10.9999ZM20.5999 12C20.5999 16.7497 16.7495 20.6 11.9999 20.6V22.6C17.8541 22.6 22.5999 17.8542 22.5999 12H20.5999ZM11.9999 20.6C7.25025 20.6 3.3999 16.7497 3.3999 12H1.3999C1.3999 17.8542 6.14568 22.6 11.9999 22.6V20.6ZM3.3999 12C3.3999 7.25037 7.25025 3.40002 11.9999 3.40002V1.40002C6.14568 1.40002 1.3999 6.14581 1.3999 12H3.3999ZM11.9999 3.40002C16.7495 3.40002 20.5999 7.25037 20.5999 12H22.5999C22.5999 6.14581 17.8541 1.40002 11.9999 1.40002V3.40002Z" fill="currentColor"/>
</g>
</svg>
