<svg width="24" height="24" viewBox="0 0 24 24" fill="none" xmlns="http://www.w3.org/2000/svg">
<g id="currency-coin-pound">
<path id="Icon" d="M15.6 16.1088C15.0408 16.3651 14.433 16.4978 13.8178 16.4978C13.2027 16.4978 12.5948 16.3651 12.0357 16.1088C11.4511 15.907 10.8297 15.8344 10.2144 15.8959C9.59903 15.9575 9.00434 16.1517 8.47131 16.4652C8.853 16.3331 9.18947 16.0956 9.44179 15.7802C9.69411 15.4648 9.85195 15.0844 9.89705 14.6831V9.33653C9.90082 8.71201 10.1095 8.10599 10.4911 7.61157C10.8726 7.11715 11.406 6.76167 12.0092 6.59974C12.6123 6.43782 13.252 6.47839 13.8299 6.71524C14.4078 6.95209 14.8919 7.37212 15.2079 7.91079M13.3901 12.188H8.40002M21.6 12C21.6 17.3019 17.302 21.6 12 21.6C6.69809 21.6 2.40002 17.3019 2.40002 12C2.40002 6.69806 6.69809 2.39999 12 2.39999C17.302 2.39999 21.6 6.69806 21.6 12Z" stroke="currentColor" stroke-width="2" stroke-linecap="round" stroke-linejoin="round"/>
</g>
</svg>
