<svg width="24" height="24" viewBox="0 0 24 24" fill="none" xmlns="http://www.w3.org/2000/svg">
<g id="currency-coin-cent">
<path id="Icon" d="M15 8.68901C14.1656 7.93469 13.0804 7.51773 11.9555 7.51922M11.9555 7.51922C11.3574 7.51962 10.7652 7.63782 10.2128 7.86708C9.66036 8.09634 9.1585 8.43216 8.73585 8.85537C8.3132 9.27858 7.97805 9.7809 7.74953 10.3336C7.52101 10.8864 7.4036 11.4787 7.404 12.0768C7.404 14.5941 9.44124 16.6344 11.9555 16.6344M11.9555 7.51922L11.9563 6.00002M11.9555 16.6344C13.0789 16.636 14.1628 16.2202 14.997 15.4677M11.9555 16.6344L11.9563 18.1536M21.5999 12C21.5999 17.302 17.3018 21.6 11.9999 21.6C6.69797 21.6 2.3999 17.302 2.3999 12C2.3999 6.69809 6.69797 2.40002 11.9999 2.40002C17.3018 2.40002 21.5999 6.69809 21.5999 12Z" stroke="currentColor" stroke-width="2" stroke-linecap="round" stroke-linejoin="round"/>
</g>
</svg>
