<svg width="24" height="24" viewBox="0 0 24 24" fill="none" xmlns="http://www.w3.org/2000/svg">
<g id="currency-coin-bitcoin">
<path id="Icon" d="M8.3999 8.0193H13.7846C14.3202 8.0193 14.8338 8.23204 15.2125 8.61073C15.5912 8.98941 15.8039 9.50302 15.8039 10.0386C15.8039 10.5741 15.5912 11.0877 15.2125 11.4664C14.8338 11.8451 14.3202 12.0578 13.7846 12.0578M13.7846 12.0578C14.3202 12.0578 14.8338 12.2706 15.2125 12.6493C15.5912 13.028 15.8039 13.5416 15.8039 14.0771C15.8039 14.6127 15.5912 15.1263 15.2125 15.505C14.8338 15.8836 14.3202 16.0964 13.7846 16.0964H8.3999M13.7846 12.0578H9.74608M9.74608 8.0193V16.0964M10.4192 6.00002V8.0193M13.1115 6.00002V8.0193M10.4192 16.0964V18.1157M13.1115 16.0964V18.1157M21.5999 12C21.5999 17.302 17.3018 21.6 11.9999 21.6C6.69797 21.6 2.3999 17.302 2.3999 12C2.3999 6.69809 6.69797 2.40002 11.9999 2.40002C17.3018 2.40002 21.5999 6.69809 21.5999 12Z" stroke="currentColor" stroke-width="2" stroke-linecap="round" stroke-linejoin="round"/>
</g>
</svg>
