<svg width="24" height="24" viewBox="0 0 24 24" fill="none" xmlns="http://www.w3.org/2000/svg">
<g id="currency-coin-euro">
<path id="Icon" d="M14.9999 8.62333C14.4188 7.95913 13.6826 7.50985 12.8836 7.33183C12.0846 7.15381 11.2583 7.25497 10.5083 7.62263C9.75837 7.99028 9.11815 8.60807 8.66793 9.39852C8.21772 10.189 7.97755 11.1169 7.97755 12.066C7.97755 13.015 8.21772 13.9429 8.66793 14.7334C9.11815 15.5238 9.75837 16.1416 10.5083 16.5093C11.2583 16.8769 12.0846 16.9781 12.8836 16.8001C13.6826 16.6221 14.4188 16.1728 14.9999 15.5086M12.1081 10.6889H6.5999M6.5999 13.443H12.1081M21.5999 12C21.5999 17.302 17.3018 21.6 11.9999 21.6C6.69797 21.6 2.3999 17.302 2.3999 12C2.3999 6.69809 6.69797 2.40002 11.9999 2.40002C17.3018 2.40002 21.5999 6.69809 21.5999 12Z" stroke="currentColor" stroke-width="2" stroke-linecap="round" stroke-linejoin="round"/>
</g>
</svg>
