<svg width="24" height="24" viewBox="0 0 24 24" fill="none" xmlns="http://www.w3.org/2000/svg">
<g id="data-02">
<path id="Vector" d="M17.7603 12C17.7603 13.0604 18.6199 13.92 19.6803 13.92C20.7406 13.92 21.6003 13.0604 21.6003 12C21.6003 10.9396 20.7406 10.08 19.6803 10.08C18.6199 10.08 17.7603 10.9396 17.7603 12ZM17.7603 12H12.6003M17.7603 4.32002C17.7603 5.38041 18.6199 6.24002 19.6803 6.24002C20.7406 6.24002 21.6003 5.38041 21.6003 4.32002C21.6003 3.25964 20.7406 2.40003 19.6803 2.40003C18.6199 2.40003 17.7603 3.25964 17.7603 4.32002ZM17.7603 4.32002H6.59978M17.7603 19.68C17.7603 20.7404 18.6199 21.6 19.6803 21.6C20.7406 21.6 21.6003 20.7404 21.6003 19.68C21.6003 18.6196 20.7406 17.76 19.6803 17.76C18.6199 17.76 17.7603 18.6196 17.7603 19.68ZM17.7603 19.68H12.2403C11.7101 19.68 11.2803 19.2502 11.2803 18.72V5.28003M6.23978 4.32002C6.23978 5.38041 5.38017 6.24002 4.31978 6.24002C3.25939 6.24002 2.39978 5.38041 2.39978 4.32002C2.39978 3.25964 3.25939 2.40002 4.31978 2.40002C5.38017 2.40002 6.23978 3.25964 6.23978 4.32002Z" stroke="currentColor" stroke-width="2" stroke-linecap="round"/>
</g>
</svg>
