<svg width="24" height="24" viewBox="0 0 24 24" fill="none" xmlns="http://www.w3.org/2000/svg">
<g id="data-04">
<path id="Vector" d="M12 17.3999V11.3999M19.68 17.7599C18.6196 17.7599 17.76 18.6195 17.76 19.6799C17.76 20.7403 18.6196 21.5999 19.68 21.5999C20.7404 21.5999 21.6 20.7403 21.6 19.6799C21.6 18.6195 20.7404 17.7599 19.68 17.7599ZM19.68 17.7599L19.68 12.2399C19.68 11.7097 19.2502 11.2799 18.72 11.2799H5.28002C4.74983 11.2799 4.32002 11.7097 4.32002 12.2399L4.32002 17.7599M4.32002 17.7599C3.25964 17.7599 2.40002 18.6195 2.40002 19.6799C2.40002 20.7403 3.25964 21.5999 4.32002 21.5999C5.38041 21.5999 6.24002 20.7403 6.24002 19.6799C6.24002 18.6195 5.38041 17.7599 4.32002 17.7599ZM12 21.5999C10.9396 21.5999 10.08 20.7403 10.08 19.6799C10.08 18.6195 10.9396 17.7599 12 17.7599C13.0604 17.7599 13.92 18.6195 13.92 19.6799C13.92 20.7403 13.0604 21.5999 12 21.5999ZM6.00002 7.1999H18C18.6628 7.1999 19.2 6.66264 19.2 5.9999V3.5999C19.2 2.93716 18.6628 2.3999 18 2.3999H6.00002C5.33728 2.3999 4.80002 2.93716 4.80002 3.5999V5.9999C4.80002 6.66264 5.33728 7.1999 6.00002 7.1999Z" stroke="currentColor" stroke-width="2" stroke-linecap="round"/>
</g>
</svg>
