<svg width="24" height="24" viewBox="0 0 24 24" fill="none" xmlns="http://www.w3.org/2000/svg">
<g id="data-01">
<path id="Vector" d="M6.24002 12C6.24002 13.0604 5.38041 13.92 4.32002 13.92C3.25964 13.92 2.40002 13.0604 2.40002 12C2.40002 10.9396 3.25964 10.08 4.32002 10.08C5.38041 10.08 6.24002 10.9396 6.24002 12ZM6.24002 12H17.76M17.76 12C17.76 13.0604 18.6196 13.92 19.68 13.92C20.7404 13.92 21.6 13.0604 21.6 12C21.6 10.9396 20.7404 10.08 19.68 10.08C18.6196 10.08 17.76 10.9396 17.76 12ZM17.76 4.32002C17.76 5.38041 18.6196 6.24002 19.68 6.24002C20.7404 6.24002 21.6 5.38041 21.6 4.32002C21.6 3.25964 20.7404 2.40002 19.68 2.40002C18.6196 2.40002 17.76 3.25964 17.76 4.32002ZM17.76 4.32002H12.24C11.7098 4.32002 11.28 4.74983 11.28 5.28002V18.72C11.28 19.2502 11.7098 19.68 12.24 19.68H17.76M17.76 19.68C17.76 20.7404 18.6196 21.6 19.68 21.6C20.7404 21.6 21.6 20.7404 21.6 19.68C21.6 18.6196 20.7404 17.76 19.68 17.76C18.6196 17.76 17.76 18.6196 17.76 19.68Z" stroke="currentColor" stroke-width="2" stroke-linecap="round"/>
</g>
</svg>
