<svg width="24" height="24" viewBox="0 0 24 24" fill="none" xmlns="http://www.w3.org/2000/svg">
<g id="delivery">
<path id="Icon" d="M9.02059 16.5818C9.02059 18.0278 7.83492 19.2 6.37232 19.2C4.90971 19.2 3.72404 18.0278 3.72404 16.5818M9.02059 16.5818C9.02059 15.1358 7.83492 13.9636 6.37232 13.9636C4.90971 13.9636 3.72404 15.1358 3.72404 16.5818M9.02059 16.5818H14.9792M3.72404 16.5818H2.3999V5.8C2.3999 5.24772 2.84762 4.8 3.3999 4.8H14.9792V16.5818M20.9378 16.5818C20.9378 18.0278 19.7522 19.2 18.2896 19.2C16.827 19.2 15.6413 18.0278 15.6413 16.5818M20.9378 16.5818C20.9378 15.1358 19.7522 13.9636 18.2896 13.9636C16.827 13.9636 15.6413 15.1358 15.6413 16.5818M20.9378 16.5818H21.5999V11.3455L18.2896 8.07273H14.9792V16.5818M15.6413 16.5818H14.9792" stroke="currentColor" stroke-width="2" stroke-linecap="round" stroke-linejoin="round"/>
</g>
</svg>
