<svg width="24" height="24" viewBox="0 0 24 24" fill="none" xmlns="http://www.w3.org/2000/svg">
<g id="discount-star-01">
<path id="Icon" d="M8.40002 15.6L15.6 8.39999M8.95392 8.94934L8.93978 8.93504M15.0644 15.1227L15.0503 15.1084M7.92288 4.38732L6.90497 4.44931C5.58354 4.52979 4.52982 5.58351 4.44934 6.90495L4.38735 7.92285C4.35179 8.50676 4.12182 9.06196 3.73408 9.49999L3.05814 10.2636C2.18065 11.2549 2.18065 12.7451 3.05814 13.7364L3.73408 14.5C4.12182 14.938 4.35179 15.4932 4.38735 16.0771L4.44934 17.095C4.52982 18.4165 5.58354 19.4702 6.90498 19.5507L7.92288 19.6127C8.50679 19.6482 9.06199 19.8782 9.50002 20.2659L10.2636 20.9419C11.2549 21.8194 12.7451 21.8194 13.7364 20.9419L14.5 20.2659C14.9381 19.8782 15.4933 19.6482 16.0772 19.6127L17.0951 19.5507C18.4165 19.4702 19.4702 18.4165 19.5507 17.095L19.6127 16.0771C19.6483 15.4932 19.8782 14.938 20.266 14.5L20.9419 13.7364C21.8194 12.7451 21.8194 11.2549 20.9419 10.2636L20.266 9.49999C19.8782 9.06196 19.6483 8.50676 19.6127 7.92285L19.5507 6.90495C19.4702 5.58351 18.4165 4.52979 17.0951 4.44931L16.0772 4.38732C15.4933 4.35176 14.9381 4.12178 14.5 3.73405L13.7364 3.05811C12.7451 2.18062 11.2549 2.18062 10.2636 3.05811L9.50002 3.73405C9.06199 4.12178 8.50679 4.35176 7.92288 4.38732Z" stroke="currentColor" stroke-width="2" stroke-linecap="round"/>
</g>
</svg>
