<svg width="24" height="24" viewBox="0 0 24 24" fill="none" xmlns="http://www.w3.org/2000/svg">
<g id="discount-star-03">
<path id="Icon" d="M8.40034 15.6002L15.6003 8.40016M8.95424 8.9495L8.94009 8.93521M15.0648 15.1228L15.0506 15.1086M11.4992 3.63818L9.57481 2.57304C9.15209 2.33907 8.6277 2.52444 8.42854 2.97826L7.52188 5.04422C7.40388 5.31309 7.16268 5.50076 6.88194 5.54213L4.72472 5.86005C4.25086 5.92988 3.9311 6.4013 4.02576 6.89052L4.45668 9.11768C4.51276 9.40753 4.4234 9.70721 4.21959 9.91278L2.65355 11.4923C2.30955 11.8393 2.31656 12.4167 2.66888 12.7544L4.27277 14.2921C4.48151 14.4922 4.57812 14.7894 4.5291 15.0807L4.15241 17.3185C4.06967 17.8101 4.40077 18.2729 4.87617 18.3302L7.04042 18.591C7.32208 18.625 7.56776 18.8062 7.69225 19.0719L8.6488 21.1132C8.85892 21.5616 9.38763 21.7331 9.80454 21.488L11.7025 20.3724C11.9495 20.2272 12.2504 20.2232 12.5008 20.3619L14.4252 21.427C14.848 21.661 15.3723 21.4756 15.5715 21.0218L16.4782 18.9558C16.5962 18.687 16.8374 18.4993 17.1181 18.4579L19.2753 18.14C19.7492 18.0702 20.0689 17.5987 19.9743 17.1095L19.5434 14.8824C19.4873 14.5925 19.5766 14.2928 19.7805 14.0873L21.3465 12.5077C21.6905 12.1608 21.6835 11.5834 21.3312 11.2456L19.7273 9.70794C19.5185 9.50782 19.4219 9.2106 19.4709 8.91936L19.8476 6.68153C19.9304 6.18996 19.5993 5.72715 19.1239 5.66985L16.9596 5.40901C16.678 5.37507 16.4323 5.19383 16.3078 4.92816L15.3513 2.88682C15.1411 2.43841 14.6124 2.26694 14.1955 2.51201L12.2976 3.62763C12.0506 3.77282 11.7497 3.7768 11.4992 3.63818Z" stroke="currentColor" stroke-width="2" stroke-linecap="round"/>
</g>
</svg>
