<svg width="24" height="24" viewBox="0 0 24 24" fill="none" xmlns="http://www.w3.org/2000/svg">
<g id="discount-star-02">
<path id="Icon" d="M8.40002 15.6L15.6 8.40002M8.95392 8.94937L8.93978 8.93507M15.0644 15.1227L15.0503 15.1084M9.57598 4.04282L7.63812 3.6182C7.3285 3.55035 7.01816 3.72953 6.9221 4.03159L6.3209 5.92214C6.26056 6.11189 6.11189 6.26056 5.92214 6.3209L4.03159 6.9221C3.72953 7.01816 3.55035 7.3285 3.6182 7.63812L4.04282 9.57598C4.08544 9.77048 4.03102 9.97357 3.89687 10.1207L2.5602 11.5866C2.34663 11.8208 2.34663 12.1792 2.5602 12.4134L3.89687 13.8793C4.03102 14.0265 4.08544 14.2296 4.04282 14.4241L3.6182 16.3619C3.55035 16.6715 3.72953 16.9819 4.03159 17.0779L5.92214 17.6791C6.11189 17.7395 6.26056 17.8882 6.3209 18.0779L6.9221 19.9685C7.01816 20.2705 7.3285 20.4497 7.63812 20.3818L9.57598 19.9572C9.77048 19.9146 9.97357 19.969 10.1207 20.1032L11.5866 21.4398C11.8208 21.6534 12.1792 21.6534 12.4134 21.4398L13.8793 20.1032C14.0265 19.969 14.2296 19.9146 14.4241 19.9572L16.3619 20.3818C16.6715 20.4497 16.9819 20.2705 17.0779 19.9685L17.6791 18.0779C17.7395 17.8881 17.8881 17.7395 18.0779 17.6791L19.9685 17.0779C20.2705 16.9819 20.4497 16.6715 20.3818 16.3619L19.9572 14.4241C19.9146 14.2296 19.969 14.0265 20.1032 13.8793L21.4398 12.4134C21.6534 12.1792 21.6534 11.8208 21.4398 11.5866L20.1032 10.1207C19.969 9.97357 19.9146 9.77048 19.9572 9.57598L20.3818 7.63812C20.4497 7.3285 20.2705 7.01816 19.9685 6.9221L18.0779 6.3209C17.8882 6.26056 17.7395 6.11189 17.6791 5.92214L17.0779 4.03159C16.9819 3.72953 16.6715 3.55035 16.3619 3.6182L14.4241 4.04282C14.2296 4.08544 14.0265 4.03102 13.8793 3.89687L12.4134 2.5602C12.1792 2.34663 11.8208 2.34663 11.5866 2.5602L10.1207 3.89687C9.97357 4.03102 9.77048 4.08544 9.57598 4.04282Z" stroke="currentColor" stroke-width="2" stroke-linecap="round"/>
</g>
</svg>
