<svg width="24" height="24" viewBox="0 0 24 24" fill="none" xmlns="http://www.w3.org/2000/svg">
<g id="dot-vertical">
<g id="Icon">
<path d="M12.0001 7.2C10.6746 7.2 9.6001 6.12548 9.6001 4.8C9.6001 3.47452 10.6746 2.4 12.0001 2.4C13.3256 2.4 14.4001 3.47452 14.4001 4.8C14.4001 6.12548 13.3256 7.2 12.0001 7.2Z" stroke="currentColor" stroke-width="2"/>
<path d="M12.0001 14.4C10.6746 14.4 9.6001 13.3255 9.6001 12C9.6001 10.6745 10.6746 9.6 12.0001 9.6C13.3256 9.6 14.4001 10.6745 14.4001 12C14.4001 13.3255 13.3256 14.4 12.0001 14.4Z" stroke="currentColor" stroke-width="2"/>
<path d="M12.0001 21.6C10.6746 21.6 9.6001 20.5255 9.6001 19.2C9.6001 17.8745 10.6746 16.8 12.0001 16.8C13.3256 16.8 14.4001 17.8745 14.4001 19.2C14.4001 20.5255 13.3256 21.6 12.0001 21.6Z" stroke="currentColor" stroke-width="2"/>
</g>
</g>
</svg>
