<svg width="24" height="24" viewBox="0 0 24 24" fill="none" xmlns="http://www.w3.org/2000/svg">
<g id="download">
<path id="Icon" d="M7.62856 16.1012H4.5551C2.60745 16.1012 1.02856 14.7729 1.02856 12.8252C1.02856 10.8776 2.60745 9.29871 4.5551 9.29871C4.68754 9.29871 4.81828 9.30602 4.94693 9.32024V9.29871H4.99544C4.96342 9.04199 4.94693 8.78044 4.94693 8.51504C4.94693 5.05255 7.75383 2.24565 11.2163 2.24565C13.561 2.24565 15.6051 3.53279 16.6805 5.43902C16.9433 5.40037 17.2122 5.38035 17.4857 5.38035C20.5154 5.38035 22.9714 7.83638 22.9714 10.8661C22.9714 13.6297 20.9278 15.6654 18.2694 16.0457H15.4286M11.6082 9.69055V21.7543M11.6082 21.7543L8.82856 19.0457M11.6082 21.7543L14.3143 19.0457" stroke="currentColor" stroke-width="2" stroke-linecap="round" stroke-linejoin="round"/>
</g>
</svg>
