<svg width="24" height="24" viewBox="0 0 24 24" fill="none" xmlns="http://www.w3.org/2000/svg">
<g id="edit-contained">
<path id="Icon" d="M11.0487 3.35156H5.04873C3.06051 3.35156 1.44873 4.96333 1.44873 6.95156V18.9517C1.44873 20.9399 3.06051 22.5517 5.04873 22.5517H17.0487C19.037 22.5517 20.6487 20.9399 20.6487 18.9517L20.6487 12.9516M7.44873 16.5516L11.8147 15.6718C12.0465 15.6251 12.2593 15.511 12.4264 15.3438L22.2001 5.56474C22.6687 5.09588 22.6684 4.33589 22.1994 3.86743L20.129 1.79936C19.6602 1.33109 18.9006 1.33141 18.4322 1.80007L8.65749 11.5801C8.49068 11.747 8.37678 11.9594 8.33003 12.1907L7.44873 16.5516Z" stroke="currentColor" stroke-width="2" stroke-linecap="round" stroke-linejoin="round"/>
</g>
</svg>
