<svg width="24" height="24" viewBox="0 0 24 24" fill="none" xmlns="http://www.w3.org/2000/svg">
<g id="embed">
<path id="Icon" d="M5.29255 16.4288C5.68307 16.8193 6.31624 16.8193 6.70676 16.4288C7.09729 16.0383 7.09729 15.4051 6.70676 15.0146L5.29255 16.4288ZM2.39966 12.1217L1.69255 11.4146C1.30203 11.8051 1.30203 12.4383 1.69255 12.8288L2.39966 12.1217ZM6.70676 9.22882C7.09729 8.8383 7.09729 8.20513 6.70676 7.81461C6.31624 7.42409 5.68308 7.42409 5.29255 7.81461L6.70676 9.22882ZM18.7074 7.81461C18.3168 7.42409 17.6837 7.42409 17.2931 7.81461C16.9026 8.20513 16.9026 8.8383 17.2931 9.22882L18.7074 7.81461ZM21.6002 12.1217L22.3074 12.8288C22.6979 12.4383 22.6979 11.8051 22.3074 11.4146L21.6002 12.1217ZM17.2931 15.0146C16.9026 15.4051 16.9026 16.0383 17.2931 16.4288C17.6837 16.8193 18.3168 16.8193 18.7074 16.4288L17.2931 15.0146ZM9.31778 18.2993C9.17552 18.833 9.4928 19.3809 10.0265 19.5232C10.5601 19.6654 11.108 19.3481 11.2503 18.8145L9.31778 18.2993ZM11.9997 12.1211L11.034 11.8611L11.0334 11.8635L11.9997 12.1211ZM14.7635 5.70306C14.9071 5.16978 14.5912 4.62105 14.0579 4.47745C13.5246 4.33385 12.9759 4.64975 12.8323 5.18304L14.7635 5.70306ZM6.70676 15.0146L3.10677 11.4146L1.69255 12.8288L5.29255 16.4288L6.70676 15.0146ZM3.10676 12.8288L6.70676 9.22882L5.29255 7.81461L1.69255 11.4146L3.10676 12.8288ZM17.2931 9.22882L20.8931 12.8288L22.3074 11.4146L18.7074 7.81461L17.2931 9.22882ZM20.8931 11.4146L17.2931 15.0146L18.7074 16.4288L22.3074 12.8288L20.8931 11.4146ZM11.2503 18.8145L12.9659 12.3787L11.0334 11.8635L9.31778 18.2993L11.2503 18.8145ZM12.9653 12.3811L14.7635 5.70306L12.8323 5.18304L11.0341 11.8611L12.9653 12.3811Z" fill="currentColor"/>
</g>
</svg>
