<svg width="24" height="24" viewBox="0 0 24 24" fill="none" xmlns="http://www.w3.org/2000/svg">
<g id="face-id-01">
<path id="Icon" d="M8.80002 2.3999H4.53336C3.35515 2.3999 2.40002 3.35503 2.40002 4.53324V8.7999M8.80002 21.5999H4.53336C3.35515 21.5999 2.40002 20.6448 2.40002 19.4666V15.1999M15.2 2.3999H19.4667C20.6449 2.3999 21.6 3.35503 21.6 4.53324V8.7999M21.6 15.1999V19.4666C21.6 20.6448 20.6449 21.5999 19.4667 21.5999H15.2M7.80002 9.16513V7.99514M16.2 9.16513V7.99514M8.65268 15.6001C10.0208 16.6602 13.0889 16.6602 15.0007 15.6001M11.4 12.6751L11.6486 12.4328C11.8736 12.2134 12 11.9158 12 11.6055V8.58014" stroke="currentColor" stroke-width="2" stroke-linecap="round"/>
</g>
</svg>
