<svg width="24" height="24" viewBox="0 0 24 24" fill="none" xmlns="http://www.w3.org/2000/svg">
<g id="file-code">
<path id="Vector" d="M15.103 3.10285L15.8101 2.39574V2.39574L15.103 3.10285ZM18.4971 6.49696L17.79 7.20407L18.4971 6.49696ZM9.69294 16.707C10.0835 17.0975 10.7166 17.0975 11.1072 16.707C11.4977 16.3165 11.4977 15.6833 11.1072 15.2928L9.69294 16.707ZM8.40005 13.9999L7.69294 13.2928C7.50541 13.4803 7.40005 13.7347 7.40005 13.9999C7.40005 14.2651 7.50541 14.5195 7.69294 14.707L8.40005 13.9999ZM11.1072 12.707C11.4977 12.3165 11.4977 11.6833 11.1072 11.2928C10.7166 10.9023 10.0835 10.9023 9.69294 11.2928L11.1072 12.707ZM14.3072 11.2928C13.9166 10.9023 13.2835 10.9023 12.8929 11.2928C12.5024 11.6833 12.5024 12.3165 12.8929 12.707L14.3072 11.2928ZM15.6 13.9999L16.3072 14.707C16.4947 14.5195 16.6 14.2651 16.6 13.9999C16.6 13.7347 16.4947 13.4803 16.3072 13.2928L15.6 13.9999ZM12.8929 15.2928C12.5024 15.6833 12.5024 16.3165 12.8929 16.707C13.2835 17.0975 13.9166 17.0975 14.3072 16.707L12.8929 15.2928ZM16.8001 20.5999H7.20005V22.5999H16.8001V20.5999ZM5.80005 19.1999V4.7999H3.80005V19.1999H5.80005ZM7.20005 3.3999H13.4059V1.3999H7.20005V3.3999ZM18.2001 8.19401V19.1999H20.2001V8.19401H18.2001ZM13.4059 3.3999C13.7772 3.3999 14.1333 3.5474 14.3959 3.80995L15.8101 2.39574C15.1725 1.75812 14.3077 1.3999 13.4059 1.3999V3.3999ZM7.20005 20.5999C6.42685 20.5999 5.80005 19.9731 5.80005 19.1999H3.80005C3.80005 21.0777 5.32228 22.5999 7.20005 22.5999V20.5999ZM16.8001 22.5999C18.6778 22.5999 20.2001 21.0777 20.2001 19.1999H18.2001C18.2001 19.9731 17.5732 20.5999 16.8001 20.5999V22.5999ZM17.79 7.20407C18.0526 7.46662 18.2001 7.82271 18.2001 8.19401H20.2001C20.2001 7.29228 19.8418 6.42748 19.2042 5.78985L17.79 7.20407ZM5.80005 4.7999C5.80005 4.0267 6.42685 3.3999 7.20005 3.3999V1.3999C5.32228 1.3999 3.80005 2.92213 3.80005 4.7999H5.80005ZM12.2 2.3999V7.1999H14.2001V2.3999H12.2ZM14.4001 9.3999H19.2001V7.3999H14.4001V9.3999ZM12.2 7.1999C12.2 8.41493 13.185 9.3999 14.4001 9.3999V7.3999C14.2896 7.3999 14.2001 7.31036 14.2001 7.1999H12.2ZM14.3959 3.80995L17.79 7.20407L19.2042 5.78985L15.8101 2.39574L14.3959 3.80995ZM11.1072 15.2928L9.10716 13.2928L7.69294 14.707L9.69294 16.707L11.1072 15.2928ZM9.10716 14.707L11.1072 12.707L9.69294 11.2928L7.69294 13.2928L9.10716 14.707ZM12.8929 12.707L14.8929 14.707L16.3072 13.2928L14.3072 11.2928L12.8929 12.707ZM14.8929 13.2928L12.8929 15.2928L14.3072 16.707L16.3072 14.707L14.8929 13.2928Z" fill="currentColor"/>
</g>
</svg>
