<svg width="24" height="24" viewBox="0 0 24 24" fill="none" xmlns="http://www.w3.org/2000/svg">
<g id="file-return-02">
<path id="Icon" d="M10.4998 21.6H4.4998C3.17431 21.6 2.0998 20.5254 2.09981 19.2L2.0999 4.80001C2.09991 3.47453 3.17442 2.40002 4.4999 2.40002H15.3002C16.6257 2.40002 17.7002 3.47454 17.7002 4.80002V9.60002M6.30018 7.20002H13.5002M6.30018 10.8H13.5002M6.30018 14.4H9.90018M15.3428 20.4L12.9002 17.9458M12.9002 17.9458L15.2323 15.6M12.9002 17.9458H20.1273C21.1064 17.9458 21.9002 17.152 21.9002 16.1729C21.9002 15.1938 21.1064 14.4 20.1273 14.4H17.7002" stroke="currentColor" stroke-width="2" stroke-linecap="round" stroke-linejoin="round"/>
</g>
</svg>
