<svg width="24" height="24" viewBox="0 0 24 24" fill="none" xmlns="http://www.w3.org/2000/svg">
<g id="file-04">
<path id="Icon" d="M15.0002 2.40002V6.00002C15.0002 6.66277 15.5375 7.20002 16.2002 7.20002H19.8002M18.0002 4.20002C17.4661 3.72217 16.9119 3.1554 16.5621 2.7873C16.3292 2.54236 16.0076 2.40002 15.6696 2.40002H6.59992C5.27444 2.40002 4.19993 3.47453 4.19992 4.80001L4.19983 19.2C4.19982 20.5254 5.27433 21.6 6.59982 21.6L17.3999 21.6C18.7253 21.6 19.7998 20.5255 19.7999 19.2001L19.8002 6.47786C19.8002 6.17102 19.6831 5.87606 19.4702 5.65516C19.0764 5.24667 18.4188 4.57454 18.0002 4.20002Z" stroke="currentColor" stroke-width="2" stroke-linecap="round" stroke-linejoin="round"/>
</g>
</svg>
