<svg width="24" height="24" viewBox="0 0 24 24" fill="none" xmlns="http://www.w3.org/2000/svg">
<g id="file-lock-01">
<path id="Icon" d="M9.59998 21.5999H7.19998C5.21175 21.5999 3.59998 19.9881 3.59998 17.9999V5.9999C3.59998 4.01168 5.21175 2.3999 7.19998 2.3999H15.6C17.5882 2.3999 19.2 4.01168 19.2 5.9999V8.9999M15 14.9999V13.7999C15 12.8058 15.8059 11.9999 16.8 11.9999C17.7941 11.9999 18.6 12.8058 18.6 13.7999V15.5999M14.4 21.5999H19.2C19.8627 21.5999 20.4 21.0626 20.4 20.3999V16.7999C20.4 16.1372 19.8627 15.5999 19.2 15.5999H14.4C13.7372 15.5999 13.2 16.1372 13.2 16.7999V20.3999C13.2 21.0626 13.7372 21.5999 14.4 21.5999Z" stroke="currentColor" stroke-width="2" stroke-linecap="round" stroke-linejoin="round"/>
</g>
</svg>
