<svg width="24" height="24" viewBox="0 0 24 24" fill="none" xmlns="http://www.w3.org/2000/svg">
<g id="file-lock-03">
<path id="Icon" d="M10.2 10.1999V8.9999C10.2 8.00579 11.0058 7.1999 12 7.1999C12.9941 7.1999 13.8 8.00579 13.8 8.9999V10.7999M4.19995 17.9999V5.9999C4.19995 4.01168 5.81173 2.3999 7.79995 2.3999H16.2C18.1882 2.3999 19.8 4.01168 19.8 5.9999V17.9999C19.8 19.9881 18.1882 21.5999 16.2 21.5999H7.79995C5.81173 21.5999 4.19995 19.9881 4.19995 17.9999ZM9.59995 16.7999H14.4C15.0627 16.7999 15.6 16.2626 15.6 15.5999V11.9999C15.6 11.3372 15.0627 10.7999 14.4 10.7999H9.59995C8.93721 10.7999 8.39995 11.3372 8.39995 11.9999V15.5999C8.39995 16.2626 8.93721 16.7999 9.59995 16.7999Z" stroke="currentColor" stroke-width="2" stroke-linecap="round" stroke-linejoin="round"/>
</g>
</svg>
