<svg width="24" height="24" viewBox="0 0 24 24" fill="none" xmlns="http://www.w3.org/2000/svg">
<g id="file-shred">
<path id="Icon" d="M16.5622 2.7873L15.8374 3.47623V3.47623L16.5622 2.7873ZM18.0004 4.20002L18.6672 3.45478V3.45478L18.0004 4.20002ZM19.4703 5.65516L18.7504 6.3492V6.3492L19.4703 5.65516ZM19.8004 6.47786L18.8004 6.47783V6.47786H19.8004ZM4.20009 4.80001L3.20009 4.8V4.80001H4.20009ZM2.39999 14C1.84771 14 1.39999 14.4477 1.39999 15C1.39999 15.5523 1.84771 16 2.39999 16V14ZM21.6 16C22.1523 16 22.6 15.5523 22.6 15C22.6 14.4477 22.1523 14 21.6 14V16ZM3.20009 10.2C3.20009 10.7523 3.6478 11.2 4.20009 11.2C4.75237 11.2 5.20009 10.7523 5.20009 10.2H3.20009ZM18.8004 10.2C18.8004 10.7523 19.2481 11.2 19.8004 11.2C20.3526 11.2 20.8004 10.7523 20.8004 10.2H18.8004ZM5.20037 19.2C5.20037 18.6477 4.75265 18.2 4.20037 18.2C3.64808 18.2 3.20037 18.6477 3.20037 19.2H5.20037ZM3.20037 21.6C3.20037 22.1523 3.64808 22.6 4.20037 22.6C4.75265 22.6 5.20037 22.1523 5.20037 21.6H3.20037ZM13.6004 19.2C13.6004 18.6477 13.1527 18.2 12.6004 18.2C12.0481 18.2 11.6004 18.6477 11.6004 19.2H13.6004ZM11.6004 21.6C11.6004 22.1523 12.0481 22.6 12.6004 22.6C13.1527 22.6 13.6004 22.1523 13.6004 21.6H11.6004ZM22.0004 19.2C22.0004 18.6477 21.5527 18.2 21.0004 18.2C20.4481 18.2 20.0004 18.6477 20.0004 19.2H22.0004ZM20.0004 21.6C20.0004 22.1523 20.4481 22.6 21.0004 22.6C21.5527 22.6 22.0004 22.1523 22.0004 21.6H20.0004ZM9.40037 19.2C9.40037 18.6477 8.95265 18.2 8.40037 18.2C7.84808 18.2 7.40037 18.6477 7.40037 19.2H9.40037ZM7.40037 20.4C7.40037 20.9523 7.84808 21.4 8.40037 21.4C8.95265 21.4 9.40037 20.9523 9.40037 20.4H7.40037ZM17.8004 19.2C17.8004 18.6477 17.3527 18.2 16.8004 18.2C16.2481 18.2 15.8004 18.6477 15.8004 19.2H17.8004ZM15.8004 20.4C15.8004 20.9523 16.2481 21.4 16.8004 21.4C17.3527 21.4 17.8004 20.9523 17.8004 20.4H15.8004ZM6.60009 3.40002H15.0004V1.40002H6.60009V3.40002ZM15.0004 3.40002H15.6698V1.40002H15.0004V3.40002ZM15.8374 3.47623C16.1934 3.85078 16.7694 4.44045 17.3336 4.94527L18.6672 3.45478C18.1632 3.00388 17.6308 2.46002 17.287 2.09837L15.8374 3.47623ZM17.3336 4.94527C17.72 5.29103 18.3522 5.93618 18.7504 6.3492L20.1903 4.96111C19.8009 4.55716 19.1179 3.85805 18.6672 3.45478L17.3336 4.94527ZM20.8004 6.47788C20.8004 5.91653 20.5859 5.37152 20.1903 4.96111L18.7504 6.3492C18.7807 6.3806 18.8004 6.42551 18.8004 6.47783L20.8004 6.47788ZM15.6698 3.40002C15.7251 3.40002 15.7874 3.42361 15.8374 3.47623L17.287 2.09837C16.8714 1.6611 16.2903 1.40002 15.6698 1.40002V3.40002ZM6.60009 1.40002C4.72233 1.40002 3.2001 2.92225 3.20009 4.8L5.20009 4.80002C5.20009 4.02682 5.82689 3.40002 6.60009 3.40002V1.40002ZM14.0004 2.40002V6.00002H16.0004V2.40002H14.0004ZM16.2004 8.20002H19.8004V6.20002H16.2004V8.20002ZM14.0004 6.00002C14.0004 7.21505 14.9853 8.20002 16.2004 8.20002V6.20002C16.0899 6.20002 16.0004 6.11048 16.0004 6.00002H14.0004ZM2.39999 16H21.6V14H2.39999V16ZM3.20009 4.80001V10.2H5.20009V4.80001H3.20009ZM18.8004 6.47786V7.20002H20.8004V6.47786H18.8004ZM18.8004 7.20002V10.2H20.8004V7.20002H18.8004ZM3.20037 19.2V21.6H5.20037V19.2H3.20037ZM11.6004 19.2V21.6H13.6004V19.2H11.6004ZM20.0004 19.2V21.6H22.0004V19.2H20.0004ZM7.40037 19.2V20.4H9.40037V19.2H7.40037ZM15.8004 19.2V20.4H17.8004V19.2H15.8004Z" fill="currentColor"/>
</g>
</svg>
