<svg width="24" height="24" viewBox="0 0 24 24" fill="none" xmlns="http://www.w3.org/2000/svg">
<g id="file-attach-03">
<path id="Icon" d="M8.70089 9.91767V13.6059C8.70089 15.4284 10.1784 16.9059 12.0009 16.9059C13.8234 16.9059 15.3009 15.4284 15.3009 13.6059V8.94708C15.3009 7.98221 14.5187 7.20002 13.5538 7.20002C12.589 7.20002 11.8068 7.98221 11.8068 8.94708V13.4118M6.59992 2.40002H17.4001C18.7256 2.40002 19.8002 3.47457 19.8001 4.80007L19.7999 19.2001C19.7998 20.5255 18.7253 21.6 17.3999 21.6L6.59982 21.6C5.27433 21.6 4.19982 20.5254 4.19983 19.2L4.19992 4.80001C4.19993 3.47453 5.27444 2.40002 6.59992 2.40002Z" stroke="currentColor" stroke-width="2" stroke-linecap="round"/>
</g>
</svg>
