<svg width="24" height="24" viewBox="0 0 24 24" fill="none" xmlns="http://www.w3.org/2000/svg">
<g id="file-branch">
<path id="Icon" d="M9.0666 20.1701C9.61889 20.1701 10.0666 19.7223 10.0666 19.1701C10.0666 18.6178 9.61889 18.1701 9.0666 18.1701V20.1701ZM4.26718 15.9702L3.26718 15.9702L4.26718 15.9702ZM5.2666 2.39998C5.26658 1.8477 4.81884 1.4 4.26656 1.40002C3.71427 1.40005 3.26658 1.84778 3.2666 2.40007L5.2666 2.39998ZM9.0666 8.31689C9.61889 8.31689 10.0666 7.86918 10.0666 7.31689C10.0666 6.76461 9.61889 6.31689 9.0666 6.31689V8.31689ZM18.6666 9.86669L18.6666 8.86669L18.6666 9.86669ZM13.8666 9.86667L13.8666 10.8667H13.8666L13.8666 9.86667ZM19.7334 2.40002L20.7334 2.40005C20.7334 2.13483 20.6281 1.88047 20.4405 1.69293C20.253 1.50538 19.9987 1.40002 19.7334 1.40002V2.40002ZM19.7333 8.80005L20.7333 8.80007V8.80007L19.7333 8.80005ZM12.7999 8.8L11.7999 8.79999V8.79999L12.7999 8.8ZM12.8 4.53336L12.1356 3.78595C11.9221 3.97572 11.8 4.24772 11.8 4.53335L12.8 4.53336ZM15.1999 2.40002V1.40002C14.955 1.40002 14.7186 1.4899 14.5356 1.65262L15.1999 2.40002ZM18.6666 21.6L18.6666 20.6L18.6666 21.6ZM13.8666 21.6L13.8666 22.6L13.8666 21.6ZM19.7334 14.1334L20.7334 14.1334C20.7334 13.8682 20.6281 13.6138 20.4405 13.4263C20.253 13.2387 19.9987 13.1334 19.7334 13.1334V14.1334ZM19.7333 20.5334L20.7333 20.5334V20.5334L19.7333 20.5334ZM12.7999 20.5333L11.7999 20.5333V20.5333L12.7999 20.5333ZM12.8 16.2667L12.1356 15.5193C11.9221 15.7091 11.8 15.981 11.8 16.2667L12.8 16.2667ZM15.1999 14.1334V13.1334C14.955 13.1334 14.7186 13.2232 14.5356 13.386L15.1999 14.1334ZM9.0666 18.1701H7.46718V20.1701H9.0666V18.1701ZM5.26718 15.9702L5.26681 7.31685L3.26681 7.31694L3.26718 15.9702L5.26718 15.9702ZM5.26681 7.31685L5.2666 2.39998L3.2666 2.40007L3.26681 7.31694L5.26681 7.31685ZM9.0666 6.31689H4.26681V8.31689H9.0666V6.31689ZM7.46718 18.1701C6.25219 18.1701 5.26724 17.1851 5.26718 15.9702L3.26718 15.9702C3.26728 18.2898 5.14766 20.1701 7.46718 20.1701V18.1701ZM18.6666 8.86669L13.8666 8.86667L13.8666 10.8667L18.6666 10.8667L18.6666 8.86669ZM18.7334 2.4L18.7333 8.80003L20.7333 8.80007L20.7334 2.40005L18.7334 2.4ZM18.6666 10.8667C19.808 10.8667 20.7333 9.94145 20.7333 8.80007L18.7333 8.80002C18.7333 8.83684 18.7034 8.86669 18.6666 8.86669L18.6666 10.8667ZM11.7999 8.79999C11.7999 9.94138 12.7252 10.8667 13.8666 10.8667L13.8666 8.86667C13.8298 8.86667 13.7999 8.83682 13.7999 8.8L11.7999 8.79999ZM13.7999 8.8L13.8 4.53337L11.8 4.53335L11.7999 8.79999L13.7999 8.8ZM15.1999 3.40002H19.7334V1.40002H15.1999V3.40002ZM14.5356 1.65262L12.1356 3.78595L13.4643 5.28076L15.8643 3.14743L14.5356 1.65262ZM18.6666 20.6L13.8666 20.6L13.8666 22.6L18.6666 22.6L18.6666 20.6ZM18.7334 14.1333L18.7333 20.5334L20.7333 20.5334L20.7334 14.1334L18.7334 14.1333ZM18.6666 22.6C19.808 22.6 20.7333 21.6748 20.7333 20.5334L18.7333 20.5334C18.7333 20.5702 18.7034 20.6 18.6666 20.6L18.6666 22.6ZM11.7999 20.5333C11.7999 21.6747 12.7252 22.6 13.8666 22.6L13.8666 20.6C13.8298 20.6 13.7999 20.5702 13.7999 20.5333L11.7999 20.5333ZM13.7999 20.5333L13.8 16.2667L11.8 16.2667L11.7999 20.5333L13.7999 20.5333ZM15.1999 15.1334H19.7334V13.1334H15.1999V15.1334ZM14.5356 13.386L12.1356 15.5193L13.4643 17.0141L15.8643 14.8808L14.5356 13.386Z" fill="currentColor"/>
</g>
</svg>
