<svg width="24" height="24" viewBox="0 0 24 24" fill="none" xmlns="http://www.w3.org/2000/svg">
<g id="fingerpint-01">
<path id="Icon" d="M8.15813 6.50034C7.37411 7.13527 6.74126 7.94094 6.30653 8.85756C5.8718 9.7742 5.64637 10.7783 5.64696 11.7952C5.65009 14.2754 5.08726 16.7227 4.00245 18.946M13.3589 22.7999C14.9615 19.3593 16.0157 13.3495 15.7791 11.7952C15.4865 9.87281 14.5654 8.33665 12.3437 8.33665C9.79803 8.33665 9.02232 10.9232 9.02232 12.0222M22.1752 18.3062C22.5896 16.1613 22.7989 13.9809 22.8 11.7952C22.8 8.98521 21.6983 6.29021 19.7373 4.30322C17.7763 2.31623 15.1166 1.19995 12.3433 1.19995C9.57003 1.19995 6.91033 2.31623 4.94931 4.30322C2.9883 6.29021 1.88662 8.98515 1.88662 11.7952C1.88772 13.1887 1.65558 14.5724 1.20007 15.8873M6.56611 21.2386C7.62603 19.3957 8.37969 17.3888 8.79693 15.2982M18.8154 15.5019C18.9671 14.2727 19.0421 13.0338 19.0397 11.7949C19.0397 9.99551 18.3341 8.2698 17.0783 6.99741C15.8226 5.72506 14.1195 5.01011 12.3437 5.01011C12.064 5.00816 11.7844 5.02436 11.5068 5.0586M18.1193 19.2072C17.9424 19.8883 17.7416 20.5703 17.5296 21.2386M9.812 22.2962C11.1457 19.8871 12.3488 15.8951 12.3488 11.8321" stroke="currentColor" stroke-width="2" stroke-linecap="round" stroke-linejoin="round"/>
</g>
</svg>
