<svg width="24" height="24" viewBox="0 0 24 24" fill="none" xmlns="http://www.w3.org/2000/svg">
<g id="fingerpint-02">
<path id="Icon" d="M5.72967 6.25876C4.9868 7.45395 4.59999 8.81562 4.59999 10.2029C4.59999 10.4804 4.65713 12.2561 4.65713 12.2561C4.65713 13.5921 4.29669 14.9068 3.60657 16.0679M16.2066 10.2029C16.2022 8.39303 15.0066 6.25876 12.5251 6.25876C10.0437 6.25876 8.59103 8.29476 8.58664 10.1004V11.1931C8.58664 13.7926 8.28744 16.2813 6.67863 18.36M9.5361 21.5999C11.4966 18.8595 12.5471 15.6026 12.5471 12.2646V10.062M14.2945 20.585C15.0066 19.7999 16.2066 16.1999 16.2066 13.7999M19.4263 18.4838C20.0769 16.3623 20.3934 12.2517 20.3934 10.0406C20.3934 5.83181 16.8856 2.41271 12.5471 2.3999H12.5251C11.1449 2.3999 9.78665 2.75419 8.58664 3.42435" stroke="currentColor" stroke-width="2" stroke-linecap="round" stroke-linejoin="round"/>
</g>
</svg>
