<svg width="24" height="24" viewBox="0 0 24 24" fill="none" xmlns="http://www.w3.org/2000/svg">
<g id="flash-off">
<path id="Icon" d="M14.1483 18.3205L12.0934 21.3199C11.7405 21.8284 10.9103 21.6001 10.9103 20.9878L10.8999 15.1343C10.8999 14.4597 10.3291 13.9201 9.62336 13.9097L5.44086 13.8578C4.93232 13.8474 4.63135 13.3181 4.91157 12.9134L6.60325 10.4537M8.3572 7.86947L11.9066 2.68028C12.2595 2.17174 13.0897 2.40007 13.0897 3.01239L13.1001 8.86581C13.1001 9.54041 13.6709 10.0801 14.3766 10.0905L18.5591 10.1423C19.0677 10.1527 19.3687 10.682 19.0884 11.0868L15.8296 15.8401M20.4002 20.3998L3.60016 3.5998" stroke="currentColor" stroke-width="2" stroke-linecap="round" stroke-linejoin="round"/>
</g>
</svg>
