<svg width="24" height="24" viewBox="0 0 24 24" fill="none" xmlns="http://www.w3.org/2000/svg">
<g id="flex-rows">
<path id="Vector" d="M17.4 9.5999V6.5999M13.8 9.5999V6.5999M10.2 17.3999V14.3999M6.59999 17.3999V14.3999M10.2 9.5999V6.5999M6.59999 9.5999L6.59999 6.5999M18 2.3999L6 2.3999C4.01177 2.3999 2.39999 4.01168 2.39999 5.9999C2.39999 7.98813 2.39999 16.0117 2.39999 17.9999C2.39999 19.9881 4.01177 21.5999 5.99999 21.5999C5.99999 21.5999 16.0118 21.5999 18 21.5999C19.9882 21.5999 21.6 19.9881 21.6 17.9999V5.9999C21.6 4.01168 19.9882 2.3999 18 2.3999Z" stroke="currentColor" stroke-width="2" stroke-linecap="round" stroke-linejoin="round"/>
</g>
</svg>
