<svg width="24" height="24" viewBox="0 0 24 24" fill="none" xmlns="http://www.w3.org/2000/svg">
<g id="folder-open-02">
<path id="Icon" d="M19.5789 10.4842V7.44207C19.5789 6.88979 19.1312 6.44207 18.5789 6.44207H11.9089C11.6437 6.44207 11.3894 6.33672 11.2018 6.14918L9.76657 4.71391C9.57903 4.52638 9.32468 4.42102 9.05946 4.42102H3.39999C2.84771 4.42102 2.39999 4.86874 2.39999 5.42102V18.5789C2.39999 19.1312 2.84771 19.5789 3.39999 19.5789H4.57616C5.04859 19.5789 5.43157 19.1959 5.43157 18.7235V18.7235C5.43157 18.6209 5.45002 18.5192 5.48604 18.4232L8.21982 11.1331C8.36619 10.7428 8.73931 10.4842 9.15615 10.4842H20.2126C20.8951 10.4842 21.3771 11.1529 21.1612 11.8004L18.7963 18.8951C18.6602 19.3035 18.2781 19.5789 17.8477 19.5789H4.42105" stroke="currentColor" stroke-width="2" stroke-linecap="round" stroke-linejoin="round"/>
</g>
</svg>
