<svg width="24" height="24" viewBox="0 0 24 24" fill="none" xmlns="http://www.w3.org/2000/svg">
<g id="folder-shield">
<path id="Icon" d="M21.5998 9.20008L22.5998 9.20003V9.20003L21.5998 9.20008ZM21.6002 18.7999L20.6002 18.8V18.8L21.6002 18.7999ZM2.39978 18.7999L1.39978 18.7999L2.39978 18.7999ZM19.1998 6.80019L19.1998 5.80019L19.1998 6.80019ZM9.97407 3.82374L10.7933 3.25028L10.7933 3.25028L9.97407 3.82374ZM9.00091 11.2553L8.55369 10.3609C8.21491 10.5302 8.00091 10.8765 8.00091 11.2553H9.00091ZM12.0009 17.7553L11.4669 18.6008C11.7931 18.8068 12.2087 18.8068 12.5349 18.6008L12.0009 17.7553ZM15.0009 11.2553H16.0009C16.0009 10.8765 15.7869 10.5302 15.4481 10.3609L15.0009 11.2553ZM10.3909 10.5603L10.8382 11.4547L10.3909 10.5603ZM13.6109 10.5603L13.1637 11.4547L13.6109 10.5603ZM3.77178 3.80005H8.00792V1.80005H3.77178V3.80005ZM3.40035 6.80005V4.20005H1.40035V6.80005H3.40035ZM3.77178 1.80005C2.44273 1.80005 1.40035 2.8941 1.40035 4.20005H3.40035C3.40035 3.9596 3.58598 3.80005 3.77178 3.80005V1.80005ZM20.5998 9.20013L20.6002 18.8L22.6002 18.7999L22.5998 9.20003L20.5998 9.20013ZM19.2002 20.2H4.79978V22.2H19.2002V20.2ZM3.39978 18.8L3.40035 6.8001L1.40035 6.8L1.39978 18.7999L3.39978 18.8ZM19.1998 5.80019L12.0575 5.80005L12.0575 7.80005L19.1998 7.80019L19.1998 5.80019ZM9.15484 4.3972L11.2383 7.37351L12.8767 6.22659L10.7933 3.25028L9.15484 4.3972ZM20.6002 18.8C20.6003 19.5732 19.9735 20.2 19.2002 20.2V22.2C21.0781 22.2 22.6003 20.6777 22.6002 18.7999L20.6002 18.8ZM4.79978 20.2C4.02656 20.2 3.39974 19.5732 3.39978 18.8L1.39978 18.7999C1.39969 20.6777 2.92195 22.2 4.79978 22.2V20.2ZM22.5998 9.20003C22.5997 7.32236 21.0775 5.80023 19.1998 5.80019L19.1998 7.80019C19.973 7.80021 20.5997 8.42697 20.5998 9.20013L22.5998 9.20003ZM8.00792 3.80005C8.46476 3.80005 8.89286 4.02294 9.15484 4.3972L10.7933 3.25028C10.1571 2.34137 9.11738 1.80005 8.00792 1.80005V3.80005ZM9.94372 9.66584L8.55369 10.3609L9.44812 12.1497L10.8382 11.4547L9.94372 9.66584ZM8.00091 11.2553V14.6003H10.0009V11.2553H8.00091ZM8.00091 14.6003C8.00091 15.4463 8.49029 16.1712 9.05922 16.7565C9.64861 17.3629 10.4754 17.9746 11.4669 18.6008L12.5349 16.9098C11.594 16.3156 10.9209 15.8024 10.4933 15.3625C10.0454 14.9017 10.0009 14.6593 10.0009 14.6003H8.00091ZM12.5349 18.6008C13.4872 17.9994 14.3262 17.4472 14.9208 16.872C15.5428 16.2704 16.0009 15.5441 16.0009 14.6003H14.0009C14.0009 14.8115 13.9252 15.0525 13.5303 15.4345C13.108 15.843 12.447 16.2909 11.4669 16.9098L12.5349 18.6008ZM16.0009 14.6003C16.0009 14.598 16.0009 14.5958 16.0009 14.5935C16.0009 14.5912 16.0009 14.589 16.0009 14.5867C16.0009 14.5844 16.0009 14.5822 16.0009 14.5799C16.0009 14.5776 16.0009 14.5753 16.0009 14.573C16.0009 14.5707 16.0009 14.5684 16.0009 14.5662C16.0009 14.5639 16.0009 14.5616 16.0009 14.5593C16.0009 14.557 16.0009 14.5546 16.0009 14.5523C16.0009 14.55 16.0009 14.5477 16.0009 14.5454C16.0009 14.5431 16.0009 14.5408 16.0009 14.5384C16.0009 14.5361 16.0009 14.5338 16.0009 14.5314C16.0009 14.5291 16.0009 14.5268 16.0009 14.5244C16.0009 14.5221 16.0009 14.5198 16.0009 14.5174C16.0009 14.5151 16.0009 14.5127 16.0009 14.5104C16.0009 14.508 16.0009 14.5056 16.0009 14.5033C16.0009 14.5009 16.0009 14.4986 16.0009 14.4962C16.0009 14.4938 16.0009 14.4914 16.0009 14.4891C16.0009 14.4867 16.0009 14.4843 16.0009 14.4819C16.0009 14.4795 16.0009 14.4772 16.0009 14.4748C16.0009 14.4724 16.0009 14.47 16.0009 14.4676C16.0009 14.4652 16.0009 14.4628 16.0009 14.4604C16.0009 14.458 16.0009 14.4556 16.0009 14.4532C16.0009 14.4508 16.0009 14.4483 16.0009 14.4459C16.0009 14.4435 16.0009 14.4411 16.0009 14.4387C16.0009 14.4362 16.0009 14.4338 16.0009 14.4314C16.0009 14.4289 16.0009 14.4265 16.0009 14.4241C16.0009 14.4216 16.0009 14.4192 16.0009 14.4167C16.0009 14.4143 16.0009 14.4118 16.0009 14.4094C16.0009 14.4069 16.0009 14.4045 16.0009 14.402C16.0009 14.3996 16.0009 14.3971 16.0009 14.3946C16.0009 14.3922 16.0009 14.3897 16.0009 14.3872C16.0009 14.3848 16.0009 14.3823 16.0009 14.3798C16.0009 14.3773 16.0009 14.3749 16.0009 14.3724C16.0009 14.3699 16.0009 14.3674 16.0009 14.3649C16.0009 14.3624 16.0009 14.3599 16.0009 14.3574C16.0009 14.3549 16.0009 14.3524 16.0009 14.3499C16.0009 14.3474 16.0009 14.3449 16.0009 14.3424C16.0009 14.3399 16.0009 14.3374 16.0009 14.3349C16.0009 14.3324 16.0009 14.3299 16.0009 14.3273C16.0009 14.3248 16.0009 14.3223 16.0009 14.3198C16.0009 14.3172 16.0009 14.3147 16.0009 14.3122C16.0009 14.3096 16.0009 14.3071 16.0009 14.3046C16.0009 14.302 16.0009 14.2995 16.0009 14.2969C16.0009 14.2944 16.0009 14.2918 16.0009 14.2893C16.0009 14.2867 16.0009 14.2842 16.0009 14.2816C16.0009 14.2791 16.0009 14.2765 16.0009 14.2739C16.0009 14.2714 16.0009 14.2688 16.0009 14.2662C16.0009 14.2637 16.0009 14.2611 16.0009 14.2585C16.0009 14.256 16.0009 14.2534 16.0009 14.2508C16.0009 14.2482 16.0009 14.2456 16.0009 14.2431C16.0009 14.2405 16.0009 14.2379 16.0009 14.2353C16.0009 14.2327 16.0009 14.2301 16.0009 14.2275C16.0009 14.2249 16.0009 14.2223 16.0009 14.2197C16.0009 14.2171 16.0009 14.2145 16.0009 14.2119C16.0009 14.2093 16.0009 14.2067 16.0009 14.2041C16.0009 14.2015 16.0009 14.1989 16.0009 14.1962C16.0009 14.1936 16.0009 14.191 16.0009 14.1884C16.0009 14.1858 16.0009 14.1831 16.0009 14.1805C16.0009 14.1779 16.0009 14.1752 16.0009 14.1726C16.0009 14.17 16.0009 14.1673 16.0009 14.1647C16.0009 14.1621 16.0009 14.1594 16.0009 14.1568C16.0009 14.1541 16.0009 14.1515 16.0009 14.1488C16.0009 14.1462 16.0009 14.1435 16.0009 14.1409C16.0009 14.1382 16.0009 14.1356 16.0009 14.1329C16.0009 14.1303 16.0009 14.1276 16.0009 14.1249C16.0009 14.1223 16.0009 14.1196 16.0009 14.1169C16.0009 14.1143 16.0009 14.1116 16.0009 14.1089C16.0009 14.1063 16.0009 14.1036 16.0009 14.1009C16.0009 14.0982 16.0009 14.0956 16.0009 14.0929C16.0009 14.0902 16.0009 14.0875 16.0009 14.0848C16.0009 14.0821 16.0009 14.0794 16.0009 14.0768C16.0009 14.0741 16.0009 14.0714 16.0009 14.0687C16.0009 14.066 16.0009 14.0633 16.0009 14.0606C16.0009 14.0579 16.0009 14.0552 16.0009 14.0525C16.0009 14.0498 16.0009 14.0471 16.0009 14.0444C16.0009 14.0416 16.0009 14.0389 16.0009 14.0362C16.0009 14.0335 16.0009 14.0308 16.0009 14.0281C16.0009 14.0254 16.0009 14.0226 16.0009 14.0199C16.0009 14.0172 16.0009 14.0145 16.0009 14.0118C16.0009 14.009 16.0009 14.0063 16.0009 14.0036C16.0009 14.0008 16.0009 13.9981 16.0009 13.9954C16.0009 13.9926 16.0009 13.9899 16.0009 13.9872C16.0009 13.9844 16.0009 13.9817 16.0009 13.9789C16.0009 13.9762 16.0009 13.9735 16.0009 13.9707C16.0009 13.968 16.0009 13.9652 16.0009 13.9625C16.0009 13.9597 16.0009 13.957 16.0009 13.9542C16.0009 13.9515 16.0009 13.9487 16.0009 13.946C16.0009 13.9432 16.0009 13.9404 16.0009 13.9377C16.0009 13.9349 16.0009 13.9321 16.0009 13.9294C16.0009 13.9266 16.0009 13.9239 16.0009 13.9211C16.0009 13.9183 16.0009 13.9155 16.0009 13.9128C16.0009 13.91 16.0009 13.9072 16.0009 13.9045C16.0009 13.9017 16.0009 13.8989 16.0009 13.8961C16.0009 13.8933 16.0009 13.8906 16.0009 13.8878C16.0009 13.885 16.0009 13.8822 16.0009 13.8794C16.0009 13.8766 16.0009 13.8739 16.0009 13.8711C16.0009 13.8683 16.0009 13.8655 16.0009 13.8627C16.0009 13.8599 16.0009 13.8571 16.0009 13.8543C16.0009 13.8515 16.0009 13.8487 16.0009 13.8459C16.0009 13.8431 16.0009 13.8403 16.0009 13.8375C16.0009 13.8347 16.0009 13.8319 16.0009 13.8291C16.0009 13.8263 16.0009 13.8235 16.0009 13.8207C16.0009 13.8179 16.0009 13.8151 16.0009 13.8123C16.0009 13.8094 16.0009 13.8066 16.0009 13.8038C16.0009 13.801 16.0009 13.7982 16.0009 13.7954C16.0009 13.7926 16.0009 13.7897 16.0009 13.7869C16.0009 13.7841 16.0009 13.7813 16.0009 13.7785C16.0009 13.7756 16.0009 13.7728 16.0009 13.77C16.0009 13.7672 16.0009 13.7643 16.0009 13.7615C16.0009 13.7587 16.0009 13.7558 16.0009 13.753C16.0009 13.7502 16.0009 13.7473 16.0009 13.7445C16.0009 13.7417 16.0009 13.7388 16.0009 13.736C16.0009 13.7332 16.0009 13.7303 16.0009 13.7275C16.0009 13.7247 16.0009 13.7218 16.0009 13.719C16.0009 13.7161 16.0009 13.7133 16.0009 13.7104C16.0009 13.7076 16.0009 13.7048 16.0009 13.7019C16.0009 13.6991 16.0009 13.6962 16.0009 13.6934C16.0009 13.6905 16.0009 13.6877 16.0009 13.6848C16.0009 13.682 16.0009 13.6791 16.0009 13.6763C16.0009 13.6734 16.0009 13.6706 16.0009 13.6677C16.0009 13.6648 16.0009 13.662 16.0009 13.6591C16.0009 13.6563 16.0009 13.6534 16.0009 13.6506C16.0009 13.6477 16.0009 13.6448 16.0009 13.642C16.0009 13.6391 16.0009 13.6362 16.0009 13.6334C16.0009 13.6305 16.0009 13.6277 16.0009 13.6248C16.0009 13.6219 16.0009 13.6191 16.0009 13.6162C16.0009 13.6133 16.0009 13.6105 16.0009 13.6076C16.0009 13.6047 16.0009 13.6018 16.0009 13.599C16.0009 13.5961 16.0009 13.5932 16.0009 13.5904C16.0009 13.5875 16.0009 13.5846 16.0009 13.5817C16.0009 13.5789 16.0009 13.576 16.0009 13.5731C16.0009 13.5702 16.0009 13.5674 16.0009 13.5645C16.0009 13.5616 16.0009 13.5587 16.0009 13.5558C16.0009 13.553 16.0009 13.5501 16.0009 13.5472C16.0009 13.5443 16.0009 13.5414 16.0009 13.5386C16.0009 13.5357 16.0009 13.5328 16.0009 13.5299C16.0009 13.527 16.0009 13.5241 16.0009 13.5213C16.0009 13.5184 16.0009 13.5155 16.0009 13.5126C16.0009 13.5097 16.0009 13.5068 16.0009 13.5039C16.0009 13.501 16.0009 13.4982 16.0009 13.4953C16.0009 13.4924 16.0009 13.4895 16.0009 13.4866C16.0009 13.4837 16.0009 13.4808 16.0009 13.4779C16.0009 13.475 16.0009 13.4721 16.0009 13.4693C16.0009 13.4664 16.0009 13.4635 16.0009 13.4606C16.0009 13.4577 16.0009 13.4548 16.0009 13.4519C16.0009 13.449 16.0009 13.4461 16.0009 13.4432C16.0009 13.4403 16.0009 13.4374 16.0009 13.4345C16.0009 13.4316 16.0009 13.4287 16.0009 13.4258C16.0009 13.4229 16.0009 13.42 16.0009 13.4171C16.0009 13.4142 16.0009 13.4113 16.0009 13.4084C16.0009 13.4055 16.0009 13.4026 16.0009 13.3997C16.0009 13.3968 16.0009 13.3939 16.0009 13.391C16.0009 13.3881 16.0009 13.3852 16.0009 13.3823C16.0009 13.3794 16.0009 13.3765 16.0009 13.3736C16.0009 13.3707 16.0009 13.3678 16.0009 13.3649C16.0009 13.362 16.0009 13.3591 16.0009 13.3562C16.0009 13.3533 16.0009 13.3504 16.0009 13.3475C16.0009 13.3446 16.0009 13.3417 16.0009 13.3388C16.0009 13.3359 16.0009 13.333 16.0009 13.3301C16.0009 13.3272 16.0009 13.3243 16.0009 13.3214C16.0009 13.3185 16.0009 13.3156 16.0009 13.3127C16.0009 13.3098 16.0009 13.3069 16.0009 13.304C16.0009 13.301 16.0009 13.2981 16.0009 13.2952C16.0009 13.2923 16.0009 13.2894 16.0009 13.2865C16.0009 13.2836 16.0009 13.2807 16.0009 13.2778C16.0009 13.2749 16.0009 13.272 16.0009 13.2691C16.0009 13.2662 16.0009 13.2633 16.0009 13.2604C16.0009 13.2575 16.0009 13.2546 16.0009 13.2517C16.0009 13.2488 16.0009 13.2459 16.0009 13.243C16.0009 13.2401 16.0009 13.2372 16.0009 13.2342C16.0009 13.2313 16.0009 13.2284 16.0009 13.2255C16.0009 13.2226 16.0009 13.2197 16.0009 13.2168C16.0009 13.2139 16.0009 13.211 16.0009 13.2081C16.0009 13.2052 16.0009 13.2023 16.0009 13.1994C16.0009 13.1965 16.0009 13.1936 16.0009 13.1907C16.0009 13.1878 16.0009 13.1849 16.0009 13.182C16.0009 13.1791 16.0009 13.1762 16.0009 13.1733C16.0009 13.1704 16.0009 13.1675 16.0009 13.1646C16.0009 13.1617 16.0009 13.1588 16.0009 13.1559C16.0009 13.153 16.0009 13.1501 16.0009 13.1472C16.0009 13.1443 16.0009 13.1414 16.0009 13.1385C16.0009 13.1356 16.0009 13.1327 16.0009 13.1298C16.0009 13.1269 16.0009 13.124 16.0009 13.1211C16.0009 13.1182 16.0009 13.1153 16.0009 13.1124C16.0009 13.1095 16.0009 13.1066 16.0009 13.1037C16.0009 13.1008 16.0009 13.0979 16.0009 13.095C16.0009 13.0921 16.0009 13.0892 16.0009 13.0864C16.0009 13.0835 16.0009 13.0806 16.0009 13.0777C16.0009 13.0748 16.0009 13.0719 16.0009 13.069C16.0009 13.0661 16.0009 13.0632 16.0009 13.0603C16.0009 13.0574 16.0009 13.0545 16.0009 13.0517C16.0009 13.0488 16.0009 13.0459 16.0009 13.043C16.0009 13.0401 16.0009 13.0372 16.0009 13.0343C16.0009 13.0314 16.0009 13.0286 16.0009 13.0257C16.0009 13.0228 16.0009 13.0199 16.0009 13.017C16.0009 13.0141 16.0009 13.0113 16.0009 13.0084C16.0009 13.0055 16.0009 13.0026 16.0009 12.9997C16.0009 12.9969 16.0009 12.994 16.0009 12.9911C16.0009 12.9882 16.0009 12.9853 16.0009 12.9825C16.0009 12.9796 16.0009 12.9767 16.0009 12.9738C16.0009 12.971 16.0009 12.9681 16.0009 12.9652C16.0009 12.9623 16.0009 12.9595 16.0009 12.9566C16.0009 12.9537 16.0009 12.9508 16.0009 12.948C16.0009 12.9451 16.0009 12.9422 16.0009 12.9394C16.0009 12.9365 16.0009 12.9336 16.0009 12.9308C16.0009 12.9279 16.0009 12.925 16.0009 12.9222C16.0009 12.9193 16.0009 12.9164 16.0009 12.9136C16.0009 12.9107 16.0009 12.9078 16.0009 12.905C16.0009 12.9021 16.0009 12.8993 16.0009 12.8964C16.0009 12.8935 16.0009 12.8907 16.0009 12.8878C16.0009 12.885 16.0009 12.8821 16.0009 12.8793C16.0009 12.8764 16.0009 12.8736 16.0009 12.8707C16.0009 12.8679 16.0009 12.865 16.0009 12.8622C16.0009 12.8593 16.0009 12.8565 16.0009 12.8536C16.0009 12.8508 16.0009 12.8479 16.0009 12.8451C16.0009 12.8422 16.0009 12.8394 16.0009 12.8365C16.0009 12.8337 16.0009 12.8309 16.0009 12.828C16.0009 12.8252 16.0009 12.8223 16.0009 12.8195C16.0009 12.8167 16.0009 12.8138 16.0009 12.811C16.0009 12.8081 16.0009 12.8053 16.0009 12.8025C16.0009 12.7996 16.0009 12.7968 16.0009 12.794C16.0009 12.7912 16.0009 12.7883 16.0009 12.7855C16.0009 12.7827 16.0009 12.7798 16.0009 12.777C16.0009 12.7742 16.0009 12.7714 16.0009 12.7686C16.0009 12.7657 16.0009 12.7629 16.0009 12.7601C16.0009 12.7573 16.0009 12.7545 16.0009 12.7516C16.0009 12.7488 16.0009 12.746 16.0009 12.7432C16.0009 12.7404 16.0009 12.7376 16.0009 12.7348C16.0009 12.7319 16.0009 12.7291 16.0009 12.7263C16.0009 12.7235 16.0009 12.7207 16.0009 12.7179C16.0009 12.7151 16.0009 12.7123 16.0009 12.7095C16.0009 12.7067 16.0009 12.7039 16.0009 12.7011C16.0009 12.6983 16.0009 12.6955 16.0009 12.6927C16.0009 12.6899 16.0009 12.6871 16.0009 12.6843C16.0009 12.6816 16.0009 12.6788 16.0009 12.676C16.0009 12.6732 16.0009 12.6704 16.0009 12.6676C16.0009 12.6648 16.0009 12.662 16.0009 12.6593C16.0009 12.6565 16.0009 12.6537 16.0009 12.6509C16.0009 12.6482 16.0009 12.6454 16.0009 12.6426C16.0009 12.6398 16.0009 12.6371 16.0009 12.6343C16.0009 12.6315 16.0009 12.6287 16.0009 12.626C16.0009 12.6232 16.0009 12.6204 16.0009 12.6177C16.0009 12.6149 16.0009 12.6122 16.0009 12.6094C16.0009 12.6066 16.0009 12.6039 16.0009 12.6011C16.0009 12.5984 16.0009 12.5956 16.0009 12.5929C16.0009 12.5901 16.0009 12.5874 16.0009 12.5846C16.0009 12.5819 16.0009 12.5791 16.0009 12.5764C16.0009 12.5736 16.0009 12.5709 16.0009 12.5681C16.0009 12.5654 16.0009 12.5627 16.0009 12.5599C16.0009 12.5572 16.0009 12.5545 16.0009 12.5517C16.0009 12.549 16.0009 12.5463 16.0009 12.5435C16.0009 12.5408 16.0009 12.5381 16.0009 12.5354C16.0009 12.5326 16.0009 12.5299 16.0009 12.5272C16.0009 12.5245 16.0009 12.5218 16.0009 12.519C16.0009 12.5163 16.0009 12.5136 16.0009 12.5109C16.0009 12.5082 16.0009 12.5055 16.0009 12.5028C16.0009 12.5001 16.0009 12.4974 16.0009 12.4947C16.0009 12.492 16.0009 12.4893 16.0009 12.4866C16.0009 12.4839 16.0009 12.4812 16.0009 12.4785C16.0009 12.4758 16.0009 12.4731 16.0009 12.4704C16.0009 12.4677 16.0009 12.465 16.0009 12.4623C16.0009 12.4596 16.0009 12.457 16.0009 12.4543C16.0009 12.4516 16.0009 12.4489 16.0009 12.4463C16.0009 12.4436 16.0009 12.4409 16.0009 12.4382C16.0009 12.4356 16.0009 12.4329 16.0009 12.4302C16.0009 12.4276 16.0009 12.4249 16.0009 12.4222C16.0009 12.4196 16.0009 12.4169 16.0009 12.4143C16.0009 12.4116 16.0009 12.409 16.0009 12.4063C16.0009 12.4037 16.0009 12.401 16.0009 12.3984C16.0009 12.3957 16.0009 12.3931 16.0009 12.3904C16.0009 12.3878 16.0009 12.3851 16.0009 12.3825C16.0009 12.3799 16.0009 12.3772 16.0009 12.3746C16.0009 12.372 16.0009 12.3693 16.0009 12.3667C16.0009 12.3641 16.0009 12.3615 16.0009 12.3589C16.0009 12.3562 16.0009 12.3536 16.0009 12.351C16.0009 12.3484 16.0009 12.3458 16.0009 12.3432C16.0009 12.3405 16.0009 12.3379 16.0009 12.3353C16.0009 12.3327 16.0009 12.3301 16.0009 12.3275C16.0009 12.3249 16.0009 12.3223 16.0009 12.3197C16.0009 12.3171 16.0009 12.3146 16.0009 12.312C16.0009 12.3094 16.0009 12.3068 16.0009 12.3042C16.0009 12.3016 16.0009 12.299 16.0009 12.2965C16.0009 12.2939 16.0009 12.2913 16.0009 12.2887C16.0009 12.2862 16.0009 12.2836 16.0009 12.281C16.0009 12.2785 16.0009 12.2759 16.0009 12.2733C16.0009 12.2708 16.0009 12.2682 16.0009 12.2657C16.0009 12.2631 16.0009 12.2606 16.0009 12.258C16.0009 12.2555 16.0009 12.2529 16.0009 12.2504C16.0009 12.2478 16.0009 12.2453 16.0009 12.2428C16.0009 12.2402 16.0009 12.2377 16.0009 12.2352C16.0009 12.2326 16.0009 12.2301 16.0009 12.2276C16.0009 12.225 16.0009 12.2225 16.0009 12.22C16.0009 12.2175 16.0009 12.215 16.0009 12.2125C16.0009 12.2099 16.0009 12.2074 16.0009 12.2049C16.0009 12.2024 16.0009 12.1999 16.0009 12.1974C16.0009 12.1949 16.0009 12.1924 16.0009 12.1899C16.0009 12.1874 16.0009 12.1849 16.0009 12.1825C16.0009 12.18 16.0009 12.1775 16.0009 12.175C16.0009 12.1725 16.0009 12.17 16.0009 12.1676C16.0009 12.1651 16.0009 12.1626 16.0009 12.1601C16.0009 12.1577 16.0009 12.1552 16.0009 12.1528C16.0009 12.1503 16.0009 12.1478 16.0009 12.1454C16.0009 12.1429 16.0009 12.1405 16.0009 12.138C16.0009 12.1356 16.0009 12.1331 16.0009 12.1307C16.0009 12.1282 16.0009 12.1258 16.0009 12.1234C16.0009 12.1209 16.0009 12.1185 16.0009 12.1161C16.0009 12.1136 16.0009 12.1112 16.0009 12.1088C16.0009 12.1064 16.0009 12.1039 16.0009 12.1015C16.0009 12.0991 16.0009 12.0967 16.0009 12.0943C16.0009 12.0919 16.0009 12.0895 16.0009 12.0871C16.0009 12.0847 16.0009 12.0823 16.0009 12.0799C16.0009 12.0775 16.0009 12.0751 16.0009 12.0727C16.0009 12.0703 16.0009 12.0679 16.0009 12.0656C16.0009 12.0632 16.0009 12.0608 16.0009 12.0584C16.0009 12.0561 16.0009 12.0537 16.0009 12.0513C16.0009 12.049 16.0009 12.0466 16.0009 12.0442C16.0009 12.0419 16.0009 12.0395 16.0009 12.0372C16.0009 12.0348 16.0009 12.0325 16.0009 12.0301C16.0009 12.0278 16.0009 12.0254 16.0009 12.0231C16.0009 12.0208 16.0009 12.0184 16.0009 12.0161C16.0009 12.0138 16.0009 12.0114 16.0009 12.0091C16.0009 12.0068 16.0009 12.0045 16.0009 12.0022C16.0009 11.9999 16.0009 11.9975 16.0009 11.9952C16.0009 11.9929 16.0009 11.9906 16.0009 11.9883C16.0009 11.986 16.0009 11.9837 16.0009 11.9814C16.0009 11.9791 16.0009 11.9769 16.0009 11.9746C16.0009 11.9723 16.0009 11.97 16.0009 11.9677C16.0009 11.9655 16.0009 11.9632 16.0009 11.9609C16.0009 11.9586 16.0009 11.9564 16.0009 11.9541C16.0009 11.9519 16.0009 11.9496 16.0009 11.9473C16.0009 11.9451 16.0009 11.9428 16.0009 11.9406C16.0009 11.9384 16.0009 11.9361 16.0009 11.9339C16.0009 11.9316 16.0009 11.9294 16.0009 11.9272C16.0009 11.9249 16.0009 11.9227 16.0009 11.9205C16.0009 11.9183 16.0009 11.9161 16.0009 11.9139C16.0009 11.9116 16.0009 11.9094 16.0009 11.9072C16.0009 11.905 16.0009 11.9028 16.0009 11.9006C16.0009 11.8984 16.0009 11.8962 16.0009 11.894C16.0009 11.8919 16.0009 11.8897 16.0009 11.8875C16.0009 11.8853 16.0009 11.8831 16.0009 11.881C16.0009 11.8788 16.0009 11.8766 16.0009 11.8745C16.0009 11.8723 16.0009 11.8701 16.0009 11.868C16.0009 11.8658 16.0009 11.8637 16.0009 11.8615C16.0009 11.8594 16.0009 11.8573 16.0009 11.8551C16.0009 11.853 16.0009 11.8508 16.0009 11.8487C16.0009 11.8466 16.0009 11.8445 16.0009 11.8423C16.0009 11.8402 16.0009 11.8381 16.0009 11.836C16.0009 11.8339 16.0009 11.8318 16.0009 11.8297C16.0009 11.8276 16.0009 11.8255 16.0009 11.8234C16.0009 11.8213 16.0009 11.8192 16.0009 11.8171C16.0009 11.815 16.0009 11.8129 16.0009 11.8109C16.0009 11.8088 16.0009 11.8067 16.0009 11.8047C16.0009 11.8026 16.0009 11.8005 16.0009 11.7985C16.0009 11.7964 16.0009 11.7944 16.0009 11.7923C16.0009 11.7903 16.0009 11.7882 16.0009 11.7862C16.0009 11.7841 16.0009 11.7821 16.0009 11.7801C16.0009 11.778 16.0009 11.776 16.0009 11.774C16.0009 11.772 16.0009 11.7699 16.0009 11.7679C16.0009 11.7659 16.0009 11.7639 16.0009 11.7619C16.0009 11.7599 16.0009 11.7579 16.0009 11.7559C16.0009 11.7539 16.0009 11.7519 16.0009 11.7499C16.0009 11.748 16.0009 11.746 16.0009 11.744C16.0009 11.742 16.0009 11.7401 16.0009 11.7381C16.0009 11.7361 16.0009 11.7342 16.0009 11.7322C16.0009 11.7303 16.0009 11.7283 16.0009 11.7264C16.0009 11.7244 16.0009 11.7225 16.0009 11.7205C16.0009 11.7186 16.0009 11.7167 16.0009 11.7147C16.0009 11.7128 16.0009 11.7109 16.0009 11.709C16.0009 11.7071 16.0009 11.7051 16.0009 11.7032C16.0009 11.7013 16.0009 11.6994 16.0009 11.6975C16.0009 11.6956 16.0009 11.6937 16.0009 11.6918C16.0009 11.69 16.0009 11.6881 16.0009 11.6862C16.0009 11.6843 16.0009 11.6824 16.0009 11.6806C16.0009 11.6787 16.0009 11.6768 16.0009 11.675C16.0009 11.6731 16.0009 11.6713 16.0009 11.6694C16.0009 11.6676 16.0009 11.6657 16.0009 11.6639C16.0009 11.6621 16.0009 11.6602 16.0009 11.6584C16.0009 11.6566 16.0009 11.6547 16.0009 11.6529C16.0009 11.6511 16.0009 11.6493 16.0009 11.6475C16.0009 11.6457 16.0009 11.6439 16.0009 11.6421C16.0009 11.6403 16.0009 11.6385 16.0009 11.6367C16.0009 11.6349 16.0009 11.6331 16.0009 11.6314C16.0009 11.6296 16.0009 11.6278 16.0009 11.626C16.0009 11.6243 16.0009 11.6225 16.0009 11.6208C16.0009 11.619 16.0009 11.6173 16.0009 11.6155C16.0009 11.6138 16.0009 11.612 16.0009 11.6103C16.0009 11.6086 16.0009 11.6068 16.0009 11.6051C16.0009 11.6034 16.0009 11.6017 16.0009 11.6C16.0009 11.5982 16.0009 11.5965 16.0009 11.5948C16.0009 11.5931 16.0009 11.5914 16.0009 11.5897C16.0009 11.588 16.0009 11.5864 16.0009 11.5847C16.0009 11.583 16.0009 11.5813 16.0009 11.5797C16.0009 11.578 16.0009 11.5763 16.0009 11.5747C16.0009 11.573 16.0009 11.5714 16.0009 11.5697C16.0009 11.5681 16.0009 11.5664 16.0009 11.5648C16.0009 11.5631 16.0009 11.5615 16.0009 11.5599C16.0009 11.5583 16.0009 11.5566 16.0009 11.555C16.0009 11.5534 16.0009 11.5518 16.0009 11.5502C16.0009 11.5486 16.0009 11.547 16.0009 11.5454C16.0009 11.5438 16.0009 11.5422 16.0009 11.5406C16.0009 11.5391 16.0009 11.5375 16.0009 11.5359C16.0009 11.5343 16.0009 11.5328 16.0009 11.5312C16.0009 11.5297 16.0009 11.5281 16.0009 11.5266C16.0009 11.525 16.0009 11.5235 16.0009 11.5219C16.0009 11.5204 16.0009 11.5189 16.0009 11.5173C16.0009 11.5158 16.0009 11.5143 16.0009 11.5128C16.0009 11.5113 16.0009 11.5098 16.0009 11.5083C16.0009 11.5068 16.0009 11.5053 16.0009 11.5038C16.0009 11.5023 16.0009 11.5008 16.0009 11.4993C16.0009 11.4979 16.0009 11.4964 16.0009 11.4949C16.0009 11.4934 16.0009 11.492 16.0009 11.4905C16.0009 11.4891 16.0009 11.4876 16.0009 11.4862C16.0009 11.4847 16.0009 11.4833 16.0009 11.4819C16.0009 11.4804 16.0009 11.479 16.0009 11.4776C16.0009 11.4762 16.0009 11.4748 16.0009 11.4734C16.0009 11.472 16.0009 11.4706 16.0009 11.4692C16.0009 11.4678 16.0009 11.4664 16.0009 11.465C16.0009 11.4636 16.0009 11.4622 16.0009 11.4609C16.0009 11.4595 16.0009 11.4581 16.0009 11.4568C16.0009 11.4554 16.0009 11.4541 16.0009 11.4527C16.0009 11.4514 16.0009 11.45 16.0009 11.4487C16.0009 11.4474 16.0009 11.446 16.0009 11.4447C16.0009 11.4434 16.0009 11.4421 16.0009 11.4408C16.0009 11.4395 16.0009 11.4382 16.0009 11.4369C16.0009 11.4356 16.0009 11.4343 16.0009 11.433C16.0009 11.4317 16.0009 11.4304 16.0009 11.4292C16.0009 11.4279 16.0009 11.4266 16.0009 11.4254C16.0009 11.4241 16.0009 11.4228 16.0009 11.4216C16.0009 11.4204 16.0009 11.4191 16.0009 11.4179C16.0009 11.4166 16.0009 11.4154 16.0009 11.4142C16.0009 11.413 16.0009 11.4118 16.0009 11.4106C16.0009 11.4093 16.0009 11.4081 16.0009 11.4069C16.0009 11.4058 16.0009 11.4046 16.0009 11.4034C16.0009 11.4022 16.0009 11.401 16.0009 11.3999C16.0009 11.3987 16.0009 11.3975 16.0009 11.3964C16.0009 11.3952 16.0009 11.3941 16.0009 11.3929C16.0009 11.3918 16.0009 11.3906 16.0009 11.3895C16.0009 11.3884 16.0009 11.3872 16.0009 11.3861C16.0009 11.385 16.0009 11.3839 16.0009 11.3828C16.0009 11.3817 16.0009 11.3806 16.0009 11.3795C16.0009 11.3784 16.0009 11.3773 16.0009 11.3762C16.0009 11.3752 16.0009 11.3741 16.0009 11.373C16.0009 11.372 16.0009 11.3709 16.0009 11.3698C16.0009 11.3688 16.0009 11.3678 16.0009 11.3667C16.0009 11.3657 16.0009 11.3646 16.0009 11.3636C16.0009 11.3626 16.0009 11.3616 16.0009 11.3606C16.0009 11.3595 16.0009 11.3585 16.0009 11.3575C16.0009 11.3565 16.0009 11.3556 16.0009 11.3546C16.0009 11.3536 16.0009 11.3526 16.0009 11.3516C16.0009 11.3507 16.0009 11.3497 16.0009 11.3487C16.0009 11.3478 16.0009 11.3468 16.0009 11.3459C16.0009 11.345 16.0009 11.344 16.0009 11.3431C16.0009 11.3422 16.0009 11.3412 16.0009 11.3403C16.0009 11.3394 16.0009 11.3385 16.0009 11.3376C16.0009 11.3367 16.0009 11.3358 16.0009 11.3349C16.0009 11.334 16.0009 11.3331 16.0009 11.3323C16.0009 11.3314 16.0009 11.3305 16.0009 11.3297C16.0009 11.3288 16.0009 11.3279 16.0009 11.3271C16.0009 11.3263 16.0009 11.3254 16.0009 11.3246C16.0009 11.3237 16.0009 11.3229 16.0009 11.3221C16.0009 11.3213 16.0009 11.3205 16.0009 11.3197C16.0009 11.3189 16.0009 11.3181 16.0009 11.3173C16.0009 11.3165 16.0009 11.3157 16.0009 11.3149C16.0009 11.3142 16.0009 11.3134 16.0009 11.3126C16.0009 11.3119 16.0009 11.3111 16.0009 11.3104C16.0009 11.3096 16.0009 11.3089 16.0009 11.3082C16.0009 11.3074 16.0009 11.3067 16.0009 11.306C16.0009 11.3053 16.0009 11.3045 16.0009 11.3038C16.0009 11.3031 16.0009 11.3024 16.0009 11.3018C16.0009 11.3011 16.0009 11.3004 16.0009 11.2997C16.0009 11.299 16.0009 11.2984 16.0009 11.2977C16.0009 11.2971 16.0009 11.2964 16.0009 11.2958C16.0009 11.2951 16.0009 11.2945 16.0009 11.2938C16.0009 11.2932 16.0009 11.2926 16.0009 11.292C16.0009 11.2914 16.0009 11.2908 16.0009 11.2902C16.0009 11.2896 16.0009 11.289 16.0009 11.2884C16.0009 11.2878 16.0009 11.2872 16.0009 11.2866C16.0009 11.2861 16.0009 11.2855 16.0009 11.285C16.0009 11.2844 16.0009 11.2839 16.0009 11.2833C16.0009 11.2828 16.0009 11.2822 16.0009 11.2817C16.0009 11.2812 16.0009 11.2807 16.0009 11.2802C16.0009 11.2796 16.0009 11.2791 16.0009 11.2787C16.0009 11.2782 16.0009 11.2777 16.0009 11.2772C16.0009 11.2767 16.0009 11.2762 16.0009 11.2758C16.0009 11.2753 16.0009 11.2749 16.0009 11.2744C16.0009 11.274 16.0009 11.2735 16.0009 11.2731C16.0009 11.2726 16.0009 11.2722 16.0009 11.2718C16.0009 11.2714 16.0009 11.271 16.0009 11.2706C16.0009 11.2702 16.0009 11.2698 16.0009 11.2694C16.0009 11.269 16.0009 11.2686 16.0009 11.2682C16.0009 11.2679 16.0009 11.2675 16.0009 11.2672C16.0009 11.2668 16.0009 11.2665 16.0009 11.2661C16.0009 11.2658 16.0009 11.2654 16.0009 11.2651C16.0009 11.2648 16.0009 11.2645 16.0009 11.2642C16.0009 11.2639 16.0009 11.2636 16.0009 11.2633C16.0009 11.263 16.0009 11.2627 16.0009 11.2624C16.0009 11.2621 16.0009 11.2619 16.0009 11.2616C16.0009 11.2613 16.0009 11.2611 16.0009 11.2608C16.0009 11.2606 16.0009 11.2604 16.0009 11.2601C16.0009 11.2599 16.0009 11.2597 16.0009 11.2595C16.0009 11.2593 16.0009 11.259 16.0009 11.2588C16.0009 11.2587 16.0009 11.2585 16.0009 11.2583C16.0009 11.2581 16.0009 11.2579 16.0009 11.2578C16.0009 11.2576 16.0009 11.2574 16.0009 11.2573C16.0009 11.2571 16.0009 11.257 16.0009 11.2569C16.0009 11.2567 16.0009 11.2566 16.0009 11.2565C16.0009 11.2564 16.0009 11.2563 16.0009 11.2562C16.0009 11.2561 16.0009 11.256 16.0009 11.2559C16.0009 11.2558 16.0009 11.2557 16.0009 11.2557C16.0009 11.2556 16.0009 11.2556 16.0009 11.2555C16.0009 11.2555 16.0009 11.2554 16.0009 11.2554C16.0009 11.2553 16.0009 11.2553 16.0009 11.2553C16.0009 11.2553 16.0009 11.2553 15.0009 11.2553C14.0009 11.2553 14.0009 11.2553 14.0009 11.2553C14.0009 11.2553 14.0009 11.2553 14.0009 11.2554C14.0009 11.2554 14.0009 11.2555 14.0009 11.2555C14.0009 11.2556 14.0009 11.2556 14.0009 11.2557C14.0009 11.2557 14.0009 11.2558 14.0009 11.2559C14.0009 11.256 14.0009 11.2561 14.0009 11.2562C14.0009 11.2563 14.0009 11.2564 14.0009 11.2565C14.0009 11.2566 14.0009 11.2567 14.0009 11.2569C14.0009 11.257 14.0009 11.2571 14.0009 11.2573C14.0009 11.2574 14.0009 11.2576 14.0009 11.2578C14.0009 11.2579 14.0009 11.2581 14.0009 11.2583C14.0009 11.2585 14.0009 11.2587 14.0009 11.2588C14.0009 11.259 14.0009 11.2593 14.0009 11.2595C14.0009 11.2597 14.0009 11.2599 14.0009 11.2601C14.0009 11.2604 14.0009 11.2606 14.0009 11.2608C14.0009 11.2611 14.0009 11.2613 14.0009 11.2616C14.0009 11.2619 14.0009 11.2621 14.0009 11.2624C14.0009 11.2627 14.0009 11.263 14.0009 11.2633C14.0009 11.2636 14.0009 11.2639 14.0009 11.2642C14.0009 11.2645 14.0009 11.2648 14.0009 11.2651C14.0009 11.2654 14.0009 11.2658 14.0009 11.2661C14.0009 11.2665 14.0009 11.2668 14.0009 11.2672C14.0009 11.2675 14.0009 11.2679 14.0009 11.2682C14.0009 11.2686 14.0009 11.269 14.0009 11.2694C14.0009 11.2698 14.0009 11.2702 14.0009 11.2706C14.0009 11.271 14.0009 11.2714 14.0009 11.2718C14.0009 11.2722 14.0009 11.2726 14.0009 11.2731C14.0009 11.2735 14.0009 11.274 14.0009 11.2744C14.0009 11.2749 14.0009 11.2753 14.0009 11.2758C14.0009 11.2762 14.0009 11.2767 14.0009 11.2772C14.0009 11.2777 14.0009 11.2782 14.0009 11.2787C14.0009 11.2791 14.0009 11.2796 14.0009 11.2802C14.0009 11.2807 14.0009 11.2812 14.0009 11.2817C14.0009 11.2822 14.0009 11.2828 14.0009 11.2833C14.0009 11.2839 14.0009 11.2844 14.0009 11.285C14.0009 11.2855 14.0009 11.2861 14.0009 11.2866C14.0009 11.2872 14.0009 11.2878 14.0009 11.2884C14.0009 11.289 14.0009 11.2896 14.0009 11.2902C14.0009 11.2908 14.0009 11.2914 14.0009 11.292C14.0009 11.2926 14.0009 11.2932 14.0009 11.2938C14.0009 11.2945 14.0009 11.2951 14.0009 11.2958C14.0009 11.2964 14.0009 11.2971 14.0009 11.2977C14.0009 11.2984 14.0009 11.299 14.0009 11.2997C14.0009 11.3004 14.0009 11.3011 14.0009 11.3018C14.0009 11.3024 14.0009 11.3031 14.0009 11.3038C14.0009 11.3045 14.0009 11.3053 14.0009 11.306C14.0009 11.3067 14.0009 11.3074 14.0009 11.3082C14.0009 11.3089 14.0009 11.3096 14.0009 11.3104C14.0009 11.3111 14.0009 11.3119 14.0009 11.3126C14.0009 11.3134 14.0009 11.3142 14.0009 11.3149C14.0009 11.3157 14.0009 11.3165 14.0009 11.3173C14.0009 11.3181 14.0009 11.3189 14.0009 11.3197C14.0009 11.3205 14.0009 11.3213 14.0009 11.3221C14.0009 11.3229 14.0009 11.3237 14.0009 11.3246C14.0009 11.3254 14.0009 11.3263 14.0009 11.3271C14.0009 11.3279 14.0009 11.3288 14.0009 11.3297C14.0009 11.3305 14.0009 11.3314 14.0009 11.3323C14.0009 11.3331 14.0009 11.334 14.0009 11.3349C14.0009 11.3358 14.0009 11.3367 14.0009 11.3376C14.0009 11.3385 14.0009 11.3394 14.0009 11.3403C14.0009 11.3412 14.0009 11.3422 14.0009 11.3431C14.0009 11.344 14.0009 11.345 14.0009 11.3459C14.0009 11.3468 14.0009 11.3478 14.0009 11.3487C14.0009 11.3497 14.0009 11.3507 14.0009 11.3516C14.0009 11.3526 14.0009 11.3536 14.0009 11.3546C14.0009 11.3556 14.0009 11.3565 14.0009 11.3575C14.0009 11.3585 14.0009 11.3595 14.0009 11.3606C14.0009 11.3616 14.0009 11.3626 14.0009 11.3636C14.0009 11.3646 14.0009 11.3657 14.0009 11.3667C14.0009 11.3678 14.0009 11.3688 14.0009 11.3698C14.0009 11.3709 14.0009 11.372 14.0009 11.373C14.0009 11.3741 14.0009 11.3752 14.0009 11.3762C14.0009 11.3773 14.0009 11.3784 14.0009 11.3795C14.0009 11.3806 14.0009 11.3817 14.0009 11.3828C14.0009 11.3839 14.0009 11.385 14.0009 11.3861C14.0009 11.3872 14.0009 11.3884 14.0009 11.3895C14.0009 11.3906 14.0009 11.3918 14.0009 11.3929C14.0009 11.3941 14.0009 11.3952 14.0009 11.3964C14.0009 11.3975 14.0009 11.3987 14.0009 11.3999C14.0009 11.401 14.0009 11.4022 14.0009 11.4034C14.0009 11.4046 14.0009 11.4058 14.0009 11.4069C14.0009 11.4081 14.0009 11.4093 14.0009 11.4106C14.0009 11.4118 14.0009 11.413 14.0009 11.4142C14.0009 11.4154 14.0009 11.4166 14.0009 11.4179C14.0009 11.4191 14.0009 11.4204 14.0009 11.4216C14.0009 11.4228 14.0009 11.4241 14.0009 11.4254C14.0009 11.4266 14.0009 11.4279 14.0009 11.4292C14.0009 11.4304 14.0009 11.4317 14.0009 11.433C14.0009 11.4343 14.0009 11.4356 14.0009 11.4369C14.0009 11.4382 14.0009 11.4395 14.0009 11.4408C14.0009 11.4421 14.0009 11.4434 14.0009 11.4447C14.0009 11.446 14.0009 11.4474 14.0009 11.4487C14.0009 11.45 14.0009 11.4514 14.0009 11.4527C14.0009 11.4541 14.0009 11.4554 14.0009 11.4568C14.0009 11.4581 14.0009 11.4595 14.0009 11.4609C14.0009 11.4622 14.0009 11.4636 14.0009 11.465C14.0009 11.4664 14.0009 11.4678 14.0009 11.4692C14.0009 11.4706 14.0009 11.472 14.0009 11.4734C14.0009 11.4748 14.0009 11.4762 14.0009 11.4776C14.0009 11.479 14.0009 11.4804 14.0009 11.4819C14.0009 11.4833 14.0009 11.4847 14.0009 11.4862C14.0009 11.4876 14.0009 11.4891 14.0009 11.4905C14.0009 11.492 14.0009 11.4934 14.0009 11.4949C14.0009 11.4964 14.0009 11.4979 14.0009 11.4993C14.0009 11.5008 14.0009 11.5023 14.0009 11.5038C14.0009 11.5053 14.0009 11.5068 14.0009 11.5083C14.0009 11.5098 14.0009 11.5113 14.0009 11.5128C14.0009 11.5143 14.0009 11.5158 14.0009 11.5173C14.0009 11.5189 14.0009 11.5204 14.0009 11.5219C14.0009 11.5235 14.0009 11.525 14.0009 11.5266C14.0009 11.5281 14.0009 11.5297 14.0009 11.5312C14.0009 11.5328 14.0009 11.5343 14.0009 11.5359C14.0009 11.5375 14.0009 11.5391 14.0009 11.5406C14.0009 11.5422 14.0009 11.5438 14.0009 11.5454C14.0009 11.547 14.0009 11.5486 14.0009 11.5502C14.0009 11.5518 14.0009 11.5534 14.0009 11.555C14.0009 11.5566 14.0009 11.5583 14.0009 11.5599C14.0009 11.5615 14.0009 11.5631 14.0009 11.5648C14.0009 11.5664 14.0009 11.5681 14.0009 11.5697C14.0009 11.5714 14.0009 11.573 14.0009 11.5747C14.0009 11.5763 14.0009 11.578 14.0009 11.5797C14.0009 11.5813 14.0009 11.583 14.0009 11.5847C14.0009 11.5864 14.0009 11.588 14.0009 11.5897C14.0009 11.5914 14.0009 11.5931 14.0009 11.5948C14.0009 11.5965 14.0009 11.5982 14.0009 11.6C14.0009 11.6017 14.0009 11.6034 14.0009 11.6051C14.0009 11.6068 14.0009 11.6086 14.0009 11.6103C14.0009 11.612 14.0009 11.6138 14.0009 11.6155C14.0009 11.6173 14.0009 11.619 14.0009 11.6208C14.0009 11.6225 14.0009 11.6243 14.0009 11.626C14.0009 11.6278 14.0009 11.6296 14.0009 11.6314C14.0009 11.6331 14.0009 11.6349 14.0009 11.6367C14.0009 11.6385 14.0009 11.6403 14.0009 11.6421C14.0009 11.6439 14.0009 11.6457 14.0009 11.6475C14.0009 11.6493 14.0009 11.6511 14.0009 11.6529C14.0009 11.6547 14.0009 11.6566 14.0009 11.6584C14.0009 11.6602 14.0009 11.6621 14.0009 11.6639C14.0009 11.6657 14.0009 11.6676 14.0009 11.6694C14.0009 11.6713 14.0009 11.6731 14.0009 11.675C14.0009 11.6768 14.0009 11.6787 14.0009 11.6806C14.0009 11.6824 14.0009 11.6843 14.0009 11.6862C14.0009 11.6881 14.0009 11.69 14.0009 11.6918C14.0009 11.6937 14.0009 11.6956 14.0009 11.6975C14.0009 11.6994 14.0009 11.7013 14.0009 11.7032C14.0009 11.7051 14.0009 11.7071 14.0009 11.709C14.0009 11.7109 14.0009 11.7128 14.0009 11.7147C14.0009 11.7167 14.0009 11.7186 14.0009 11.7205C14.0009 11.7225 14.0009 11.7244 14.0009 11.7264C14.0009 11.7283 14.0009 11.7303 14.0009 11.7322C14.0009 11.7342 14.0009 11.7361 14.0009 11.7381C14.0009 11.7401 14.0009 11.742 14.0009 11.744C14.0009 11.746 14.0009 11.748 14.0009 11.7499C14.0009 11.7519 14.0009 11.7539 14.0009 11.7559C14.0009 11.7579 14.0009 11.7599 14.0009 11.7619C14.0009 11.7639 14.0009 11.7659 14.0009 11.7679C14.0009 11.7699 14.0009 11.772 14.0009 11.774C14.0009 11.776 14.0009 11.778 14.0009 11.7801C14.0009 11.7821 14.0009 11.7841 14.0009 11.7862C14.0009 11.7882 14.0009 11.7903 14.0009 11.7923C14.0009 11.7944 14.0009 11.7964 14.0009 11.7985C14.0009 11.8005 14.0009 11.8026 14.0009 11.8047C14.0009 11.8067 14.0009 11.8088 14.0009 11.8109C14.0009 11.8129 14.0009 11.815 14.0009 11.8171C14.0009 11.8192 14.0009 11.8213 14.0009 11.8234C14.0009 11.8255 14.0009 11.8276 14.0009 11.8297C14.0009 11.8318 14.0009 11.8339 14.0009 11.836C14.0009 11.8381 14.0009 11.8402 14.0009 11.8423C14.0009 11.8445 14.0009 11.8466 14.0009 11.8487C14.0009 11.8508 14.0009 11.853 14.0009 11.8551C14.0009 11.8573 14.0009 11.8594 14.0009 11.8615C14.0009 11.8637 14.0009 11.8658 14.0009 11.868C14.0009 11.8701 14.0009 11.8723 14.0009 11.8745C14.0009 11.8766 14.0009 11.8788 14.0009 11.881C14.0009 11.8831 14.0009 11.8853 14.0009 11.8875C14.0009 11.8897 14.0009 11.8919 14.0009 11.894C14.0009 11.8962 14.0009 11.8984 14.0009 11.9006C14.0009 11.9028 14.0009 11.905 14.0009 11.9072C14.0009 11.9094 14.0009 11.9116 14.0009 11.9139C14.0009 11.9161 14.0009 11.9183 14.0009 11.9205C14.0009 11.9227 14.0009 11.9249 14.0009 11.9272C14.0009 11.9294 14.0009 11.9316 14.0009 11.9339C14.0009 11.9361 14.0009 11.9384 14.0009 11.9406C14.0009 11.9428 14.0009 11.9451 14.0009 11.9473C14.0009 11.9496 14.0009 11.9519 14.0009 11.9541C14.0009 11.9564 14.0009 11.9586 14.0009 11.9609C14.0009 11.9632 14.0009 11.9655 14.0009 11.9677C14.0009 11.97 14.0009 11.9723 14.0009 11.9746C14.0009 11.9769 14.0009 11.9791 14.0009 11.9814C14.0009 11.9837 14.0009 11.986 14.0009 11.9883C14.0009 11.9906 14.0009 11.9929 14.0009 11.9952C14.0009 11.9975 14.0009 11.9999 14.0009 12.0022C14.0009 12.0045 14.0009 12.0068 14.0009 12.0091C14.0009 12.0114 14.0009 12.0138 14.0009 12.0161C14.0009 12.0184 14.0009 12.0208 14.0009 12.0231C14.0009 12.0254 14.0009 12.0278 14.0009 12.0301C14.0009 12.0325 14.0009 12.0348 14.0009 12.0372C14.0009 12.0395 14.0009 12.0419 14.0009 12.0442C14.0009 12.0466 14.0009 12.049 14.0009 12.0513C14.0009 12.0537 14.0009 12.0561 14.0009 12.0584C14.0009 12.0608 14.0009 12.0632 14.0009 12.0656C14.0009 12.0679 14.0009 12.0703 14.0009 12.0727C14.0009 12.0751 14.0009 12.0775 14.0009 12.0799C14.0009 12.0823 14.0009 12.0847 14.0009 12.0871C14.0009 12.0895 14.0009 12.0919 14.0009 12.0943C14.0009 12.0967 14.0009 12.0991 14.0009 12.1015C14.0009 12.1039 14.0009 12.1064 14.0009 12.1088C14.0009 12.1112 14.0009 12.1136 14.0009 12.1161C14.0009 12.1185 14.0009 12.1209 14.0009 12.1234C14.0009 12.1258 14.0009 12.1282 14.0009 12.1307C14.0009 12.1331 14.0009 12.1356 14.0009 12.138C14.0009 12.1405 14.0009 12.1429 14.0009 12.1454C14.0009 12.1478 14.0009 12.1503 14.0009 12.1528C14.0009 12.1552 14.0009 12.1577 14.0009 12.1601C14.0009 12.1626 14.0009 12.1651 14.0009 12.1676C14.0009 12.17 14.0009 12.1725 14.0009 12.175C14.0009 12.1775 14.0009 12.18 14.0009 12.1825C14.0009 12.1849 14.0009 12.1874 14.0009 12.1899C14.0009 12.1924 14.0009 12.1949 14.0009 12.1974C14.0009 12.1999 14.0009 12.2024 14.0009 12.2049C14.0009 12.2074 14.0009 12.2099 14.0009 12.2125C14.0009 12.215 14.0009 12.2175 14.0009 12.22C14.0009 12.2225 14.0009 12.225 14.0009 12.2276C14.0009 12.2301 14.0009 12.2326 14.0009 12.2352C14.0009 12.2377 14.0009 12.2402 14.0009 12.2428C14.0009 12.2453 14.0009 12.2478 14.0009 12.2504C14.0009 12.2529 14.0009 12.2555 14.0009 12.258C14.0009 12.2606 14.0009 12.2631 14.0009 12.2657C14.0009 12.2682 14.0009 12.2708 14.0009 12.2733C14.0009 12.2759 14.0009 12.2785 14.0009 12.281C14.0009 12.2836 14.0009 12.2862 14.0009 12.2887C14.0009 12.2913 14.0009 12.2939 14.0009 12.2965C14.0009 12.299 14.0009 12.3016 14.0009 12.3042C14.0009 12.3068 14.0009 12.3094 14.0009 12.312C14.0009 12.3146 14.0009 12.3171 14.0009 12.3197C14.0009 12.3223 14.0009 12.3249 14.0009 12.3275C14.0009 12.3301 14.0009 12.3327 14.0009 12.3353C14.0009 12.3379 14.0009 12.3405 14.0009 12.3432C14.0009 12.3458 14.0009 12.3484 14.0009 12.351C14.0009 12.3536 14.0009 12.3562 14.0009 12.3589C14.0009 12.3615 14.0009 12.3641 14.0009 12.3667C14.0009 12.3693 14.0009 12.372 14.0009 12.3746C14.0009 12.3772 14.0009 12.3799 14.0009 12.3825C14.0009 12.3851 14.0009 12.3878 14.0009 12.3904C14.0009 12.3931 14.0009 12.3957 14.0009 12.3984C14.0009 12.401 14.0009 12.4037 14.0009 12.4063C14.0009 12.409 14.0009 12.4116 14.0009 12.4143C14.0009 12.4169 14.0009 12.4196 14.0009 12.4222C14.0009 12.4249 14.0009 12.4276 14.0009 12.4302C14.0009 12.4329 14.0009 12.4356 14.0009 12.4382C14.0009 12.4409 14.0009 12.4436 14.0009 12.4463C14.0009 12.4489 14.0009 12.4516 14.0009 12.4543C14.0009 12.457 14.0009 12.4596 14.0009 12.4623C14.0009 12.465 14.0009 12.4677 14.0009 12.4704C14.0009 12.4731 14.0009 12.4758 14.0009 12.4785C14.0009 12.4812 14.0009 12.4839 14.0009 12.4866C14.0009 12.4893 14.0009 12.492 14.0009 12.4947C14.0009 12.4974 14.0009 12.5001 14.0009 12.5028C14.0009 12.5055 14.0009 12.5082 14.0009 12.5109C14.0009 12.5136 14.0009 12.5163 14.0009 12.519C14.0009 12.5218 14.0009 12.5245 14.0009 12.5272C14.0009 12.5299 14.0009 12.5326 14.0009 12.5354C14.0009 12.5381 14.0009 12.5408 14.0009 12.5435C14.0009 12.5463 14.0009 12.549 14.0009 12.5517C14.0009 12.5545 14.0009 12.5572 14.0009 12.5599C14.0009 12.5627 14.0009 12.5654 14.0009 12.5681C14.0009 12.5709 14.0009 12.5736 14.0009 12.5764C14.0009 12.5791 14.0009 12.5819 14.0009 12.5846C14.0009 12.5874 14.0009 12.5901 14.0009 12.5929C14.0009 12.5956 14.0009 12.5984 14.0009 12.6011C14.0009 12.6039 14.0009 12.6066 14.0009 12.6094C14.0009 12.6122 14.0009 12.6149 14.0009 12.6177C14.0009 12.6204 14.0009 12.6232 14.0009 12.626C14.0009 12.6287 14.0009 12.6315 14.0009 12.6343C14.0009 12.6371 14.0009 12.6398 14.0009 12.6426C14.0009 12.6454 14.0009 12.6482 14.0009 12.6509C14.0009 12.6537 14.0009 12.6565 14.0009 12.6593C14.0009 12.662 14.0009 12.6648 14.0009 12.6676C14.0009 12.6704 14.0009 12.6732 14.0009 12.676C14.0009 12.6788 14.0009 12.6816 14.0009 12.6843C14.0009 12.6871 14.0009 12.6899 14.0009 12.6927C14.0009 12.6955 14.0009 12.6983 14.0009 12.7011C14.0009 12.7039 14.0009 12.7067 14.0009 12.7095C14.0009 12.7123 14.0009 12.7151 14.0009 12.7179C14.0009 12.7207 14.0009 12.7235 14.0009 12.7263C14.0009 12.7291 14.0009 12.7319 14.0009 12.7348C14.0009 12.7376 14.0009 12.7404 14.0009 12.7432C14.0009 12.746 14.0009 12.7488 14.0009 12.7516C14.0009 12.7545 14.0009 12.7573 14.0009 12.7601C14.0009 12.7629 14.0009 12.7657 14.0009 12.7686C14.0009 12.7714 14.0009 12.7742 14.0009 12.777C14.0009 12.7798 14.0009 12.7827 14.0009 12.7855C14.0009 12.7883 14.0009 12.7912 14.0009 12.794C14.0009 12.7968 14.0009 12.7996 14.0009 12.8025C14.0009 12.8053 14.0009 12.8081 14.0009 12.811C14.0009 12.8138 14.0009 12.8167 14.0009 12.8195C14.0009 12.8223 14.0009 12.8252 14.0009 12.828C14.0009 12.8309 14.0009 12.8337 14.0009 12.8365C14.0009 12.8394 14.0009 12.8422 14.0009 12.8451C14.0009 12.8479 14.0009 12.8508 14.0009 12.8536C14.0009 12.8565 14.0009 12.8593 14.0009 12.8622C14.0009 12.865 14.0009 12.8679 14.0009 12.8707C14.0009 12.8736 14.0009 12.8764 14.0009 12.8793C14.0009 12.8821 14.0009 12.885 14.0009 12.8878C14.0009 12.8907 14.0009 12.8935 14.0009 12.8964C14.0009 12.8993 14.0009 12.9021 14.0009 12.905C14.0009 12.9078 14.0009 12.9107 14.0009 12.9136C14.0009 12.9164 14.0009 12.9193 14.0009 12.9222C14.0009 12.925 14.0009 12.9279 14.0009 12.9308C14.0009 12.9336 14.0009 12.9365 14.0009 12.9394C14.0009 12.9422 14.0009 12.9451 14.0009 12.948C14.0009 12.9508 14.0009 12.9537 14.0009 12.9566C14.0009 12.9595 14.0009 12.9623 14.0009 12.9652C14.0009 12.9681 14.0009 12.971 14.0009 12.9738C14.0009 12.9767 14.0009 12.9796 14.0009 12.9825C14.0009 12.9853 14.0009 12.9882 14.0009 12.9911C14.0009 12.994 14.0009 12.9969 14.0009 12.9997C14.0009 13.0026 14.0009 13.0055 14.0009 13.0084C14.0009 13.0113 14.0009 13.0141 14.0009 13.017C14.0009 13.0199 14.0009 13.0228 14.0009 13.0257C14.0009 13.0286 14.0009 13.0314 14.0009 13.0343C14.0009 13.0372 14.0009 13.0401 14.0009 13.043C14.0009 13.0459 14.0009 13.0488 14.0009 13.0517C14.0009 13.0545 14.0009 13.0574 14.0009 13.0603C14.0009 13.0632 14.0009 13.0661 14.0009 13.069C14.0009 13.0719 14.0009 13.0748 14.0009 13.0777C14.0009 13.0806 14.0009 13.0835 14.0009 13.0864C14.0009 13.0892 14.0009 13.0921 14.0009 13.095C14.0009 13.0979 14.0009 13.1008 14.0009 13.1037C14.0009 13.1066 14.0009 13.1095 14.0009 13.1124C14.0009 13.1153 14.0009 13.1182 14.0009 13.1211C14.0009 13.124 14.0009 13.1269 14.0009 13.1298C14.0009 13.1327 14.0009 13.1356 14.0009 13.1385C14.0009 13.1414 14.0009 13.1443 14.0009 13.1472C14.0009 13.1501 14.0009 13.153 14.0009 13.1559C14.0009 13.1588 14.0009 13.1617 14.0009 13.1646C14.0009 13.1675 14.0009 13.1704 14.0009 13.1733C14.0009 13.1762 14.0009 13.1791 14.0009 13.182C14.0009 13.1849 14.0009 13.1878 14.0009 13.1907C14.0009 13.1936 14.0009 13.1965 14.0009 13.1994C14.0009 13.2023 14.0009 13.2052 14.0009 13.2081C14.0009 13.211 14.0009 13.2139 14.0009 13.2168C14.0009 13.2197 14.0009 13.2226 14.0009 13.2255C14.0009 13.2284 14.0009 13.2313 14.0009 13.2342C14.0009 13.2372 14.0009 13.2401 14.0009 13.243C14.0009 13.2459 14.0009 13.2488 14.0009 13.2517C14.0009 13.2546 14.0009 13.2575 14.0009 13.2604C14.0009 13.2633 14.0009 13.2662 14.0009 13.2691C14.0009 13.272 14.0009 13.2749 14.0009 13.2778C14.0009 13.2807 14.0009 13.2836 14.0009 13.2865C14.0009 13.2894 14.0009 13.2923 14.0009 13.2952C14.0009 13.2981 14.0009 13.301 14.0009 13.304C14.0009 13.3069 14.0009 13.3098 14.0009 13.3127C14.0009 13.3156 14.0009 13.3185 14.0009 13.3214C14.0009 13.3243 14.0009 13.3272 14.0009 13.3301C14.0009 13.333 14.0009 13.3359 14.0009 13.3388C14.0009 13.3417 14.0009 13.3446 14.0009 13.3475C14.0009 13.3504 14.0009 13.3533 14.0009 13.3562C14.0009 13.3591 14.0009 13.362 14.0009 13.3649C14.0009 13.3678 14.0009 13.3707 14.0009 13.3736C14.0009 13.3765 14.0009 13.3794 14.0009 13.3823C14.0009 13.3852 14.0009 13.3881 14.0009 13.391C14.0009 13.3939 14.0009 13.3968 14.0009 13.3997C14.0009 13.4026 14.0009 13.4055 14.0009 13.4084C14.0009 13.4113 14.0009 13.4142 14.0009 13.4171C14.0009 13.42 14.0009 13.4229 14.0009 13.4258C14.0009 13.4287 14.0009 13.4316 14.0009 13.4345C14.0009 13.4374 14.0009 13.4403 14.0009 13.4432C14.0009 13.4461 14.0009 13.449 14.0009 13.4519C14.0009 13.4548 14.0009 13.4577 14.0009 13.4606C14.0009 13.4635 14.0009 13.4664 14.0009 13.4693C14.0009 13.4721 14.0009 13.475 14.0009 13.4779C14.0009 13.4808 14.0009 13.4837 14.0009 13.4866C14.0009 13.4895 14.0009 13.4924 14.0009 13.4953C14.0009 13.4982 14.0009 13.501 14.0009 13.5039C14.0009 13.5068 14.0009 13.5097 14.0009 13.5126C14.0009 13.5155 14.0009 13.5184 14.0009 13.5213C14.0009 13.5241 14.0009 13.527 14.0009 13.5299C14.0009 13.5328 14.0009 13.5357 14.0009 13.5386C14.0009 13.5414 14.0009 13.5443 14.0009 13.5472C14.0009 13.5501 14.0009 13.553 14.0009 13.5558C14.0009 13.5587 14.0009 13.5616 14.0009 13.5645C14.0009 13.5674 14.0009 13.5702 14.0009 13.5731C14.0009 13.576 14.0009 13.5789 14.0009 13.5817C14.0009 13.5846 14.0009 13.5875 14.0009 13.5904C14.0009 13.5932 14.0009 13.5961 14.0009 13.599C14.0009 13.6018 14.0009 13.6047 14.0009 13.6076C14.0009 13.6105 14.0009 13.6133 14.0009 13.6162C14.0009 13.6191 14.0009 13.6219 14.0009 13.6248C14.0009 13.6277 14.0009 13.6305 14.0009 13.6334C14.0009 13.6362 14.0009 13.6391 14.0009 13.642C14.0009 13.6448 14.0009 13.6477 14.0009 13.6506C14.0009 13.6534 14.0009 13.6563 14.0009 13.6591C14.0009 13.662 14.0009 13.6648 14.0009 13.6677C14.0009 13.6706 14.0009 13.6734 14.0009 13.6763C14.0009 13.6791 14.0009 13.682 14.0009 13.6848C14.0009 13.6877 14.0009 13.6905 14.0009 13.6934C14.0009 13.6962 14.0009 13.6991 14.0009 13.7019C14.0009 13.7048 14.0009 13.7076 14.0009 13.7104C14.0009 13.7133 14.0009 13.7161 14.0009 13.719C14.0009 13.7218 14.0009 13.7247 14.0009 13.7275C14.0009 13.7303 14.0009 13.7332 14.0009 13.736C14.0009 13.7388 14.0009 13.7417 14.0009 13.7445C14.0009 13.7473 14.0009 13.7502 14.0009 13.753C14.0009 13.7558 14.0009 13.7587 14.0009 13.7615C14.0009 13.7643 14.0009 13.7672 14.0009 13.77C14.0009 13.7728 14.0009 13.7756 14.0009 13.7785C14.0009 13.7813 14.0009 13.7841 14.0009 13.7869C14.0009 13.7897 14.0009 13.7926 14.0009 13.7954C14.0009 13.7982 14.0009 13.801 14.0009 13.8038C14.0009 13.8066 14.0009 13.8094 14.0009 13.8123C14.0009 13.8151 14.0009 13.8179 14.0009 13.8207C14.0009 13.8235 14.0009 13.8263 14.0009 13.8291C14.0009 13.8319 14.0009 13.8347 14.0009 13.8375C14.0009 13.8403 14.0009 13.8431 14.0009 13.8459C14.0009 13.8487 14.0009 13.8515 14.0009 13.8543C14.0009 13.8571 14.0009 13.8599 14.0009 13.8627C14.0009 13.8655 14.0009 13.8683 14.0009 13.8711C14.0009 13.8739 14.0009 13.8766 14.0009 13.8794C14.0009 13.8822 14.0009 13.885 14.0009 13.8878C14.0009 13.8906 14.0009 13.8933 14.0009 13.8961C14.0009 13.8989 14.0009 13.9017 14.0009 13.9045C14.0009 13.9072 14.0009 13.91 14.0009 13.9128C14.0009 13.9155 14.0009 13.9183 14.0009 13.9211C14.0009 13.9239 14.0009 13.9266 14.0009 13.9294C14.0009 13.9321 14.0009 13.9349 14.0009 13.9377C14.0009 13.9404 14.0009 13.9432 14.0009 13.946C14.0009 13.9487 14.0009 13.9515 14.0009 13.9542C14.0009 13.957 14.0009 13.9597 14.0009 13.9625C14.0009 13.9652 14.0009 13.968 14.0009 13.9707C14.0009 13.9735 14.0009 13.9762 14.0009 13.9789C14.0009 13.9817 14.0009 13.9844 14.0009 13.9872C14.0009 13.9899 14.0009 13.9926 14.0009 13.9954C14.0009 13.9981 14.0009 14.0008 14.0009 14.0036C14.0009 14.0063 14.0009 14.009 14.0009 14.0118C14.0009 14.0145 14.0009 14.0172 14.0009 14.0199C14.0009 14.0226 14.0009 14.0254 14.0009 14.0281C14.0009 14.0308 14.0009 14.0335 14.0009 14.0362C14.0009 14.0389 14.0009 14.0416 14.0009 14.0444C14.0009 14.0471 14.0009 14.0498 14.0009 14.0525C14.0009 14.0552 14.0009 14.0579 14.0009 14.0606C14.0009 14.0633 14.0009 14.066 14.0009 14.0687C14.0009 14.0714 14.0009 14.0741 14.0009 14.0768C14.0009 14.0794 14.0009 14.0821 14.0009 14.0848C14.0009 14.0875 14.0009 14.0902 14.0009 14.0929C14.0009 14.0956 14.0009 14.0982 14.0009 14.1009C14.0009 14.1036 14.0009 14.1063 14.0009 14.1089C14.0009 14.1116 14.0009 14.1143 14.0009 14.1169C14.0009 14.1196 14.0009 14.1223 14.0009 14.1249C14.0009 14.1276 14.0009 14.1303 14.0009 14.1329C14.0009 14.1356 14.0009 14.1382 14.0009 14.1409C14.0009 14.1435 14.0009 14.1462 14.0009 14.1488C14.0009 14.1515 14.0009 14.1541 14.0009 14.1568C14.0009 14.1594 14.0009 14.1621 14.0009 14.1647C14.0009 14.1673 14.0009 14.17 14.0009 14.1726C14.0009 14.1752 14.0009 14.1779 14.0009 14.1805C14.0009 14.1831 14.0009 14.1858 14.0009 14.1884C14.0009 14.191 14.0009 14.1936 14.0009 14.1962C14.0009 14.1989 14.0009 14.2015 14.0009 14.2041C14.0009 14.2067 14.0009 14.2093 14.0009 14.2119C14.0009 14.2145 14.0009 14.2171 14.0009 14.2197C14.0009 14.2223 14.0009 14.2249 14.0009 14.2275C14.0009 14.2301 14.0009 14.2327 14.0009 14.2353C14.0009 14.2379 14.0009 14.2405 14.0009 14.2431C14.0009 14.2456 14.0009 14.2482 14.0009 14.2508C14.0009 14.2534 14.0009 14.256 14.0009 14.2585C14.0009 14.2611 14.0009 14.2637 14.0009 14.2662C14.0009 14.2688 14.0009 14.2714 14.0009 14.2739C14.0009 14.2765 14.0009 14.2791 14.0009 14.2816C14.0009 14.2842 14.0009 14.2867 14.0009 14.2893C14.0009 14.2918 14.0009 14.2944 14.0009 14.2969C14.0009 14.2995 14.0009 14.302 14.0009 14.3046C14.0009 14.3071 14.0009 14.3096 14.0009 14.3122C14.0009 14.3147 14.0009 14.3172 14.0009 14.3198C14.0009 14.3223 14.0009 14.3248 14.0009 14.3273C14.0009 14.3299 14.0009 14.3324 14.0009 14.3349C14.0009 14.3374 14.0009 14.3399 14.0009 14.3424C14.0009 14.3449 14.0009 14.3474 14.0009 14.3499C14.0009 14.3524 14.0009 14.3549 14.0009 14.3574C14.0009 14.3599 14.0009 14.3624 14.0009 14.3649C14.0009 14.3674 14.0009 14.3699 14.0009 14.3724C14.0009 14.3749 14.0009 14.3773 14.0009 14.3798C14.0009 14.3823 14.0009 14.3848 14.0009 14.3872C14.0009 14.3897 14.0009 14.3922 14.0009 14.3946C14.0009 14.3971 14.0009 14.3996 14.0009 14.402C14.0009 14.4045 14.0009 14.4069 14.0009 14.4094C14.0009 14.4118 14.0009 14.4143 14.0009 14.4167C14.0009 14.4192 14.0009 14.4216 14.0009 14.4241C14.0009 14.4265 14.0009 14.4289 14.0009 14.4314C14.0009 14.4338 14.0009 14.4362 14.0009 14.4387C14.0009 14.4411 14.0009 14.4435 14.0009 14.4459C14.0009 14.4483 14.0009 14.4508 14.0009 14.4532C14.0009 14.4556 14.0009 14.458 14.0009 14.4604C14.0009 14.4628 14.0009 14.4652 14.0009 14.4676C14.0009 14.47 14.0009 14.4724 14.0009 14.4748C14.0009 14.4772 14.0009 14.4795 14.0009 14.4819C14.0009 14.4843 14.0009 14.4867 14.0009 14.4891C14.0009 14.4914 14.0009 14.4938 14.0009 14.4962C14.0009 14.4986 14.0009 14.5009 14.0009 14.5033C14.0009 14.5056 14.0009 14.508 14.0009 14.5104C14.0009 14.5127 14.0009 14.5151 14.0009 14.5174C14.0009 14.5198 14.0009 14.5221 14.0009 14.5244C14.0009 14.5268 14.0009 14.5291 14.0009 14.5314C14.0009 14.5338 14.0009 14.5361 14.0009 14.5384C14.0009 14.5408 14.0009 14.5431 14.0009 14.5454C14.0009 14.5477 14.0009 14.55 14.0009 14.5523C14.0009 14.5546 14.0009 14.557 14.0009 14.5593C14.0009 14.5616 14.0009 14.5639 14.0009 14.5662C14.0009 14.5684 14.0009 14.5707 14.0009 14.573C14.0009 14.5753 14.0009 14.5776 14.0009 14.5799C14.0009 14.5822 14.0009 14.5844 14.0009 14.5867C14.0009 14.589 14.0009 14.5912 14.0009 14.5935C14.0009 14.5958 14.0009 14.598 14.0009 14.6003H16.0009ZM15.4481 10.3609L14.0581 9.66584L13.1637 11.4547L14.5537 12.1497L15.4481 10.3609ZM10.8382 11.4547C11.5701 11.0887 12.4317 11.0887 13.1637 11.4547L14.0581 9.66584C12.7631 9.01833 11.2388 9.01833 9.94372 9.66584L10.8382 11.4547ZM12.0575 5.80005H2.40035V7.80005H12.0575V5.80005Z" fill="currentColor"/>
</g>
</svg>
