<svg width="24" height="24" viewBox="0 0 24 24" fill="none" xmlns="http://www.w3.org/2000/svg">
<g id="folder-open-03">
<path id="Icon" d="M5.39982 5.32947V3.52947C5.39982 2.86673 5.93708 2.32947 6.59982 2.32947H17.9998C18.6626 2.32947 19.1998 2.86673 19.1998 3.52947V8.32947M2.40076 19.2705L2.40085 10.1462C2.40085 9.23223 2.40051 7.9305 2.40022 6.98795C2.40002 6.32503 2.93735 5.78826 3.60027 5.78826H9.31848L12.0835 8.74189H20.3998C21.0625 8.74189 21.5998 9.27917 21.5998 9.94193L21.5995 19.2706C21.5995 20.5961 20.525 21.6705 19.1995 21.6705L4.80075 21.6705C3.47526 21.6705 2.40074 20.596 2.40076 19.2705Z" stroke="currentColor" stroke-width="2" stroke-linecap="round" stroke-linejoin="round"/>
</g>
</svg>
