<svg width="24" height="24" viewBox="0 0 24 24" fill="none" xmlns="http://www.w3.org/2000/svg">
<g id="folder-open-01">
<path id="Icon" d="M16.5176 10.5H20.5333C21.1224 10.5 21.6 10.9776 21.6 11.5667V17.7981V18.1C21.6 19.2046 20.7046 20.1 19.6 20.1H4.79999M2.39999 4.96669V18C2.39999 19.1598 3.3402 20.1 4.49999 20.1V20.1C5.65979 20.1 6.59999 19.1598 6.59999 18V11.5667C6.59999 10.9776 7.07756 10.5 7.66666 10.5H19.4667V7.97846C19.4667 7.38935 18.9891 6.91179 18.4 6.91179H11.3725L9.74259 4.388C9.54612 4.08378 9.2087 3.90002 8.84655 3.90002H3.46666C2.87756 3.90002 2.39999 4.37759 2.39999 4.96669Z" stroke="currentColor" stroke-width="2" stroke-linecap="round" stroke-linejoin="round"/>
</g>
</svg>
