<svg width="24" height="24" viewBox="0 0 24 24" fill="none" xmlns="http://www.w3.org/2000/svg">
<g id="folder-code">
<path id="Vector" d="M9.69292 16.5073C10.0834 16.8978 10.7166 16.8978 11.1071 16.5073C11.4977 16.1167 11.4977 15.4836 11.1071 15.093L9.69292 16.5073ZM8.40002 13.8001L7.69292 13.093C7.30239 13.4836 7.30239 14.1167 7.69292 14.5073L8.40002 13.8001ZM11.1071 12.5073C11.4977 12.1167 11.4977 11.4836 11.1071 11.093C10.7166 10.7025 10.0834 10.7025 9.69292 11.093L11.1071 12.5073ZM14.3071 11.093C13.9166 10.7025 13.2834 10.7025 12.8929 11.093C12.5024 11.4836 12.5024 12.1167 12.8929 12.5073L14.3071 11.093ZM15.6 13.8001L16.3071 14.5073C16.6977 14.1167 16.6977 13.4836 16.3071 13.093L15.6 13.8001ZM12.8929 15.093C12.5024 15.4836 12.5024 16.1167 12.8929 16.5073C13.2834 16.8978 13.9166 16.8978 14.3071 16.5073L12.8929 15.093ZM3.77145 5.19995H9.25717V3.19995H3.77145V5.19995ZM9.6286 5.59995V7.99995H11.6286V5.59995H9.6286ZM9.6286 7.99995V8.19995H11.6286V7.99995H9.6286ZM9.25717 5.19995C9.44296 5.19995 9.6286 5.3595 9.6286 5.59995H11.6286C11.6286 4.29401 10.5862 3.19995 9.25717 3.19995V5.19995ZM3.77145 3.19995C2.44241 3.19995 1.40002 4.29401 1.40002 5.59995H3.40002C3.40002 5.3595 3.58566 5.19995 3.77145 5.19995V3.19995ZM2.40002 8.99995H10.6286V6.99995H2.40002V8.99995ZM10.6286 8.99995H20.2286V6.99995H10.6286V8.99995ZM20.6 9.39995V18.4H22.6V9.39995H20.6ZM20.2286 18.8H3.77145V20.7999H20.2286V18.8ZM3.40002 18.4V7.99995H1.40002V18.4H3.40002ZM3.77145 18.8C3.58566 18.8 3.40002 18.6404 3.40002 18.4H1.40002C1.40002 19.7059 2.44241 20.7999 3.77145 20.7999V18.8ZM20.6 18.4C20.6 18.6404 20.4144 18.8 20.2286 18.8V20.7999C21.5576 20.7999 22.6 19.7059 22.6 18.4H20.6ZM20.2286 8.99995C20.4144 8.99995 20.6 9.1595 20.6 9.39995H22.6C22.6 8.09401 21.5576 6.99995 20.2286 6.99995V8.99995ZM11.1071 15.093L9.10713 13.093L7.69292 14.5073L9.69292 16.5073L11.1071 15.093ZM9.10713 14.5073L11.1071 12.5073L9.69292 11.093L7.69292 13.093L9.10713 14.5073ZM12.8929 12.5073L14.8929 14.5073L16.3071 13.093L14.3071 11.093L12.8929 12.5073ZM14.8929 13.093L12.8929 15.093L14.3071 16.5073L16.3071 14.5073L14.8929 13.093ZM3.40002 7.99995V5.59995H1.40002V7.99995H3.40002Z" fill="currentColor"/>
</g>
</svg>
