<svg width="24" height="24" viewBox="0 0 24 24" fill="none" xmlns="http://www.w3.org/2000/svg">
<g id="gift-01">
<path id="Icon" d="M12.1746 21.6536V7.69M10.5496 6.85231C10.7224 6.89111 10.9046 6.84356 11.0291 6.7191C11.1535 6.59464 11.201 6.41241 11.1623 6.2396C11.0071 5.60582 10.4356 3.48358 9.84873 2.89671C9.11757 2.16555 7.92757 2.16251 7.20002 2.89005C6.47253 3.61754 6.47547 4.80754 7.20669 5.53876C7.80316 6.13523 9.91581 6.69717 10.5496 6.85231ZM12.3242 6.23956C12.2854 6.41243 12.3329 6.59459 12.4574 6.71905C12.5818 6.84351 12.7641 6.89098 12.9369 6.85226C13.5706 6.69711 15.6929 6.12557 16.2797 5.53871C17.0109 4.80755 17.014 3.61755 16.2864 2.89C15.5589 2.16251 14.3689 2.16545 13.6377 2.89666C13.0412 3.49313 12.4793 5.60579 12.3242 6.23956ZM3.09821 12.5773H20.9018C21.2874 12.5773 21.6 12.2647 21.6 11.8791V8.38818C21.6 8.00259 21.2874 7.69 20.9018 7.69H3.09821C2.71261 7.69 2.40002 8.00259 2.40002 8.38818V11.8791C2.40002 12.2647 2.71261 12.5773 3.09821 12.5773ZM19.8546 12.5773V20.9555C19.8546 21.3411 19.542 21.6536 19.1564 21.6536H4.84366C4.45807 21.6536 4.14548 21.3411 4.14548 20.9555V12.5773H19.8546Z" stroke="currentColor" stroke-width="2" stroke-linecap="round" stroke-linejoin="round"/>
</g>
</svg>
