<svg width="24" height="24" viewBox="0 0 24 24" fill="none" xmlns="http://www.w3.org/2000/svg">
<g id="gift-02">
<path id="Icon" d="M2.4001 14.0958L2.39991 8.82802C2.39986 7.50251 3.47438 6.42794 4.79989 6.42793L19.2001 6.42782C20.5256 6.42781 21.6001 7.50233 21.6001 8.82782V14.0958M2.4001 14.0958H21.6001M2.4001 14.0958L2.3999 19.6277C2.39986 20.9532 3.47439 22.0278 4.7999 22.0278H19.2001C20.5256 22.0278 21.6001 20.9533 21.6001 19.6278V14.0958M12.1746 22.0278V6.42781M10.9643 5.92262C11.144 5.91523 11.3101 5.82075 11.3995 5.666C11.4888 5.51126 11.4875 5.32009 11.4041 5.16082C11.0855 4.58011 9.96742 2.64924 9.23775 2.22797C8.32868 1.70311 7.16098 2.0128 6.63873 2.91737C6.11651 3.82188 6.43206 4.988 7.3412 5.5129C8.0828 5.94106 10.3021 5.93701 10.9643 5.92262ZM12.6347 5.16065C12.5512 5.31998 12.55 5.5111 12.6393 5.66584C12.7287 5.82058 12.8949 5.91502 13.0745 5.92245C13.7368 5.93683 15.968 5.93401 16.6976 5.51273C17.6067 4.98788 17.9224 3.82179 17.4001 2.91721C16.8779 2.0127 15.7102 1.70292 14.8011 2.22781C14.0595 2.65597 12.9533 4.57996 12.6347 5.16065Z" stroke="currentColor" stroke-width="2" stroke-linecap="round" stroke-linejoin="round"/>
</g>
</svg>
