<svg width="24" height="24" viewBox="0 0 24 24" fill="none" xmlns="http://www.w3.org/2000/svg">
<g id="git-branch-04">
<path id="Vector" d="M15.6101 17.7171C15.6101 19.3766 16.951 20.7219 18.6051 20.7219C20.2591 20.7219 21.6 19.3766 21.6 17.7171C21.6 16.0575 20.2591 14.7122 18.6051 14.7122C16.951 14.7122 15.6101 16.0575 15.6101 17.7171ZM15.6101 17.7171H12.616C8.65265 17.7171 5.43973 14.4935 5.43973 10.517V8.70399M5.43892 9.90733V21.3073M8.38992 5.69761C8.38992 7.35715 7.04904 8.70247 5.39497 8.70247C3.74091 8.70247 2.40002 7.35715 2.40002 5.69761C2.40002 4.03807 3.74091 2.69275 5.39497 2.69275C7.04904 2.69275 8.38992 4.03807 8.38992 5.69761Z" stroke="currentColor" stroke-width="2" stroke-linecap="round"/>
</g>
</svg>
