<svg width="24" height="24" viewBox="0 0 24 24" fill="none" xmlns="http://www.w3.org/2000/svg">
<g id="git-branch-01">
<path id="Vector" d="M13.8794 18.8663C13.8794 20.3761 15.1034 21.6 16.6132 21.6C18.1229 21.6 19.3469 20.3761 19.3469 18.8663C19.3469 17.3565 18.1229 16.1326 16.6132 16.1326C15.1034 16.1326 13.8794 17.3565 13.8794 18.8663ZM13.8794 18.8663H8.65381C6.44475 18.8663 4.65392 17.0756 4.65381 14.8665L4.6532 2.40002M13.3669 7.9315H4.6532M19.3469 7.9315C19.3469 9.44129 18.1229 10.6652 16.6132 10.6652C15.1034 10.6652 13.8794 9.44129 13.8794 7.9315C13.8794 6.42172 15.1034 5.1978 16.6132 5.1978C18.1229 5.1978 19.3469 6.42172 19.3469 7.9315Z" stroke="currentColor" stroke-width="2" stroke-linecap="round"/>
</g>
</svg>
