<svg width="24" height="24" viewBox="0 0 24 24" fill="none" xmlns="http://www.w3.org/2000/svg">
<g id="git-branch-05">
<path id="Vector" d="M6 8.40974C7.65685 8.40974 9 7.06442 9 5.40488C9 3.74534 7.65685 2.40002 6 2.40002C4.34315 2.40002 3 3.74534 3 5.40488C3 7.06442 4.34315 8.40974 6 8.40974ZM6 8.40974V21.6M18 15.5903C19.6569 15.5903 21 16.9356 21 18.5952C21 20.2547 19.6569 21.6 18 21.6C16.3431 21.6 15 20.2547 15 18.5952C15 16.9356 16.3431 15.5903 18 15.5903ZM18 15.5903V8.44979C18 6.79294 16.6569 5.44979 15 5.44979H13.2" stroke="currentColor" stroke-width="2" stroke-linecap="round" stroke-linejoin="round"/>
</g>
</svg>
