<svg width="24" height="24" viewBox="0 0 24 24" fill="none" xmlns="http://www.w3.org/2000/svg">
<g id="git-branch-02">
<path id="Vector" d="M5.99033 15.5903C7.64987 15.5903 8.99519 16.9356 8.9952 18.5951C8.9952 20.2547 7.64987 21.6 5.99033 21.6C4.3308 21.6 2.98547 20.2547 2.98547 18.5951C2.98547 16.9356 4.33079 15.5903 5.99033 15.5903ZM5.99033 15.5903L5.99033 5.40484M18.0098 8.4097C19.6693 8.4097 21.0146 7.06438 21.0146 5.40484C21.0146 3.7453 19.6693 2.39998 18.0098 2.39998C16.3502 2.39998 15.0049 3.7453 15.0049 5.40484C15.0049 7.06438 16.3502 8.4097 18.0098 8.4097ZM18.0098 8.4097L18.0098 14.5502C18.0098 16.7593 16.2189 18.5502 14.0098 18.5502L8.99671 18.5502" stroke="currentColor" stroke-width="2" stroke-linecap="round"/>
</g>
</svg>
