<svg width="24" height="24" viewBox="0 0 24 24" fill="none" xmlns="http://www.w3.org/2000/svg">
<g id="globe-05">
<path id="Icon" d="M13.404 21.2975C12.6369 21.495 11.8327 21.6 11.004 21.6C5.70206 21.6 1.40399 17.3019 1.40399 12C1.40399 6.69806 5.70206 2.39999 11.004 2.39999C15.8995 2.39999 19.9392 6.06442 20.5297 10.8M2.60399 15.6H5.40399C6.50856 15.6 7.40399 14.7046 7.40399 13.6V11C7.40399 9.89542 8.29942 8.99999 9.40399 8.99999H11.404C12.5086 8.99999 13.404 8.10456 13.404 7V3.59999M19.4516 18.0221L22.1997 17.072C22.7149 16.8939 22.7321 16.1717 22.226 15.9692L15.4126 13.2435C14.9386 13.0538 14.4644 13.5163 14.6422 13.9948L17.2377 20.9831C17.4273 21.4938 18.1493 21.495 18.3405 20.9849L19.4516 18.0221Z" stroke="currentColor" stroke-width="2" stroke-linecap="round" stroke-linejoin="round"/>
</g>
</svg>
