<svg width="24" height="24" viewBox="0 0 24 24" fill="none" xmlns="http://www.w3.org/2000/svg">
<g id="globe-01">
<path id="Icon" d="M21 13C21.5523 13 22 12.5523 22 12C22 11.4477 21.5523 11 21 11V13ZM20.6 12C20.6 16.7496 16.7497 20.6 12 20.6V22.6C17.8542 22.6 22.6 17.8542 22.6 12H20.6ZM12 20.6C7.25037 20.6 3.40002 16.7496 3.40002 12H1.40002C1.40002 17.8542 6.14581 22.6 12 22.6V20.6ZM3.40002 12C3.40002 7.25035 7.25037 3.4 12 3.4V1.4C6.14581 1.4 1.40002 6.14578 1.40002 12H3.40002ZM12 3.4C16.7497 3.4 20.6 7.25035 20.6 12H22.6C22.6 6.14578 17.8542 1.4 12 1.4V3.4ZM12 20.6C11.751 20.6 11.4349 20.4888 11.0603 20.1266C10.6808 19.7598 10.2934 19.1806 9.94633 18.3874C9.25356 16.8039 8.80002 14.5464 8.80002 12H6.80002C6.80002 14.7555 7.28669 17.298 8.11402 19.189C8.52703 20.1331 9.04464 20.9598 9.67013 21.5645C10.3004 22.1739 11.0893 22.6 12 22.6V20.6ZM8.80002 12C8.80002 9.4536 9.25356 7.19608 9.94633 5.61259C10.2934 4.81937 10.6808 4.24023 11.0603 3.87337C11.4349 3.51116 11.751 3.4 12 3.4V1.4C11.0893 1.4 10.3004 1.82611 9.67013 2.43547C9.04464 3.04018 8.52703 3.86693 8.11402 4.81096C7.28669 6.70198 6.80002 9.24447 6.80002 12H8.80002ZM12 22.6C12.9108 22.6 13.6996 22.1739 14.3299 21.5645C14.9554 20.9598 15.473 20.1331 15.886 19.189C16.7134 17.298 17.2 14.7555 17.2 12H15.2C15.2 14.5464 14.7465 16.8039 14.0537 18.3874C13.7067 19.1806 13.3193 19.7598 12.9398 20.1266C12.5651 20.4888 12.2491 20.6 12 20.6V22.6ZM17.2 12C17.2 9.24447 16.7134 6.70198 15.886 4.81096C15.473 3.86693 14.9554 3.04018 14.3299 2.43547C13.6996 1.82611 12.9108 1.4 12 1.4V3.4C12.2491 3.4 12.5651 3.51116 12.9398 3.87337C13.3193 4.24023 13.7067 4.81937 14.0537 5.61259C14.7465 7.19608 15.2 9.4536 15.2 12H17.2ZM2.40002 13L21 13V11L2.40002 11L2.40002 13Z" fill="currentColor"/>
</g>
</svg>
