<svg width="24" height="24" viewBox="0 0 24 24" fill="none" xmlns="http://www.w3.org/2000/svg">
<g id="globe-03">
<path id="Icon" d="M3.60003 8.59999C3.04774 8.59999 2.60003 9.04771 2.60003 9.59999C2.60003 10.1523 3.04774 10.6 3.60003 10.6V8.59999ZM20.4 10.6C20.9523 10.6 21.4 10.1523 21.4 9.59999C21.4 9.04771 20.9523 8.59999 20.4 8.59999V10.6ZM3.7008 13.9999C3.14852 13.9999 2.7008 14.4476 2.7008 14.9999C2.7008 15.5522 3.14852 15.9999 3.7008 15.9999V13.9999ZM20.5008 15.9999C21.0531 15.9999 21.5008 15.5522 21.5008 14.9999C21.5008 14.4476 21.0531 13.9999 20.5008 13.9999V15.9999ZM20.6 12C20.6 16.7496 16.7497 20.6 12 20.6V22.6C17.8542 22.6 22.6 17.8542 22.6 12H20.6ZM12 20.6C7.25037 20.6 3.40002 16.7496 3.40002 12H1.40002C1.40002 17.8542 6.14581 22.6 12 22.6V20.6ZM3.40002 12C3.40002 7.25034 7.25037 3.39999 12 3.39999V1.39999C6.14581 1.39999 1.40002 6.14577 1.40002 12H3.40002ZM12 3.39999C16.7497 3.39999 20.6 7.25034 20.6 12H22.6C22.6 6.14577 17.8542 1.39999 12 1.39999V3.39999ZM12 20.6C11.751 20.6 11.4349 20.4888 11.0603 20.1266C10.6808 19.7598 10.2934 19.1806 9.94633 18.3874C9.25356 16.8039 8.80002 14.5464 8.80002 12H6.80002C6.80002 14.7555 7.28669 17.298 8.11402 19.189C8.52703 20.1331 9.04464 20.9598 9.67013 21.5645C10.3004 22.1739 11.0893 22.6 12 22.6V20.6ZM8.80002 12C8.80002 9.45359 9.25356 7.19608 9.94633 5.61259C10.2934 4.81936 10.6808 4.24022 11.0603 3.87336C11.4349 3.51115 11.751 3.39999 12 3.39999V1.39999C11.0893 1.39999 10.3004 1.8261 9.67013 2.43546C9.04464 3.04017 8.52703 3.86692 8.11402 4.81095C7.28669 6.70198 6.80002 9.24446 6.80002 12H8.80002ZM12 22.6C12.9108 22.6 13.6996 22.1739 14.3299 21.5645C14.9554 20.9598 15.473 20.1331 15.886 19.189C16.7134 17.298 17.2 14.7555 17.2 12H15.2C15.2 14.5464 14.7465 16.8039 14.0537 18.3874C13.7067 19.1806 13.3193 19.7598 12.9398 20.1266C12.5651 20.4888 12.2491 20.6 12 20.6V22.6ZM17.2 12C17.2 9.24446 16.7134 6.70198 15.886 4.81095C15.473 3.86692 14.9554 3.04017 14.3299 2.43546C13.6996 1.8261 12.9108 1.39999 12 1.39999V3.39999C12.2491 3.39999 12.5651 3.51115 12.9398 3.87336C13.3193 4.24022 13.7067 4.81936 14.0537 5.61259C14.7465 7.19608 15.2 9.45359 15.2 12H17.2ZM3.60003 10.6H20.4V8.59999H3.60003V10.6ZM3.7008 15.9999H20.5008V13.9999H3.7008V15.9999Z" fill="currentColor"/>
</g>
</svg>
