<svg width="24" height="24" viewBox="0 0 24 24" fill="none" xmlns="http://www.w3.org/2000/svg">
<g id="grid-04-filled">
<g id="Icon">
<path d="M2.39999 3.5999C2.39999 2.93716 2.93725 2.3999 3.59999 2.3999H5.99999C6.66274 2.3999 7.19999 2.93716 7.19999 3.5999V5.9999C7.19999 6.66264 6.66274 7.1999 5.99999 7.1999H3.59999C2.93725 7.1999 2.39999 6.66264 2.39999 5.9999V3.5999Z" stroke="currentColor" stroke-width="2"/>
<path d="M9.59999 3.5999C9.59999 2.93716 10.1373 2.3999 10.8 2.3999H13.2C13.8627 2.3999 14.4 2.93716 14.4 3.5999V5.9999C14.4 6.66264 13.8627 7.1999 13.2 7.1999H10.8C10.1373 7.1999 9.59999 6.66264 9.59999 5.9999V3.5999Z" stroke="currentColor" stroke-width="2"/>
<path d="M16.8 3.5999C16.8 2.93716 17.3373 2.3999 18 2.3999H20.4C21.0627 2.3999 21.6 2.93716 21.6 3.5999V5.9999C21.6 6.66264 21.0627 7.1999 20.4 7.1999H18C17.3373 7.1999 16.8 6.66264 16.8 5.9999V3.5999Z" stroke="currentColor" stroke-width="2"/>
<path d="M2.39999 10.7999C2.39999 10.1372 2.93725 9.5999 3.59999 9.5999H5.99999C6.66274 9.5999 7.19999 10.1372 7.19999 10.7999V13.1999C7.19999 13.8626 6.66274 14.3999 5.99999 14.3999H3.59999C2.93725 14.3999 2.39999 13.8626 2.39999 13.1999V10.7999Z" stroke="currentColor" stroke-width="2"/>
<path d="M9.59999 10.7999C9.59999 10.1372 10.1373 9.5999 10.8 9.5999H13.2C13.8627 9.5999 14.4 10.1372 14.4 10.7999V13.1999C14.4 13.8626 13.8627 14.3999 13.2 14.3999H10.8C10.1373 14.3999 9.59999 13.8626 9.59999 13.1999V10.7999Z" stroke="currentColor" stroke-width="2"/>
<path d="M16.8 10.7999C16.8 10.1372 17.3373 9.5999 18 9.5999H20.4C21.0627 9.5999 21.6 10.1372 21.6 10.7999V13.1999C21.6 13.8626 21.0627 14.3999 20.4 14.3999H18C17.3373 14.3999 16.8 13.8626 16.8 13.1999V10.7999Z" stroke="currentColor" stroke-width="2"/>
<path d="M2.39999 17.9999C2.39999 17.3372 2.93725 16.7999 3.59999 16.7999H5.99999C6.66274 16.7999 7.19999 17.3372 7.19999 17.9999V20.3999C7.19999 21.0626 6.66274 21.5999 5.99999 21.5999H3.59999C2.93725 21.5999 2.39999 21.0626 2.39999 20.3999V17.9999Z" stroke="currentColor" stroke-width="2"/>
<path d="M9.59999 17.9999C9.59999 17.3372 10.1373 16.7999 10.8 16.7999H13.2C13.8627 16.7999 14.4 17.3372 14.4 17.9999V20.3999C14.4 21.0626 13.8627 21.5999 13.2 21.5999H10.8C10.1373 21.5999 9.59999 21.0626 9.59999 20.3999V17.9999Z" stroke="currentColor" stroke-width="2"/>
<path d="M16.8 17.9999C16.8 17.3372 17.3373 16.7999 18 16.7999H20.4C21.0627 16.7999 21.6 17.3372 21.6 17.9999V20.3999C21.6 21.0626 21.0627 21.5999 20.4 21.5999H18C17.3373 21.5999 16.8 21.0626 16.8 20.3999V17.9999Z" stroke="currentColor" stroke-width="2"/>
</g>
</g>
</svg>
