<svg width="24" height="24" viewBox="0 0 24 24" fill="none" xmlns="http://www.w3.org/2000/svg">
<g id="grid-03">
<path id="Vector" d="M8.79999 2.3999H4.53333C3.35512 2.3999 2.39999 3.35503 2.39999 4.53324V8.7999M8.79999 21.5999H4.53333C3.35512 21.5999 2.39999 20.6448 2.39999 19.4666V15.1999M15.2 2.3999H19.4667C20.6449 2.3999 21.6 3.35503 21.6 4.53324V8.7999M21.6 15.1999V19.4666C21.6 20.6448 20.6449 21.5999 19.4667 21.5999H15.2M15.6 12.0002C15.6 13.9884 13.9882 15.6002 12 15.6002C10.0118 15.6002 8.39999 13.9884 8.39999 12.0002C8.39999 10.012 10.0118 8.40019 12 8.40019C13.9882 8.40019 15.6 10.012 15.6 12.0002Z" stroke="currentColor" stroke-width="2" stroke-linecap="round"/>
</g>
</svg>
