<svg width="24" height="24" viewBox="0 0 24 24" fill="none" xmlns="http://www.w3.org/2000/svg">
<g id="grid-01">
<g id="Vector">
<path d="M19.4667 2.3999C20.6449 2.3999 21.6 3.34194 21.6 4.50401L21.6 8.09583C21.6 9.2579 20.6449 10.1999 19.4667 10.1999H16.2667C15.0885 10.1999 14.1333 9.2579 14.1333 8.09583L14.1333 4.50401C14.1333 3.34194 15.0885 2.3999 16.2667 2.3999L19.4667 2.3999Z" stroke="currentColor" stroke-width="2" stroke-linecap="round" stroke-linejoin="round"/>
<path d="M4.53333 2.3999C3.35512 2.3999 2.39999 3.34194 2.39999 4.50401L2.4 8.09583C2.4 9.2579 3.35513 10.1999 4.53334 10.1999H7.73333C8.91154 10.1999 9.86667 9.2579 9.86667 8.09583L9.86666 4.50401C9.86666 3.34194 8.91153 2.3999 7.73332 2.3999L4.53333 2.3999Z" stroke="currentColor" stroke-width="2" stroke-linecap="round" stroke-linejoin="round"/>
<path d="M19.4667 13.7999C20.6449 13.7999 21.6 14.742 21.6 15.9041V19.4958C21.6 20.6579 20.6449 21.5999 19.4667 21.5999H16.2667C15.0885 21.5999 14.1333 20.6579 14.1333 19.4958L14.1333 15.9041C14.1333 14.742 15.0885 13.7999 16.2667 13.7999H19.4667Z" stroke="currentColor" stroke-width="2" stroke-linecap="round" stroke-linejoin="round"/>
<path d="M4.53333 13.7999C3.35513 13.7999 2.4 14.742 2.4 15.9041L2.40001 19.4958C2.40001 20.6579 3.35513 21.5999 4.53334 21.5999H7.73334C8.91154 21.5999 9.86667 20.6579 9.86667 19.4958L9.86667 15.9041C9.86667 14.742 8.91154 13.7999 7.73333 13.7999H4.53333Z" stroke="currentColor" stroke-width="2" stroke-linecap="round" stroke-linejoin="round"/>
</g>
</g>
</svg>
