<svg width="25" height="24" viewBox="0 0 25 24" fill="none" xmlns="http://www.w3.org/2000/svg">
<g id="header-02">
<path id="Vector" d="M8.51145 16.7998V11.8152M8.51145 16.7998H6.84992M8.51145 16.7998H10.173M8.51145 11.8152V6.83061M8.51145 11.8152H15.9884M8.51145 6.83061H6.84992M8.51145 6.83061H10.173M15.9884 11.8152V16.7998M15.9884 11.8152V6.83061M15.9884 16.7998H14.3268M15.9884 16.7998H17.6499M15.9884 6.83061H14.3268M15.9884 6.83061H17.6499M5.05002 21.6H19.45C20.7755 21.6 21.85 20.5255 21.85 19.2V4.80002C21.85 3.47454 20.7755 2.40002 19.45 2.40002H5.05002C3.72454 2.40002 2.65002 3.47454 2.65002 4.80002V19.2C2.65002 20.5255 3.72454 21.6 5.05002 21.6Z" stroke="currentColor" stroke-width="2" stroke-linecap="round" stroke-linejoin="round"/>
</g>
</svg>
