<svg width="24" height="24" viewBox="0 0 24 24" fill="none" xmlns="http://www.w3.org/2000/svg">
<g id="help-square-contained">
<path id="Icon" d="M11.9999 16.7999V16.8421M9.60094 9.04528C9.60094 7.69476 10.6755 6.59995 12.0009 6.59995C13.3264 6.59995 14.4009 7.69476 14.4009 9.04528C14.4009 10.3958 13.3264 11.4906 12.0009 11.4906C12.0009 11.4906 11.9999 12.2205 11.9999 13.1208M21.5999 5.99995L21.5999 18.0001C21.5999 19.9883 19.9881 21.6001 17.9999 21.6001H5.9999C4.01168 21.6001 2.3999 19.9883 2.3999 18.0001V5.99995C2.3999 4.01172 4.01168 2.39995 5.9999 2.39995H17.9999C19.9881 2.39995 21.5999 4.01172 21.5999 5.99995Z" stroke="currentColor" stroke-width="2" stroke-linecap="round" stroke-linejoin="round"/>
</g>
</svg>
