<svg width="24" height="24" viewBox="0 0 24 24" fill="none" xmlns="http://www.w3.org/2000/svg">
<g id="help">
<path id="Icon" d="M14.5456 14.5456C13.1397 15.9515 10.8603 15.9515 9.45442 14.5456M14.5456 14.5456C15.9515 13.1397 15.9515 10.8603 14.5456 9.45442M14.5456 14.5456L18.364 18.364M9.45442 14.5456C8.04853 13.1397 8.04853 10.8603 9.45442 9.45442M9.45442 14.5456L5.63604 18.364M9.45442 9.45442C10.8603 8.04853 13.1397 8.04853 14.5456 9.45442M9.45442 9.45442L5.63604 5.63604M14.5456 9.45442L18.364 5.63604M18.7882 18.7882C15.0392 22.5373 8.96081 22.5373 5.21178 18.7882C1.46274 15.0392 1.46274 8.96081 5.21178 5.21178C8.96081 1.46274 15.0392 1.46274 18.7882 5.21178C22.5373 8.96081 22.5373 15.0392 18.7882 18.7882Z" stroke="currentColor" stroke-width="2" stroke-linecap="round" stroke-linejoin="round"/>
</g>
</svg>
