<svg width="24" height="24" viewBox="0 0 24 24" fill="none" xmlns="http://www.w3.org/2000/svg">
<g id="home-05">
<path id="Icon" d="M20.9399 10.8L19.1999 9.06122V4.80002C19.1999 4.14002 18.6599 3.60002 17.9999 3.60002H16.7999C16.1399 3.60002 15.5999 4.14002 15.5999 4.80002V5.46362L13.1999 3.06602C12.8723 2.75642 12.5723 2.40002 11.9999 2.40002C11.4275 2.40002 11.1275 2.75642 10.7999 3.06602L3.0599 10.8C2.6855 11.19 2.3999 11.4744 2.3999 12C2.3999 12.6756 2.9183 13.2 3.5999 13.2H4.7999V20.4C4.7999 21.06 5.3399 21.6 5.9999 21.6H8.3999C9.06264 21.6 9.5999 21.0628 9.5999 20.4V15.6C9.5999 14.94 10.1399 14.4 10.7999 14.4H13.1999C13.8599 14.4 14.3999 14.94 14.3999 15.6V20.4C14.3999 21.0628 14.3372 21.6 14.9999 21.6H17.9999C18.6599 21.6 19.1999 21.06 19.1999 20.4V13.2H20.3999C21.0815 13.2 21.5999 12.6756 21.5999 12C21.5999 11.4744 21.3143 11.19 20.9399 10.8Z" stroke="currentColor" stroke-width="2" stroke-linejoin="round"/>
</g>
</svg>
