<svg width="24" height="24" viewBox="0 0 24 24" fill="none" xmlns="http://www.w3.org/2000/svg">
<g id="home-01">
<g id="Icon">
<path d="M2.3999 9.24379C2.3999 8.84977 2.60045 8.48011 2.93811 8.25177L11.2581 2.62525C11.7022 2.32492 12.2976 2.32492 12.7417 2.62525L21.0617 8.25177C21.3994 8.48011 21.5999 8.84977 21.5999 9.24379V19.7741C21.5999 20.7825 20.7403 21.6 19.6799 21.6H4.3199C3.25952 21.6 2.3999 20.7825 2.3999 19.7741V9.24379Z" stroke="currentColor" stroke-width="2"/>
<path d="M14.3999 13.2C14.3999 14.5255 13.3254 15.6 11.9999 15.6C10.6744 15.6 9.5999 14.5255 9.5999 13.2C9.5999 11.8745 10.6744 10.8 11.9999 10.8C13.3254 10.8 14.3999 11.8745 14.3999 13.2Z" stroke="currentColor" stroke-width="2"/>
</g>
</g>
</svg>
