<svg width="25" height="24" viewBox="0 0 25 24" fill="none" xmlns="http://www.w3.org/2000/svg">
<g id="hourglass-01">
<path id="Vector 23" d="M7.40134 21.6H18.0985C18.7044 21.6 19.1956 21.1088 19.1956 20.5028V17.572C19.1956 17.3378 19.1207 17.1097 18.9817 16.9212L15.8178 12.6273C15.5411 12.2516 15.5321 11.742 15.7956 11.3569L18.7297 7.06869C18.8545 6.88621 18.9213 6.67026 18.9213 6.44915V3.49714C18.9213 2.8912 18.4301 2.39999 17.8242 2.39999H7.40134C6.79541 2.39999 6.3042 2.8912 6.3042 3.49714V6.42801C6.3042 6.66222 6.37915 6.89028 6.51808 7.07883L9.66464 11.3492C9.94982 11.7362 9.94982 12.2638 9.66464 12.6508L6.51808 16.9212C6.37915 17.1097 6.3042 17.3378 6.3042 17.572V20.5028C6.3042 21.1088 6.79541 21.6 7.40134 21.6Z" stroke="currentColor" stroke-width="2" stroke-linecap="round" stroke-linejoin="round"/>
</g>
</svg>
