<svg width="25" height="24" viewBox="0 0 25 24" fill="none" xmlns="http://www.w3.org/2000/svg">
<g id="hourglass-02">
<path id="Vector 22" d="M10.1442 18.3086H15.3556M18.0985 21.6H7.40134C6.79541 21.6 6.3042 21.1088 6.3042 20.5028V17.572C6.3042 17.3378 6.37915 17.1097 6.51808 16.9212L9.66464 12.6508C9.94982 12.2638 9.94982 11.7362 9.66464 11.3492L6.51808 7.07883C6.37915 6.89028 6.3042 6.66222 6.3042 6.42801V3.49714C6.3042 2.8912 6.79541 2.39999 7.40134 2.39999H17.8242C18.4301 2.39999 18.9213 2.8912 18.9213 3.49714V6.44915C18.9213 6.67026 18.8545 6.88621 18.7297 7.06869L15.7956 11.3569C15.5321 11.742 15.5411 12.2516 15.8178 12.6273L18.9817 16.9212C19.1207 17.1097 19.1956 17.3378 19.1956 17.572V20.5028C19.1956 21.1088 18.7044 21.6 18.0985 21.6Z" stroke="currentColor" stroke-width="2" stroke-linecap="round" stroke-linejoin="round"/>
</g>
</svg>
