<svg width="25" height="24" viewBox="0 0 25 24" fill="none" xmlns="http://www.w3.org/2000/svg">
<g id="hourglass-03">
<path id="Vector" d="M5.55005 2.39999H19.9501M5.55005 21.6H19.9501M18.1501 2.39999V5.32472C18.1501 5.99666 17.9245 6.64915 17.5095 7.17761L14.4997 11.0101C13.9763 11.6766 13.9887 12.6181 14.5296 13.2706L17.4597 16.8053C17.9059 17.3435 18.1501 18.0207 18.1501 18.7198V21.6M7.35005 2.39999V5.32472C7.35005 5.99666 7.57563 6.64915 7.99064 7.17761L11.0004 11.0101C11.5238 11.6766 11.5114 12.6181 10.9705 13.2706L8.04041 16.8053C7.59423 17.3435 7.35005 18.0207 7.35005 18.7198V21.6" stroke="currentColor" stroke-width="2" stroke-linecap="round" stroke-linejoin="round"/>
</g>
</svg>
