<svg width="24" height="24" viewBox="0 0 24 24" fill="none" xmlns="http://www.w3.org/2000/svg">
<g id="image-question">
<path id="Icon" d="M5.99999 22.2L16.2 12.6L21 17.4M5.99999 22.2H18C19.9882 22.2 21.6 20.5883 21.6 18.6V12M5.99999 22.2C4.01177 22.2 2.39999 20.5883 2.39999 18.6V6.60005C2.39999 4.61182 4.01177 3.00005 5.99999 3.00005H12.6M16.8 4.14792C16.8 2.85123 17.8745 1.80005 19.2 1.80005C20.5255 1.80005 21.6 2.85123 21.6 4.14792C21.6 5.44462 20.5255 6.4958 19.2 6.4958M19.2 9.69028V9.60005M9.59999 8.40005C9.59999 9.39416 8.79411 10.2 7.79999 10.2C6.80588 10.2 5.99999 9.39416 5.99999 8.40005C5.99999 7.40594 6.80588 6.60005 7.79999 6.60005C8.79411 6.60005 9.59999 7.40594 9.59999 8.40005Z" stroke="currentColor" stroke-width="2" stroke-linecap="round" stroke-linejoin="round"/>
</g>
</svg>
