<svg width="24" height="24" viewBox="0 0 24 24" fill="none" xmlns="http://www.w3.org/2000/svg">
<g id="image-x">
<path id="Icon" d="M5.39999 21.5999L15.6 11.9999L20.4 16.7999M5.39999 21.5999H17.4C19.3882 21.5999 21 19.9881 21 17.9999V10.7999M5.39999 21.5999C3.41176 21.5999 1.79999 19.9881 1.79999 17.9999V5.9999C1.79999 4.01168 3.41176 2.3999 5.39999 2.3999H13.2M22.2 7.1999L19.8 4.7999M19.8 4.7999L17.4 2.3999M19.8 4.7999L17.4 7.1999M19.8 4.7999L22.2 2.3999M8.99999 7.7999C8.99999 8.79401 8.1941 9.5999 7.19999 9.5999C6.20588 9.5999 5.39999 8.79401 5.39999 7.7999C5.39999 6.80579 6.20588 5.9999 7.19999 5.9999C8.1941 5.9999 8.99999 6.80579 8.99999 7.7999Z" stroke="currentColor" stroke-width="2" stroke-linecap="round" stroke-linejoin="round"/>
</g>
</svg>
