<svg width="24" height="24" viewBox="0 0 24 24" fill="none" xmlns="http://www.w3.org/2000/svg">
<g id="image-down">
<path id="Icon" d="M5.99999 21.5999L16.2 11.9999L21 16.7999M5.99999 21.5999H18C19.9882 21.5999 21.6 19.9881 21.6 17.9999V11.9999M5.99999 21.5999C4.01177 21.5999 2.39999 19.9881 2.39999 17.9999V5.9999C2.39999 4.01168 4.01177 2.3999 5.99999 2.3999H13.8M21.6 5.95733L19.1457 8.3999M19.1457 8.3999L16.8 6.06774M19.1457 8.3999V2.3999M9.59999 7.7999C9.59999 8.79401 8.79411 9.5999 7.79999 9.5999C6.80588 9.5999 5.99999 8.79401 5.99999 7.7999C5.99999 6.80579 6.80588 5.9999 7.79999 5.9999C8.79411 5.9999 9.59999 6.80579 9.59999 7.7999Z" stroke="currentColor" stroke-width="2" stroke-linecap="round" stroke-linejoin="round"/>
</g>
</svg>
