<svg width="24" height="24" viewBox="0 0 24 24" fill="none" xmlns="http://www.w3.org/2000/svg">
<g id="image-add">
<path id="Icon" d="M4.90295 22.0971L15.1029 12.4971L19.903 17.2971M4.90295 22.0971H16.903C18.8912 22.0971 20.503 20.4853 20.503 18.4971V12.4971M4.90295 22.0971C2.91472 22.0971 1.30295 20.4853 1.30295 18.4971V6.49707C1.30295 4.50884 2.91472 2.89707 4.90295 2.89707H12.7029M19.303 8.69118L19.303 5.29707M19.303 5.29707L19.303 1.90295M19.303 5.29707L15.9088 5.29707M19.303 5.29707L22.6971 5.29707M8.50295 8.29707C8.50295 9.29118 7.69706 10.0971 6.70295 10.0971C5.70884 10.0971 4.90295 9.29118 4.90295 8.29707C4.90295 7.30295 5.70884 6.49707 6.70295 6.49707C7.69706 6.49707 8.50295 7.30295 8.50295 8.29707Z" stroke="currentColor" stroke-width="2" stroke-linecap="round" stroke-linejoin="round"/>
</g>
</svg>
