<svg width="24" height="24" viewBox="0 0 24 24" fill="none" xmlns="http://www.w3.org/2000/svg">
<g id="image-03">
<path id="Icon" d="M2.89289 19.0928C2.50236 19.4833 2.50236 20.1165 2.89289 20.507C3.28341 20.8975 3.91658 20.8975 4.3071 20.507L2.89289 19.0928ZM8.39999 14.9999L9.1071 14.2928C8.71658 13.9023 8.08341 13.9023 7.69289 14.2928L8.39999 14.9999ZM10.8 17.3999L10.0929 18.107C10.4834 18.4975 11.1166 18.4975 11.5071 18.107L10.8 17.3999ZM16.2 11.9999L16.9071 11.2928C16.5166 10.9023 15.8834 10.9023 15.4929 11.2928L16.2 11.9999ZM20.2929 17.507C20.6834 17.8975 21.3166 17.8975 21.7071 17.507C22.0976 17.1165 22.0976 16.4833 21.7071 16.0928L20.2929 17.507ZM4.3071 20.507L9.1071 15.707L7.69289 14.2928L2.89289 19.0928L4.3071 20.507ZM7.69289 15.707L10.0929 18.107L11.5071 16.6928L9.1071 14.2928L7.69289 15.707ZM11.5071 18.107L16.9071 12.707L15.4929 11.2928L10.0929 16.6928L11.5071 18.107ZM15.4929 12.707L20.2929 17.507L21.7071 16.0928L16.9071 11.2928L15.4929 12.707ZM5.99999 3.3999H18V1.3999H5.99999V3.3999ZM20.6 5.9999V17.9999H22.6V5.9999H20.6ZM18 20.5999H5.99999V22.5999H18V20.5999ZM3.39999 17.9999V5.9999H1.39999V17.9999H3.39999ZM5.99999 20.5999C4.56405 20.5999 3.39999 19.4358 3.39999 17.9999H1.39999C1.39999 20.5404 3.45948 22.5999 5.99999 22.5999V20.5999ZM20.6 17.9999C20.6 19.4358 19.4359 20.5999 18 20.5999V22.5999C20.5405 22.5999 22.6 20.5404 22.6 17.9999H20.6ZM18 3.3999C19.4359 3.3999 20.6 4.56396 20.6 5.9999H22.6C22.6 3.45939 20.5405 1.3999 18 1.3999V3.3999ZM5.99999 1.3999C3.45948 1.3999 1.39999 3.45939 1.39999 5.9999H3.39999C3.39999 4.56396 4.56405 3.3999 5.99999 3.3999V1.3999ZM8.59999 7.7999C8.59999 8.24173 8.24182 8.5999 7.79999 8.5999V10.5999C9.34639 10.5999 10.6 9.3463 10.6 7.7999H8.59999ZM7.79999 8.5999C7.35817 8.5999 6.99999 8.24173 6.99999 7.7999H4.99999C4.99999 9.3463 6.2536 10.5999 7.79999 10.5999V8.5999ZM6.99999 7.7999C6.99999 7.35807 7.35817 6.9999 7.79999 6.9999V4.9999C6.2536 4.9999 4.99999 6.2535 4.99999 7.7999H6.99999ZM7.79999 6.9999C8.24182 6.9999 8.59999 7.35807 8.59999 7.7999H10.6C10.6 6.2535 9.34639 4.9999 7.79999 4.9999V6.9999Z" fill="currentColor"/>
</g>
</svg>
