<svg width="24" height="24" viewBox="0 0 24 24" fill="none" xmlns="http://www.w3.org/2000/svg">
<g id="image">
<path id="Icon" d="M8.4668 12.8825L7.82036 12.1195L7.82034 12.1195L8.4668 12.8825ZM8.51961 12.8319L7.80712 12.1302L7.80634 12.131L8.51961 12.8319ZM6.29789 14.7202L5.65144 13.9572L5.65143 13.9572L6.29789 14.7202ZM6.17908 14.8453L6.99989 15.4165L6.99989 15.4165L6.17908 14.8453ZM17.6924 12.9592L16.9999 13.6806L17.6924 12.9592ZM15.8413 11.1822L15.1488 11.9036L15.1488 11.9036L15.8413 11.1822ZM15.1539 11.1773L14.4716 10.4463L14.469 10.4487L15.1539 11.1773ZM11.7252 14.3998L12.4075 15.1309L12.41 15.1285L11.7252 14.3998ZM11.0272 14.3846L10.3112 15.0827L10.3126 15.0842L11.0272 14.3846ZM11.0182 14.3754L10.3015 15.0728L10.3022 15.0735L11.0182 14.3754ZM10.9692 14.3278L11.6239 13.5719L11.6239 13.5719L10.9692 14.3278ZM9.29885 12.881L9.95356 12.1252L9.95356 12.1252L9.29885 12.881ZM9.24966 12.8332L9.96654 12.1361L9.96587 12.1354L9.24966 12.8332ZM9.24085 12.8242L9.95707 12.1263L9.95571 12.1249L9.24085 12.8242ZM8.52909 12.8223L7.81803 12.1191L7.81661 12.1206L8.52909 12.8223ZM16.3194 6.59982V5.59983C15.7671 5.59983 15.3194 6.04754 15.3194 6.59982H16.3194ZM16.6626 6.59982H17.6626C17.6626 6.04754 17.2149 5.59983 16.6626 5.59983V6.59982ZM16.6626 6.89045V7.89045C17.2149 7.89045 17.6626 7.44273 17.6626 6.89045H16.6626ZM16.3194 6.89045H15.3194C15.3194 7.44273 15.7671 7.89045 16.3194 7.89045V6.89045ZM1.3999 6.00002V18H3.3999V6.00002H1.3999ZM5.9999 22.6H17.9999V20.6H5.9999V22.6ZM22.5999 18V6.00002H20.5999V18H22.5999ZM17.9999 1.40002H5.9999V3.40002H17.9999V1.40002ZM22.5999 6.00002C22.5999 3.45952 20.5404 1.40002 17.9999 1.40002V3.40002C19.4358 3.40002 20.5999 4.56408 20.5999 6.00002H22.5999ZM17.9999 22.6C20.5404 22.6 22.5999 20.5405 22.5999 18H20.5999C20.5999 19.436 19.4358 20.6 17.9999 20.6V22.6ZM1.3999 18C1.3999 20.5405 3.45939 22.6 5.9999 22.6V20.6C4.56396 20.6 3.3999 19.436 3.3999 18H1.3999ZM3.3999 6.00002C3.3999 4.56408 4.56396 3.40002 5.9999 3.40002V1.40002C3.45939 1.40002 1.3999 3.45951 1.3999 6.00002H3.3999ZM9.11324 13.6454C9.17248 13.5952 9.22117 13.5447 9.23287 13.5328L7.80634 12.131C7.80174 12.1357 7.79945 12.138 7.79749 12.14C7.79576 12.1417 7.79568 12.1418 7.79664 12.1408C7.79833 12.1392 7.8069 12.1309 7.82036 12.1195L9.11324 13.6454ZM6.94434 15.4831L9.11325 13.6454L7.82034 12.1195L5.65144 13.9572L6.94434 15.4831ZM6.99989 15.4165C6.97954 15.4457 6.96167 15.4654 6.95195 15.4754C6.94257 15.4851 6.93829 15.4883 6.94435 15.4831L5.65143 13.9572C5.57867 14.0189 5.46267 14.1241 5.35827 14.2741L6.99989 15.4165ZM6.9999 15.4165L6.99989 15.4165L5.35827 14.2741C5.12575 14.6082 4.9999 15.0066 4.9999 15.4165H6.9999ZM6.9999 17.5V15.4165H4.9999V17.5H6.9999ZM6.4999 17C6.77604 17 6.9999 17.2239 6.9999 17.5H4.9999C4.9999 18.3285 5.67148 19 6.4999 19V17ZM17.4999 17H6.4999V19H17.4999V17ZM16.9999 17.5C16.9999 17.2239 17.2238 17 17.4999 17V19C18.3283 19 18.9999 18.3285 18.9999 17.5H16.9999ZM16.9999 13.6806V17.5H18.9999V13.6806H16.9999ZM16.9999 13.6806H18.9999C18.9999 13.136 18.7778 12.615 18.385 12.2379L16.9999 13.6806ZM15.1488 11.9036L16.9999 13.6806L18.385 12.2379L16.5339 10.4608L15.1488 11.9036ZM15.8362 11.9084C15.6421 12.0896 15.3403 12.0874 15.1488 11.9036L16.5339 10.4608C15.9593 9.90922 15.0538 9.90285 14.4716 10.4463L15.8362 11.9084ZM12.41 15.1285L15.8388 11.906L14.469 10.4487L11.0403 13.6712L12.41 15.1285ZM10.3126 15.0842C10.8772 15.6608 11.8073 15.6911 12.4075 15.1309L11.0429 13.6688C11.2432 13.4818 11.553 13.4922 11.7417 13.685L10.3126 15.0842ZM10.3022 15.0735L10.3112 15.0827L11.7431 13.6865L11.7341 13.6772L10.3022 15.0735ZM10.3144 15.0837C10.302 15.0729 10.294 15.0651 10.2925 15.0636C10.2916 15.0627 10.2917 15.0627 10.2933 15.0644C10.2951 15.0662 10.2972 15.0684 10.3015 15.0728L11.7348 13.6779C11.724 13.6668 11.6787 13.6194 11.6239 13.5719L10.3144 15.0837ZM8.64414 13.6369L10.3145 15.0837L11.6239 13.5719L9.95356 12.1252L8.64414 13.6369ZM8.53277 13.5304C8.54369 13.5417 8.58912 13.5893 8.64414 13.6369L9.95356 12.1252C9.96605 12.136 9.97402 12.1438 9.97559 12.1453C9.97649 12.1462 9.97642 12.1462 9.97479 12.1445C9.97297 12.1427 9.97084 12.1405 9.96654 12.1361L8.53277 13.5304ZM8.52464 13.5221L8.53344 13.5311L9.96587 12.1354L9.95706 12.1263L8.52464 13.5221ZM9.24016 13.5254C9.04295 13.7248 8.72238 13.7242 8.52599 13.5235L9.95571 12.1249C9.3701 11.5263 8.40613 11.5244 7.81803 12.1191L9.24016 13.5254ZM9.23209 13.5336L9.24158 13.5239L7.81661 12.1206L7.80712 12.1302L9.23209 13.5336ZM16.3194 7.59982H16.6626V5.59983H16.3194V7.59982ZM15.6626 6.59982V6.89045H17.6626V6.59982H15.6626ZM16.6626 5.89045H16.3194V7.89045H16.6626V5.89045ZM17.3194 6.89045V6.59982H15.3194V6.89045H17.3194Z" fill="currentColor"/>
</g>
</svg>
