<svg width="24" height="24" viewBox="0 0 24 24" fill="none" xmlns="http://www.w3.org/2000/svg">
<g id="image-avatar">
<path id="Icon" d="M4.79999 20.4V18.6C4.79999 17.2745 5.87451 16.2 7.19999 16.2H16.8C18.1255 16.2 19.2 17.2745 19.2 18.6V21M4.79999 21.6001C3.47451 21.6001 2.39999 20.4691 2.39999 19.0738V4.92646C2.39999 3.53121 3.47451 2.40015 4.79999 2.40015H19.2C20.5255 2.40015 21.6 3.53122 21.6 4.92646V19.0738C21.6 20.4691 20.5255 21.6001 19.2 21.6001H4.79999ZM15 9.00003C15 10.6569 13.6568 12 12 12C10.3431 12 8.99999 10.6569 8.99999 9.00003C8.99999 7.34317 10.3431 6.00003 12 6.00003C13.6568 6.00003 15 7.34317 15 9.00003Z" stroke="currentColor" stroke-width="2" stroke-linecap="round" stroke-linejoin="round"/>
</g>
</svg>
