<svg width="24" height="24" viewBox="0 0 24 24" fill="none" xmlns="http://www.w3.org/2000/svg">
<g id="image-check">
<path id="Icon" d="M5.79991 21.6L15.9999 12L20.7999 16.8M5.79991 21.6H17.7999C19.7881 21.6 21.3999 19.9882 21.3999 18V9.60002M5.79991 21.6C3.81168 21.6 2.19991 19.9882 2.19991 18V6.00002C2.19991 4.0118 3.81168 2.40002 5.79991 2.40002H14.7999M15.8005 5.40002L17.5999 7.20022L21.8001 3.00002M9.39991 7.80002C9.39991 8.79414 8.59402 9.60002 7.59991 9.60002C6.60579 9.60002 5.79991 8.79414 5.79991 7.80002C5.79991 6.80591 6.60579 6.00002 7.59991 6.00002C8.59402 6.00002 9.39991 6.80591 9.39991 7.80002Z" stroke="currentColor" stroke-width="2" stroke-linecap="round" stroke-linejoin="round"/>
</g>
</svg>
