<svg width="24" height="24" viewBox="0 0 24 24" fill="none" xmlns="http://www.w3.org/2000/svg">
<g id="image-minus">
<path id="Icon" d="M4.90295 21.6L15.1029 12L19.903 16.8M4.90295 21.6H16.903C18.8912 21.6 20.503 19.9882 20.503 18V12M4.90295 21.6C2.91472 21.6 1.30295 19.9882 1.30295 18V6.00002C1.30295 4.0118 2.91472 2.40002 4.90295 2.40002H12.7029M15.9088 6.00002H22.6971M8.50295 7.80002C8.50295 8.79414 7.69706 9.60002 6.70295 9.60002C5.70884 9.60002 4.90295 8.79414 4.90295 7.80002C4.90295 6.80591 5.70884 6.00002 6.70295 6.00002C7.69706 6.00002 8.50295 6.80591 8.50295 7.80002Z" stroke="currentColor" stroke-width="2" stroke-linecap="round" stroke-linejoin="round"/>
</g>
</svg>
