<svg width="24" height="24" viewBox="0 0 24 24" fill="none" xmlns="http://www.w3.org/2000/svg">
<g id="image-no-borders">
<path id="Icon" d="M2.39999 20.4L1.61913 19.7753C1.37899 20.0755 1.33217 20.4867 1.49869 20.8332C1.66521 21.1796 2.01559 21.4 2.39999 21.4V20.4ZM7.67999 13.8L8.46086 13.1753C8.27109 12.9381 7.98378 12.8 7.67999 12.8C7.37621 12.8 7.0889 12.9381 6.89912 13.1753L7.67999 13.8ZM9.59999 16.2L8.81912 16.8247C9.0089 17.0619 9.29621 17.2 9.59999 17.2C9.90378 17.2 10.1911 17.0619 10.3809 16.8247L9.59999 16.2ZM13.92 10.8L14.7009 10.1753C14.5111 9.93807 14.2238 9.79998 13.92 9.79998C13.6162 9.79998 13.3289 9.93807 13.1391 10.1753L13.92 10.8ZM21.6 20.4V21.4C21.9844 21.4 22.3348 21.1796 22.5013 20.8332C22.6678 20.4867 22.621 20.0755 22.3809 19.7753L21.6 20.4ZM7.39999 5.39998C7.39999 5.8418 7.04182 6.19998 6.59999 6.19998V8.19998C8.14639 8.19998 9.39999 6.94637 9.39999 5.39998H7.39999ZM6.59999 6.19998C6.15817 6.19998 5.79999 5.8418 5.79999 5.39998H3.79999C3.79999 6.94637 5.0536 8.19998 6.59999 8.19998V6.19998ZM5.79999 5.39998C5.79999 4.95815 6.15817 4.59998 6.59999 4.59998V2.59998C5.0536 2.59998 3.79999 3.85358 3.79999 5.39998H5.79999ZM6.59999 4.59998C7.04182 4.59998 7.39999 4.95815 7.39999 5.39998H9.39999C9.39999 3.85358 8.14639 2.59998 6.59999 2.59998V4.59998ZM3.18086 21.0247L8.46086 14.4247L6.89912 13.1753L1.61913 19.7753L3.18086 21.0247ZM6.89912 14.4247L8.81912 16.8247L10.3809 15.5753L8.46086 13.1753L6.89912 14.4247ZM10.3809 16.8247L14.7009 11.4247L13.1391 10.1753L8.81912 15.5753L10.3809 16.8247ZM13.1391 11.4247L20.8191 21.0247L22.3809 19.7753L14.7009 10.1753L13.1391 11.4247ZM21.6 19.4H2.39999V21.4H21.6V19.4Z" fill="currentColor"/>
</g>
</svg>
