<svg width="24" height="24" viewBox="0 0 24 24" fill="none" xmlns="http://www.w3.org/2000/svg">
<g id="image-focus">
<path id="Icon" d="M8.79999 2.3999H4.53333C3.35512 2.3999 2.39999 3.35503 2.39999 4.53324V8.7999M8.79999 21.5999H4.53333C3.35512 21.5999 2.39999 20.6448 2.39999 19.4666V15.1999M15.2 2.3999H19.4667C20.6449 2.3999 21.6 3.35503 21.6 4.53324V8.7999M21.6 15.1999V19.4666C21.6 20.6448 20.6449 21.5999 19.4667 21.5999H15.2M9.59999 15.5999H14.4C15.0627 15.5999 15.6 15.0626 15.6 14.3999V9.5999C15.6 8.93716 15.0627 8.3999 14.4 8.3999H9.59999C8.93725 8.3999 8.39999 8.93716 8.39999 9.5999V14.3999C8.39999 15.0626 8.93725 15.5999 9.59999 15.5999Z" stroke="currentColor" stroke-width="2" stroke-linecap="round"/>
</g>
</svg>
