<svg width="24" height="24" viewBox="0 0 24 24" fill="none" xmlns="http://www.w3.org/2000/svg">
<g id="image-04">
<path id="Icon" d="M4.69289 17.2928C4.30236 17.6833 4.30236 18.3165 4.69289 18.707C5.08341 19.0975 5.71658 19.0975 6.1071 18.707L4.69289 17.2928ZM8.39999 14.9999L9.1071 14.2928C8.71658 13.9023 8.08341 13.9023 7.69289 14.2928L8.39999 14.9999ZM10.8 17.3999L10.0929 18.107C10.4834 18.4975 11.1166 18.4975 11.5071 18.107L10.8 17.3999ZM16.2 11.9999L16.9071 11.2928C16.5166 10.9023 15.8834 10.9023 15.4929 11.2928L16.2 11.9999ZM19.6929 16.907C20.0834 17.2975 20.7166 17.2975 21.1071 16.907C21.4976 16.5165 21.4976 15.8833 21.1071 15.4928L19.6929 16.907ZM6.1071 18.707L9.1071 15.707L7.69289 14.2928L4.69289 17.2928L6.1071 18.707ZM7.69289 15.707L10.0929 18.107L11.5071 16.6928L9.1071 14.2928L7.69289 15.707ZM11.5071 18.107L16.9071 12.707L15.4929 11.2928L10.0929 16.6928L11.5071 18.107ZM15.4929 12.707L19.6929 16.907L21.1071 15.4928L16.9071 11.2928L15.4929 12.707ZM12 20.5999C7.25034 20.5999 3.39999 16.7495 3.39999 11.9999H1.39999C1.39999 17.8541 6.14578 22.5999 12 22.5999V20.5999ZM20.6 11.9999C20.6 16.7495 16.7496 20.5999 12 20.5999V22.5999C17.8542 22.5999 22.6 17.8541 22.6 11.9999H20.6ZM12 3.3999C16.7496 3.3999 20.6 7.25025 20.6 11.9999H22.6C22.6 6.14568 17.8542 1.3999 12 1.3999V3.3999ZM12 1.3999C6.14578 1.3999 1.39999 6.14568 1.39999 11.9999H3.39999C3.39999 7.25025 7.25034 3.3999 12 3.3999V1.3999ZM9.79999 8.9999C9.79999 9.44173 9.44182 9.7999 8.99999 9.7999V11.7999C10.5464 11.7999 11.8 10.5463 11.8 8.9999H9.79999ZM8.99999 9.7999C8.55817 9.7999 8.19999 9.44173 8.19999 8.9999H6.19999C6.19999 10.5463 7.4536 11.7999 8.99999 11.7999V9.7999ZM8.19999 8.9999C8.19999 8.55807 8.55817 8.1999 8.99999 8.1999V6.1999C7.4536 6.1999 6.19999 7.4535 6.19999 8.9999H8.19999ZM8.99999 8.1999C9.44182 8.1999 9.79999 8.55807 9.79999 8.9999H11.8C11.8 7.4535 10.5464 6.1999 8.99999 6.1999V8.1999Z" fill="currentColor"/>
</g>
</svg>
