<svg width="24" height="24" viewBox="0 0 24 24" fill="none" xmlns="http://www.w3.org/2000/svg">
<g id="intersect">
<g id="Vector">
<path d="M15.2 19.1999C15.2 20.5254 14.1255 21.5999 12.8 21.5999C11.4745 21.5999 4.79999 21.5999 4.79999 21.5999C3.47451 21.5999 2.39999 20.5254 2.39999 19.1999C2.39999 17.8744 2.39999 12.5254 2.39999 11.1999C2.39999 9.87442 3.47451 8.7999 4.79999 8.7999L12.8 8.7999C14.1255 8.7999 15.2 9.87442 15.2 11.1999V19.1999Z" stroke="currentColor" stroke-width="2" stroke-linecap="round" stroke-linejoin="round"/>
<path d="M21.6 12.7999C21.6 14.1254 20.5255 15.1999 19.2 15.1999C17.8745 15.1999 11.2 15.1999 11.2 15.1999C9.87451 15.1999 8.79999 14.1254 8.79999 12.7999C8.79999 11.4744 8.79999 6.12539 8.79999 4.7999C8.79999 3.47442 9.87451 2.3999 11.2 2.3999L19.2 2.3999C20.5255 2.3999 21.6 3.47442 21.6 4.7999V12.7999Z" stroke="currentColor" stroke-width="2" stroke-linecap="round" stroke-linejoin="round"/>
</g>
</g>
</svg>
