<svg width="24" height="24" viewBox="0 0 24 24" fill="none" xmlns="http://www.w3.org/2000/svg">
<g id="layout-03">
<path id="Vector" d="M11.2 2.3999C11.2 1.84762 10.7523 1.3999 10.2 1.3999C9.64771 1.3999 9.19999 1.84762 9.19999 2.3999H11.2ZM9.19999 21.5999C9.19999 22.1522 9.64771 22.5999 10.2 22.5999C10.7523 22.5999 11.2 22.1522 11.2 21.5999H9.19999ZM5.99999 3.3999H18V1.3999H5.99999V3.3999ZM20.6 5.9999V17.9999H22.6V5.9999H20.6ZM18 20.5999H5.99999V22.5999H18V20.5999ZM3.39999 17.9999V5.9999H1.39999V17.9999H3.39999ZM5.99999 20.5999C4.56405 20.5999 3.39999 19.4358 3.39999 17.9999H1.39999C1.39999 20.5404 3.45948 22.5999 5.99999 22.5999V20.5999ZM20.6 17.9999C20.6 19.4358 19.4359 20.5999 18 20.5999V22.5999C20.5405 22.5999 22.6 20.5404 22.6 17.9999H20.6ZM18 3.3999C19.4359 3.3999 20.6 4.56396 20.6 5.9999H22.6C22.6 3.45939 20.5405 1.3999 18 1.3999V3.3999ZM5.99999 1.3999C3.45948 1.3999 1.39999 3.45939 1.39999 5.9999H3.39999C3.39999 4.56396 4.56405 3.3999 5.99999 3.3999V1.3999ZM9.19999 2.3999V21.5999H11.2V2.3999H9.19999ZM10.2 12.9999H21V10.9999H10.2V12.9999Z" fill="currentColor"/>
</g>
</svg>
