<svg width="24" height="24" viewBox="0 0 24 24" fill="none" xmlns="http://www.w3.org/2000/svg">
<g id="link-angled">
<path id="Icon" d="M7.37851 10.1906L5.14505 12.424C4.31092 13.2582 3.83124 14.3931 3.84001 15.5859C3.84877 16.7787 4.31796 17.9206 5.19167 18.7674C6.03836 19.6411 7.18048 20.1103 8.3731 20.119C9.59293 20.128 10.701 19.6753 11.5352 18.8412L13.7687 16.6077M16.6215 13.8095L18.8549 11.576C19.6891 10.7419 20.1688 9.60693 20.16 8.41412C20.1512 7.2213 19.682 6.07942 18.8083 5.23268C17.9618 4.3862 16.8199 3.91699 15.6271 3.90822C14.4343 3.89946 13.2992 4.35191 12.465 5.18607L10.2315 7.41952M8.6131 15.3272L15.3135 8.62683" stroke="currentColor" stroke-width="2" stroke-linecap="round" stroke-linejoin="round"/>
</g>
</svg>
