<svg width="24" height="24" viewBox="0 0 24 24" fill="none" xmlns="http://www.w3.org/2000/svg">
<g id="link-broken">
<path id="Icon" d="M7.47105 10.2832L5.23759 12.5166C4.40346 13.3507 3.92378 14.4857 3.93254 15.6785C3.94131 16.8713 4.41049 18.0132 5.28421 18.86C6.13089 19.7337 7.27302 20.2029 8.46564 20.2116C9.68547 20.2206 10.7936 19.7679 11.6278 18.9338L13.8612 16.7003M16.714 13.9021L18.9475 11.6686C19.7816 10.8345 20.2613 9.69953 20.2525 8.50672C20.2438 7.3139 19.7746 6.17201 18.9009 5.32528C18.0544 4.4788 16.9124 4.00959 15.7196 4.00082C14.5268 3.99206 13.3917 4.44451 12.5575 5.27866L10.3241 7.51212M8.70564 15.4198L15.406 8.71942M5.3362 5.21711L4.22989 4.11081M9.1777 3.26837L9.35869 1.44484M1.72177 9.08142L3.61243 8.89377M18.9408 18.5057L20.0471 19.612M15.0993 20.4545L14.9183 22.278M22.5553 14.6414L20.6646 14.8291" stroke="currentColor" stroke-width="2" stroke-linecap="round" stroke-linejoin="round"/>
</g>
</svg>
