<svg width="24" height="24" viewBox="0 0 24 24" fill="none" xmlns="http://www.w3.org/2000/svg">
<g id="lock-open-01">
<path id="Icon" d="M6.60005 8.7999V7.88562C6.60005 4.84671 9.00862 2.3999 12 2.3999C13.8635 2.3999 15.5007 3.34934 16.4705 4.7999M6.60005 8.7999C5.61005 8.7999 4.80005 9.62276 4.80005 10.6285V19.7713C4.80005 20.777 5.61005 21.5999 6.60005 21.5999H17.4001C18.3901 21.5999 19.2001 20.777 19.2001 19.7713V10.6285C19.2001 9.62276 18.3901 8.7999 17.4001 8.7999H6.60005ZM12 13.3713C12.9901 13.3713 13.8001 14.1942 13.8001 15.1999C13.8001 16.2056 12.9901 17.0285 12 17.0285C11.01 17.0285 10.2 16.2056 10.2 15.1999C10.2 14.1942 11.01 13.3713 12 13.3713Z" stroke="currentColor" stroke-width="2" stroke-linecap="round"/>
</g>
</svg>
