<svg width="24" height="24" viewBox="0 0 24 24" fill="none" xmlns="http://www.w3.org/2000/svg">
<g id="logout-04">
<path id="Icon" d="M14.6471 7.80001V5.70001C14.6471 5.14305 14.424 4.60891 14.0268 4.21508C13.6297 3.82126 13.091 3.60001 12.5294 3.60001H5.11765C4.55601 3.60001 4.01738 3.82126 3.62024 4.21508C3.22311 4.60891 3 5.14305 3 5.70001V18.3C3 18.857 3.22311 19.3911 3.62024 19.7849C4.01738 20.1788 4.55601 20.4 5.11765 20.4H12.5294C13.091 20.4 13.6297 20.1788 14.0268 19.7849C14.424 19.3911 14.6471 18.857 14.6471 18.3V16.2M8.29412 12H21M21 12L17.8235 8.85001M21 12L17.8235 15.15" stroke="currentColor" stroke-width="2" stroke-linecap="round" stroke-linejoin="round"/>
</g>
</svg>
