<svg width="24" height="24" viewBox="0 0 24 24" fill="none" xmlns="http://www.w3.org/2000/svg">
<g id="luggage-01">
<path id="Icon" d="M8.79999 20.1C8.79999 19.5477 8.35227 19.1 7.79999 19.1C7.2477 19.1 6.79999 19.5477 6.79999 20.1H8.79999ZM6.79999 21.9C6.79999 22.4523 7.2477 22.9 7.79999 22.9C8.35227 22.9 8.79999 22.4523 8.79999 21.9H6.79999ZM15.8 21.9C15.8 22.4523 16.2477 22.9 16.8 22.9C17.3523 22.9 17.8 22.4523 17.8 21.9H15.8ZM10.6 5.70001C10.6 5.14772 10.1523 4.70001 9.59999 4.70001C9.0477 4.70001 8.59999 5.14772 8.59999 5.70001L10.6 5.70001ZM8.59999 16.5C8.59999 17.0523 9.0477 17.5 9.59999 17.5C10.1523 17.5 10.6 17.0523 10.6 16.5L8.59999 16.5ZM15.4 5.70001C15.4 5.14772 14.9523 4.70001 14.4 4.70001C13.8477 4.70001 13.4 5.14772 13.4 5.70001H15.4ZM13.4 16.5C13.4 17.0523 13.8477 17.5 14.4 17.5C14.9523 17.5 15.4 17.0523 15.4 16.5H13.4ZM6.79999 20.1V21.9H8.79999V20.1H6.79999ZM15.8 20.1V21.9H17.8V20.1H15.8ZM8.59999 5.70001L8.59999 16.5L10.6 16.5L10.6 5.70001L8.59999 5.70001ZM13.4 5.70001V16.5H15.4V5.70001H13.4ZM7.19999 3.10001H16.8V1.10001H7.19999V3.10001ZM18.2 4.50001V17.7H20.2V4.50001H18.2ZM16.8 19.1H7.19999V21.1H16.8V19.1ZM5.79999 17.7V4.50001H3.79999V17.7H5.79999ZM7.19999 19.1C6.42679 19.1 5.79999 18.4732 5.79999 17.7H3.79999C3.79999 19.5778 5.32222 21.1 7.19999 21.1V19.1ZM18.2 17.7C18.2 18.4732 17.5732 19.1 16.8 19.1V21.1C18.6778 21.1 20.2 19.5778 20.2 17.7H18.2ZM16.8 3.10001C17.5732 3.10001 18.2 3.72681 18.2 4.50001H20.2C20.2 2.62224 18.6778 1.10001 16.8 1.10001V3.10001ZM7.19999 1.10001C5.32222 1.10001 3.79999 2.62224 3.79999 4.50001H5.79999C5.79999 3.72681 6.42679 3.10001 7.19999 3.10001V1.10001Z" fill="currentColor"/>
</g>
</svg>
