<svg width="24" height="24" viewBox="0 0 24 24" fill="none" xmlns="http://www.w3.org/2000/svg">
<g id="luggage-03">
<path id="Icon" d="M7.79999 19.2V8.4M15.6 19.2V15M8.39999 7.8V5.4C8.39999 4.73726 8.93725 4.2 9.59999 4.2H13.8C14.4627 4.2 15 4.73726 15 5.4V7.8M15.6 10.8H12.6V13.8V15H18V10.8H15.6ZM15.6 10.8V7.8M15.6 7.8H4.79999C3.47451 7.8 2.39999 8.87451 2.39999 10.2V17.4C2.39999 18.7255 3.47451 19.8 4.79999 19.8H19.2C20.5255 19.8 21.6 18.7255 21.6 17.4V10.2C21.6 8.87451 20.5255 7.8 19.2 7.8H15.6Z" stroke="currentColor" stroke-width="2" stroke-linecap="round" stroke-linejoin="round"/>
</g>
</svg>
