<svg width="24" height="24" viewBox="0 0 24 24" fill="none" xmlns="http://www.w3.org/2000/svg">
<g id="map-04">
<path id="Icon" d="M15.4666 8.26206L15.0843 9.18607L15.4666 8.26206ZM20.0176 19.524C20.528 19.7352 21.1128 19.4927 21.324 18.9824C21.5352 18.472 21.2927 17.8872 20.7823 17.676L20.0176 19.524ZM3.38235 10.476C2.87203 10.2648 2.28714 10.5073 2.07598 11.0177C1.86481 11.528 2.10732 12.1129 2.61764 12.324L3.38235 10.476ZM5.78823 3.4H18.2118V1.4H5.78823V3.4ZM18.2118 20.6H5.78823V22.6H18.2118V20.6ZM3.39999 18.2118V5.78824H1.39999V18.2118H3.39999ZM5.78823 20.6C4.46924 20.6 3.39999 19.5308 3.39999 18.2118H1.39999C1.39999 20.6353 3.36467 22.6 5.78823 22.6V20.6ZM20.6 18.2118C20.6 19.5308 19.5307 20.6 18.2118 20.6V22.6C20.6353 22.6 22.6 20.6353 22.6 18.2118H20.6ZM18.2118 3.4C19.5307 3.4 20.6 4.46925 20.6 5.78824H22.6C22.6 3.36468 20.6353 1.4 18.2118 1.4V3.4ZM5.78823 1.4C3.36467 1.4 1.39999 3.36468 1.39999 5.78824H3.39999C3.39999 4.46925 4.46924 3.4 5.78823 3.4V1.4ZM20.6 10.8V18.2118H22.6V10.8H20.6ZM3.81764 4.52402L15.0843 9.18607L15.849 7.33804L4.58235 2.67598L3.81764 4.52402ZM15.0843 9.18607L21.2176 11.724L21.9823 9.87598L15.849 7.33804L15.0843 9.18607ZM17.3252 2.53747L14.58 7.79953L16.3532 8.72458L19.0984 3.46253L17.3252 2.53747ZM20.7823 17.676L3.38235 10.476L2.61764 12.324L20.0176 19.524L20.7823 17.676ZM20.6 5.78824V10.8H22.6V5.78824H20.6Z" fill="currentColor"/>
</g>
</svg>
