<svg width="24" height="24" viewBox="0 0 24 24" fill="none" xmlns="http://www.w3.org/2000/svg">
<g id="map-02">
<path id="Icon" d="M2.36129 4.80001L19.0659 21.6706M2.36129 4.80001C2.98281 4.06599 3.9111 3.60001 4.94823 3.60001H10.5953M2.36129 4.80001C1.86142 5.39037 1.56 6.15411 1.56 6.98825V19.4118C1.56 21.283 3.07696 22.8 4.94823 22.8H17.3718C19.243 22.8 20.76 21.283 20.76 19.4118V14.3294M10.5953 14.3294L3.25411 21.6706M18.6 5.04001V4.96782M22.44 4.95653C22.44 7.46088 18.6 10.8 18.6 10.8C18.6 10.8 14.76 7.46088 14.76 4.95653C14.76 2.88186 16.4792 1.20001 18.6 1.20001C20.7208 1.20001 22.44 2.88186 22.44 4.95653Z" stroke="currentColor" stroke-width="2" stroke-linecap="round" stroke-linejoin="round"/>
</g>
</svg>
