<svg width="24" height="24" viewBox="0 0 24 24" fill="none" xmlns="http://www.w3.org/2000/svg">
<g id="marker-06">
<path id="Icon" d="M12 14.4L11.3438 15.1546C11.7201 15.4818 12.2799 15.4818 12.6562 15.1546L12 14.4ZM6.87317 15.2543C7.40445 15.1034 7.71283 14.5504 7.56196 14.0192C7.41108 13.4879 6.85809 13.1795 6.32681 13.3304L6.87317 15.2543ZM17.6732 13.3304C17.1419 13.1795 16.5889 13.4879 16.438 14.0192C16.2872 14.5504 16.5955 15.1034 17.1268 15.2543L17.6732 13.3304ZM15.8 7.09565C15.8 7.64022 15.5847 8.3164 15.1705 9.08165C14.7636 9.83352 14.2085 10.592 13.6329 11.2802C13.0601 11.965 12.4845 12.5597 12.0507 12.9841C11.8344 13.1956 11.6549 13.3634 11.5307 13.4772C11.4687 13.5341 11.4205 13.5774 11.3885 13.6058C11.3726 13.6201 11.3607 13.6306 11.3531 13.6372C11.3493 13.6406 11.3466 13.6429 11.3451 13.6443C11.3443 13.645 11.3438 13.6454 11.3436 13.6456C11.3435 13.6457 11.3434 13.6457 11.3435 13.6457C11.3435 13.6457 11.3436 13.6456 11.3436 13.6456C11.3437 13.6455 11.3438 13.6454 12 14.4C12.6562 15.1546 12.6563 15.1545 12.6565 15.1543C12.6566 15.1542 12.6568 15.1541 12.6569 15.1539C12.6573 15.1536 12.6577 15.1533 12.6581 15.1529C12.6591 15.152 12.6603 15.151 12.6619 15.1496C12.6649 15.147 12.6691 15.1433 12.6744 15.1386C12.685 15.1293 12.7001 15.116 12.7193 15.0989C12.7576 15.0647 12.8126 15.0152 12.8818 14.9519C13.02 14.8252 13.2156 14.6424 13.4493 14.4137C13.9155 13.9576 14.5399 13.3132 15.1671 12.5633C15.7915 11.8167 16.4364 10.9447 16.9295 10.0336C17.4153 9.13576 17.8 8.11629 17.8 7.09565H15.8ZM12 14.4C12.6562 13.6454 12.6563 13.6455 12.6564 13.6456C12.6564 13.6456 12.6565 13.6457 12.6565 13.6457C12.6565 13.6457 12.6565 13.6457 12.6564 13.6456C12.6562 13.6454 12.6557 13.645 12.6549 13.6443C12.6533 13.6429 12.6507 13.6406 12.6469 13.6372C12.6393 13.6306 12.6274 13.6201 12.6115 13.6058C12.5795 13.5774 12.5313 13.5341 12.4693 13.4772C12.345 13.3634 12.1656 13.1956 11.9493 12.9841C11.5155 12.5597 10.9399 11.965 10.3671 11.2802C9.7915 10.592 9.23636 9.83352 8.82947 9.08165C8.41533 8.3164 8.2 7.64022 8.2 7.09565H6.2C6.2 8.11629 6.58466 9.13576 7.07052 10.0336C7.56363 10.9447 8.20849 11.8167 8.83292 12.5633C9.46013 13.3132 10.0845 13.9576 10.5507 14.4137C10.7844 14.6424 10.9799 14.8252 11.1182 14.9519C11.1874 15.0152 11.2424 15.0647 11.2807 15.0989C11.2999 15.116 11.3149 15.1293 11.3256 15.1386C11.3309 15.1433 11.3351 15.147 11.3381 15.1496C11.3396 15.151 11.3409 15.152 11.3418 15.1529C11.3423 15.1533 11.3427 15.1536 11.343 15.1539C11.3432 15.1541 11.3434 15.1542 11.3435 15.1543C11.3437 15.1545 11.3438 15.1546 12 14.4ZM8.2 7.09565C8.2 5.0752 9.88048 3.39999 12 3.39999V1.39999C8.81758 1.39999 6.2 3.92942 6.2 7.09565H8.2ZM12 3.39999C14.1195 3.39999 15.8 5.0752 15.8 7.09565H17.8C17.8 3.92942 15.1824 1.39999 12 1.39999V3.39999ZM20.6 17.6C20.6 17.8039 20.505 18.0887 20.1438 18.4446C19.779 18.8039 19.1999 19.1736 18.4036 19.5053C16.8154 20.1671 14.5519 20.6 12 20.6V22.6C14.75 22.6 17.2866 22.1374 19.1728 21.3515C20.1138 20.9594 20.9406 20.4671 21.5474 19.8694C22.1577 19.2681 22.6 18.5006 22.6 17.6H20.6ZM12 20.6C9.44806 20.6 7.18462 20.1671 5.59638 19.5053C4.80008 19.1736 4.22096 18.8039 3.85619 18.4446C3.49495 18.0887 3.39999 17.8039 3.39999 17.6H1.39999C1.39999 18.5006 1.84229 19.2681 2.45263 19.8694C3.05943 20.4671 3.8862 20.9594 4.82715 21.3515C6.71343 22.1374 9.25 22.6 12 22.6V20.6ZM3.39999 17.6C3.39999 17.349 3.55103 16.9618 4.15974 16.4926C4.75842 16.0312 5.6786 15.5935 6.87317 15.2543L6.32681 13.3304C4.98606 13.7111 3.80624 14.2399 2.93876 14.9086C2.08129 15.5695 1.39999 16.4761 1.39999 17.6H3.39999ZM17.1268 15.2543C18.3214 15.5935 19.2416 16.0312 19.8402 16.4926C20.4489 16.9618 20.6 17.349 20.6 17.6H22.6C22.6 16.4761 21.9187 15.5695 21.0612 14.9086C20.1937 14.2399 19.0139 13.7111 17.6732 13.3304L17.1268 15.2543Z" fill="currentColor"/>
</g>
</svg>
