<svg width="24" height="24" viewBox="0 0 24 24" fill="none" xmlns="http://www.w3.org/2000/svg">
<g id="media-strip-01">
<path id="Icon" d="M3.0001 7.20002L21.0001 7.20002M3.0001 16.8L21.0001 16.8M12.0001 2.40002L12.0001 21.6M16.8001 2.40002L16.8001 7.20002M16.8001 16.8L16.8001 21.6M7.2001 2.40002L7.2001 7.20002M7.2001 16.8L7.2001 21.6M5.99999 2.40002L18.0001 2.40003C19.9883 2.40003 21.6001 4.0118 21.6001 6.00003L21.6001 18C21.6001 19.9883 19.9883 21.6 18.0001 21.6L5.99999 21.6C4.01176 21.6 2.39999 19.9882 2.39999 18L2.39999 6.00002C2.39999 4.0118 4.01176 2.40002 5.99999 2.40002Z" stroke="currentColor" stroke-width="2" stroke-linecap="round" stroke-linejoin="round"/>
</g>
</svg>
