<svg width="24" height="24" viewBox="0 0 24 24" fill="none" xmlns="http://www.w3.org/2000/svg">
<g id="message-chat-01">
<path id="Vector" d="M19.4667 9.86668V5.06668C19.4667 3.88848 18.5116 2.93335 17.3334 2.93335H4.53336C3.35515 2.93335 2.40002 3.88848 2.40002 5.06668V13.4145C2.40002 14.5927 3.35515 15.5478 4.53336 15.5478H6.20292V20L10.6551 15.5478H10.9334M16.4406 18.2841L19.2232 21.0667V18.2841H19.4667C20.6449 18.2841 21.6 17.3289 21.6 16.1507V12.5333C21.6 11.3551 20.6449 10.4 19.4667 10.4H13.0667C11.8885 10.4 10.9334 11.3551 10.9334 12.5333V16.1507C10.9334 17.3289 11.8885 18.2841 13.0667 18.2841H16.4406Z" stroke="currentColor" stroke-width="2" stroke-linecap="round" stroke-linejoin="round"/>
</g>
</svg>
