<svg width="24" height="24" viewBox="0 0 24 24" fill="none" xmlns="http://www.w3.org/2000/svg">
<g id="message-notify-circle">
<path id="Vector" d="M22.599 12.6C22.599 12.0478 22.1513 11.6 21.599 11.6C21.0468 11.6 20.599 12.0478 20.599 12.6H22.599ZM20.7836 16.478L19.869 16.0737C19.7932 16.2449 19.7671 16.434 19.7936 16.6194L20.7836 16.478ZM16.6979 20.9734L16.9405 20.0033C16.6926 19.9413 16.4304 19.9766 16.2078 20.1018L16.6979 20.9734ZM21.6009 22.1991L21.3583 23.1693C21.6813 23.25 22.0234 23.1647 22.2706 22.9417C22.5179 22.7187 22.6379 22.3873 22.5908 22.0577L21.6009 22.1991ZM10.3854 4.151C10.928 4.04807 11.2845 3.52476 11.1815 2.98215C11.0786 2.43955 10.5553 2.08311 10.0127 2.18604L10.3854 4.151ZM20.599 12.6C20.599 13.8382 20.338 15.0127 19.869 16.0737L21.6982 16.8824C22.2777 15.5715 22.599 14.122 22.599 12.6H20.599ZM11.999 21.2001C7.2494 21.2001 3.39905 17.3497 3.39905 12.6H1.39905C1.39905 18.4543 6.14483 23.2001 11.999 23.2001V21.2001ZM16.2078 20.1018C14.9646 20.8009 13.5299 21.2001 11.999 21.2001V23.2001C13.8822 23.2001 15.6534 22.7081 17.1881 21.845L16.2078 20.1018ZM21.8434 21.229L16.9405 20.0033L16.4554 21.9436L21.3583 23.1693L21.8434 21.229ZM19.7936 16.6194L20.6109 22.3406L22.5908 22.0577L21.7735 16.3366L19.7936 16.6194ZM3.39905 12.6C3.39905 8.40265 6.40709 4.90567 10.3854 4.151L10.0127 2.18604C5.10791 3.11645 1.39905 7.42405 1.39905 12.6H3.39905ZM20.599 5.40005C20.599 6.83599 19.435 8.00005 17.999 8.00005V10C20.5396 10 22.599 7.94056 22.599 5.40005H20.599ZM17.999 8.00005C16.5631 8.00005 15.399 6.83599 15.399 5.40005H13.399C13.399 7.94056 15.4585 10 17.999 10V8.00005ZM15.399 5.40005C15.399 3.96411 16.5631 2.80005 17.999 2.80005V0.800049C15.4585 0.800049 13.399 2.85954 13.399 5.40005H15.399ZM17.999 2.80005C19.435 2.80005 20.599 3.96411 20.599 5.40005H22.599C22.599 2.85954 20.5396 0.800049 17.999 0.800049V2.80005Z" fill="currentColor"/>
</g>
</svg>
