<svg width="24" height="24" viewBox="0 0 24 24" fill="none" xmlns="http://www.w3.org/2000/svg">
<g id="message-notify-square">
<path id="Vector" d="M11.687 17.1914V16.1914C11.4218 16.1914 11.1674 16.2967 10.9799 16.4842L11.687 17.1914ZM6.67828 22.2001H5.67828C5.67828 22.6045 5.92193 22.9691 6.2956 23.1239C6.66928 23.2787 7.09939 23.1932 7.38539 22.9072L6.67828 22.2001ZM6.67828 17.1914H7.67828C7.67828 16.6391 7.23057 16.1914 6.67828 16.1914V17.1914ZM10.8 4.00005C11.3523 4.00005 11.8 3.55233 11.8 3.00005C11.8 2.44776 11.3523 2.00005 10.8 2.00005V4.00005ZM22.6 12C22.6 11.4478 22.1523 11 21.6 11C21.0477 11 20.6 11.4478 20.6 12H22.6ZM10.9799 16.4842L5.97118 21.4929L7.38539 22.9072L12.3941 17.8985L10.9799 16.4842ZM7.67828 22.2001V17.1914H5.67828V22.2001H7.67828ZM6.67828 16.1914H4.80002V18.1914H6.67828V16.1914ZM3.40002 14.7914V5.40005H1.40002V14.7914H3.40002ZM19.2 16.1914H11.687V18.1914H19.2V16.1914ZM4.80002 4.00005H10.8V2.00005H4.80002V4.00005ZM20.6 12V14.7914H22.6V12H20.6ZM19.2 18.1914C21.0778 18.1914 22.6 16.6691 22.6 14.7914H20.6C20.6 15.5646 19.9732 16.1914 19.2 16.1914V18.1914ZM3.40002 5.40005C3.40002 4.62685 4.02683 4.00005 4.80002 4.00005V2.00005C2.92226 2.00005 1.40002 3.52228 1.40002 5.40005H3.40002ZM4.80002 16.1914C4.02683 16.1914 3.40002 15.5646 3.40002 14.7914H1.40002C1.40002 16.6691 2.92226 18.1914 4.80002 18.1914V16.1914ZM20.6 5.40005C20.6 6.83599 19.436 8.00005 18 8.00005V10C20.5405 10 22.6 7.94056 22.6 5.40005H20.6ZM18 8.00005C16.5641 8.00005 15.4 6.83599 15.4 5.40005H13.4C13.4 7.94056 15.4595 10 18 10V8.00005ZM15.4 5.40005C15.4 3.96411 16.5641 2.80005 18 2.80005V0.800049C15.4595 0.800049 13.4 2.85954 13.4 5.40005H15.4ZM18 2.80005C19.436 2.80005 20.6 3.96411 20.6 5.40005H22.6C22.6 2.85954 20.5405 0.800049 18 0.800049V2.80005Z" fill="currentColor"/>
</g>
</svg>
