<svg width="24" height="24" viewBox="0 0 24 24" fill="none" xmlns="http://www.w3.org/2000/svg">
<g id="microphone-off-01">
<path id="Icon" d="M9.17586 3.36406C9.79312 2.7468 10.6303 2.40002 11.5032 2.40002C12.3762 2.40002 13.2134 2.7468 13.8306 3.36406C14.4479 3.98132 14.7947 4.81851 14.7947 5.69145V9.00002M3.90005 11.1772C4.16588 13.0037 5.08043 14.6734 6.4764 15.8809C7.87236 17.0884 9.6564 17.753 11.5022 17.753M11.5022 17.753C13.3479 17.753 15.1319 17.0884 16.5279 15.8809C17.9239 14.6734 18.8384 13.0037 19.1043 11.1772M11.5022 17.753V21.6M8.21182 7.80002V10.08C8.21182 10.953 8.55859 11.7902 9.17586 12.4074C9.79312 13.0247 10.6303 13.3715 11.5032 13.3715C12.0618 13.3715 12.6056 13.2295 13.0866 12.9656M3.30005 2.40002L20.7 19.8" stroke="currentColor" stroke-width="2" stroke-linecap="round" stroke-linejoin="round"/>
</g>
</svg>
