<svg width="24" height="24" viewBox="0 0 24 24" fill="none" xmlns="http://www.w3.org/2000/svg">
<g id="microphone-off-02">
<path id="Icon" d="M7.7921 6.5162V12.0044C7.7921 13.0961 8.22576 14.1431 8.9977 14.915C9.76963 15.687 10.8166 16.1206 11.9083 16.1206C13 16.1206 14.0469 15.687 14.8189 14.915C15.034 14.6999 15.2228 14.4634 15.3833 14.2106M2.3999 13.3765C2.73234 15.6607 3.87606 17.7488 5.62182 19.2589C7.36758 20.769 9.59866 21.6 11.9069 21.6C14.2152 21.6 16.4462 20.769 18.192 19.2589C19.9378 17.7488 21.0815 15.6607 21.4139 13.3765M16.0245 9.00002V6.5162C16.0245 5.42453 15.5908 4.37756 14.8189 3.60563C14.0469 2.83369 13 2.40002 11.9083 2.40002C11.1472 2.40002 10.4079 2.6108 9.7683 3.00002M4.1999 2.40002L21.5999 19.8" stroke="currentColor" stroke-width="2" stroke-linecap="round" stroke-linejoin="round"/>
</g>
</svg>
