<svg width="24" height="24" viewBox="0 0 24 24" fill="none" xmlns="http://www.w3.org/2000/svg">
<g id="microphone-02">
<path id="Icon" d="M2.49292 13.3764C2.82536 15.6606 3.96908 17.7487 5.71484 19.2588C7.4606 20.7688 9.69168 21.5999 11.9999 21.5999C14.3082 21.5999 16.5393 20.7688 18.285 19.2588C20.0308 17.7487 21.1745 15.6606 21.5069 13.3764M12.0013 2.3999C10.9096 2.3999 9.86265 2.83357 9.09072 3.6055C8.31878 4.37744 7.88512 5.4244 7.88512 6.51608V12.0043C7.88512 13.096 8.31878 14.143 9.09072 14.9149C9.86265 15.6868 10.9096 16.1205 12.0013 16.1205C13.093 16.1205 14.1399 15.6868 14.9119 14.9149C15.6838 14.143 16.1175 13.096 16.1175 12.0043V6.51608C16.1175 5.4244 15.6838 4.37744 14.9119 3.6055C14.1399 2.83357 13.093 2.3999 12.0013 2.3999Z" stroke="currentColor" stroke-width="2" stroke-linecap="round" stroke-linejoin="round"/>
</g>
</svg>
