<svg width="24" height="24" viewBox="0 0 24 24" fill="none" xmlns="http://www.w3.org/2000/svg">
<g id="note-01">
<path id="Icon" d="M18.5686 4.42117L13.5157 2.40002V17.5586C13.5156 18.4484 13.2218 19.3133 12.6799 20.0191C12.1381 20.725 11.3785 21.2323 10.519 21.4625C9.65949 21.6926 8.74804 21.6327 7.92601 21.2921C7.10398 20.9515 6.41731 20.3491 5.9725 19.5785C5.52768 18.8078 5.34957 17.912 5.46578 17.0298C5.582 16.1476 5.98605 15.3284 6.61528 14.6992C7.24451 14.0701 8.06374 13.6661 8.94594 13.55C9.82814 13.4339 10.724 13.6121 11.4946 14.057C11.8315 14.2136 13.1852 15.2992 13.5157 16.0428" stroke="currentColor" stroke-width="2" stroke-linecap="round" stroke-linejoin="round"/>
</g>
</svg>
