<svg width="24" height="24" viewBox="0 0 24 24" fill="none" xmlns="http://www.w3.org/2000/svg">
<g id="notification-bubble">
<path id="Icon" d="M13.3257 2.46107C12.9281 2.4207 12.5229 2.3999 12.1118 2.3999C6.74812 2.3999 2.40002 5.93949 2.40002 10.3058C2.40002 14.6721 6.74812 18.2117 12.1118 18.2117C12.9501 18.2117 13.7637 18.1252 14.5397 17.9626L18.1816 21.5999V16.5175C19.8165 15.412 21.1305 13.7507 21.6 11.9999M21.6 6.5999C21.6 8.25676 20.2569 9.5999 18.6 9.5999C16.9432 9.5999 15.6 8.25676 15.6 6.5999C15.6 4.94305 16.9432 3.5999 18.6 3.5999C20.2569 3.5999 21.6 4.94305 21.6 6.5999Z" stroke="currentColor" stroke-width="2" stroke-linecap="round" stroke-linejoin="round"/>
</g>
</svg>
