<svg width="25" height="24" viewBox="0 0 25 24" fill="none" xmlns="http://www.w3.org/2000/svg">
<g id="paint-bucket-02">
<path id="Vector" d="M18.4132 11.3595C18.4269 11.8874 18.2322 12.4198 17.8293 12.8228L12.6683 17.9838C11.8888 18.7633 10.625 18.7633 9.84558 17.9838L4.68457 12.8228C4.28161 12.4198 4.08697 11.8874 4.10065 11.3595M18.4132 11.3595C18.4016 10.9104 18.2392 10.4645 17.9263 10.1042C17.8901 10.0246 17.8394 9.95016 17.774 9.88476L11.3477 3.45853M18.4132 11.3595H4.10065M4.10065 11.3595C4.11343 10.8661 4.30807 10.3766 4.68457 10.0001C4.81726 9.86743 11.3477 3.45853 11.3477 3.45853M11.3477 3.45853L10.2892 2.40002M5.1105 21.6H15.721M20.0495 15.1937C19.9867 15.0945 19.8791 15.0315 19.7624 15.0315C19.6458 15.0315 19.5382 15.0946 19.4754 15.1937C19.2511 15.5633 18.5245 16.8255 18.5245 17.3754C18.5245 18.0606 19.0807 18.6196 19.7624 18.6196C20.4441 18.6196 21.0003 18.0606 21.0003 17.3754C21.0003 16.8165 20.2738 15.5633 20.0495 15.1937Z" stroke="currentColor" stroke-width="2" stroke-linecap="round" stroke-linejoin="round"/>
</g>
</svg>
