<svg width="25" height="24" viewBox="0 0 25 24" fill="none" xmlns="http://www.w3.org/2000/svg">
<g id="palette">
<path id="Vector" d="M12.7502 5.99999V6.03322M6.78313 12.0002H6.7499M16.9929 7.75754L16.9694 7.78104M8.53108 16.2193L8.50758 16.2428M8.53108 7.78066L8.50758 7.75716M12.7499 21.6C7.44797 21.6 3.1499 17.3019 3.1499 12C3.1499 6.69806 7.44797 2.39999 12.7499 2.39999C18.0518 2.39999 22.3499 6.69806 22.3499 12C22.3499 13.6141 20.8585 14.688 19.2445 14.688H18.6179C18.2943 14.688 17.9752 14.7633 17.6859 14.908C16.6564 15.4227 16.2392 16.6745 16.7539 17.704C16.8986 17.9933 16.9739 18.3124 16.9739 18.636V18.8251C16.9739 19.9257 16.3563 20.9679 15.2949 21.259C14.4844 21.4813 13.631 21.6 12.7499 21.6Z" stroke="currentColor" stroke-width="2" stroke-linecap="round" stroke-linejoin="round"/>
</g>
</svg>
