<svg width="24" height="24" viewBox="0 0 24 24" fill="none" xmlns="http://www.w3.org/2000/svg">
<g id="passport">
<path id="Icon" d="M9.6 16.8H14.4M6.8 21.6H17.2C18.3046 21.6 19.2 20.7046 19.2 19.6V4.4C19.2 3.29543 18.3046 2.4 17.2 2.4H6.8C5.69543 2.4 4.8 3.29543 4.8 4.4V19.6C4.8 20.7046 5.69543 21.6 6.8 21.6ZM14.4 8.4C14.4 9.72548 13.3255 10.8 12 10.8C10.6745 10.8 9.6 9.72548 9.6 8.4C9.6 7.07452 10.6745 6 12 6C13.3255 6 14.4 7.07452 14.4 8.4Z" stroke="currentColor" stroke-width="2" stroke-linecap="round" stroke-linejoin="round"/>
</g>
</svg>
