<svg width="25" height="24" viewBox="0 0 25 24" fill="none" xmlns="http://www.w3.org/2000/svg">
<g id="pen-tool-01">
<path id="Vector" d="M20.3322 13.8977C20.5169 13.3772 20.2447 12.8055 19.7242 12.6209C19.2037 12.4362 18.632 12.7084 18.4473 13.2289L20.3322 13.8977ZM17.3563 19.2939L18.2987 19.6283L17.3563 19.2939ZM15.9849 20.4813L16.181 21.4619L15.9849 20.4813ZM4.01362 22.8756L3.0295 22.6981C2.97076 23.0239 3.077 23.3576 3.31326 23.5894C3.54952 23.8212 3.88518 23.9211 4.20974 23.8562L4.01362 22.8756ZM6.19825 10.7609L7.18237 10.9383L6.19825 10.7609ZM7.45858 9.333L7.75685 10.2875H7.75685L7.45858 9.333ZM13.6242 8.45393C14.1513 8.2892 14.4451 7.72832 14.2804 7.20118C14.1157 6.67404 13.5548 6.38024 13.0277 6.54497L13.6242 8.45393ZM3.52308 21.9519C3.13256 22.3424 3.13256 22.9756 3.52308 23.3661C3.91361 23.7567 4.54677 23.7567 4.93729 23.3661L3.52308 21.9519ZM10.1349 18.1686C10.5254 17.778 10.5254 17.1449 10.1349 16.7544C9.74434 16.3638 9.11117 16.3638 8.72065 16.7544L10.1349 18.1686ZM22.8548 9.23198L23.5619 8.52487L22.8548 9.23198ZM22.8548 10.9645L23.5619 11.6716L22.8548 10.9645ZM15.9247 4.03441L15.2176 3.3273L15.9247 4.03441ZM17.6572 4.03441L16.9501 4.74152L17.6572 4.03441ZM13.7591 7.93259L13.052 8.63969L13.7591 7.93259ZM13.7591 6.20006L14.4662 6.90717L13.7591 6.20006ZM18.9566 13.1302L19.6637 12.423L18.9566 13.1302ZM20.6891 13.1302L19.982 12.423L20.6891 13.1302ZM3.59413 6.60028C3.59413 7.15257 4.04185 7.60028 4.59413 7.60028C5.14642 7.60028 5.59413 7.15257 5.59413 6.60028L3.59413 6.60028ZM5.59413 1.31192C5.59413 0.759635 5.14642 0.31192 4.59413 0.31192C4.04185 0.31192 3.59413 0.759636 3.59413 1.31192L5.59413 1.31192ZM1.94995 2.9561C1.39767 2.9561 0.949951 3.40382 0.949951 3.9561C0.949951 4.50839 1.39767 4.9561 1.94995 4.9561L1.94995 2.9561ZM7.23831 4.9561C7.7906 4.9561 8.23831 4.50839 8.23831 3.9561C8.23831 3.40382 7.7906 2.9561 7.23831 2.9561V4.9561ZM18.4473 13.2289L16.4139 18.9595L18.2987 19.6283L20.3322 13.8977L18.4473 13.2289ZM15.7888 19.5008L3.81751 21.895L4.20974 23.8562L16.181 21.4619L15.7888 19.5008ZM4.99775 23.0531L7.18237 10.9383L5.21412 10.5834L3.0295 22.6981L4.99775 23.0531ZM7.75685 10.2875L13.6242 8.45393L13.0277 6.54497L7.1603 8.37852L7.75685 10.2875ZM7.18237 10.9383C7.23773 10.6313 7.45911 10.3805 7.75685 10.2875L7.1603 8.37852C6.15162 8.69374 5.40166 9.54338 5.21412 10.5834L7.18237 10.9383ZM16.4139 18.9595C16.3153 19.2374 16.0779 19.4429 15.7888 19.5008L16.181 21.4619C17.1604 21.266 17.9647 20.5697 18.2987 19.6283L16.4139 18.9595ZM4.93729 23.3661L10.1349 18.1686L8.72065 16.7544L3.52308 21.9519L4.93729 23.3661ZM19.6637 12.423L14.4662 7.22548L13.052 8.63969L18.2495 13.8373L19.6637 12.423ZM14.4662 6.90717L16.6318 4.74152L15.2176 3.3273L13.052 5.49296L14.4662 6.90717ZM16.9501 4.74152L22.1477 9.93908L23.5619 8.52487L18.3643 3.3273L16.9501 4.74152ZM22.1477 10.2574L19.982 12.423L21.3963 13.8373L23.5619 11.6716L22.1477 10.2574ZM22.1477 9.93908C22.2356 10.027 22.2356 10.1695 22.1477 10.2574L23.5619 11.6716C24.4309 10.8027 24.4309 9.39382 23.5619 8.52487L22.1477 9.93908ZM16.6318 4.74152C16.7197 4.65362 16.8622 4.65362 16.9501 4.74152L18.3643 3.3273C17.4954 2.45836 16.0866 2.45836 15.2176 3.3273L16.6318 4.74152ZM14.4662 7.22548C14.3783 7.13758 14.3783 6.99507 14.4662 6.90717L13.052 5.49296C12.183 6.3619 12.183 7.77075 13.052 8.63969L14.4662 7.22548ZM18.2495 13.8373C19.1185 14.7062 20.5273 14.7062 21.3963 13.8373L19.982 12.423C19.8941 12.5109 19.7516 12.5109 19.6637 12.423L18.2495 13.8373ZM10.568 14.2704C11.1343 13.7041 12.0525 13.7041 12.6188 14.2704L14.033 12.8562C12.6857 11.5088 10.5011 11.5088 9.15378 12.8562L10.568 14.2704ZM12.6188 14.2704C13.1851 14.8367 13.1851 15.7549 12.6188 16.3212L14.033 17.7354C15.3804 16.3881 15.3804 14.2035 14.033 12.8562L12.6188 14.2704ZM12.6188 16.3212C12.0525 16.8875 11.1343 16.8875 10.568 16.3212L9.15378 17.7354C10.5012 19.0828 12.6857 19.0828 14.033 17.7354L12.6188 16.3212ZM10.568 16.3212C10.0017 15.7549 10.0017 14.8367 10.568 14.2704L9.15378 12.8562C7.80641 14.2035 7.80641 16.3881 9.15378 17.7354L10.568 16.3212ZM5.59413 6.60028L5.59413 3.9561L3.59413 3.9561L3.59413 6.60028L5.59413 6.60028ZM5.59413 3.9561L5.59413 1.31192L3.59413 1.31192L3.59413 3.9561L5.59413 3.9561ZM1.94995 4.9561L4.59413 4.9561L4.59413 2.9561L1.94995 2.9561L1.94995 4.9561ZM4.59413 4.9561L7.23831 4.9561V2.9561L4.59413 2.9561L4.59413 4.9561Z" fill="currentColor"/>
</g>
</svg>
