<svg width="25" height="24" viewBox="0 0 25 24" fill="none" xmlns="http://www.w3.org/2000/svg">
<g id="pen-tool-04">
<path id="Vector" d="M6.89388 11.4535C6.70919 11.974 6.98141 12.5456 7.5019 12.7303C8.02239 12.915 8.59405 12.6428 8.77874 12.1223L6.89388 11.4535ZM9.86977 6.05725L8.92734 5.72284V5.72284L9.86977 6.05725ZM11.2412 4.86984L11.0451 3.88926L11.0451 3.88926L11.2412 4.86984ZM23.2124 2.47559L24.1966 2.65305C24.2553 2.32731 24.1491 1.99361 23.9128 1.7618C23.6765 1.52998 23.3409 1.43009 23.0163 1.49501L23.2124 2.47559ZM21.0278 14.5903L20.0437 14.4129L21.0278 14.5903ZM19.7675 16.0182L19.4692 15.0637L19.4692 15.0637L19.7675 16.0182ZM13.6019 16.8972C13.0747 17.062 12.7809 17.6229 12.9457 18.15C13.1104 18.6771 13.6713 18.9709 14.1984 18.8062L13.6019 16.8972ZM23.703 3.39926C24.0935 3.00874 24.0935 2.37557 23.703 1.98505C23.3125 1.59452 22.6793 1.59452 22.2888 1.98505L23.703 3.39926ZM17.0912 7.18261C16.7007 7.57314 16.7007 8.2063 17.0912 8.59683C17.4817 8.98735 18.1149 8.98735 18.5054 8.59683L17.0912 7.18261ZM4.37127 16.1192L3.66416 16.8263H3.66416L4.37127 16.1192ZM4.37127 14.3867L5.07838 15.0938H5.07838L4.37127 14.3867ZM11.3014 21.3168L12.0085 22.0239L11.3014 21.3168ZM9.56884 21.3168L10.2759 20.6097L9.56884 21.3168ZM13.467 17.4186L12.7599 18.1257L13.467 17.4186ZM13.467 19.1511L12.7599 18.444L13.467 19.1511ZM8.26944 12.221L8.97655 11.5139L8.26944 12.221ZM6.53692 12.221L5.82982 11.5139H5.82981L6.53692 12.221ZM8.77874 12.1223L10.8122 6.39166L8.92734 5.72284L6.89388 11.4535L8.77874 12.1223ZM11.4373 5.85042L23.4086 3.45617L23.0163 1.49501L11.0451 3.88926L11.4373 5.85042ZM22.2283 2.29812L20.0437 14.4129L22.0119 14.7678L24.1966 2.65305L22.2283 2.29812ZM19.4692 15.0637L13.6019 16.8972L14.1984 18.8062L20.0658 16.9727L19.4692 15.0637ZM20.0437 14.4129C19.9883 14.7199 19.767 14.9706 19.4692 15.0637L20.0658 16.9727C21.0745 16.6574 21.8244 15.8078 22.0119 14.7678L20.0437 14.4129ZM10.8122 6.39166C10.9108 6.1138 11.1482 5.90824 11.4373 5.85042L11.0451 3.88926C10.0657 4.08514 9.26135 4.78153 8.92734 5.72284L10.8122 6.39166ZM22.2888 1.98505L17.0912 7.18261L18.5054 8.59683L23.703 3.39926L22.2888 1.98505ZM7.56234 12.9281L12.7599 18.1257L14.1741 16.7115L8.97655 11.5139L7.56234 12.9281ZM12.7599 18.444L10.5943 20.6097L12.0085 22.0239L14.1741 19.8582L12.7599 18.444ZM10.2759 20.6097L5.07837 15.4121L3.66416 16.8263L8.86173 22.0239L10.2759 20.6097ZM5.07838 15.0938L7.24403 12.9281L5.82981 11.5139L3.66416 13.6796L5.07838 15.0938ZM5.07837 15.4121C4.99048 15.3242 4.99048 15.1817 5.07838 15.0938L3.66416 13.6796C2.79521 14.5485 2.79521 15.9574 3.66416 16.8263L5.07837 15.4121ZM10.5943 20.6097C10.5064 20.6976 10.3638 20.6976 10.2759 20.6097L8.86173 22.0239C9.73068 22.8928 11.1395 22.8928 12.0085 22.0239L10.5943 20.6097ZM12.7599 18.1257C12.8478 18.2136 12.8478 18.3561 12.7599 18.444L14.1741 19.8582C15.0431 18.9893 15.0431 17.5804 14.1741 16.7115L12.7599 18.1257ZM8.97655 11.5139C8.1076 10.645 6.69876 10.645 5.82982 11.5139L7.24403 12.9281C7.33193 12.8402 7.47444 12.8402 7.56234 12.9281L8.97655 11.5139ZM16.6581 11.0808C16.0918 11.6471 15.1736 11.6471 14.6072 11.0808L13.193 12.495C14.5404 13.8424 16.7249 13.8424 18.0723 12.495L16.6581 11.0808ZM14.6072 11.0808C14.0409 10.5145 14.0409 9.59628 14.6072 9.02996L13.193 7.61574C11.8457 8.96311 11.8457 11.1476 13.193 12.495L14.6072 11.0808ZM14.6072 9.02996C15.1736 8.46364 16.0918 8.46364 16.6581 9.02996L18.0723 7.61574C16.7249 6.26837 14.5404 6.26837 13.193 7.61574L14.6072 9.02996ZM16.6581 9.02996C17.2244 9.59628 17.2244 10.5145 16.6581 11.0808L18.0723 12.495C19.4197 11.1476 19.4197 8.96311 18.0723 7.61574L16.6581 9.02996Z" fill="currentColor"/>
</g>
</svg>
