<svg width="24" height="24" viewBox="0 0 24 24" fill="none" xmlns="http://www.w3.org/2000/svg">
<g id="phone-call-02">
<path id="Vector" d="M8.78995 9.07184C9.66403 8.44869 10.6977 8.12224 11.7823 8.12113C12.867 8.12002 13.8971 8.44722 14.7728 9.06573M6.45484 6.50812C8.01161 5.40188 9.85614 4.8177 11.7829 4.81287C13.7124 4.8109 15.5529 5.39417 17.1074 6.49723M2.41934 18.2669C2.41934 18.2669 2.43222 16.834 2.40121 16.4487C2.38184 15.8521 2.57644 15.3667 3.02218 14.9209C3.06504 14.8781 3.11076 14.8323 3.15647 14.7923C4.05927 13.9979 5.17865 13.54 6.05241 13.2309C8.45095 12.3949 10.9803 12.0841 13.5661 12.3098C15.7124 12.5074 17.4474 12.9395 19.0423 13.6714C20.018 14.1157 20.6684 14.5718 21.1473 15.1364C21.4524 15.4986 21.6004 15.9038 21.5999 16.3776L21.5979 18.3243C21.5891 18.5955 21.5118 18.8154 21.3661 18.9611C21.186 19.1411 20.932 19.1785 20.7493 19.1787C20.7436 19.1787 20.7379 19.1787 20.7322 19.1787C20.3953 19.1904 20.0614 19.1879 19.7074 19.1826C19.5276 19.1799 19.3449 19.1801 19.1594 19.1774L17.6009 19.179C16.9958 19.1796 16.7163 18.9002 16.7169 18.2951C16.7171 18.1295 16.7144 17.9668 16.7174 17.8041C16.7122 17.3189 16.7118 17.6956 16.738 17.2246C16.738 17.2132 16.7409 17.2046 16.738 17.196C16.7385 16.7051 16.4533 16.5113 16.2393 16.4002C16.2279 16.3945 16.2165 16.3888 16.2051 16.3831C15.5118 16.0955 14.7641 15.9193 13.7795 15.8033L13.7738 15.8033C12.0156 15.6224 10.4285 15.6982 8.93248 16.0366C8.74119 16.0796 8.5613 16.1397 8.38998 16.197C8.23579 16.2485 8.09017 16.2972 7.95598 16.3287C7.93885 16.3344 7.91886 16.3373 7.90173 16.3431C7.75611 16.3917 7.64186 16.4603 7.54757 16.5546C7.31041 16.7918 7.31011 17.0887 7.31001 17.1857L7.30886 18.3047C7.30867 18.4988 7.27128 18.77 7.09127 18.95C6.91412 19.1272 6.65719 19.1617 6.47166 19.1533C6.46595 19.1533 6.46595 19.1533 6.46024 19.1533L3.3147 19.1565C2.72955 19.16 2.41934 18.2669 2.41934 18.2669Z" stroke="currentColor" stroke-width="2" stroke-linecap="round" stroke-linejoin="round"/>
</g>
</svg>
