<svg width="24" height="24" viewBox="0 0 24 24" fill="none" xmlns="http://www.w3.org/2000/svg">
<g id="phone-x">
<path id="Vector" d="M21.5999 8.43079L18.5999 5.43078M18.5999 5.43078L15.5999 2.43079M18.5999 5.43078L15.5999 8.43079M18.5999 5.43078L21.5999 2.43079M19.9329 19.3709C19.9329 19.3709 18.7742 20.5089 18.4903 20.8426C18.0277 21.3362 17.4827 21.5693 16.7683 21.5693C16.6996 21.5693 16.6263 21.5693 16.5576 21.5647C15.1974 21.4778 13.9335 20.9477 12.9855 20.4952C10.3933 19.243 8.11724 17.4651 6.22582 15.2119C4.66415 13.3335 3.61997 11.5968 2.92844 9.73208C2.50253 8.59406 2.34682 7.70742 2.41551 6.87104C2.46131 6.33631 2.6674 5.89299 3.04751 5.51365L4.60919 3.95517C4.83359 3.74493 5.07174 3.63067 5.3053 3.63067C5.59382 3.63067 5.82739 3.80435 5.97394 3.9506C5.97852 3.95517 5.9831 3.95974 5.98768 3.96431C6.26704 4.22482 6.53266 4.49447 6.81202 4.7824C6.95399 4.92865 7.10054 5.0749 7.24709 5.22572L8.49735 6.47343C8.9828 6.95788 8.9828 7.40577 8.49735 7.89023C8.36454 8.02277 8.23631 8.15531 8.1035 8.28328C7.7188 8.67633 8.021 8.37475 7.62257 8.73123C7.61341 8.74037 7.60425 8.74494 7.59967 8.75408C7.20582 9.14713 7.27909 9.53104 7.36153 9.79155C7.36611 9.80526 7.37069 9.81897 7.37527 9.83268C7.70042 10.6188 8.15839 11.3592 8.85451 12.2413L8.85909 12.2458C10.1231 13.7997 11.4558 15.0109 12.9259 15.9387C13.1136 16.0575 13.306 16.1535 13.4892 16.2449C13.654 16.3271 13.8097 16.4048 13.9425 16.4871C13.9609 16.4962 13.9792 16.5099 13.9975 16.5191C14.1532 16.5968 14.2998 16.6333 14.4509 16.6333C14.831 16.6333 15.0692 16.3957 15.147 16.318L16.0447 15.4221C16.2004 15.2668 16.4477 15.0794 16.7362 15.0794C17.0202 15.0794 17.2537 15.2576 17.3957 15.413C17.4003 15.4176 17.4003 15.4176 17.4049 15.4221L19.9283 17.9404C20.4 18.4066 19.9329 19.3709 19.9329 19.3709Z" stroke="currentColor" stroke-width="2" stroke-linecap="round" stroke-linejoin="round"/>
</g>
</svg>
