<svg width="24" height="24" viewBox="0 0 24 24" fill="none" xmlns="http://www.w3.org/2000/svg">
<g id="phone">
<path id="Vector" d="M20.6633 18.771C20.6633 18.771 19.5047 19.909 19.2207 20.2427C18.7582 20.7363 18.2132 20.9693 17.4988 20.9693C17.4301 20.9693 17.3568 20.9693 17.2881 20.9648C15.9279 20.8779 14.6639 20.3478 13.7159 19.8953C11.1238 18.643 8.84771 16.8652 6.95629 14.612C5.39461 12.7336 4.35044 10.9969 3.65891 9.13217C3.233 7.99415 3.07729 7.1075 3.14598 6.27113C3.19178 5.7364 3.39787 5.29308 3.77798 4.91374L5.33966 3.35526C5.56406 3.14502 5.80221 3.03076 6.03577 3.03076C6.32429 3.03076 6.55786 3.20443 6.70441 3.35069C6.70899 3.35526 6.71357 3.35983 6.71815 3.3644C6.99751 3.62491 7.26313 3.89456 7.54249 4.18249C7.68446 4.32874 7.83101 4.47499 7.97756 4.62581L9.22782 5.87351C9.71327 6.35797 9.71327 6.80586 9.22782 7.29032C9.09501 7.42286 8.96678 7.5554 8.83397 7.68337C8.44927 8.07642 8.75147 7.77483 8.35304 8.13132C8.34388 8.14046 8.33472 8.14503 8.33014 8.15417C7.93629 8.54722 8.00956 8.93113 8.092 9.19164C8.09658 9.20535 8.10116 9.21906 8.10573 9.23277C8.43089 10.0189 8.88886 10.7593 9.58498 11.6413L9.58956 11.6459C10.8536 13.1998 12.1862 14.411 13.6563 15.3387C13.8441 15.4576 14.0364 15.5536 14.2196 15.645C14.3845 15.7272 14.5402 15.8049 14.673 15.8872C14.6913 15.8963 14.7097 15.91 14.728 15.9192C14.8837 15.9969 15.0302 16.0334 15.1814 16.0334C15.5615 16.0334 15.7996 15.7958 15.8775 15.7181L16.7752 14.8222C16.9309 14.6668 17.1782 14.4795 17.4667 14.4795C17.7506 14.4795 17.9842 14.6577 18.1262 14.8131C18.1308 14.8177 18.1308 14.8177 18.1353 14.8222L20.6587 17.3405C21.1305 17.8067 20.6633 18.771 20.6633 18.771Z" stroke="currentColor" stroke-width="2" stroke-linecap="round" stroke-linejoin="round"/>
</g>
</svg>
