<svg width="24" height="24" viewBox="0 0 24 24" fill="none" xmlns="http://www.w3.org/2000/svg">
<g id="phone-incoming-02">
<path id="Vector" d="M17.2961 9.89187L13.4042 6M13.4042 6L16.8415 2.5592M13.4042 6L22.2474 6M19.7892 19.1792C19.7892 19.1792 18.5972 20.3499 18.3051 20.6931C17.8293 21.2009 17.2687 21.4407 16.5337 21.4407C16.463 21.4407 16.3877 21.4407 16.317 21.436C14.9178 21.3467 13.6175 20.8013 12.6422 20.3358C9.9757 19.0476 7.63422 17.2187 5.68848 14.9008C4.08196 12.9684 3.0078 11.1818 2.2964 9.26355C1.85826 8.09285 1.69808 7.18074 1.76875 6.32035C1.81586 5.77026 2.02786 5.31421 2.41889 4.92398L4.02542 3.32073C4.25627 3.10446 4.50125 2.98692 4.74153 2.98692C5.03833 2.98692 5.27861 3.16558 5.42936 3.31603C5.43408 3.32073 5.43879 3.32544 5.4435 3.33014C5.73088 3.59813 6.00413 3.87552 6.29152 4.17172C6.43757 4.32217 6.58833 4.47263 6.73908 4.62778L8.02525 5.91131C8.52464 6.40968 8.52464 6.87044 8.02525 7.36881C7.88862 7.50515 7.75671 7.6415 7.62008 7.77314C7.22434 8.17748 7.53522 7.86724 7.12534 8.23396C7.11592 8.24337 7.1065 8.24807 7.10179 8.25747C6.69662 8.66181 6.772 9.05674 6.8568 9.32473C6.86151 9.33884 6.86623 9.35294 6.87094 9.36705C7.20543 10.1757 7.67656 10.9374 8.39266 11.8448L8.39737 11.8495C9.69767 13.448 11.0686 14.694 12.5809 15.6484C12.7741 15.7706 12.972 15.8694 13.1604 15.9634C13.33 16.048 13.4902 16.1279 13.6268 16.2126C13.6457 16.222 13.6645 16.2361 13.6834 16.2455C13.8435 16.3254 13.9943 16.363 14.1498 16.363C14.5408 16.363 14.7858 16.1185 14.8659 16.0386L15.7893 15.117C15.9495 14.9572 16.2039 14.7644 16.5007 14.7644C16.7928 14.7644 17.0331 14.9478 17.1792 15.1076C17.1839 15.1123 17.1839 15.1123 17.1886 15.117L19.7845 17.7076C20.2697 18.1872 19.7892 19.1792 19.7892 19.1792Z" stroke="currentColor" stroke-width="2" stroke-linecap="round" stroke-linejoin="round"/>
</g>
</svg>
