<svg width="24" height="24" viewBox="0 0 24 24" fill="none" xmlns="http://www.w3.org/2000/svg">
<g id="phone-outgoing-02">
<path id="Vector" d="M18.3548 2.33289L22.2467 6.22475M22.2467 6.22475L18.8094 9.66555M22.2467 6.22475L13.4035 6.22475M19.7899 19.4056C19.7899 19.4056 18.598 20.5763 18.3059 20.9195C17.83 21.4273 17.2694 21.667 16.5345 21.667C16.4638 21.667 16.3884 21.667 16.3177 21.6623C14.9185 21.573 13.6182 21.0276 12.643 20.5622C9.97643 19.2739 7.63495 17.445 5.68922 15.1271C4.08269 13.1948 3.00853 11.4082 2.29713 9.4899C1.85899 8.3192 1.69881 7.40709 1.76948 6.5467C1.81659 5.99661 2.0286 5.54056 2.41963 5.15033L4.02615 3.54708C4.257 3.33081 4.50199 3.21327 4.74226 3.21327C5.03907 3.21327 5.27934 3.39193 5.4301 3.54238C5.43481 3.54708 5.43952 3.55178 5.44423 3.55648C5.73162 3.82448 6.00487 4.10187 6.29225 4.39807C6.4383 4.54852 6.58906 4.69897 6.73982 4.85412L8.02598 6.13766C8.52537 6.63603 8.52537 7.09679 8.02598 7.59516C7.88936 7.7315 7.75744 7.86785 7.62082 7.99949C7.22507 8.40383 7.53595 8.09359 7.12608 8.46031C7.11665 8.46971 7.10723 8.47441 7.10252 8.48382C6.69735 8.88815 6.77273 9.28309 6.85754 9.55108C6.86225 9.56518 6.86696 9.57929 6.87167 9.59339C7.20617 10.4021 7.67729 11.1637 8.39339 12.0711L8.39811 12.0758C9.6984 13.6744 11.0694 14.9203 12.5817 15.8747C12.7748 15.997 12.9727 16.0957 13.1612 16.1897C13.3308 16.2744 13.4909 16.3543 13.6276 16.4389C13.6464 16.4483 13.6653 16.4624 13.6841 16.4718C13.8443 16.5518 13.995 16.5894 14.1505 16.5894C14.5415 16.5894 14.7865 16.3449 14.8666 16.265L15.7901 15.3434C15.9503 15.1835 16.2047 14.9908 16.5015 14.9908C16.7936 14.9908 17.0338 15.1741 17.1799 15.334C17.1846 15.3387 17.1846 15.3387 17.1893 15.3434L19.7852 17.934C20.2704 18.4135 19.7899 19.4056 19.7899 19.4056Z" stroke="currentColor" stroke-width="2" stroke-linecap="round" stroke-linejoin="round"/>
</g>
</svg>
