<svg width="26" height="24" viewBox="0 0 26 24" fill="none" xmlns="http://www.w3.org/2000/svg">
<g id="phone-up">
<path id="Vector" d="M9.31837 16.3568L12.9184 12.7568M12.9184 12.7568L16.3592 16.1941M12.9184 12.7568L12.9184 21.5999M1.83291 9.51103C1.83302 8.72817 1.82865 7.80963 1.8089 7.56419C1.78632 6.86867 2.0132 6.30269 2.53289 5.783C3.58546 4.85676 6.06583 3.81258 6.06583 3.81258C6.06583 3.81258 9.31998 2.39995 12.7621 2.40002C16.1461 2.4001 19.3513 3.47286 21.2107 4.32624C22.3484 4.84423 23.1066 5.37593 23.665 6.03428C24.0207 6.45657 24.1932 6.92896 24.1927 7.48139L24.1732 9.59283C24.1671 10.2584 23.6204 10.7918 22.9549 10.7816L19.9437 10.7356C19.2882 10.7256 18.7621 10.1913 18.7621 9.53575V8.30162C18.7621 8.0113 18.5553 7.76323 18.2687 7.71665C17.1987 7.54274 14.6124 7.16063 12.7608 7.20003C11.1183 7.23497 8.85171 7.5638 7.86016 7.71931C7.57136 7.7646 7.36206 8.01381 7.36206 8.30615V9.51755C7.36206 10.1803 6.8248 10.7176 6.16206 10.7176L3.0365 10.7175C2.37109 10.7175 1.83282 10.1764 1.83291 9.51103Z" stroke="currentColor" stroke-width="2" stroke-linecap="round" stroke-linejoin="round"/>
</g>
</svg>
