<svg width="24" height="24" viewBox="0 0 24 24" fill="none" xmlns="http://www.w3.org/2000/svg">
<g id="quote">
<path id="Icon" fill-rule="evenodd" clip-rule="evenodd" d="M2 6.75C2 6.33579 2.3198 6 2.71429 6H3.93548C7.85492 6 11.0323 8.95492 11.0323 12.6V17.25C11.0323 17.6642 10.7125 18 10.318 18H7.87558C7.48109 18 7.16129 17.6642 7.16129 17.25V12.6C7.16129 10.9431 5.71705 9.6 3.93548 9.6H2.71429C2.3198 9.6 2 9.26421 2 8.85V6.75ZM12.9677 6.75C12.9677 6.33579 13.2875 6 13.682 6H14.9032C18.8227 6 22 8.95492 22 12.6V17.25C22 17.6642 21.6802 18 21.2857 18H18.8433C18.4488 18 18.129 17.6642 18.129 17.25V12.6C18.129 10.9431 16.6848 9.6 14.9032 9.6H13.682C13.2875 9.6 12.9677 9.26421 12.9677 8.85V6.75Z" stroke="currentColor" stroke-width="2"/>
</g>
</svg>
