<svg width="24" height="24" viewBox="0 0 24 24" fill="none" xmlns="http://www.w3.org/2000/svg">
<g id="save-02">
<path id="Icon" d="M6.60002 20.4V15C6.60002 14.3373 7.13728 13.8 7.80002 13.8H16.2C16.8628 13.8 17.4 14.3373 17.4 15V21M17.4 3.60002V6.00002C17.4 6.66277 16.8628 7.20002 16.2 7.20002L7.80002 7.20002C7.13728 7.20002 6.60002 6.66276 6.60002 6.00002L6.60002 2.40002M20.9975 6.5975L17.4026 3.00255C17.0168 2.61676 16.4935 2.40003 15.9479 2.40002H4.45717C3.32102 2.40002 2.40002 3.32102 2.40002 4.45717V19.5429C2.40002 20.679 3.32102 21.6 4.45717 21.6H19.5429C20.679 21.6 21.6 20.679 21.6 19.5429V8.05211C21.6 7.50652 21.3833 6.98328 20.9975 6.5975Z" stroke="currentColor" stroke-width="2" stroke-linecap="round"/>
</g>
</svg>
