<svg width="25" height="24" viewBox="0 0 25 24" fill="none" xmlns="http://www.w3.org/2000/svg">
<g id="scale-01">
<path id="Vector" d="M6.11287 2.40002C4.47647 2.40002 3.1499 3.72659 3.1499 5.36299M14.8832 2.40002H10.6166M22.3499 5.36299C22.3499 3.72659 21.0233 2.40002 19.3869 2.40002M3.1499 9.86669V14.1334M22.3499 14.1334V9.86669M3.1499 18.6371C3.1499 20.2735 4.47647 21.6 6.11286 21.6M19.3869 21.6C21.0233 21.6 22.3499 20.2735 22.3499 18.6371M10.6166 21.6H14.8832M3.1499 12H10.6166C11.7948 12 12.7499 12.9551 12.7499 14.1334V21.6H6.3499C4.58259 21.6 3.1499 20.1673 3.1499 18.4V12Z" stroke="currentColor" stroke-width="2" stroke-linecap="round"/>
</g>
</svg>
