<svg width="25" height="24" viewBox="0 0 25 24" fill="none" xmlns="http://www.w3.org/2000/svg">
<g id="scissors-03">
<path id="Vector" d="M5.55015 9.3953L22.3501 16.8001M22.3501 7.20015L5.55015 14.605M6.75015 9.60015C4.76192 9.60015 3.15015 7.98837 3.15015 6.00015C3.15015 4.01192 4.76192 2.40015 6.75015 2.40015C8.73837 2.40015 10.3501 4.01192 10.3501 6.00015C10.3501 7.98837 8.73837 9.60015 6.75015 9.60015ZM6.75015 21.6001C4.76192 21.6001 3.15015 19.9884 3.15015 18.0001C3.15015 16.0119 4.76192 14.4001 6.75015 14.4001C8.73837 14.4001 10.3501 16.0119 10.3501 18.0001C10.3501 19.9884 8.73837 21.6001 6.75015 21.6001Z" stroke="currentColor" stroke-width="2" stroke-linecap="round" stroke-linejoin="round"/>
</g>
</svg>
