<svg width="25" height="24" viewBox="0 0 25 24" fill="none" xmlns="http://www.w3.org/2000/svg">
<g id="scissors-01">
<path id="Vector" d="M8.79385 9.24392L20.6845 18.9428M20.6845 5.7918L8.79385 15.4906M17.9448 12.3677L17.9234 12.3892M22.3499 12.3677L22.3284 12.3891M6.43764 10.1755C4.62187 10.1755 3.1499 8.70348 3.1499 6.88771C3.1499 5.07195 4.62187 3.59998 6.43764 3.59998C8.25341 3.59998 9.72538 5.07195 9.72538 6.88771C9.72538 8.70348 8.25341 10.1755 6.43764 10.1755ZM6.43764 21.1346C4.62187 21.1346 3.1499 19.6626 3.1499 17.8468C3.1499 16.0311 4.62187 14.5591 6.43764 14.5591C8.25341 14.5591 9.72538 16.0311 9.72538 17.8468C9.72538 19.6626 8.25341 21.1346 6.43764 21.1346Z" stroke="currentColor" stroke-width="2" stroke-linecap="round" stroke-linejoin="round"/>
</g>
</svg>
