<svg width="25" height="24" viewBox="0 0 25 24" fill="none" xmlns="http://www.w3.org/2000/svg">
<g id="scissors-04">
<path id="Vector" d="M9.3299 8.58002L22.3499 19.2M22.3499 4.80002L9.3299 15.42M6.7499 9.60002C4.76168 9.60002 3.1499 7.98825 3.1499 6.00002C3.1499 4.0118 4.76168 2.40002 6.7499 2.40002C8.73813 2.40002 10.3499 4.0118 10.3499 6.00002C10.3499 7.98825 8.73813 9.60002 6.7499 9.60002ZM6.7499 21.6C4.76168 21.6 3.1499 19.9882 3.1499 18C3.1499 16.0118 4.76168 14.4 6.7499 14.4C8.73813 14.4 10.3499 16.0118 10.3499 18C10.3499 19.9882 8.73813 21.6 6.7499 21.6Z" stroke="currentColor" stroke-width="2" stroke-linecap="round" stroke-linejoin="round"/>
</g>
</svg>
