<svg width="25" height="24" viewBox="0 0 25 24" fill="none" xmlns="http://www.w3.org/2000/svg">
<g id="scissors-02" clip-path="url(#clip0_2806_349198)">
<path id="Vector" d="M4.34995 9.39505L21.15 16.7999M21.15 7.1999L4.34995 14.6047M18.1503 12.0002L18.1268 12.0237M22.9738 12.0002L22.9503 12.0237M5.54995 9.5999C3.56173 9.5999 1.94995 7.98813 1.94995 5.9999C1.94995 4.01168 3.56173 2.3999 5.54995 2.3999C7.53818 2.3999 9.14995 4.01168 9.14995 5.9999C9.14995 7.98813 7.53818 9.5999 5.54995 9.5999ZM5.54995 21.5999C3.56173 21.5999 1.94995 19.9881 1.94995 17.9999C1.94995 16.0117 3.56173 14.3999 5.54995 14.3999C7.53818 14.3999 9.14995 16.0117 9.14995 17.9999C9.14995 19.9881 7.53818 21.5999 5.54995 21.5999Z" stroke="currentColor" stroke-width="2" stroke-linecap="round" stroke-linejoin="round"/>
</g>
<defs>
<clipPath id="clip0_2806_349198">
<rect width="24" height="24" fill="white" transform="translate(24.75) rotate(90)"/>
</clipPath>
</defs>
</svg>
