<svg width="24" height="24" viewBox="0 0 24 24" fill="none" xmlns="http://www.w3.org/2000/svg">
<g id="server-01">
<path id="Vector" d="M16.8001 12H7.1999M16.8001 12C19.451 12 21.6001 9.85099 21.6001 7.20002C21.6001 4.54906 19.451 2.40002 16.8001 2.40002H7.1999C4.54888 2.40002 2.39982 4.54915 2.3999 7.20018C2.39999 9.85109 4.549 12 7.1999 12M16.8001 12C19.451 12 21.6001 14.1491 21.6001 16.8C21.6001 19.451 19.451 21.6 16.8001 21.6H7.1999C4.549 21.6 2.39999 19.4511 2.3999 16.8002C2.39982 14.1492 4.54887 12 7.1999 12M17.3997 7.20002H11.3997M17.3997 16.8H11.3997M6.59975 16.8903V16.8M6.59975 7.20002V7.10979" stroke="currentColor" stroke-width="2" stroke-linecap="round" stroke-linejoin="round"/>
</g>
</svg>
