<svg width="24" height="24" viewBox="0 0 24 24" fill="none" xmlns="http://www.w3.org/2000/svg">
<g id="server-05">
<path id="Vector" d="M17.9999 7.80005C17.9999 11.1138 15.3136 13.8 11.9999 13.8M17.9999 7.80005C17.9999 4.48634 15.3136 1.80005 11.9999 1.80005M17.9999 7.80005H5.9999M11.9999 13.8C8.68619 13.8 5.9999 11.1138 5.9999 7.80005M11.9999 13.8C13.3254 13.8 14.3999 11.1138 14.3999 7.80005C14.3999 4.48634 13.3254 1.80005 11.9999 1.80005M11.9999 13.8C10.6744 13.8 9.5999 11.1138 9.5999 7.80005C9.5999 4.48634 10.6744 1.80005 11.9999 1.80005M5.9999 7.80005C5.9999 4.48634 8.68619 1.80005 11.9999 1.80005M14.3999 19.8C14.3999 21.1255 13.3254 22.2 11.9999 22.2C10.6744 22.2 9.5999 21.1255 9.5999 19.8M14.3999 19.8C14.3999 18.4746 13.3254 17.4 11.9999 17.4C10.6744 17.4 9.5999 18.4746 9.5999 19.8M14.3999 19.8H21.5999M9.5999 19.8H2.3999" stroke="currentColor" stroke-width="2" stroke-linecap="round" stroke-linejoin="round"/>
</g>
</svg>
