<svg width="24" height="24" viewBox="0 0 24 24" fill="none" xmlns="http://www.w3.org/2000/svg">
<g id="server-06">
<path id="Vector" d="M2.3999 18.2C1.84762 18.2 1.3999 18.6477 1.3999 19.2C1.3999 19.7523 1.84762 20.2 2.3999 20.2V18.2ZM21.5999 20.2C22.1522 20.2 22.5999 19.7523 22.5999 19.2C22.5999 18.6477 22.1522 18.2 21.5999 18.2V20.2ZM20.5999 6.00002C20.5999 6.1084 20.5449 6.33136 20.1821 6.65305C19.8204 6.9737 19.24 7.30814 18.437 7.60928C16.8383 8.20878 14.5627 8.60002 11.9999 8.60002V10.6C14.739 10.6 17.2634 10.1854 19.1392 9.48194C20.0735 9.1316 20.899 8.69031 21.5089 8.14957C22.1176 7.60985 22.5999 6.88576 22.5999 6.00002H20.5999ZM11.9999 8.60002C9.4371 8.60002 7.16147 8.20878 5.5628 7.60928C4.75978 7.30814 4.17939 6.9737 3.81772 6.65305C3.4549 6.33136 3.3999 6.1084 3.3999 6.00002H1.3999C1.3999 6.88576 1.88217 7.60985 2.49091 8.14957C3.10082 8.69031 3.92632 9.1316 4.86055 9.48194C6.7364 10.1854 9.26077 10.6 11.9999 10.6V8.60002ZM3.3999 6.00002C3.3999 5.89165 3.4549 5.66868 3.81772 5.347C4.17939 5.02635 4.75978 4.6919 5.5628 4.39077C7.16147 3.79127 9.4371 3.40002 11.9999 3.40002V1.40002C9.26077 1.40002 6.7364 1.81467 4.86055 2.51811C3.92632 2.86845 3.10082 3.30974 2.49091 3.85048C1.88217 4.3902 1.3999 5.11429 1.3999 6.00002H3.3999ZM11.9999 3.40002C14.5627 3.40002 16.8383 3.79127 18.437 4.39077C19.24 4.6919 19.8204 5.02635 20.1821 5.347C20.5449 5.66868 20.5999 5.89165 20.5999 6.00002H22.5999C22.5999 5.11429 22.1176 4.3902 21.5089 3.85048C20.899 3.30974 20.0735 2.86845 19.1392 2.51811C17.2634 1.81467 14.739 1.40002 11.9999 1.40002V3.40002ZM20.5999 10.8C20.5999 10.9084 20.5449 11.1314 20.1821 11.453C19.8204 11.7737 19.24 12.1081 18.437 12.4093C16.8383 13.0088 14.5627 13.4 11.9999 13.4V15.4C14.739 15.4 17.2634 14.9854 19.1392 14.2819C20.0735 13.9316 20.899 13.4903 21.5089 12.9496C22.1176 12.4099 22.5999 11.6858 22.5999 10.8H20.5999ZM11.9999 13.4C9.4371 13.4 7.16147 13.0088 5.5628 12.4093C4.75978 12.1081 4.17939 11.7737 3.81772 11.453C3.4549 11.1314 3.3999 10.9084 3.3999 10.8H1.3999C1.3999 11.6858 1.88217 12.4099 2.49091 12.9496C3.10082 13.4903 3.92632 13.9316 4.86055 14.2819C6.7364 14.9854 9.26077 15.4 11.9999 15.4V13.4ZM3.3999 10.8V6.00002H1.3999V10.8H3.3999ZM22.5999 10.8V6.00002H20.5999V10.8H22.5999ZM13.3999 19.2C13.3999 19.9732 12.7731 20.6 11.9999 20.6V22.6C13.8777 22.6 15.3999 21.0778 15.3999 19.2H13.3999ZM11.9999 20.6C11.2267 20.6 10.5999 19.9732 10.5999 19.2H8.5999C8.5999 21.0778 10.1221 22.6 11.9999 22.6V20.6ZM10.5999 19.2C10.5999 18.4268 11.2267 17.8 11.9999 17.8V15.8C10.1221 15.8 8.5999 17.3223 8.5999 19.2H10.5999ZM11.9999 17.8C12.7731 17.8 13.3999 18.4268 13.3999 19.2H15.3999C15.3999 17.3223 13.8777 15.8 11.9999 15.8V17.8ZM2.3999 20.2H9.5999V18.2H2.3999V20.2ZM14.3999 20.2H21.5999V18.2H14.3999V20.2ZM10.9999 14.4V16.8H12.9999V14.4H10.9999Z" fill="currentColor"/>
</g>
</svg>
