<svg width="24" height="24" viewBox="0 0 24 24" fill="none" xmlns="http://www.w3.org/2000/svg">
<g id="signal">
<path id="Icon" d="M11.9438 12H12M9.67448 7.79999C8.19879 8.61881 7.20002 10.1928 7.20002 12C7.20002 13.8073 8.19879 15.3812 9.67448 16.2M14.3256 7.79999C15.8013 8.61881 16.8 10.1928 16.8 12C16.8 13.8073 15.8013 15.3812 14.3256 16.2M7.20002 20.3157C4.33058 18.6558 2.40002 15.5534 2.40002 12C2.40002 8.44666 4.33058 5.34421 7.20002 3.68433M16.8 20.3157C19.6695 18.6558 21.6 15.5534 21.6 12C21.6 8.44666 19.6695 5.34421 16.8 3.68433" stroke="currentColor" stroke-width="2" stroke-linecap="round"/>
</g>
</svg>
