<svg width="24" height="24" viewBox="0 0 24 24" fill="none" xmlns="http://www.w3.org/2000/svg">
<g id="skew">
<path id="Vector" d="M17.8736 16.5474L20.2736 7.45262M15.3473 19.0737H6.75785M3.72627 16.2947L6.12627 7.70526M8.65258 4.92631H17.4947M4.61048 7.45262H7.64206C8.20015 7.45262 8.65258 7.0002 8.65258 6.4421V3.41052C8.65258 2.85242 8.20015 2.39999 7.64206 2.39999H4.61048C4.05238 2.39999 3.59995 2.85242 3.59995 3.41052V6.4421C3.59995 7.0002 4.05238 7.45262 4.61048 7.45262ZM18.7578 7.45262H21.7894C22.3475 7.45262 22.7999 7.0002 22.7999 6.4421V3.41052C22.7999 2.85242 22.3475 2.39999 21.7894 2.39999H18.7578C18.1997 2.39999 17.7473 2.85242 17.7473 3.41052V6.4421C17.7473 7.0002 18.1997 7.45262 18.7578 7.45262ZM2.21048 21.6H5.24206C5.80015 21.6 6.25258 21.1476 6.25258 20.5895V17.5579C6.25258 16.9998 5.80015 16.5474 5.24206 16.5474H2.21048C1.65238 16.5474 1.19995 16.9998 1.19995 17.5579V20.5895C1.19995 21.1476 1.65238 21.6 2.21048 21.6ZM16.3578 21.6H19.3894C19.9475 21.6 20.4 21.1476 20.4 20.5895V17.5579C20.4 16.9998 19.9475 16.5474 19.3894 16.5474H16.3578C15.7997 16.5474 15.3473 16.9998 15.3473 17.5579V20.5895C15.3473 21.1476 15.7997 21.6 16.3578 21.6Z" stroke="currentColor" stroke-width="2" stroke-linecap="round"/>
</g>
</svg>
