<svg width="24" height="24" viewBox="0 0 24 24" fill="none" xmlns="http://www.w3.org/2000/svg">
<g id="smiley-neutral">
<path id="Icon" d="M9.12002 9.12002V8.12002C8.56774 8.12002 8.12002 8.56774 8.12002 9.12002H9.12002ZM9.21565 9.12002H10.2156C10.2156 8.56774 9.76793 8.12002 9.21565 8.12002V9.12002ZM14.88 9.12002V8.12002C14.3277 8.12002 13.88 8.56774 13.88 9.12002H14.88ZM14.965 9.12002H15.965C15.965 8.56774 15.5173 8.12002 14.965 8.12002V9.12002ZM9.21565 9.1969V10.1969C9.76793 10.1969 10.2156 9.74918 10.2156 9.1969H9.21565ZM9.12002 9.1969H8.12002C8.12002 9.74918 8.56774 10.1969 9.12002 10.1969V9.1969ZM14.965 9.1969V10.1969C15.5173 10.1969 15.965 9.74918 15.965 9.1969H14.965ZM14.88 9.1969H13.88C13.88 9.74918 14.3277 10.1969 14.88 10.1969V9.1969ZM8.67198 13.9192C8.11969 13.9192 7.67198 14.3669 7.67198 14.9192C7.67198 15.4715 8.11969 15.9192 8.67198 15.9192V13.9192ZM15.3281 15.9192C15.8804 15.9192 16.3281 15.4715 16.3281 14.9192C16.3281 14.3669 15.8804 13.9192 15.3281 13.9192V15.9192ZM20.6 12C20.6 16.7497 16.7497 20.6 12 20.6V22.6C17.8542 22.6 22.6 17.8542 22.6 12H20.6ZM12 20.6C7.25037 20.6 3.40002 16.7497 3.40002 12H1.40002C1.40002 17.8542 6.14581 22.6 12 22.6V20.6ZM3.40002 12C3.40002 7.25037 7.25037 3.40002 12 3.40002V1.40002C6.14581 1.40002 1.40002 6.14581 1.40002 12H3.40002ZM12 3.40002C16.7497 3.40002 20.6 7.25037 20.6 12H22.6C22.6 6.14581 17.8542 1.40002 12 1.40002V3.40002ZM9.12002 10.12H9.21565V8.12002H9.12002V10.12ZM14.88 10.12H14.965V8.12002H14.88V10.12ZM8.21565 9.12002V9.1969H10.2156V9.12002H8.21565ZM9.21565 8.1969H9.12002V10.1969H9.21565V8.1969ZM10.12 9.1969V9.12002H8.12002V9.1969H10.12ZM13.965 9.12002V9.1969H15.965V9.12002H13.965ZM14.965 8.1969H14.88V10.1969H14.965V8.1969ZM15.88 9.1969V9.12002H13.88V9.1969H15.88ZM15.3281 13.9192H8.67198V15.9192H15.3281V13.9192Z" fill="currentColor"/>
</g>
</svg>
