<svg width="24" height="24" viewBox="0 0 24 24" fill="none" xmlns="http://www.w3.org/2000/svg">
<g id="smiley-happy-plus">
<path id="Icon" d="M17.9347 11.6052L18.2033 10.6419L17.9347 11.6052ZM18.3539 12.0274L19.3282 11.8021L18.3539 12.0274ZM12.8019 5.68592L13.1486 4.74793L12.8019 5.68592ZM13.1651 6.15869L12.176 6.306L13.1651 6.15869ZM20.8161 2C20.8161 1.44772 20.3684 1 19.8161 1C19.2638 1 18.8161 1.44772 18.8161 2H20.8161ZM18.8161 8.6006C18.8161 9.15288 19.2638 9.6006 19.8161 9.6006C20.3684 9.6006 20.8161 9.15288 20.8161 8.6006H18.8161ZM16.5761 4.31494C16.0238 4.31494 15.5761 4.76266 15.5761 5.31494C15.5761 5.86723 16.0238 6.31494 16.5761 6.31494V4.31494ZM23 6.31494C23.5523 6.31494 24 5.86723 24 5.31494C24 4.76266 23.5523 4.31494 23 4.31494V6.31494ZM7.69859 15.3287C7.41143 14.857 6.79621 14.7073 6.32444 14.9945C5.85268 15.2816 5.70304 15.8969 5.9902 16.3686L7.69859 15.3287ZM14.0239 16.3686C14.3111 15.8969 14.1614 15.2816 13.6897 14.9945C13.2179 14.7073 12.6027 14.857 12.3155 15.3287L14.0239 16.3686ZM7.22926 10.9425V9.9425C6.67697 9.9425 6.22926 10.3902 6.22926 10.9425H7.22926ZM7.32013 10.9425H8.32013C8.32013 10.3902 7.87241 9.9425 7.32013 9.9425V10.9425ZM12.703 10.9425V9.9425C12.1507 9.9425 11.703 10.3902 11.703 10.9425H12.703ZM12.7838 10.9425H13.7838C13.7838 10.3902 13.3361 9.9425 12.7838 9.9425V10.9425ZM7.32013 11.0168V12.0168C7.87241 12.0168 8.32013 11.5691 8.32013 11.0168H7.32013ZM7.22926 11.0168H6.22926C6.22926 11.5691 6.67697 12.0168 7.22926 12.0168V11.0168ZM12.7838 11.0168V12.0168C13.3361 12.0168 13.7838 11.5691 13.7838 11.0168H12.7838ZM12.703 11.0168H11.703C11.703 11.5691 12.1507 12.0168 12.703 12.0168V11.0168ZM13.1486 4.74793C12.1008 4.3607 10.9703 4.1498 9.79321 4.1498V6.1498C10.7298 6.1498 11.6258 6.31736 12.4552 6.62391L13.1486 4.74793ZM18.2033 10.6419C16.1041 10.0567 14.4878 8.25138 14.1542 6.01138L12.176 6.306C12.6251 9.32165 14.8019 11.7699 17.6662 12.5684L18.2033 10.6419ZM19.5864 14.0749C19.5864 13.294 19.4973 12.533 19.3282 11.8021L17.3797 12.2527C17.5147 12.8368 17.5864 13.4467 17.5864 14.0749H19.5864ZM9.79321 24C15.2158 24 19.5864 19.5423 19.5864 14.0749H17.5864C17.5864 18.4659 14.0833 22 9.79321 22V24ZM0 14.0749C0 19.5423 4.37059 24 9.79321 24V22C5.50312 22 2 18.4659 2 14.0749H0ZM9.79321 4.1498C4.37059 4.1498 0 8.60751 0 14.0749H2C2 9.6839 5.50312 6.1498 9.79321 6.1498V4.1498ZM17.6662 12.5684C17.5619 12.5394 17.4236 12.4428 17.3797 12.2527L19.3282 11.8021C19.1875 11.1934 18.7153 10.7847 18.2033 10.6419L17.6662 12.5684ZM12.4552 6.62391C12.2588 6.5513 12.1893 6.39523 12.176 6.306L14.1542 6.01138C14.0776 5.49704 13.7424 4.96741 13.1486 4.74793L12.4552 6.62391ZM18.8161 2V8.6006H20.8161V2H18.8161ZM16.5761 6.31494H23V4.31494H16.5761V6.31494ZM10.0071 16.6663C9.0548 16.6663 8.19755 16.1484 7.69859 15.3287L5.9902 16.3686C6.82156 17.7344 8.30007 18.6663 10.0071 18.6663V16.6663ZM12.3155 15.3287C11.8166 16.1484 10.9593 16.6663 10.0071 16.6663V18.6663C11.7141 18.6663 13.1926 17.7344 14.0239 16.3686L12.3155 15.3287ZM7.22926 11.9425H7.32013V9.9425H7.22926V11.9425ZM12.703 11.9425H12.7838V9.9425H12.703V11.9425ZM6.32013 10.9425V11.0168H8.32013V10.9425H6.32013ZM7.32013 10.0168H7.22926V12.0168H7.32013V10.0168ZM8.22926 11.0168V10.9425H6.22926V11.0168H8.22926ZM11.7838 10.9425V11.0168H13.7838V10.9425H11.7838ZM12.7838 10.0168H12.703V12.0168H12.7838V10.0168ZM13.703 11.0168V10.9425H11.703V11.0168H13.703Z" fill="currentColor"/>
</g>
</svg>
