<svg width="25" height="24" viewBox="0 0 25 24" fill="none" xmlns="http://www.w3.org/2000/svg">
<g id="star-01">
<path id="Icon" d="M11.1409 3.17215C11.5218 2.14265 12.978 2.14265 13.3589 3.17215L15.255 8.29629C15.3748 8.61996 15.63 8.87515 15.9536 8.99492L21.0778 10.891C22.1073 11.272 22.1073 12.7281 21.0778 13.109L15.9536 15.0051C15.63 15.1249 15.3748 15.3801 15.255 15.7038L13.3589 20.8279C12.978 21.8574 11.5219 21.8574 11.1409 20.8279L9.2448 15.7038C9.12503 15.3801 8.86984 15.1249 8.54617 15.0051L3.42203 13.109C2.39253 12.7281 2.39253 11.272 3.42203 10.891L8.54616 8.99492C8.86984 8.87515 9.12503 8.61996 9.2448 8.29629L11.1409 3.17215Z" stroke="currentColor" stroke-width="2" stroke-linejoin="round"/>
</g>
</svg>
