<svg width="25" height="24" viewBox="0 0 25 24" fill="none" xmlns="http://www.w3.org/2000/svg">
<g id="stopwatch-02">
<g id="Vector">
<path d="M13.7238 14.4174C13.7238 15.1858 13.1009 15.8087 12.3325 15.8087C11.5641 15.8087 10.9412 15.1858 10.9412 14.4174C10.9412 13.649 11.5641 13.0261 12.3325 13.0261C13.1009 13.0261 13.7238 13.649 13.7238 14.4174Z" fill="#D9D9D9"/>
<path d="M20.5527 2.80594C20.1621 2.41541 19.529 2.41541 19.1384 2.80594C18.7479 3.19646 18.7479 3.82963 19.1384 4.22015L20.5527 2.80594ZM21.6428 6.7245C22.0333 7.11502 22.6665 7.11502 23.057 6.7245C23.4475 6.33397 23.4475 5.70081 23.057 5.31029L21.6428 6.7245ZM13.3325 9.68696C13.3325 9.13467 12.8848 8.68696 12.3325 8.68696C11.7802 8.68696 11.3325 9.13467 11.3325 9.68696H13.3325ZM11.3325 13.3043C11.3325 13.8566 11.7802 14.3043 12.3325 14.3043C12.8848 14.3043 13.3325 13.8566 13.3325 13.3043H11.3325ZM9.5499 0.286957C8.99762 0.286957 8.5499 0.734672 8.5499 1.28696C8.5499 1.83924 8.99762 2.28696 9.5499 2.28696V0.286957ZM14.8369 2.28696C15.3891 2.28696 15.8369 1.83924 15.8369 1.28696C15.8369 0.734672 15.3891 0.286957 14.8369 0.286957V2.28696ZM18.3037 6.14507C17.9131 6.53559 17.9131 7.16876 18.3037 7.55928C18.6942 7.94981 19.3274 7.94981 19.7179 7.55928L18.3037 6.14507ZM21.0977 4.76522L21.8048 4.05811L21.0977 4.76522ZM11.3325 9.68696V13.3043H13.3325V9.68696H11.3325ZM9.5499 2.28696H14.8369V0.286957H9.5499V2.28696ZM19.7179 7.55928L21.8048 5.47232L20.3906 4.05811L18.3037 6.14507L19.7179 7.55928ZM20.5151 13.5304C20.5151 18.0496 16.8516 21.713 12.3325 21.713V23.713C17.9562 23.713 22.5151 19.1541 22.5151 13.5304H20.5151ZM12.3325 21.713C7.81338 21.713 4.1499 18.0496 4.1499 13.5304H2.1499C2.1499 19.1541 6.70881 23.713 12.3325 23.713V21.713ZM4.1499 13.5304C4.1499 9.0113 7.81338 5.34783 12.3325 5.34783V3.34783C6.70881 3.34783 2.1499 7.90674 2.1499 13.5304H4.1499ZM12.3325 5.34783C16.8516 5.34783 20.5151 9.0113 20.5151 13.5304H22.5151C22.5151 7.90674 17.9562 3.34783 12.3325 3.34783V5.34783ZM12.7238 14.4174C12.7238 14.6335 12.5486 14.8087 12.3325 14.8087V16.8087C13.6532 16.8087 14.7238 15.7381 14.7238 14.4174H12.7238ZM12.3325 14.8087C12.1164 14.8087 11.9412 14.6335 11.9412 14.4174H9.94121C9.94121 15.7381 11.0118 16.8087 12.3325 16.8087V14.8087ZM11.9412 14.4174C11.9412 14.2013 12.1164 14.0261 12.3325 14.0261V12.0261C11.0118 12.0261 9.94121 13.0967 9.94121 14.4174H11.9412ZM12.3325 14.0261C12.5486 14.0261 12.7238 14.2013 12.7238 14.4174H14.7238C14.7238 13.0967 13.6532 12.0261 12.3325 12.0261V14.0261ZM19.1384 4.22015L20.3906 5.47232L21.8048 4.05811L20.5527 2.80594L19.1384 4.22015ZM20.3906 5.47232L21.6428 6.7245L23.057 5.31029L21.8048 4.05811L20.3906 5.47232Z" fill="currentColor"/>
</g>
</g>
</svg>
