<svg width="24" height="24" viewBox="0 0 24 24" fill="none" xmlns="http://www.w3.org/2000/svg">
<g id="stopwatch-03">
<path id="Vector" d="M19.8027 2.80597C19.4121 2.41544 18.779 2.41544 18.3884 2.80597C17.9979 3.19649 17.9979 3.82966 18.3884 4.22018L19.8027 2.80597ZM20.8928 6.72453C21.2833 7.11505 21.9165 7.11505 22.307 6.72453C22.6975 6.334 22.6975 5.70084 22.307 5.31032L20.8928 6.72453ZM12.5825 9.68699C12.5825 9.1347 12.1348 8.68699 11.5825 8.68699C11.0302 8.68699 10.5825 9.1347 10.5825 9.68699H12.5825ZM10.5825 13.3044C10.5825 13.8567 11.0302 14.3044 11.5825 14.3044C12.1348 14.3044 12.5825 13.8567 12.5825 13.3044H10.5825ZM8.7999 0.286987C8.24762 0.286987 7.7999 0.734703 7.7999 1.28699C7.7999 1.83927 8.24762 2.28699 8.7999 2.28699V0.286987ZM14.0869 2.28699C14.6391 2.28699 15.0869 1.83927 15.0869 1.28699C15.0869 0.734703 14.6391 0.286987 14.0869 0.286987V2.28699ZM17.5537 6.1451C17.1631 6.53562 17.1631 7.16879 17.5537 7.55931C17.9442 7.94984 18.5774 7.94984 18.9679 7.55931L17.5537 6.1451ZM20.3477 4.76525L21.0548 4.05814L20.3477 4.76525ZM10.5825 9.68699V13.3044H12.5825V9.68699H10.5825ZM8.7999 2.28699H14.0869V0.286987H8.7999V2.28699ZM18.9679 7.55931L21.0548 5.47235L19.6406 4.05814L17.5537 6.1451L18.9679 7.55931ZM19.7651 13.5305C19.7651 18.0496 16.1016 21.7131 11.5825 21.7131V23.7131C17.2062 23.7131 21.7651 19.1542 21.7651 13.5305H19.7651ZM11.5825 21.7131C7.06338 21.7131 3.3999 18.0496 3.3999 13.5305H1.3999C1.3999 19.1542 5.95881 23.7131 11.5825 23.7131V21.7131ZM3.3999 13.5305C3.3999 9.01134 7.06338 5.34786 11.5825 5.34786V3.34786C5.95881 3.34786 1.3999 7.90677 1.3999 13.5305H3.3999ZM11.5825 5.34786C16.1016 5.34786 19.7651 9.01134 19.7651 13.5305H21.7651C21.7651 7.90677 17.2062 3.34786 11.5825 3.34786V5.34786ZM18.3884 4.22018L19.6406 5.47235L21.0548 4.05814L19.8027 2.80597L18.3884 4.22018ZM19.6406 5.47235L20.8928 6.72453L22.307 5.31032L21.0548 4.05814L19.6406 5.47235Z" fill="currentColor"/>
</g>
</svg>
