<svg width="24" height="24" viewBox="0 0 24 24" fill="none" xmlns="http://www.w3.org/2000/svg">
<g id="stop-02">
<g id="Icon">
<path d="M18 2.40002H6.00002C4.0118 2.40002 2.40002 4.0118 2.40002 6.00002V18C2.40002 19.9882 4.0118 21.6 6.00002 21.6H18C19.9882 21.6 21.6 19.9882 21.6 18V6.00002C21.6 4.0118 19.9882 2.40002 18 2.40002Z" stroke="currentColor" stroke-width="2" stroke-linejoin="round"/>
<path d="M8.40002 9.75002C8.40002 9.00444 9.00444 8.40002 9.75002 8.40002H14.25C14.9956 8.40002 15.6 9.00444 15.6 9.75002V14.25C15.6 14.9956 14.9956 15.6 14.25 15.6H9.75002C9.00444 15.6 8.40002 14.9956 8.40002 14.25V9.75002Z" stroke="currentColor" stroke-width="2" stroke-linejoin="round"/>
</g>
</g>
</svg>
