<svg width="24" height="24" viewBox="0 0 24 24" fill="none" xmlns="http://www.w3.org/2000/svg">
<g id="sun-01">
<path id="Icon" d="M18.8567 20.2001C19.409 20.2001 19.8567 19.7524 19.8567 19.2001C19.8567 18.6478 19.409 18.2001 18.8567 18.2001V20.2001ZM5.14274 18.2001C4.59045 18.2001 4.14274 18.6478 4.14274 19.2001C4.14274 19.7524 4.59045 20.2001 5.14274 20.2001V18.2001ZM2.39995 13.9019C1.84766 13.9019 1.39995 14.3496 1.39995 14.9019C1.39995 15.4542 1.84766 15.9019 2.39995 15.9019V13.9019ZM21.5995 15.9019C22.1518 15.9019 22.5995 15.4542 22.5995 14.9019C22.5995 14.3496 22.1518 13.9019 21.5995 13.9019V15.9019ZM4.24519 12.0483C4.70472 12.3547 5.32559 12.2305 5.63194 11.771C5.93829 11.3114 5.81412 10.6906 5.35459 10.3842L4.24519 12.0483ZM3.2975 9.01281C2.83797 8.70645 2.2171 8.83063 1.91075 9.29016C1.60439 9.74968 1.72857 10.3706 2.1881 10.6769L3.2975 9.01281ZM8.10338 7.45958C8.34816 7.95465 8.94794 8.15755 9.44301 7.91276C9.93809 7.66798 10.141 7.0682 9.8962 6.57313L8.10338 7.45958ZM8.8004 4.35692C8.55561 3.86184 7.95584 3.65895 7.46076 3.90373C6.96569 4.14852 6.76279 4.7483 7.00758 5.24337L8.8004 4.35692ZM13.7907 6.30229C13.4843 6.76182 13.6085 7.38269 14.068 7.68904C14.5276 7.99539 15.1484 7.87122 15.4548 7.41169L13.7907 6.30229ZM16.8262 5.3546C17.1325 4.89507 17.0083 4.2742 16.5488 3.96785C16.0893 3.66149 15.4684 3.78567 15.1621 4.2452L16.8262 5.3546ZM21.8021 10.7413C22.2972 10.4965 22.5001 9.8967 22.2553 9.40163C22.0105 8.90656 21.4107 8.70366 20.9157 8.94845L21.8021 10.7413ZM18.6995 10.0442C18.2044 10.289 18.0015 10.8888 18.2463 11.3839C18.4911 11.879 19.0908 12.0819 19.5859 11.8371L18.6995 10.0442ZM18.8567 18.2001H5.14274V20.2001H18.8567V18.2001ZM2.39995 15.9019H21.5995V13.9019H2.39995V15.9019ZM8.19983 14.9019C8.19983 12.8033 9.9011 11.102 11.9997 11.102V9.10199C8.79653 9.10199 6.19983 11.6987 6.19983 14.9019H8.19983ZM11.9997 11.102C14.0983 11.102 15.7996 12.8033 15.7996 14.9019H17.7996C17.7996 11.6987 15.2029 9.10199 11.9997 9.10199V11.102ZM5.35459 10.3842L3.2975 9.01281L2.1881 10.6769L4.24519 12.0483L5.35459 10.3842ZM9.8962 6.57313L8.8004 4.35692L7.00758 5.24337L8.10338 7.45958L9.8962 6.57313ZM15.4548 7.41169L16.8262 5.3546L15.1621 4.2452L13.7907 6.30229L15.4548 7.41169ZM20.9157 8.94845L18.6995 10.0442L19.5859 11.8371L21.8021 10.7413L20.9157 8.94845Z" fill="currentColor"/>
</g>
</svg>
