<svg width="24" height="24" viewBox="0 0 24 24" fill="none" xmlns="http://www.w3.org/2000/svg">
<g id="target-02">
<path id="Icon" d="M22.0956 12.6C22.0956 12.0477 21.6479 11.6 21.0956 11.6C20.5433 11.6 20.0956 12.0477 20.0956 12.6H22.0956ZM11.4956 4C12.0479 4 12.4956 3.55229 12.4956 3C12.4956 2.44772 12.0479 2 11.4956 2V4ZM17.2956 12.6C17.2956 12.0477 16.8479 11.6 16.2956 11.6C15.7433 11.6 15.2956 12.0477 15.2956 12.6H17.2956ZM11.4956 8.8C12.0479 8.8 12.4956 8.35229 12.4956 7.8C12.4956 7.24772 12.0479 6.8 11.4956 6.8V8.8ZM16.4454 8.87098C16.8359 8.48045 16.8359 7.84729 16.4454 7.45676C16.0549 7.06624 15.4217 7.06624 15.0312 7.45676L16.4454 8.87098ZM10.7885 11.6994C10.398 12.0899 10.398 12.7231 10.7885 13.1136C11.179 13.5041 11.8122 13.5041 12.2027 13.1136L10.7885 11.6994ZM22.1043 5.19412L22.8114 5.90122C23.0792 5.63339 23.1727 5.23722 23.0529 4.87789C22.9332 4.51855 22.6206 4.25773 22.2457 4.20417L22.1043 5.19412ZM18.2859 9.01249L17.9697 9.96118C18.329 10.081 18.7252 9.98743 18.993 9.7196L18.2859 9.01249ZM14.8918 5.61838L14.1847 4.91127C13.9168 5.17911 13.8233 5.57527 13.9431 5.93461L14.8918 5.61838ZM18.7101 1.8L19.7001 1.65858C19.6465 1.28362 19.3857 0.971098 19.0264 0.85132C18.667 0.731542 18.2709 0.825064 18.003 1.0929L18.7101 1.8ZM15.7403 8.16396L14.7916 8.48019C14.8911 8.7788 15.1255 9.01311 15.4241 9.11265L15.7403 8.16396ZM19.1344 4.76985L18.1445 4.91127C18.2073 5.35125 18.553 5.69695 18.993 5.7598L19.1344 4.76985ZM20.0956 12.6C20.0956 17.3497 16.2453 21.2 11.4956 21.2V23.2C17.3498 23.2 22.0956 18.4542 22.0956 12.6H20.0956ZM11.4956 21.2C6.74598 21.2 2.89563 17.3497 2.89563 12.6H0.89563C0.89563 18.4542 5.64141 23.2 11.4956 23.2V21.2ZM2.89563 12.6C2.89563 7.85035 6.74598 4 11.4956 4V2C5.64141 2 0.89563 6.74578 0.89563 12.6H2.89563ZM15.2956 12.6C15.2956 14.6987 13.5943 16.4 11.4956 16.4V18.4C14.6989 18.4 17.2956 15.8033 17.2956 12.6H15.2956ZM11.4956 16.4C9.39695 16.4 7.69563 14.6987 7.69563 12.6H5.69563C5.69563 15.8033 8.29238 18.4 11.4956 18.4V16.4ZM7.69563 12.6C7.69563 10.5013 9.39695 8.8 11.4956 8.8V6.8C8.29238 6.8 5.69563 9.39675 5.69563 12.6H7.69563ZM15.0312 7.45676L10.7885 11.6994L12.2027 13.1136L16.4454 8.87098L15.0312 7.45676ZM21.3972 4.48701L17.5788 8.30539L18.993 9.7196L22.8114 5.90122L21.3972 4.48701ZM15.5989 6.32549L19.4173 2.50711L18.003 1.0929L14.1847 4.91127L15.5989 6.32549ZM18.6021 8.06381L16.0565 7.21528L15.4241 9.11265L17.9697 9.96118L18.6021 8.06381ZM16.689 7.84774L15.8405 5.30215L13.9431 5.93461L14.7916 8.48019L16.689 7.84774ZM17.7202 1.94142L18.1445 4.91127L20.1244 4.62843L19.7001 1.65858L17.7202 1.94142ZM18.993 5.7598L21.9628 6.18407L22.2457 4.20417L19.2758 3.7799L18.993 5.7598Z" fill="currentColor"/>
</g>
</svg>
