<svg width="24" height="24" viewBox="0 0 24 24" fill="none" xmlns="http://www.w3.org/2000/svg">
<g id="target-04">
<path id="Icon" d="M12 12V11C11.4477 11 11 11.4477 11 12H12ZM12.085 12H13.085C13.085 11.4477 12.6373 11 12.085 11V12ZM12.085 12.0769V13.0769C12.6373 13.0769 13.085 12.6292 13.085 12.0769H12.085ZM12 12.0769H11C11 12.6292 11.4477 13.0769 12 13.0769V12.0769ZM20.6 12C20.6 16.7496 16.7497 20.6 12 20.6V22.6C17.8542 22.6 22.6 17.8542 22.6 12H20.6ZM12 20.6C7.25038 20.6 3.40002 16.7496 3.40002 12H1.40002C1.40002 17.8542 6.14581 22.6 12 22.6V20.6ZM3.40002 12C3.40002 7.25035 7.25038 3.4 12 3.4V1.4C6.14581 1.4 1.40002 6.14578 1.40002 12H3.40002ZM12 3.4C16.7497 3.4 20.6 7.25035 20.6 12H22.6C22.6 6.14578 17.8542 1.4 12 1.4V3.4ZM15.8 12C15.8 14.0987 14.0987 15.8 12 15.8V17.8C15.2033 17.8 17.8 15.2033 17.8 12H15.8ZM12 15.8C9.90134 15.8 8.20002 14.0987 8.20002 12H6.20002C6.20002 15.2033 8.79677 17.8 12 17.8V15.8ZM8.20002 12C8.20002 9.90132 9.90134 8.2 12 8.2V6.2C8.79677 6.2 6.20002 8.79675 6.20002 12H8.20002ZM12 8.2C14.0987 8.2 15.8 9.90132 15.8 12H17.8C17.8 8.79675 15.2033 6.2 12 6.2V8.2ZM12 13H12.085V11H12V13ZM11.085 12V12.0769H13.085V12H11.085ZM12.085 11.0769H12V13.0769H12.085V11.0769ZM13 12.0769V12H11V12.0769H13Z" fill="currentColor"/>
</g>
</svg>
