<svg width="24" height="24" viewBox="0 0 24 24" fill="none" xmlns="http://www.w3.org/2000/svg">
<g id="temperature-01">
<path id="Icon" d="M8.4 17.4H8.45625M14.55 11.25L16.8 8.99999M16.8 8.99999L19.05 11.25M16.8 8.99999V5.39999M16.8 8.99999L13.8 7.49999M16.8 8.99999L19.8 7.49999M12.6 17.4C12.6 19.7196 10.7196 21.6 8.4 21.6C6.0804 21.6 4.2 19.7196 4.2 17.4C4.2 15.9727 4.91191 14.7118 6 13.9528V4.79843C6 3.47294 7.07451 2.39999 8.4 2.39999C9.72548 2.39999 10.8 3.47451 10.8 4.79999V13.9528C11.6592 14.7219 12.6 16.1561 12.6 17.4Z" stroke="currentColor" stroke-width="2" stroke-linecap="round" stroke-linejoin="round"/>
</g>
</svg>
