<svg width="24" height="24" viewBox="0 0 24 24" fill="none" xmlns="http://www.w3.org/2000/svg">
<g id="temperature-03">
<path id="Icon" d="M8.7 17.4H8.75625M14.7 10.8L15.1119 10.6297C15.7486 10.3666 16.4637 10.3671 17.1 10.6313C17.7363 10.8954 18.4514 10.896 19.0881 10.6328L19.5 10.4626M14.7 6.93738L15.1119 6.76715C15.7486 6.504 16.4637 6.50455 17.1 6.76869C17.7363 7.03282 18.4514 7.03338 19.0881 6.77023L19.5 6.59999M12.9 17.4C12.9 19.7196 11.0196 21.6 8.7 21.6C6.3804 21.6 4.5 19.7196 4.5 17.4C4.5 15.9727 5.21191 14.7118 6.3 13.9528V4.79843C6.3 3.47294 7.37452 2.39999 8.7 2.39999C10.0255 2.39999 11.1 3.47451 11.1 4.79999V13.9528C11.9592 14.7219 12.9 16.1561 12.9 17.4Z" stroke="currentColor" stroke-width="2" stroke-linecap="round" stroke-linejoin="round"/>
</g>
</svg>
