<svg width="24" height="24" viewBox="0 0 24 24" fill="none" xmlns="http://www.w3.org/2000/svg">
<g id="ticket-01">
<path id="Icon" d="M14.4 15.1402V14.9464M14.3995 12.1374V11.9435M14.3995 9.14723V8.9534M5.01176 3.45978H12.001C12.0407 4.87484 13.2003 6.00978 14.625 6.00978C16.0497 6.00978 17.2092 4.87484 17.2489 3.45978H18.9882C21.0934 3.45978 22.8 5.16636 22.8 7.27154V16.7285C22.8 18.8337 21.0934 20.5402 18.9882 20.5402H17.2489C17.2092 19.1252 16.0497 17.9902 14.625 17.9902C13.2003 17.9902 12.0407 19.1252 12.001 20.5402H5.01177C2.9066 20.5402 1.20001 18.8337 1.20001 16.7285L1.2 7.27154C1.2 5.16636 2.90658 3.45978 5.01176 3.45978Z" stroke="currentColor" stroke-width="2" stroke-linecap="round" stroke-linejoin="round"/>
</g>
</svg>
