<svg width="24" height="24" viewBox="0 0 24 24" fill="none" xmlns="http://www.w3.org/2000/svg">
<g id="ticket-02">
<path id="Icon" d="M14.3995 14.8598V8.95339M5.01178 3.45977H12.0011C12.0408 4.87483 13.2003 6.00977 14.625 6.00977C16.0497 6.00977 17.2093 4.87483 17.249 3.45977H18.9882C21.0934 3.45977 22.8 5.16636 22.8 7.27153V16.7285C22.8 18.8336 21.0934 20.5402 18.9882 20.5402H17.249C17.2093 19.1252 16.0497 17.9902 14.625 17.9902C13.2003 17.9902 12.0408 19.1252 12.0011 20.5402H5.01179C2.90661 20.5402 1.20003 18.8336 1.20003 16.7285L1.20001 7.27153C1.20001 5.16636 2.9066 3.45977 5.01178 3.45977Z" stroke="currentColor" stroke-width="2" stroke-linecap="round" stroke-linejoin="round"/>
</g>
</svg>
