<svg width="24" height="24" viewBox="0 0 24 24" fill="none" xmlns="http://www.w3.org/2000/svg">
<g id="timer-off">
<path id="Vector" d="M8.7999 1.28696H14.0869M18.2608 6.85217L20.3477 4.76522M20.3477 4.76522L19.0956 3.51304M20.3477 4.76522L21.5999 6.01739M8.9999 4.71599C9.81914 4.47635 10.6858 4.34783 11.5825 4.34783C16.6539 4.34783 20.7651 8.45902 20.7651 13.5304C20.7651 14.4867 20.6189 15.4088 20.3477 16.2757M17.9999 20.0983C16.3445 21.716 14.0799 22.713 11.5825 22.713C6.5111 22.713 2.3999 18.6019 2.3999 13.5304C2.3999 11.2905 3.20191 9.23789 4.53443 7.6441M2.3999 3.68696L20.9999 22.287" stroke="currentColor" stroke-width="2" stroke-linecap="round" stroke-linejoin="round"/>
</g>
</svg>
