<svg width="24" height="24" viewBox="0 0 24 24" fill="none" xmlns="http://www.w3.org/2000/svg">
<g id="transform">
<path id="Vector" d="M19.0736 16.5474V7.45262M16.5473 19.0737H7.9578M4.92622 16.2947V7.70526M7.45253 4.92631H16.2946M3.41043 7.45262H6.44201C7.00011 7.45262 7.45253 7.0002 7.45253 6.4421V3.41052C7.45253 2.85242 7.00011 2.39999 6.44201 2.39999H3.41043C2.85233 2.39999 2.3999 2.85242 2.3999 3.41052V6.4421C2.3999 7.0002 2.85233 7.45262 3.41043 7.45262ZM17.5578 7.45262H20.5894C21.1475 7.45262 21.5999 7.0002 21.5999 6.4421V3.41052C21.5999 2.85242 21.1475 2.39999 20.5894 2.39999H17.5578C16.9997 2.39999 16.5473 2.85242 16.5473 3.41052V6.4421C16.5473 7.0002 16.9997 7.45262 17.5578 7.45262ZM3.41043 21.6H6.44201C7.00011 21.6 7.45253 21.1476 7.45253 20.5895V17.5579C7.45253 16.9998 7.00011 16.5474 6.44201 16.5474H3.41043C2.85233 16.5474 2.3999 16.9998 2.3999 17.5579V20.5895C2.3999 21.1476 2.85233 21.6 3.41043 21.6ZM17.5578 21.6H20.5894C21.1475 21.6 21.5999 21.1476 21.5999 20.5895V17.5579C21.5999 16.9998 21.1475 16.5474 20.5894 16.5474H17.5578C16.9997 16.5474 16.5473 16.9998 16.5473 17.5579V20.5895C16.5473 21.1476 16.9997 21.6 17.5578 21.6Z" stroke="currentColor" stroke-width="2" stroke-linecap="round"/>
</g>
</svg>
