<svg width="24" height="24" viewBox="0 0 24 24" fill="none" xmlns="http://www.w3.org/2000/svg">
<g id="trash-02">
<path id="Icon" d="M2.40002 5.39999H21.6M9.60002 17.4V10.2M14.4 17.4V10.2M16.8 22.2H7.20002C5.87454 22.2 4.80002 21.1255 4.80002 19.8V6.59999C4.80002 5.93725 5.33728 5.39999 6.00002 5.39999H18C18.6628 5.39999 19.2 5.93725 19.2 6.59999V19.8C19.2 21.1255 18.1255 22.2 16.8 22.2ZM9.60002 5.39999H14.4C15.0628 5.39999 15.6 4.86273 15.6 4.19999V2.99999C15.6 2.33725 15.0628 1.79999 14.4 1.79999H9.60002C8.93728 1.79999 8.40002 2.33725 8.40002 2.99999V4.19999C8.40002 4.86273 8.93728 5.39999 9.60002 5.39999Z" stroke="currentColor" stroke-width="2" stroke-linecap="round" stroke-linejoin="round"/>
</g>
</svg>
