<svg width="24" height="24" viewBox="0 0 24 24" fill="none" xmlns="http://www.w3.org/2000/svg">
<g id="truck">
<path id="Icon" d="M5.14285 17.0286H4.22856C3.21867 17.0286 2.39999 16.2099 2.39999 15.2V6.97142C2.39999 5.96153 3.21867 5.14285 4.22856 5.14285H12.4571C13.467 5.14285 14.2857 5.96153 14.2857 6.97142V15.2C14.2857 16.2099 13.467 17.0286 12.4571 17.0286H11.5428M15.6571 17.0286H15.2C14.695 17.0286 14.2857 16.6192 14.2857 16.1143V8.34285C14.2857 7.83791 14.695 7.42857 15.2 7.42857H17.5034C17.7812 7.42857 18.0439 7.55482 18.2174 7.7717L21.3996 11.7496C21.5293 11.9117 21.6 12.1131 21.6 12.3207V16.1143C21.6 16.6192 21.1907 17.0286 20.6857 17.0286M10.6286 16.5714C10.6286 17.8338 9.60521 18.8571 8.34285 18.8571C7.08048 18.8571 6.05714 17.8338 6.05714 16.5714C6.05714 15.3091 7.08048 14.2857 8.34285 14.2857C9.60521 14.2857 10.6286 15.3091 10.6286 16.5714ZM20.2286 16.5714C20.2286 17.8338 19.2052 18.8571 17.9428 18.8571C16.6805 18.8571 15.6571 17.8338 15.6571 16.5714C15.6571 15.3091 16.6805 14.2857 17.9428 14.2857C19.2052 14.2857 20.2286 15.3091 20.2286 16.5714Z" stroke="currentColor" stroke-width="2" stroke-linecap="round"/>
</g>
</svg>
