<svg width="24" height="25" viewBox="0 0 24 25" fill="none" xmlns="http://www.w3.org/2000/svg">
<g id="upload-04">
<path id="Icon" d="M21.6 17.32V20.92C21.6 21.22 21.4923 21.475 21.2769 21.685C21.0616 21.895 20.8 22 20.4923 22H3.50772C3.20002 22 2.93849 21.895 2.7231 21.685C2.50772 21.475 2.40002 21.22 2.40002 20.92V17.32C2.40002 17.02 2.50772 16.765 2.7231 16.555C2.93849 16.345 3.20002 16.24 3.50772 16.24H7.61048C8.10701 16.24 8.52945 16.571 8.86423 16.9377C8.97661 17.0608 9.10457 17.1732 9.2481 17.275C9.62887 17.545 10.0539 17.68 10.5231 17.68H13.4769C13.9462 17.68 14.3712 17.545 14.7519 17.275C14.8955 17.1732 15.0234 17.0608 15.1358 16.9377C15.4706 16.571 15.893 16.24 16.3896 16.24H20.4923C20.8 16.24 21.0616 16.345 21.2769 16.555C21.4923 16.765 21.6 17.02 21.6 17.32ZM17.6996 7.79C17.5689 8.09 17.3419 8.24 17.0189 8.24H14.065V13.28C14.065 13.475 13.9919 13.6438 13.8458 13.7863C13.6996 13.9288 13.5266 14 13.3266 14H10.3727C10.1727 14 9.99963 13.9288 9.85348 13.7863C9.70733 13.6438 9.63425 13.475 9.63425 13.28V8.24H6.6804C6.35733 8.24 6.1304 8.09 5.99963 7.79C5.86886 7.4975 5.92271 7.23875 6.16117 7.01375L11.3304 1.97375C11.4689 1.83125 11.6419 1.76 11.8496 1.76C12.0573 1.76 12.2304 1.83125 12.3689 1.97375L17.5381 7.01375C17.7766 7.23875 17.8304 7.4975 17.6996 7.79Z" stroke="currentColor" stroke-width="2" stroke-linejoin="round"/>
</g>
</svg>
