<svg width="24" height="24" viewBox="0 0 24 24" fill="none" xmlns="http://www.w3.org/2000/svg">
<g id="upload-01">
<path id="Icon" d="M4.5551 16.5556C2.60745 16.5556 1.02856 15.2273 1.02856 13.2796C1.02856 11.332 2.60745 9.75307 4.5551 9.75307C4.68754 9.75307 4.81828 9.76038 4.94693 9.7746V9.75307H4.99544C4.96342 9.49635 4.94693 9.2348 4.94693 8.9694C4.94693 5.50691 7.75383 2.70001 11.2163 2.70001C13.561 2.70001 15.6051 3.98715 16.6805 5.89339C16.9433 5.85473 17.2122 5.83471 17.4857 5.83471C20.5154 5.83471 22.9714 8.29074 22.9714 11.3204C22.9714 13.8144 21.3071 15.7156 19.0286 16.3423M11.8269 21.3V12.3M11.8269 12.3L8.22856 16.0117M11.8269 12.3L15.4286 16.0117" stroke="currentColor" stroke-width="2" stroke-linecap="round" stroke-linejoin="round"/>
</g>
</svg>
