<svg width="24" height="24" viewBox="0 0 24 24" fill="none" xmlns="http://www.w3.org/2000/svg">
<g id="users-profiles-up">
<path id="Icon" d="M2.39999 21.6L2.4004 17.9996C2.40062 16.0116 4.01233 14.4 6.0004 14.4H12.6M16.8 15.1715L19.2 12.6M19.2 12.6L21.6 15.1715M19.2 12.6V19.2M17.4 2.40002C18.8562 3.2163 19.8 4.5249 19.8 6.00002C19.8 7.47515 18.8562 8.78375 17.4 9.60002M14.4 6.00002C14.4 7.98825 12.7882 9.60002 10.8 9.60002C8.81177 9.60002 7.19999 7.98825 7.19999 6.00002C7.19999 4.0118 8.81177 2.40002 10.8 2.40002C12.7882 2.40002 14.4 4.0118 14.4 6.00002Z" stroke="currentColor" stroke-width="2" stroke-linecap="round" stroke-linejoin="round"/>
</g>
</svg>
