<svg width="24" height="24" viewBox="0 0 24 24" fill="none" xmlns="http://www.w3.org/2000/svg">
<g id="users-profiles-left">
<path id="Icon" d="M2.4005 21.6L2.4009 17.9996C2.40113 16.0116 4.01283 14.4 6.0009 14.4H12.0005M17.5709 18.3L14.9995 15.9M14.9995 15.9L17.5709 13.5M14.9995 15.9H21.5995M17.4005 2.40002C18.8567 3.2163 19.8005 4.5249 19.8005 6.00002C19.8005 7.47515 18.8567 8.78375 17.4005 9.60002M14.4005 6.00002C14.4005 7.98825 12.7887 9.60002 10.8005 9.60002C8.81227 9.60002 7.2005 7.98825 7.2005 6.00002C7.2005 4.0118 8.81227 2.40002 10.8005 2.40002C12.7887 2.40002 14.4005 4.0118 14.4005 6.00002Z" stroke="currentColor" stroke-width="2" stroke-linecap="round" stroke-linejoin="round"/>
</g>
</svg>
