<svg width="24" height="24" viewBox="0 0 24 24" fill="none" xmlns="http://www.w3.org/2000/svg">
<g id="users-profiles-x">
<path id="Icon" d="M1.39996 21.5999C1.3999 22.1522 1.84757 22.6 2.39985 22.6C2.95214 22.6001 3.3999 22.1524 3.39996 21.6001L1.39996 21.5999ZM2.40037 17.9996L3.40037 17.9997L2.40037 17.9996ZM13.2 15.4C13.7522 15.4 14.2 14.9523 14.2 14.4C14.2 13.8477 13.7522 13.4 13.2 13.4V15.4ZM20.8929 18.1071C21.2834 18.4977 21.9165 18.4977 22.3071 18.1071C22.6976 17.7166 22.6976 17.0834 22.3071 16.6929L20.8929 18.1071ZM18.4887 12.8745C18.0982 12.484 17.465 12.484 17.0745 12.8745C16.684 13.2651 16.684 13.8982 17.0745 14.2888L18.4887 12.8745ZM17.0746 16.6928C16.6841 17.0833 16.6841 17.7165 17.0746 18.107C17.4651 18.4976 18.0983 18.4976 18.4888 18.107L17.0746 16.6928ZM22.3072 14.2887C22.6977 13.8981 22.6977 13.265 22.3072 12.8744C21.9166 12.4839 21.2835 12.4839 20.893 12.8744L22.3072 14.2887ZM13.4 6.00002C13.4 7.43596 12.2359 8.60002 10.8 8.60002V10.6C13.3405 10.6 15.4 8.54053 15.4 6.00002H13.4ZM10.8 8.60002C9.36402 8.60002 8.19996 7.43596 8.19996 6.00002H6.19996C6.19996 8.54053 8.25945 10.6 10.8 10.6V8.60002ZM8.19996 6.00002C8.19996 4.56408 9.36402 3.40002 10.8 3.40002V1.40002C8.25945 1.40002 6.19996 3.45951 6.19996 6.00002H8.19996ZM10.8 3.40002C12.2359 3.40002 13.4 4.56408 13.4 6.00002H15.4C15.4 3.45951 13.3405 1.40002 10.8 1.40002V3.40002ZM3.39996 21.6001L3.40037 17.9997L1.40037 17.9995L1.39996 21.5999L3.39996 21.6001ZM6.00037 13.4C3.46006 13.4 1.40065 15.4592 1.40037 17.9995L3.40037 17.9997C3.40053 16.5639 4.56454 15.4 6.00037 15.4V13.4ZM6.00037 15.4H13.2V13.4H6.00037V15.4ZM22.3071 16.6929L20.3979 14.7837L18.9837 16.1979L20.8929 18.1071L22.3071 16.6929ZM20.3979 14.7837L18.4887 12.8745L17.0745 14.2888L18.9837 16.1979L20.3979 14.7837ZM18.4888 18.107L20.3979 16.1979L18.9837 14.7837L17.0746 16.6928L18.4888 18.107ZM20.3979 16.1979L22.3072 14.2887L20.893 12.8744L18.9837 14.7837L20.3979 16.1979Z" fill="currentColor"/>
</g>
</svg>
