<svg width="24" height="24" viewBox="0 0 24 24" fill="none" xmlns="http://www.w3.org/2000/svg">
<g id="users-profiles-02">
<path id="Icon" d="M19.2 13.6857C20.4673 14.6326 21.6 17.0166 21.6 18.4856C21.6 18.9432 21.2661 19.3142 20.8542 19.3142H20.4M15.6 9.80444C16.4198 9.33018 16.9714 8.44377 16.9714 7.42853C16.9714 6.41328 16.4198 5.52687 15.6 5.05261M3.14576 19.3142H16.2828C16.6947 19.3142 17.0286 18.9432 17.0286 18.4856C17.0286 15.609 14.6253 13.2771 9.71428 13.2771C4.80326 13.2771 2.39999 15.609 2.39999 18.4856C2.39999 18.9432 2.73389 19.3142 3.14576 19.3142ZM12.4571 7.42853C12.4571 8.94336 11.2291 10.1714 9.71428 10.1714C8.19944 10.1714 6.97142 8.94336 6.97142 7.42853C6.97142 5.91369 8.19944 4.68567 9.71428 4.68567C11.2291 4.68567 12.4571 5.91369 12.4571 7.42853Z" stroke="currentColor" stroke-width="2" stroke-linecap="round"/>
</g>
</svg>
