<svg width="24" height="24" viewBox="0 0 24 24" fill="none" xmlns="http://www.w3.org/2000/svg">
<g id="users-profiles-01">
<path id="Icon" d="M16.0254 20.5707L16.0257 17.3569C16.0259 15.5818 14.5868 14.1426 12.8116 14.1426H5.61441C3.83948 14.1426 2.40055 15.5814 2.40036 17.3563L2.39999 20.5707M21.5997 20.5709L21.6 17.3571C21.6002 15.5819 20.1611 14.1428 18.3859 14.1428M15.4063 4.06048C16.1956 4.64612 16.7071 5.58498 16.7071 6.64331C16.7071 7.70164 16.1956 8.64049 15.4063 9.22613M12.4938 6.64313C12.4938 8.41821 11.0548 9.85719 9.27974 9.85719C7.50466 9.85719 6.06568 8.41821 6.06568 6.64313C6.06568 4.86806 7.50466 3.42908 9.27974 3.42908C11.0548 3.42908 12.4938 4.86806 12.4938 6.64313Z" stroke="currentColor" stroke-width="2" stroke-linecap="round" stroke-linejoin="round"/>
</g>
</svg>
