<svg width="24" height="24" viewBox="0 0 24 24" fill="none" xmlns="http://www.w3.org/2000/svg">
<g id="video-off">
<path id="Icon" d="M15.6 12.4917L20.501 9.15652C21.1168 8.82493 21.5351 9.02071 21.579 9.73823L21.5998 16.7187C21.6136 17.3797 21.0741 17.5664 20.5599 17.2495L15.6 13.6959V12.4917ZM15.6 12.4917V10.2C15.6 8.87449 14.5255 7.79998 13.2 7.79998H12M7.20002 7.79998H4.80002C3.47454 7.79998 2.40002 8.87449 2.40002 10.2V16.2C2.40002 17.5255 3.47454 18.6 4.80002 18.6H13.2C13.7037 18.6 14.1711 18.4448 14.557 18.1798M16.8 20.4L4.20002 3.59998" stroke="currentColor" stroke-width="2" stroke-linecap="round" stroke-linejoin="round"/>
</g>
</svg>
