<svg width="24" height="24" viewBox="0 0 24 24" fill="none" xmlns="http://www.w3.org/2000/svg">
<g id="wallet-01">
<path id="Icon" d="M21.6 16.56V17.56C22.1523 17.56 22.6 17.1123 22.6 16.56H21.6ZM21.6 11.28H22.6C22.6 10.7277 22.1523 10.28 21.6 10.28V11.28ZM7.13927 6.11884C6.6747 6.41749 6.54019 7.0362 6.83885 7.50077C7.1375 7.96534 7.75621 8.09985 8.22078 7.80119L7.13927 6.11884ZM14.4 2.64001L15.1894 2.02607C14.8716 1.61753 14.2946 1.51896 13.8593 1.79884L14.4 2.64001ZM16.9707 7.57396C17.3097 8.0099 17.938 8.08844 18.374 7.74937C18.8099 7.4103 18.8884 6.78202 18.5494 6.34607L16.9707 7.57396ZM21.6 15.56H18.48V17.56H21.6V15.56ZM18.48 12.28H21.6V10.28H18.48V12.28ZM20.6 11.28V16.56H22.6V11.28H20.6ZM16.84 13.92C16.84 13.0143 17.5743 12.28 18.48 12.28V10.28C16.4697 10.28 14.84 11.9097 14.84 13.92H16.84ZM18.48 15.56C17.5743 15.56 16.84 14.8258 16.84 13.92H14.84C14.84 15.9303 16.4697 17.56 18.48 17.56V15.56ZM8.22078 7.80119L14.9408 3.48119L13.8593 1.79884L7.13927 6.11884L8.22078 7.80119ZM13.6107 3.25396L16.9707 7.57396L18.5494 6.34607L15.1894 2.02607L13.6107 3.25396ZM3.36002 7.96002H19.68V5.96002H3.36002V7.96002ZM19.68 20.36H3.36002V22.36H19.68V20.36ZM3.40002 20.4V7.92002H1.40002V20.4H3.40002ZM3.36002 20.36C3.38212 20.36 3.40002 20.3779 3.40002 20.4H1.40002C1.40002 21.4825 2.27754 22.36 3.36002 22.36V20.36ZM19.64 20.4C19.64 20.3779 19.6579 20.36 19.68 20.36V22.36C20.7625 22.36 21.64 21.4825 21.64 20.4H19.64ZM19.68 7.96002C19.6579 7.96002 19.64 7.94211 19.64 7.92002H21.64C21.64 6.83754 20.7625 5.96002 19.68 5.96002V7.96002ZM3.36002 5.96002C2.27755 5.96002 1.40002 6.83754 1.40002 7.92002H3.40002C3.40002 7.94211 3.38212 7.96002 3.36002 7.96002V5.96002ZM19.64 17.28V20.4H21.64V17.28H19.64ZM19.64 7.92002V10.44H21.64V7.92002H19.64Z" fill="currentColor"/>
</g>
</svg>
