<svg width="24" height="24" viewBox="0 0 24 24" fill="none" xmlns="http://www.w3.org/2000/svg">
<g id="watch-02">
<path id="Vector" d="M16.2083 18.4438L15.2761 21.2403C15.2045 21.4551 15.0035 21.6 14.7771 21.6H9.22305C8.99663 21.6 8.79561 21.4551 8.72401 21.2403L7.79185 18.4438M7.79185 5.55616L8.72401 2.75968C8.79561 2.54488 8.99663 2.39999 9.22305 2.39999H14.7771C15.0035 2.39999 15.2045 2.54488 15.2761 2.75968L16.2083 5.55616M7.26583 18.4438H16.7343C17.6059 18.4438 18.3124 17.7373 18.3124 16.8657V7.39725C18.3124 6.5257 17.6059 5.81917 16.7343 5.81917H7.26583C6.39428 5.81917 5.68774 6.5257 5.68774 7.39725V16.8657C5.68774 17.7373 6.39428 18.4438 7.26583 18.4438Z" stroke="currentColor" stroke-width="2" stroke-linecap="round"/>
</g>
</svg>
