<svg width="24" height="24" viewBox="0 0 24 24" fill="none" xmlns="http://www.w3.org/2000/svg">
<g id="watch-01">
<path id="Vector" d="M7.62533 16.9823L8.74516 21.2376C8.80135 21.4512 8.99442 21.6 9.21523 21.6H14.5602C14.7723 21.6 14.9599 21.4625 15.0237 21.2603L16.3747 16.9823M16.3747 7.01772L15.2549 2.76237C15.1987 2.54883 15.0056 2.39999 14.7848 2.39999L9.4398 2.39999C9.22773 2.39999 9.04014 2.53748 8.97628 2.7397L7.62533 7.01771M18.562 11.8785C18.562 15.5026 15.6241 18.4405 12 18.4405C8.37591 18.4405 5.43799 15.5026 5.43799 11.8785C5.43799 8.25437 8.37591 5.31645 12 5.31645C15.6241 5.31645 18.562 8.25437 18.562 11.8785Z" stroke="currentColor" stroke-width="2" stroke-linecap="round"/>
</g>
</svg>
