<svg width="24" height="24" viewBox="0 0 24 24" fill="none" xmlns="http://www.w3.org/2000/svg">
<g id="webcam">
<path id="Icon" d="M12 17.5579C10.66 17.5579 9.37482 17.0256 8.42727 16.078C7.47972 15.1305 6.94739 13.8453 6.94739 12.5053V7.45266C6.94739 6.11261 7.47972 4.82746 8.42727 3.87991C9.37482 2.93235 10.66 2.40002 12 2.40002C13.3401 2.40002 14.6252 2.93235 15.5728 3.87991C16.5203 4.82746 17.0527 6.11261 17.0527 7.45266V12.5053C17.0527 13.8453 16.5203 15.1305 15.5728 16.078C14.6252 17.0256 13.3401 17.5579 12 17.5579ZM12 17.5579V21.6M9.97897 21.6H14.0211M12 8.46318C12.268 8.46318 12.5251 8.35672 12.7146 8.16721C12.9041 7.9777 13.0105 7.72066 13.0105 7.45266C13.0105 7.18465 12.9041 6.92762 12.7146 6.73811C12.5251 6.5486 12.268 6.44213 12 6.44213C11.732 6.44213 11.475 6.5486 11.2855 6.73811C11.096 6.92762 10.9895 7.18465 10.9895 7.45266C10.9895 7.72066 11.096 7.9777 11.2855 8.16721C11.475 8.35672 11.732 8.46318 12 8.46318Z" stroke="currentColor" stroke-width="2" stroke-linecap="round" stroke-linejoin="round"/>
</g>
</svg>
