<svg width="24" height="24" viewBox="0 0 24 24" fill="none" xmlns="http://www.w3.org/2000/svg">
<g id="wind-03">
<path id="Icon" d="M7.41689 20.8186C8.6859 21.0856 10.2613 21.2438 11.968 21.2438C13.8034 21.2438 15.487 21.0609 16.8009 20.7563M3.8842 12.2614C5.59126 13.241 8.57411 13.89 11.9684 13.89C15.3627 13.89 18.3456 13.241 20.0526 12.2614M5.39999 16.5562C6.78697 17.164 9.21055 17.5667 11.9684 17.5667C14.7263 17.5667 17.1499 17.164 18.5368 16.5562M21.6 6.29301C21.6 8.24635 17.3019 9.82985 12 9.82985C6.69806 9.82985 2.39999 8.24635 2.39999 6.29301C2.39999 4.33966 6.69806 2.75616 12 2.75616C17.3019 2.75616 21.6 4.33966 21.6 6.29301Z" stroke="currentColor" stroke-width="2" stroke-linecap="round"/>
</g>
</svg>
