<svg width="24" height="24" viewBox="0 0 24 24" fill="none" xmlns="http://www.w3.org/2000/svg">
<g id="wind-01">
<path id="Icon" d="M9.02106 4.79642C9.38103 3.88591 10.243 3.24475 11.2491 3.24475C12.5788 3.24475 13.6567 4.36471 13.6567 5.74625C13.6567 7.12779 12.5788 8.24775 11.2491 8.24775H2.39999M14.0241 19.2036C14.384 20.1141 15.246 20.7553 16.2521 20.7553C17.5818 20.7553 18.6598 19.6353 18.6598 18.2538C18.6598 16.8722 17.5818 15.7523 16.2521 15.7523H7.403M16.7836 8.54867C17.1576 7.63816 18.0532 6.997 19.0985 6.997C20.48 6.997 21.6 8.11696 21.6 9.4985C21.6 10.88 20.48 12 19.0985 12H4.90149" stroke="currentColor" stroke-width="2" stroke-linecap="round" stroke-linejoin="round"/>
</g>
</svg>
