<svg width="24" height="24" viewBox="0 0 24 24" fill="none" xmlns="http://www.w3.org/2000/svg">
<g id="x-circle-contained">
<path id="Icon" d="M16.1012 9.31299C16.4918 8.92246 16.4918 8.2893 16.1012 7.89878C15.7107 7.50825 15.0776 7.50825 14.687 7.89878L16.1012 9.31299ZM7.8988 14.687C7.50828 15.0775 7.50828 15.7107 7.8988 16.1012C8.28933 16.4917 8.92249 16.4917 9.31302 16.1012L7.8988 14.687ZM14.687 16.1012C15.0776 16.4917 15.7107 16.4917 16.1012 16.1012C16.4918 15.7107 16.4918 15.0775 16.1012 14.687L14.687 16.1012ZM9.31302 7.89877C8.92249 7.50825 8.28933 7.50825 7.8988 7.89877C7.50828 8.2893 7.50828 8.92246 7.8988 9.31299L9.31302 7.89877ZM20.6 12C20.6 16.7496 16.7497 20.6 12 20.6V22.6C17.8542 22.6 22.6 17.8542 22.6 12H20.6ZM12 20.6C7.25038 20.6 3.40002 16.7496 3.40002 12H1.40002C1.40002 17.8542 6.14581 22.6 12 22.6V20.6ZM3.40002 12C3.40002 7.25034 7.25038 3.39999 12 3.39999V1.39999C6.14581 1.39999 1.40002 6.14578 1.40002 12H3.40002ZM12 3.39999C16.7497 3.39999 20.6 7.25034 20.6 12H22.6C22.6 6.14578 17.8542 1.39999 12 1.39999V3.39999ZM14.687 7.89878L11.2929 11.2929L12.7071 12.7071L16.1012 9.31299L14.687 7.89878ZM11.2929 11.2929L7.8988 14.687L9.31302 16.1012L12.7071 12.7071L11.2929 11.2929ZM16.1012 14.687L12.7071 11.2929L11.2929 12.7071L14.687 16.1012L16.1012 14.687ZM12.7071 11.2929L9.31302 7.89877L7.8988 9.31299L11.2929 12.7071L12.7071 11.2929Z" fill="currentColor"/>
</g>
</svg>
