<svg width="24" height="24" viewBox="0 0 24 24" fill="none" xmlns="http://www.w3.org/2000/svg">
<g id="youtube">
<path id="Icon" d="M15.0008 12.6071L14.4099 11.8003L14.396 11.8105L14.3824 11.8212L15.0008 12.6071ZM15.0008 11.5749L14.3628 12.345L14.4073 12.3819L14.4557 12.4133L15.0008 11.5749ZM11.3238 8.52898L11.9618 7.75889L11.9338 7.73571L11.9042 7.71461L11.3238 8.52898ZM10.553 8.98394L11.553 8.98136L11.553 8.97358L11.5528 8.9658L10.553 8.98394ZM10.5684 14.9672L9.56842 14.9698L9.56849 14.9949L9.56982 15.0201L10.5684 14.9672ZM11.3675 15.4658L11.8961 16.3147L11.9427 16.2857L11.9859 16.2517L11.3675 15.4658ZM12 18.2C10.2919 18.2 8.4636 18.1994 6.93296 18.0717C6.16756 18.0079 5.51199 17.9148 5.00276 17.7858C4.45899 17.6481 4.22691 17.5039 4.16155 17.4385L2.74733 18.8527C3.20918 19.3146 3.88464 19.5658 4.51169 19.7246C5.17328 19.8922 5.9518 19.9968 6.76673 20.0648C8.39675 20.2007 10.3141 20.2 12 20.2V18.2ZM1.40002 12C1.40002 13.6688 1.3979 15.021 1.54074 16.0835C1.68745 17.1747 2.00336 18.1088 2.74733 18.8527L4.16155 17.4385C3.85111 17.1281 3.6398 16.6864 3.52291 15.817C3.40215 14.9188 3.40002 13.7254 3.40002 12H1.40002ZM20.6 12C20.6 13.7254 20.5979 14.9188 20.4771 15.817C20.3602 16.6864 20.1489 17.1281 19.8385 17.4385L21.2527 18.8527C21.9967 18.1088 22.3126 17.1747 22.4593 16.0835C22.6021 15.021 22.6 13.6688 22.6 12H20.6ZM12 20.2C13.686 20.2 15.6033 20.2007 17.2333 20.0648C18.0482 19.9968 18.8268 19.8922 19.4884 19.7246C20.1154 19.5658 20.7909 19.3146 21.2527 18.8527L19.8385 17.4385C19.7731 17.5039 19.5411 17.6481 18.9973 17.7858C18.4881 17.9148 17.8325 18.0079 17.0671 18.0717C15.5364 18.1994 13.7082 18.2 12 18.2V20.2ZM12 5.80005C13.7082 5.80005 15.5364 5.80073 17.0671 5.92839C17.8325 5.99223 18.4881 6.08529 18.9973 6.21427C19.5411 6.352 19.7731 6.49621 19.8385 6.56157L21.2527 5.14736C20.7909 4.68551 20.1154 4.43432 19.4884 4.27549C18.8268 4.10792 18.0482 4.00328 17.2333 3.93531C15.6033 3.79937 13.686 3.80005 12 3.80005V5.80005ZM22.6 12C22.6 10.3313 22.6021 8.97907 22.4593 7.91662C22.3126 6.8254 21.9967 5.89133 21.2527 5.14736L19.8385 6.56157C20.1489 6.87201 20.3602 7.31368 20.4771 8.18312C20.5979 9.08133 20.6 10.2747 20.6 12H22.6ZM12 3.80005C10.3141 3.80005 8.39675 3.79937 6.76673 3.93531C5.9518 4.00328 5.17328 4.10792 4.51169 4.27549C3.88464 4.43432 3.20918 4.68551 2.74733 5.14736L4.16155 6.56157C4.22691 6.49621 4.45899 6.352 5.00276 6.21427C5.51199 6.08529 6.16756 5.99223 6.93296 5.92839C8.46361 5.80073 10.2919 5.80005 12 5.80005V3.80005ZM3.40002 12C3.40002 10.2747 3.40215 9.08133 3.52291 8.18312C3.6398 7.31368 3.85111 6.87201 4.16155 6.56157L2.74733 5.14736C2.00336 5.89133 1.68745 6.8254 1.54074 7.91662C1.3979 8.97907 1.40002 10.3313 1.40002 12H3.40002ZM15.5916 13.4139C15.9326 13.1642 16.3536 12.7212 16.3528 12.0749C16.352 11.4088 15.9077 10.9718 15.5459 10.7366L14.4557 12.4133C14.5624 12.4827 14.3532 12.3896 14.3528 12.0773C14.3526 11.935 14.4017 11.8362 14.4297 11.7936C14.454 11.7567 14.4607 11.7631 14.4099 11.8003L15.5916 13.4139ZM15.6387 10.8049L11.9618 7.75889L10.6859 9.29907L14.3628 12.345L15.6387 10.8049ZM11.9042 7.71461C11.5274 7.44611 10.9208 7.24478 10.3266 7.55686C9.71878 7.87615 9.54422 8.50912 9.55317 9.00207L11.5528 8.9658C11.5515 8.89224 11.5718 9.16193 11.2567 9.32746C11.1157 9.40149 10.9791 9.40838 10.8854 9.39361C10.7965 9.3796 10.7503 9.34821 10.7435 9.34335L11.9042 7.71461ZM9.553 8.98651L9.56842 14.9698L11.5684 14.9646L11.553 8.98136L9.553 8.98651ZM9.56982 15.0201C9.59042 15.4094 9.70794 16.0588 10.294 16.4109C10.9269 16.7912 11.5665 16.5199 11.8961 16.3147L10.839 14.6169C10.7975 14.6427 10.8204 14.6188 10.9005 14.6063C10.9949 14.5915 11.1579 14.5967 11.324 14.6966C11.4824 14.7917 11.5471 14.915 11.5658 14.9596C11.5824 14.9996 11.5713 14.9949 11.567 14.9144L9.56982 15.0201ZM11.9859 16.2517L15.6191 13.393L14.3824 11.8212L10.7492 14.6799L11.9859 16.2517Z" fill="currentColor"/>
</g>
</svg>
