<svg width="24" height="24" viewBox="0 0 24 24" fill="none" xmlns="http://www.w3.org/2000/svg">
<g id="zoom-in">
<path id="Vector" d="M17.6223 16.3213C17.2253 15.9373 16.5922 15.9477 16.2082 16.3447C15.8242 16.7416 15.8347 17.3747 16.2317 17.7587L17.6223 16.3213ZM19.7048 21.1187C20.1017 21.5027 20.7348 21.4922 21.1188 21.0953C21.5028 20.6983 21.4923 20.0653 21.0954 19.6813L19.7048 21.1187ZM10.4001 14.4C10.4001 14.9523 10.8478 15.4 11.4001 15.4C11.9524 15.4 12.4001 14.9523 12.4001 14.4H10.4001ZM12.4001 8.39998C12.4001 7.84769 11.9524 7.39998 11.4001 7.39998C10.8478 7.39998 10.4001 7.84769 10.4001 8.39998H12.4001ZM8.4001 10.4C7.84781 10.4 7.4001 10.8477 7.4001 11.4C7.4001 11.9523 7.84781 12.4 8.4001 12.4V10.4ZM14.4001 12.4C14.9524 12.4 15.4001 11.9523 15.4001 11.4C15.4001 10.8477 14.9524 10.4 14.4001 10.4V12.4ZM18.2801 11.44C18.2801 15.2176 15.2177 18.28 11.4401 18.28V20.28C16.3223 20.28 20.2801 16.3222 20.2801 11.44H18.2801ZM11.4401 18.28C7.66247 18.28 4.6001 15.2176 4.6001 11.44H2.6001C2.6001 16.3222 6.5579 20.28 11.4401 20.28V18.28ZM4.6001 11.44C4.6001 7.66235 7.66247 4.59998 11.4401 4.59998V2.59998C6.5579 2.59998 2.6001 6.55778 2.6001 11.44H4.6001ZM11.4401 4.59998C15.2177 4.59998 18.2801 7.66235 18.2801 11.44H20.2801C20.2801 6.55778 16.3223 2.59998 11.4401 2.59998V4.59998ZM16.2317 17.7587L19.7048 21.1187L21.0954 19.6813L17.6223 16.3213L16.2317 17.7587ZM12.4001 14.4V11.4H10.4001V14.4H12.4001ZM12.4001 11.4V8.39998H10.4001V11.4H12.4001ZM8.4001 12.4H11.4001V10.4H8.4001V12.4ZM11.4001 12.4H14.4001V10.4H11.4001V12.4Z" fill="currentColor"/>
</g>
</svg>
