<svg width="173" height="173" viewBox="0 0 173 173" fill="none" xmlns="http://www.w3.org/2000/svg">
<rect width="173" height="173" rx="3" fill="black"/>
<path fill-rule="evenodd" clip-rule="evenodd" d="M0 12.2112V3C0 1.34314 1.34315 0 3 0H6.3106L147.866 173H131.564L0 12.2112ZM161.113 173L19.5572 0H35.8595L173 167.604V170C173 171.657 171.657 173 170 173H161.113Z" fill="#151515"/>
<rect width="173" height="173" rx="3" fill="url(#paint0_radial_105_81)"/>
<path d="M27.224 96.776L33.44 86.312L27.224 75.848H32L38.048 86.312L31.976 96.776H27.224ZM52.0096 89.456C52.0096 88.464 52.1616 87.592 52.4656 86.84C52.7696 86.088 53.1696 85.464 53.6656 84.968C54.1616 84.456 54.7296 84.072 55.3696 83.816C56.0096 83.56 56.6656 83.432 57.3376 83.432C59.0016 83.432 60.2656 83.928 61.1296 84.92C61.9936 85.896 62.4256 87.328 62.4256 89.216C62.4256 89.408 62.4176 89.608 62.4016 89.816C62.4016 90.024 62.3936 90.192 62.3776 90.32H55.0576C55.0576 91.056 55.3616 91.64 55.9696 92.072C56.5776 92.488 57.3616 92.696 58.3216 92.696C58.9136 92.696 59.4736 92.632 60.0016 92.504C60.5456 92.376 61.0016 92.248 61.3696 92.12L61.7776 94.64C61.2656 94.816 60.7216 94.96 60.1456 95.072C59.5696 95.2 58.9216 95.264 58.2016 95.264C57.2416 95.264 56.3776 95.144 55.6096 94.904C54.8576 94.648 54.2096 94.28 53.6656 93.8C53.1376 93.304 52.7296 92.696 52.4416 91.976C52.1536 91.256 52.0096 90.416 52.0096 89.456ZM59.5696 88.28C59.5696 87.976 59.5296 87.688 59.4496 87.416C59.3696 87.128 59.2416 86.872 59.0656 86.648C58.8896 86.424 58.6656 86.248 58.3936 86.12C58.1216 85.976 57.7856 85.904 57.3856 85.904C57.0016 85.904 56.6656 85.968 56.3776 86.096C56.1056 86.224 55.8736 86.4 55.6816 86.624C55.5056 86.848 55.3616 87.104 55.2496 87.392C55.1536 87.68 55.0896 87.976 55.0576 88.28H59.5696ZM71.4976 83.6C72.1216 83.6 72.6336 83.696 73.0336 83.888C73.4336 84.08 73.7456 84.368 73.9696 84.752C74.2096 85.136 74.3696 85.624 74.4496 86.216C74.5296 86.792 74.5696 87.472 74.5696 88.256V95H72.1696V88.112C72.1696 87.664 72.1376 87.304 72.0736 87.032C72.0256 86.76 71.9536 86.552 71.8576 86.408C71.7776 86.264 71.6736 86.168 71.5456 86.12C71.4336 86.072 71.3136 86.048 71.1856 86.048C71.0416 86.048 70.8896 86.064 70.7296 86.096C70.5696 86.112 70.4256 86.152 70.2976 86.216C70.3456 86.52 70.3856 86.856 70.4176 87.224C70.4496 87.592 70.4656 88 70.4656 88.448V90.704H68.0656V88.112C68.0656 87.344 67.9856 86.808 67.8256 86.504C67.6816 86.2 67.4416 86.048 67.1056 86.048C67.0096 86.048 66.8896 86.056 66.7456 86.072C66.6176 86.088 66.4896 86.112 66.3616 86.144V95H63.9616V84.152C64.5856 83.976 65.2016 83.84 65.8096 83.744C66.4176 83.648 66.9536 83.6 67.4176 83.6C67.8336 83.6 68.2016 83.656 68.5216 83.768C68.8576 83.864 69.1456 84.032 69.3856 84.272C69.6576 84.096 69.9776 83.944 70.3456 83.816C70.7136 83.672 71.0976 83.6 71.4976 83.6ZM84.8656 94.256C84.8656 95.168 84.7536 95.928 84.5296 96.536C84.3056 97.16 83.9936 97.656 83.5936 98.024C83.2096 98.408 82.7456 98.68 82.2016 98.84C81.6736 99 81.0976 99.08 80.4736 99.08C79.7056 99.08 78.9936 98.984 78.3376 98.792C77.6816 98.6 77.0496 98.352 76.4416 98.048L77.3536 95.552C77.7536 95.776 78.2336 95.984 78.7936 96.176C79.3696 96.384 79.8896 96.488 80.3536 96.488C80.8496 96.488 81.2336 96.336 81.5056 96.032C81.7776 95.744 81.9136 95.2 81.9136 94.4V86.168H77.3536V83.72H84.8656V94.256ZM84.5056 80.48C84.5056 81.056 84.3216 81.512 83.9536 81.848C83.5856 82.184 83.1456 82.352 82.6336 82.352C82.1216 82.352 81.6816 82.184 81.3136 81.848C80.9616 81.512 80.7856 81.056 80.7856 80.48C80.7856 79.888 80.9616 79.424 81.3136 79.088C81.6816 78.752 82.1216 78.584 82.6336 78.584C83.1456 78.584 83.5856 78.752 83.9536 79.088C84.3216 79.424 84.5056 79.888 84.5056 80.48ZM88.0096 89.456C88.0096 88.464 88.1616 87.592 88.4656 86.84C88.7696 86.088 89.1696 85.464 89.6656 84.968C90.1616 84.456 90.7296 84.072 91.3696 83.816C92.0096 83.56 92.6656 83.432 93.3376 83.432C95.0016 83.432 96.2656 83.928 97.1296 84.92C97.9936 85.896 98.4256 87.328 98.4256 89.216C98.4256 89.408 98.4176 89.608 98.4016 89.816C98.4016 90.024 98.3936 90.192 98.3776 90.32H91.0576C91.0576 91.056 91.3616 91.64 91.9696 92.072C92.5776 92.488 93.3616 92.696 94.3216 92.696C94.9136 92.696 95.4736 92.632 96.0016 92.504C96.5456 92.376 97.0016 92.248 97.3696 92.12L97.7776 94.64C97.2656 94.816 96.7216 94.96 96.1456 95.072C95.5696 95.2 94.9216 95.264 94.2016 95.264C93.2416 95.264 92.3776 95.144 91.6096 94.904C90.8576 94.648 90.2096 94.28 89.6656 93.8C89.1376 93.304 88.7296 92.696 88.4416 91.976C88.1536 91.256 88.0096 90.416 88.0096 89.456ZM95.5696 88.28C95.5696 87.976 95.5296 87.688 95.4496 87.416C95.3696 87.128 95.2416 86.872 95.0656 86.648C94.8896 86.424 94.6656 86.248 94.3936 86.12C94.1216 85.976 93.7856 85.904 93.3856 85.904C93.0016 85.904 92.6656 85.968 92.3776 86.096C92.1056 86.224 91.8736 86.4 91.6816 86.624C91.5056 86.848 91.3616 87.104 91.2496 87.392C91.1536 87.68 91.0896 87.976 91.0576 88.28H95.5696ZM107.426 93.104C107.426 93.808 107.21 94.344 106.778 94.712C106.346 95.08 105.85 95.264 105.29 95.264C105.002 95.264 104.73 95.216 104.474 95.12C104.218 95.024 103.986 94.888 103.778 94.712C103.586 94.52 103.426 94.296 103.298 94.04C103.186 93.768 103.13 93.456 103.13 93.104C103.13 92.768 103.186 92.472 103.298 92.216C103.426 91.944 103.586 91.72 103.778 91.544C103.986 91.368 104.218 91.232 104.474 91.136C104.73 91.04 105.002 90.992 105.29 90.992C105.85 90.992 106.346 91.176 106.778 91.544C107.21 91.912 107.426 92.432 107.426 93.104ZM114.938 89.288C114.938 90.296 115.122 91.12 115.49 91.76C115.874 92.4 116.482 92.72 117.314 92.72C117.554 92.72 117.778 92.712 117.986 92.696C118.194 92.68 118.41 92.656 118.634 92.624V86.48C118.41 86.352 118.154 86.248 117.866 86.168C117.578 86.072 117.274 86.024 116.954 86.024C116.25 86.024 115.738 86.304 115.418 86.864C115.098 87.424 114.938 88.232 114.938 89.288ZM121.586 94.664C121.042 94.84 120.378 94.984 119.594 95.096C118.81 95.208 118.042 95.264 117.29 95.264C115.53 95.264 114.194 94.744 113.282 93.704C112.386 92.664 111.938 91.24 111.938 89.432C111.938 87.592 112.314 86.144 113.066 85.088C113.834 84.016 114.962 83.48 116.45 83.48C116.85 83.48 117.242 83.528 117.626 83.624C118.01 83.704 118.346 83.824 118.634 83.984V78.848L121.586 78.344V94.664ZM124.01 89.456C124.01 88.464 124.162 87.592 124.466 86.84C124.77 86.088 125.17 85.464 125.666 84.968C126.162 84.456 126.73 84.072 127.37 83.816C128.01 83.56 128.666 83.432 129.338 83.432C131.002 83.432 132.266 83.928 133.13 84.92C133.994 85.896 134.426 87.328 134.426 89.216C134.426 89.408 134.418 89.608 134.402 89.816C134.402 90.024 134.394 90.192 134.378 90.32H127.058C127.058 91.056 127.362 91.64 127.97 92.072C128.578 92.488 129.362 92.696 130.322 92.696C130.914 92.696 131.474 92.632 132.002 92.504C132.546 92.376 133.002 92.248 133.37 92.12L133.778 94.64C133.266 94.816 132.722 94.96 132.146 95.072C131.57 95.2 130.922 95.264 130.202 95.264C129.242 95.264 128.378 95.144 127.61 94.904C126.858 94.648 126.21 94.28 125.666 93.8C125.138 93.304 124.73 92.696 124.442 91.976C124.154 91.256 124.01 90.416 124.01 89.456ZM131.57 88.28C131.57 87.976 131.53 87.688 131.45 87.416C131.37 87.128 131.242 86.872 131.066 86.648C130.89 86.424 130.666 86.248 130.394 86.12C130.122 85.976 129.786 85.904 129.386 85.904C129.002 85.904 128.666 85.968 128.378 86.096C128.106 86.224 127.874 86.4 127.682 86.624C127.506 86.848 127.362 87.104 127.25 87.392C127.154 87.68 127.09 87.976 127.058 88.28H131.57ZM139.922 95C139.202 93.576 138.466 91.912 137.714 90.008C136.978 88.088 136.274 85.992 135.602 83.72H138.698C138.842 84.328 139.01 84.976 139.202 85.664C139.41 86.352 139.626 87.048 139.85 87.752C140.074 88.44 140.298 89.112 140.522 89.768C140.762 90.424 140.986 91.024 141.194 91.568C141.402 91.024 141.634 90.424 141.89 89.768C142.146 89.112 142.394 88.44 142.634 87.752C142.89 87.048 143.13 86.352 143.354 85.664C143.594 84.976 143.786 84.328 143.93 83.72H146.93C146.258 85.992 145.514 88.088 144.698 90.008C143.882 91.912 143.114 93.576 142.394 95H139.922Z" fill="white"/>
<defs>
<radialGradient id="paint0_radial_105_81" cx="0" cy="0" r="1" gradientUnits="userSpaceOnUse" gradientTransform="translate(87 90) rotate(90.3452) scale(83.0015)">
<stop/>
<stop offset="1" stop-opacity="0"/>
</radialGradient>
</defs>
</svg>

