<svg width="1920" height="960" viewBox="0 0 1920 960" fill="none" xmlns="http://www.w3.org/2000/svg">
<g clip-path="url(#clip0_51_10)">
<rect width="1920" height="960" fill="white"/>
<rect width="1920" height="960" fill="#0D1117"/>
<rect x="-179.83" y="-203.895" width="2543.93" height="108" transform="rotate(26.5618 -179.83 -203.895)" fill="#151A21"/>
<rect x="-201.015" y="-12.0613" width="2543.93" height="108" transform="rotate(26.5618 -201.015 -12.0613)" fill="#151A21"/>
<path d="M209.704 564H187.256V517.03C187.256 515.891 187.256 514.305 187.256 512.272C187.256 510.157 187.256 507.921 187.256 505.562C187.337 503.122 187.419 501.007 187.5 499.218C186.605 500.031 185.751 501.007 184.938 502.146C184.125 503.203 183.271 504.139 182.376 504.952L173.226 513.126L161.758 500.194L189.818 476.892H209.704V564ZM287.15 520.446C287.15 527.522 286.622 533.825 285.564 539.356C284.588 544.805 282.921 549.482 280.562 553.386C278.204 557.209 275.154 560.137 271.412 562.17C267.671 564.203 263.076 565.22 257.626 565.22C250.794 565.22 245.182 563.431 240.79 559.852C236.48 556.273 233.267 551.149 231.152 544.48C229.119 537.811 228.102 529.799 228.102 520.446C228.102 511.011 229.038 502.959 230.908 496.29C232.779 489.621 235.87 484.497 240.18 480.918C244.572 477.339 250.388 475.55 257.626 475.55C264.458 475.55 270.03 477.339 274.34 480.918C278.732 484.497 281.945 489.621 283.978 496.29C286.093 502.959 287.15 511.011 287.15 520.446ZM250.062 520.446C250.062 526.709 250.266 531.914 250.672 536.062C251.079 540.129 251.811 543.219 252.868 545.334C254.007 547.449 255.593 548.506 257.626 548.506C259.66 548.506 261.205 547.489 262.262 545.456C263.32 543.341 264.052 540.21 264.458 536.062C264.946 531.914 265.19 526.709 265.19 520.446C265.19 514.265 264.946 509.1 264.458 504.952C264.052 500.723 263.32 497.551 262.262 495.436C261.205 493.321 259.66 492.264 257.626 492.264C255.593 492.264 254.007 493.321 252.868 495.436C251.811 497.551 251.079 500.682 250.672 504.83C250.266 508.978 250.062 514.183 250.062 520.446ZM350.462 564H328.502V471.28H350.462V564ZM387.514 497.022V564H365.676V497.022H387.514ZM376.778 470.426C379.869 470.426 382.553 471.077 384.83 472.378C387.108 473.679 388.246 476.201 388.246 479.942C388.246 483.602 387.108 486.123 384.83 487.506C382.553 488.807 379.869 489.458 376.778 489.458C373.525 489.458 370.76 488.807 368.482 487.506C366.205 486.123 365.066 483.602 365.066 479.942C365.066 476.201 366.205 473.679 368.482 472.378C370.76 471.077 373.525 470.426 376.778 470.426ZM424.564 492.63C424.564 495.07 424.483 497.469 424.32 499.828C424.239 502.105 424.076 504.057 423.832 505.684H424.564C426.272 502.919 428.427 500.601 431.03 498.73C433.714 496.778 437.211 495.802 441.522 495.802C448.11 495.802 453.519 498.73 457.748 504.586C461.977 510.442 464.092 519.023 464.092 530.328C464.092 537.973 463.116 544.399 461.164 549.604C459.212 554.809 456.487 558.713 452.99 561.316C449.493 563.919 445.426 565.22 440.79 565.22C436.398 565.22 433.023 564.366 430.664 562.658C428.305 560.95 426.272 559.079 424.564 557.046H423.222L419.928 564H402.726V471.28H424.564V492.63ZM433.47 512.028C431.518 512.028 429.851 512.638 428.468 513.858C427.167 514.997 426.191 516.745 425.54 519.104C424.971 521.463 424.686 524.472 424.686 528.132V530.694C424.686 536.55 425.337 541.023 426.638 544.114C427.939 547.123 430.298 548.628 433.714 548.628C436.317 548.628 438.309 547.042 439.692 543.87C441.075 540.698 441.766 536.103 441.766 530.084C441.766 524.147 441.075 519.673 439.692 516.664C438.391 513.573 436.317 512.028 433.47 512.028ZM514.901 495.802C516.121 495.802 517.382 495.883 518.683 496.046C519.985 496.127 520.961 496.249 521.611 496.412L519.659 515.688C518.927 515.525 517.992 515.403 516.853 515.322C515.715 515.159 514.169 515.078 512.217 515.078C510.835 515.078 509.33 515.322 507.703 515.81C506.158 516.217 504.694 516.989 503.311 518.128C501.929 519.185 500.79 520.731 499.895 522.764C499.001 524.716 498.553 527.278 498.553 530.45V564H476.593V497.022H492.941L496.357 508.002H497.333C498.553 505.725 500.058 503.691 501.847 501.902C503.637 500.031 505.629 498.567 507.825 497.51C510.103 496.371 512.461 495.802 514.901 495.802ZM559.169 495.68C567.221 495.68 573.484 497.713 577.957 501.78C582.512 505.765 584.789 511.703 584.789 519.592V564H569.661L565.513 554.972H564.903C563.114 557.331 561.284 559.283 559.413 560.828C557.543 562.373 555.387 563.471 552.947 564.122C550.507 564.854 547.539 565.22 544.041 565.22C540.463 565.22 537.209 564.447 534.281 562.902C531.353 561.357 529.035 558.998 527.327 555.826C525.619 552.654 524.765 548.628 524.765 543.748C524.765 536.591 527.124 531.304 531.841 527.888C536.559 524.391 543.35 522.479 552.215 522.154L562.829 521.788V519.836C562.829 516.583 562.138 514.224 560.755 512.76C559.373 511.296 557.502 510.564 555.143 510.564C552.622 510.564 549.816 511.052 546.725 512.028C543.635 512.923 540.544 514.061 537.453 515.444L531.231 501.78C534.891 499.828 539.039 498.323 543.675 497.266C548.311 496.209 553.476 495.68 559.169 495.68ZM557.949 533.744C553.964 533.907 551.117 534.842 549.409 536.55C547.783 538.177 546.969 540.413 546.969 543.26C546.969 545.781 547.539 547.611 548.677 548.75C549.897 549.889 551.443 550.458 553.313 550.458C555.997 550.458 558.275 549.441 560.145 547.408C562.016 545.293 562.951 542.447 562.951 538.868V533.5L557.949 533.744ZM637.974 495.802C639.194 495.802 640.454 495.883 641.756 496.046C643.057 496.127 644.033 496.249 644.684 496.412L642.732 515.688C642 515.525 641.064 515.403 639.926 515.322C638.787 515.159 637.242 515.078 635.29 515.078C633.907 515.078 632.402 515.322 630.776 515.81C629.23 516.217 627.766 516.989 626.384 518.128C625.001 519.185 623.862 520.731 622.968 522.764C622.073 524.716 621.626 527.278 621.626 530.45V564H599.666V497.022H616.014L619.43 508.002H620.406C621.626 505.725 623.13 503.691 624.92 501.902C626.709 500.031 628.702 498.567 630.898 497.51C633.175 496.371 635.534 495.802 637.974 495.802ZM675.477 497.022V564H653.639V497.022H675.477ZM664.741 470.426C667.832 470.426 670.516 471.077 672.793 472.378C675.07 473.679 676.209 476.201 676.209 479.942C676.209 483.602 675.07 486.123 672.793 487.506C670.516 488.807 667.832 489.458 664.741 489.458C661.488 489.458 658.722 488.807 656.445 487.506C654.168 486.123 653.029 483.602 653.029 479.942C653.029 476.201 654.168 473.679 656.445 472.378C658.722 471.077 661.488 470.426 664.741 470.426ZM719.359 495.802C725.459 495.802 730.746 496.981 735.219 499.34C739.692 501.617 743.108 505.033 745.467 509.588C747.907 514.061 749.127 519.633 749.127 526.302V535.818H710.087C710.25 540.21 711.47 543.707 713.747 546.31C716.106 548.913 719.481 550.214 723.873 550.214C727.94 550.214 731.6 549.807 734.853 548.994C738.188 548.181 741.604 546.879 745.101 545.09V560.34C742.092 562.048 738.757 563.268 735.097 564C731.437 564.813 726.842 565.22 721.311 565.22C714.967 565.22 709.274 564 704.231 561.56C699.188 559.12 695.203 555.379 692.275 550.336C689.428 545.212 688.005 538.746 688.005 530.938C688.005 522.967 689.306 516.42 691.909 511.296C694.512 506.091 698.172 502.227 702.889 499.706C707.606 497.103 713.096 495.802 719.359 495.802ZM719.969 510.076C717.366 510.076 715.211 511.093 713.503 513.126C711.795 515.078 710.778 518.209 710.453 522.52H729.363C729.363 520.161 728.997 518.047 728.265 516.176C727.533 514.305 726.476 512.841 725.093 511.784C723.792 510.645 722.084 510.076 719.969 510.076ZM808.551 543.748C808.551 548.14 807.656 551.963 805.867 555.216C804.077 558.388 801.231 560.869 797.327 562.658C793.423 564.366 788.258 565.22 781.833 565.22C777.278 565.22 773.211 564.935 769.633 564.366C766.135 563.797 762.557 562.78 758.897 561.316V544.724C762.882 546.432 766.908 547.774 770.975 548.75C775.123 549.726 778.417 550.214 780.857 550.214C783.378 550.214 785.167 549.807 786.225 548.994C787.363 548.181 787.933 547.042 787.933 545.578C787.933 544.521 787.567 543.585 786.835 542.772C786.103 541.959 784.72 541.023 782.687 539.966C780.735 538.909 777.969 537.567 774.391 535.94C770.893 534.232 767.965 532.483 765.607 530.694C763.329 528.905 761.621 526.749 760.483 524.228C759.344 521.707 758.775 518.616 758.775 514.956C758.775 508.612 761.174 503.854 765.973 500.682C770.771 497.429 777.075 495.802 784.883 495.802C789.031 495.802 792.935 496.249 796.595 497.144C800.336 498.039 804.159 499.421 808.063 501.292L802.207 515.2C800.092 514.224 797.937 513.37 795.741 512.638C793.626 511.906 791.633 511.337 789.763 510.93C787.892 510.523 786.306 510.32 785.005 510.32C783.215 510.32 781.833 510.645 780.857 511.296C779.962 511.865 779.515 512.76 779.515 513.98C779.515 514.956 779.84 515.81 780.491 516.542C781.141 517.274 782.402 518.128 784.273 519.104C786.143 519.999 788.827 521.219 792.325 522.764C795.985 524.309 798.994 525.936 801.353 527.644C803.793 529.352 805.582 531.467 806.721 533.988C807.941 536.509 808.551 539.763 808.551 543.748ZM881.686 548.872C883.638 548.872 885.386 548.669 886.932 548.262C888.558 547.855 890.266 547.327 892.056 546.676V561.804C889.778 562.78 887.298 563.593 884.614 564.244C881.93 564.895 878.514 565.22 874.366 565.22C870.299 565.22 866.68 564.569 863.508 563.268C860.417 561.885 857.977 559.567 856.188 556.314C854.48 552.979 853.626 548.384 853.626 542.528V512.394H845.94V503.854L855.7 497.266L861.434 483.114H875.586V497.022H891.324V512.394H875.586V541.796C875.586 544.155 876.114 545.944 877.172 547.164C878.229 548.303 879.734 548.872 881.686 548.872ZM963.748 530.328C963.748 535.94 963.016 540.901 961.552 545.212C960.169 549.523 958.095 553.183 955.33 556.192C952.565 559.201 949.23 561.479 945.326 563.024C941.422 564.488 936.989 565.22 932.028 565.22C927.473 565.22 923.244 564.488 919.34 563.024C915.436 561.479 912.101 559.242 909.336 556.314C906.571 553.305 904.415 549.645 902.87 545.334C901.325 540.942 900.552 535.94 900.552 530.328C900.552 522.927 901.813 516.664 904.334 511.54C906.855 506.416 910.515 502.512 915.314 499.828C920.113 497.144 925.806 495.802 932.394 495.802C938.494 495.802 943.903 497.144 948.62 499.828C953.337 502.512 957.038 506.416 959.722 511.54C962.406 516.664 963.748 522.927 963.748 530.328ZM922.756 530.328C922.756 534.476 923.081 537.973 923.732 540.82C924.383 543.667 925.399 545.822 926.782 547.286C928.165 548.669 929.995 549.36 932.272 549.36C934.549 549.36 936.339 548.669 937.64 547.286C939.023 545.822 939.999 543.667 940.568 540.82C941.219 537.973 941.544 534.476 941.544 530.328C941.544 526.18 941.219 522.723 940.568 519.958C939.999 517.193 939.023 515.119 937.64 513.736C936.257 512.353 934.427 511.662 932.15 511.662C928.734 511.662 926.294 513.248 924.83 516.42C923.447 519.511 922.756 524.147 922.756 530.328ZM1034.61 495.802C1040.71 495.802 1045.99 496.981 1050.47 499.34C1054.94 501.617 1058.35 505.033 1060.71 509.588C1063.15 514.061 1064.37 519.633 1064.37 526.302V535.818H1025.33C1025.5 540.21 1026.72 543.707 1028.99 546.31C1031.35 548.913 1034.73 550.214 1039.12 550.214C1043.19 550.214 1046.85 549.807 1050.1 548.994C1053.43 548.181 1056.85 546.879 1060.35 545.09V560.34C1057.34 562.048 1054 563.268 1050.34 564C1046.68 564.813 1042.09 565.22 1036.56 565.22C1030.21 565.22 1024.52 564 1019.48 561.56C1014.43 559.12 1010.45 555.379 1007.52 550.336C1004.67 545.212 1003.25 538.746 1003.25 530.938C1003.25 522.967 1004.55 516.42 1007.16 511.296C1009.76 506.091 1013.42 502.227 1018.14 499.706C1022.85 497.103 1028.34 495.802 1034.61 495.802ZM1035.22 510.076C1032.61 510.076 1030.46 511.093 1028.75 513.126C1027.04 515.078 1026.02 518.209 1025.7 522.52H1044.61C1044.61 520.161 1044.24 518.047 1043.51 516.176C1042.78 514.305 1041.72 512.841 1040.34 511.784C1039.04 510.645 1037.33 510.076 1035.22 510.076ZM1116.35 495.802C1122.94 495.802 1128.31 497.754 1132.46 501.658C1136.61 505.481 1138.68 511.703 1138.68 520.324V564H1116.84V526.058C1116.84 521.422 1116.23 517.925 1115.01 515.566C1113.79 513.207 1111.8 512.028 1109.03 512.028C1104.89 512.028 1102.12 513.899 1100.74 517.64C1099.36 521.3 1098.66 526.587 1098.66 533.5V564H1076.7V497.022H1093.17L1096.22 505.684H1096.96C1098.42 503.488 1100.05 501.658 1101.84 500.194C1103.71 498.73 1105.86 497.632 1108.3 496.9C1110.74 496.168 1113.43 495.802 1116.35 495.802ZM1175.51 487.506C1175.51 491.573 1175.39 495.233 1175.14 498.486C1174.9 501.658 1174.7 503.976 1174.53 505.44H1175.63C1177.01 503.081 1178.56 501.211 1180.27 499.828C1181.98 498.445 1183.89 497.429 1186 496.778C1188.2 496.127 1190.52 495.802 1192.96 495.802C1197.19 495.802 1201.01 496.656 1204.42 498.364C1207.84 500.072 1210.52 502.715 1212.48 506.294C1214.51 509.873 1215.53 514.549 1215.53 520.324V564H1193.44V526.058C1193.44 521.341 1192.83 517.843 1191.61 515.566C1190.48 513.207 1188.56 512.028 1185.88 512.028C1183.28 512.028 1181.2 512.882 1179.66 514.59C1178.11 516.217 1177.01 518.616 1176.36 521.788C1175.79 524.96 1175.51 528.864 1175.51 533.5V564H1153.55V471.28H1175.51V487.506ZM1261.38 495.68C1269.44 495.68 1275.7 497.713 1280.17 501.78C1284.73 505.765 1287 511.703 1287 519.592V564H1271.88L1267.73 554.972H1267.12C1265.33 557.331 1263.5 559.283 1261.63 560.828C1259.76 562.373 1257.6 563.471 1255.16 564.122C1252.72 564.854 1249.75 565.22 1246.26 565.22C1242.68 565.22 1239.42 564.447 1236.5 562.902C1233.57 561.357 1231.25 558.998 1229.54 555.826C1227.83 552.654 1226.98 548.628 1226.98 543.748C1226.98 536.591 1229.34 531.304 1234.06 527.888C1238.77 524.391 1245.56 522.479 1254.43 522.154L1265.04 521.788V519.836C1265.04 516.583 1264.35 514.224 1262.97 512.76C1261.59 511.296 1259.72 510.564 1257.36 510.564C1254.84 510.564 1252.03 511.052 1248.94 512.028C1245.85 512.923 1242.76 514.061 1239.67 515.444L1233.45 501.78C1237.11 499.828 1241.25 498.323 1245.89 497.266C1250.53 496.209 1255.69 495.68 1261.38 495.68ZM1260.16 533.744C1256.18 533.907 1253.33 534.842 1251.62 536.55C1250 538.177 1249.18 540.413 1249.18 543.26C1249.18 545.781 1249.75 547.611 1250.89 548.75C1252.11 549.889 1253.66 550.458 1255.53 550.458C1258.21 550.458 1260.49 549.441 1262.36 547.408C1264.23 545.293 1265.17 542.447 1265.17 538.868V533.5L1260.16 533.744ZM1341.53 495.802C1348.12 495.802 1353.49 497.754 1357.63 501.658C1361.78 505.481 1363.86 511.703 1363.86 520.324V564H1342.02V526.058C1342.02 521.422 1341.41 517.925 1340.19 515.566C1338.97 513.207 1336.98 512.028 1334.21 512.028C1330.06 512.028 1327.3 513.899 1325.91 517.64C1324.53 521.3 1323.84 526.587 1323.84 533.5V564H1301.88V497.022H1318.35L1321.4 505.684H1322.13C1323.6 503.488 1325.22 501.658 1327.01 500.194C1328.88 498.73 1331.04 497.632 1333.48 496.9C1335.92 496.168 1338.6 495.802 1341.53 495.802ZM1407.64 565.22C1401.21 565.22 1395.6 564.041 1390.8 561.682C1386.09 559.242 1382.43 555.501 1379.82 550.458C1377.3 545.334 1376.04 538.787 1376.04 530.816C1376.04 522.683 1377.47 516.054 1380.31 510.93C1383.24 505.725 1387.23 501.902 1392.27 499.462C1397.31 497.022 1403 495.802 1409.35 495.802C1413.17 495.802 1416.87 496.249 1420.45 497.144C1424.11 498.039 1427.24 499.177 1429.84 500.56L1423.87 515.81C1421.51 514.671 1419.35 513.777 1417.4 513.126C1415.45 512.475 1413.37 512.15 1411.18 512.15C1408.66 512.15 1406.42 512.841 1404.47 514.224C1402.52 515.525 1400.97 517.559 1399.83 520.324C1398.77 523.089 1398.25 526.546 1398.25 530.694C1398.25 534.842 1398.77 538.258 1399.83 540.942C1400.97 543.545 1402.52 545.497 1404.47 546.798C1406.42 548.099 1408.66 548.75 1411.18 548.75C1414.11 548.75 1416.99 548.221 1419.84 547.164C1422.77 546.107 1425.45 544.683 1427.89 542.894V559.73C1425.29 561.519 1422.32 562.902 1418.99 563.878C1415.73 564.773 1411.95 565.22 1407.64 565.22ZM1469.23 495.802C1475.33 495.802 1480.62 496.981 1485.09 499.34C1489.56 501.617 1492.98 505.033 1495.34 509.588C1497.78 514.061 1499 519.633 1499 526.302V535.818H1459.96C1460.12 540.21 1461.34 543.707 1463.62 546.31C1465.98 548.913 1469.35 550.214 1473.74 550.214C1477.81 550.214 1481.47 549.807 1484.72 548.994C1488.06 548.181 1491.47 546.879 1494.97 545.09V560.34C1491.96 562.048 1488.63 563.268 1484.97 564C1481.31 564.813 1476.71 565.22 1471.18 565.22C1464.84 565.22 1459.14 564 1454.1 561.56C1449.06 559.12 1445.07 555.379 1442.15 550.336C1439.3 545.212 1437.88 538.746 1437.88 530.938C1437.88 522.967 1439.18 516.42 1441.78 511.296C1444.38 506.091 1448.04 502.227 1452.76 499.706C1457.48 497.103 1462.97 495.802 1469.23 495.802ZM1469.84 510.076C1467.24 510.076 1465.08 511.093 1463.37 513.126C1461.67 515.078 1460.65 518.209 1460.32 522.52H1479.23C1479.23 520.161 1478.87 518.047 1478.14 516.176C1477.4 514.305 1476.35 512.841 1474.96 511.784C1473.66 510.645 1471.95 510.076 1469.84 510.076ZM157 637.022H179.936L190.428 674.964C190.753 675.859 190.997 676.835 191.16 677.892C191.323 678.949 191.445 680.047 191.526 681.186C191.607 682.243 191.689 683.382 191.77 684.602H192.258C192.421 682.813 192.583 681.105 192.746 679.478C192.99 677.851 193.315 676.347 193.722 674.964L204.58 637.022H227.028L201.53 710.466C199.822 715.509 197.707 719.697 195.186 723.032C192.665 726.448 189.493 729.01 185.67 730.718C181.929 732.426 177.252 733.28 171.64 733.28C169.688 733.28 167.98 733.158 166.516 732.914C165.133 732.751 163.873 732.548 162.734 732.304V716.078C163.547 716.241 164.523 716.403 165.662 716.566C166.882 716.729 168.143 716.81 169.444 716.81C171.884 716.81 173.877 716.322 175.422 715.346C176.967 714.37 178.187 713.028 179.082 711.32C180.058 709.612 180.79 707.741 181.278 705.708L181.888 703.268L157 637.022ZM295.012 670.328C295.012 675.94 294.28 680.901 292.816 685.212C291.433 689.523 289.359 693.183 286.594 696.192C283.828 699.201 280.494 701.479 276.59 703.024C272.686 704.488 268.253 705.22 263.292 705.22C258.737 705.22 254.508 704.488 250.604 703.024C246.7 701.479 243.365 699.242 240.6 696.314C237.834 693.305 235.679 689.645 234.134 685.334C232.588 680.942 231.816 675.94 231.816 670.328C231.816 662.927 233.076 656.664 235.598 651.54C238.119 646.416 241.779 642.512 246.578 639.828C251.376 637.144 257.07 635.802 263.658 635.802C269.758 635.802 275.166 637.144 279.884 639.828C284.601 642.512 288.302 646.416 290.986 651.54C293.67 656.664 295.012 662.927 295.012 670.328ZM254.02 670.328C254.02 674.476 254.345 677.973 254.996 680.82C255.646 683.667 256.663 685.822 258.046 687.286C259.428 688.669 261.258 689.36 263.536 689.36C265.813 689.36 267.602 688.669 268.904 687.286C270.286 685.822 271.262 683.667 271.832 680.82C272.482 677.973 272.808 674.476 272.808 670.328C272.808 666.18 272.482 662.723 271.832 659.958C271.262 657.193 270.286 655.119 268.904 653.736C267.521 652.353 265.691 651.662 263.414 651.662C259.998 651.662 257.558 653.248 256.094 656.42C254.711 659.511 254.02 664.147 254.02 670.328ZM369.146 637.022V704H352.554L349.87 695.46H348.528C347.308 697.737 345.681 699.608 343.648 701.072C341.614 702.455 339.378 703.471 336.938 704.122C334.579 704.854 332.098 705.22 329.496 705.22C325.348 705.22 321.606 704.366 318.272 702.658C314.937 700.95 312.253 698.307 310.22 694.728C308.268 691.068 307.292 686.391 307.292 680.698V637.022H329.252V674.964C329.252 679.519 329.821 682.975 330.96 685.334C332.098 687.693 334.05 688.872 336.816 688.872C339.581 688.872 341.696 688.059 343.16 686.432C344.705 684.805 345.762 682.406 346.332 679.234C346.901 675.981 347.186 672.077 347.186 667.522V637.022H369.146ZM422.567 635.802C423.787 635.802 425.048 635.883 426.349 636.046C427.651 636.127 428.627 636.249 429.277 636.412L427.325 655.688C426.593 655.525 425.658 655.403 424.519 655.322C423.381 655.159 421.835 655.078 419.883 655.078C418.501 655.078 416.996 655.322 415.369 655.81C413.824 656.217 412.36 656.989 410.977 658.128C409.595 659.185 408.456 660.731 407.561 662.764C406.667 664.716 406.219 667.278 406.219 670.45V704H384.259V637.022H400.607L404.023 648.002H404.999C406.219 645.725 407.724 643.691 409.513 641.902C411.303 640.031 413.295 638.567 415.491 637.51C417.769 636.371 420.127 635.802 422.567 635.802ZM505.228 704H483.146V634.094H463.138V616.892H525.236V634.094H505.228V704ZM525.859 637.022H548.795L559.287 674.964C559.613 675.859 559.857 676.835 560.019 677.892C560.182 678.949 560.304 680.047 560.385 681.186C560.467 682.243 560.548 683.382 560.629 684.602H561.117C561.28 682.813 561.443 681.105 561.605 679.478C561.849 677.851 562.175 676.347 562.581 674.964L573.439 637.022H595.887L570.389 710.466C568.681 715.509 566.567 719.697 564.045 723.032C561.524 726.448 558.352 729.01 554.529 730.718C550.788 732.426 546.111 733.28 540.499 733.28C538.547 733.28 536.839 733.158 535.375 732.914C533.993 732.751 532.732 732.548 531.593 732.304V716.078C532.407 716.241 533.383 716.403 534.521 716.566C535.741 716.729 537.002 716.81 538.303 716.81C540.743 716.81 542.736 716.322 544.281 715.346C545.827 714.37 547.047 713.028 547.941 711.32C548.917 709.612 549.649 707.741 550.137 705.708L550.747 703.268L525.859 637.022ZM642.155 635.802C649.15 635.802 654.64 638.771 658.625 644.708C662.692 650.564 664.725 659.104 664.725 670.328C664.725 677.973 663.708 684.399 661.675 689.604C659.642 694.809 656.876 698.713 653.379 701.316C649.882 703.919 645.896 705.22 641.423 705.22C638.495 705.22 635.974 704.813 633.859 704C631.744 703.187 630.036 702.17 628.735 700.95C627.434 699.649 626.295 698.347 625.319 697.046H624.587C624.75 698.591 624.912 700.218 625.075 701.926C625.238 703.634 625.319 705.464 625.319 707.416V733.28H603.359V637.022H621.171L624.221 645.562H625.319C626.376 643.773 627.637 642.146 629.101 640.682C630.565 639.218 632.354 638.039 634.469 637.144C636.665 636.249 639.227 635.802 642.155 635.802ZM633.859 652.028C631.744 652.028 630.036 652.638 628.735 653.858C627.434 655.078 626.539 656.908 626.051 659.348C625.563 661.707 625.319 664.716 625.319 668.376V670.206C625.319 674.191 625.563 677.567 626.051 680.332C626.62 683.016 627.515 685.09 628.735 686.554C630.036 687.937 631.826 688.628 634.103 688.628C635.892 688.628 637.397 687.977 638.617 686.676C639.918 685.293 640.854 683.219 641.423 680.454C642.074 677.689 642.399 674.232 642.399 670.084C642.399 663.821 641.667 659.267 640.203 656.42C638.739 653.492 636.624 652.028 633.859 652.028ZM705.896 635.802C711.996 635.802 717.283 636.981 721.756 639.34C726.229 641.617 729.645 645.033 732.004 649.588C734.444 654.061 735.664 659.633 735.664 666.302V675.818H696.624C696.787 680.21 698.007 683.707 700.284 686.31C702.643 688.913 706.018 690.214 710.41 690.214C714.477 690.214 718.137 689.807 721.39 688.994C724.725 688.181 728.141 686.879 731.638 685.09V700.34C728.629 702.048 725.294 703.268 721.634 704C717.974 704.813 713.379 705.22 707.848 705.22C701.504 705.22 695.811 704 690.768 701.56C685.725 699.12 681.74 695.379 678.812 690.336C675.965 685.212 674.542 678.746 674.542 670.938C674.542 662.967 675.843 656.42 678.446 651.296C681.049 646.091 684.709 642.227 689.426 639.706C694.143 637.103 699.633 635.802 705.896 635.802ZM706.506 650.076C703.903 650.076 701.748 651.093 700.04 653.126C698.332 655.078 697.315 658.209 696.99 662.52H715.9C715.9 660.161 715.534 658.047 714.802 656.176C714.07 654.305 713.013 652.841 711.63 651.784C710.329 650.645 708.621 650.076 706.506 650.076ZM795.088 683.748C795.088 688.14 794.193 691.963 792.404 695.216C790.614 698.388 787.768 700.869 783.864 702.658C779.96 704.366 774.795 705.22 768.37 705.22C763.815 705.22 759.748 704.935 756.17 704.366C752.672 703.797 749.094 702.78 745.434 701.316V684.724C749.419 686.432 753.445 687.774 757.512 688.75C761.66 689.726 764.954 690.214 767.394 690.214C769.915 690.214 771.704 689.807 772.762 688.994C773.9 688.181 774.47 687.042 774.47 685.578C774.47 684.521 774.104 683.585 773.372 682.772C772.64 681.959 771.257 681.023 769.224 679.966C767.272 678.909 764.506 677.567 760.928 675.94C757.43 674.232 754.502 672.483 752.144 670.694C749.866 668.905 748.158 666.749 747.02 664.228C745.881 661.707 745.312 658.616 745.312 654.956C745.312 648.612 747.711 643.854 752.51 640.682C757.308 637.429 763.612 635.802 771.42 635.802C775.568 635.802 779.472 636.249 783.132 637.144C786.873 638.039 790.696 639.421 794.6 641.292L788.744 655.2C786.629 654.224 784.474 653.37 782.278 652.638C780.163 651.906 778.17 651.337 776.3 650.93C774.429 650.523 772.843 650.32 771.542 650.32C769.752 650.32 768.37 650.645 767.394 651.296C766.499 651.865 766.052 652.76 766.052 653.98C766.052 654.956 766.377 655.81 767.028 656.542C767.678 657.274 768.939 658.128 770.81 659.104C772.68 659.999 775.364 661.219 778.862 662.764C782.522 664.309 785.531 665.936 787.89 667.644C790.33 669.352 792.119 671.467 793.258 673.988C794.478 676.509 795.088 679.763 795.088 683.748ZM836.242 705.22C829.816 705.22 824.204 704.041 819.406 701.682C814.688 699.242 811.028 695.501 808.426 690.458C805.904 685.334 804.644 678.787 804.644 670.816C804.644 662.683 806.067 656.054 808.914 650.93C811.842 645.725 815.827 641.902 820.87 639.462C825.912 637.022 831.606 635.802 837.95 635.802C841.772 635.802 845.473 636.249 849.052 637.144C852.712 638.039 855.843 639.177 858.446 640.56L852.468 655.81C850.109 654.671 847.954 653.777 846.002 653.126C844.05 652.475 841.976 652.15 839.78 652.15C837.258 652.15 835.022 652.841 833.07 654.224C831.118 655.525 829.572 657.559 828.434 660.324C827.376 663.089 826.848 666.546 826.848 670.694C826.848 674.842 827.376 678.258 828.434 680.942C829.572 683.545 831.118 685.497 833.07 686.798C835.022 688.099 837.258 688.75 839.78 688.75C842.708 688.75 845.595 688.221 848.442 687.164C851.37 686.107 854.054 684.683 856.494 682.894V699.73C853.891 701.519 850.922 702.902 847.588 703.878C844.334 704.773 840.552 705.22 836.242 705.22ZM907.47 635.802C908.69 635.802 909.95 635.883 911.252 636.046C912.553 636.127 913.529 636.249 914.18 636.412L912.228 655.688C911.496 655.525 910.56 655.403 909.422 655.322C908.283 655.159 906.738 655.078 904.786 655.078C903.403 655.078 901.898 655.322 900.272 655.81C898.726 656.217 897.262 656.989 895.88 658.128C894.497 659.185 893.358 660.731 892.464 662.764C891.569 664.716 891.122 667.278 891.122 670.45V704H869.162V637.022H885.51L888.926 648.002H889.902C891.122 645.725 892.626 643.691 894.416 641.902C896.205 640.031 898.198 638.567 900.394 637.51C902.671 636.371 905.03 635.802 907.47 635.802ZM944.973 637.022V704H923.135V637.022H944.973ZM934.237 610.426C937.328 610.426 940.012 611.077 942.289 612.378C944.567 613.679 945.705 616.201 945.705 619.942C945.705 623.602 944.567 626.123 942.289 627.506C940.012 628.807 937.328 629.458 934.237 629.458C930.984 629.458 928.219 628.807 925.941 627.506C923.664 626.123 922.525 623.602 922.525 619.942C922.525 616.201 923.664 613.679 925.941 612.378C928.219 611.077 930.984 610.426 934.237 610.426ZM998.981 635.802C1005.98 635.802 1011.47 638.771 1015.45 644.708C1019.52 650.564 1021.55 659.104 1021.55 670.328C1021.55 677.973 1020.53 684.399 1018.5 689.604C1016.47 694.809 1013.7 698.713 1010.21 701.316C1006.71 703.919 1002.72 705.22 998.249 705.22C995.321 705.22 992.8 704.813 990.685 704C988.57 703.187 986.862 702.17 985.561 700.95C984.26 699.649 983.121 698.347 982.145 697.046H981.413C981.576 698.591 981.738 700.218 981.901 701.926C982.064 703.634 982.145 705.464 982.145 707.416V733.28H960.185V637.022H977.997L981.047 645.562H982.145C983.202 643.773 984.463 642.146 985.927 640.682C987.391 639.218 989.18 638.039 991.295 637.144C993.491 636.249 996.053 635.802 998.981 635.802ZM990.685 652.028C988.57 652.028 986.862 652.638 985.561 653.858C984.26 655.078 983.365 656.908 982.877 659.348C982.389 661.707 982.145 664.716 982.145 668.376V670.206C982.145 674.191 982.389 677.567 982.877 680.332C983.446 683.016 984.341 685.09 985.561 686.554C986.862 687.937 988.652 688.628 990.929 688.628C992.718 688.628 994.223 687.977 995.443 686.676C996.744 685.293 997.68 683.219 998.249 680.454C998.9 677.689 999.225 674.232 999.225 670.084C999.225 663.821 998.493 659.267 997.029 656.42C995.565 653.492 993.45 652.028 990.685 652.028ZM1065.16 688.872C1067.11 688.872 1068.86 688.669 1070.41 688.262C1072.03 687.855 1073.74 687.327 1075.53 686.676V701.804C1073.25 702.78 1070.77 703.593 1068.09 704.244C1065.41 704.895 1061.99 705.22 1057.84 705.22C1053.78 705.22 1050.16 704.569 1046.98 703.268C1043.89 701.885 1041.45 699.567 1039.66 696.314C1037.96 692.979 1037.1 688.384 1037.1 682.528V652.394H1029.42V643.854L1039.18 637.266L1044.91 623.114H1059.06V637.022H1074.8V652.394H1059.06V681.796C1059.06 684.155 1059.59 685.944 1060.65 687.164C1061.71 688.303 1063.21 688.872 1065.16 688.872ZM1155.29 635.802C1162.29 635.802 1167.78 638.771 1171.76 644.708C1175.83 650.564 1177.86 659.104 1177.86 670.328C1177.86 677.973 1176.85 684.399 1174.81 689.604C1172.78 694.809 1170.01 698.713 1166.52 701.316C1163.02 703.919 1159.03 705.22 1154.56 705.22C1151.63 705.22 1149.11 704.813 1147 704C1144.88 703.187 1143.17 702.17 1141.87 700.95C1140.57 699.649 1139.43 698.347 1138.46 697.046H1137.73C1137.89 698.591 1138.05 700.218 1138.21 701.926C1138.38 703.634 1138.46 705.464 1138.46 707.416V733.28H1116.5V637.022H1134.31L1137.36 645.562H1138.46C1139.51 643.773 1140.78 642.146 1142.24 640.682C1143.7 639.218 1145.49 638.039 1147.61 637.144C1149.8 636.249 1152.37 635.802 1155.29 635.802ZM1147 652.028C1144.88 652.028 1143.17 652.638 1141.87 653.858C1140.57 655.078 1139.68 656.908 1139.19 659.348C1138.7 661.707 1138.46 664.716 1138.46 668.376V670.206C1138.46 674.191 1138.7 677.567 1139.19 680.332C1139.76 683.016 1140.65 685.09 1141.87 686.554C1143.17 687.937 1144.96 688.628 1147.24 688.628C1149.03 688.628 1150.54 687.977 1151.76 686.676C1153.06 685.293 1153.99 683.219 1154.56 680.454C1155.21 677.689 1155.54 674.232 1155.54 670.084C1155.54 663.821 1154.81 659.267 1153.34 656.42C1151.88 653.492 1149.76 652.028 1147 652.028ZM1228.67 635.802C1229.89 635.802 1231.15 635.883 1232.45 636.046C1233.76 636.127 1234.73 636.249 1235.38 636.412L1233.43 655.688C1232.7 655.525 1231.76 655.403 1230.62 655.322C1229.49 655.159 1227.94 655.078 1225.99 655.078C1224.61 655.078 1223.1 655.322 1221.47 655.81C1219.93 656.217 1218.47 656.989 1217.08 658.128C1215.7 659.185 1214.56 660.731 1213.67 662.764C1212.77 664.716 1212.32 667.278 1212.32 670.45V704H1190.36V637.022H1206.71L1210.13 648.002H1211.1C1212.32 645.725 1213.83 643.691 1215.62 641.902C1217.41 640.031 1219.4 638.567 1221.6 637.51C1223.87 636.371 1226.23 635.802 1228.67 635.802ZM1302.46 670.328C1302.46 675.94 1301.73 680.901 1300.27 685.212C1298.89 689.523 1296.81 693.183 1294.05 696.192C1291.28 699.201 1287.95 701.479 1284.04 703.024C1280.14 704.488 1275.71 705.22 1270.74 705.22C1266.19 705.22 1261.96 704.488 1258.06 703.024C1254.15 701.479 1250.82 699.242 1248.05 696.314C1245.29 693.305 1243.13 689.645 1241.59 685.334C1240.04 680.942 1239.27 675.94 1239.27 670.328C1239.27 662.927 1240.53 656.664 1243.05 651.54C1245.57 646.416 1249.23 642.512 1254.03 639.828C1258.83 637.144 1264.52 635.802 1271.11 635.802C1277.21 635.802 1282.62 637.144 1287.34 639.828C1292.05 642.512 1295.75 646.416 1298.44 651.54C1301.12 656.664 1302.46 662.927 1302.46 670.328ZM1261.47 670.328C1261.47 674.476 1261.8 677.973 1262.45 680.82C1263.1 683.667 1264.12 685.822 1265.5 687.286C1266.88 688.669 1268.71 689.36 1270.99 689.36C1273.27 689.36 1275.06 688.669 1276.36 687.286C1277.74 685.822 1278.72 683.667 1279.28 680.82C1279.94 677.973 1280.26 674.476 1280.26 670.328C1280.26 666.18 1279.94 662.723 1279.28 659.958C1278.72 657.193 1277.74 655.119 1276.36 653.736C1274.97 652.353 1273.14 651.662 1270.87 651.662C1267.45 651.662 1265.01 653.248 1263.55 656.42C1262.16 659.511 1261.47 664.147 1261.47 670.328ZM1313.28 733.28C1311.49 733.28 1309.46 733.117 1307.18 732.792C1304.9 732.548 1302.99 732.223 1301.45 731.816V715.712C1302.67 716.037 1303.81 716.281 1304.86 716.444C1305.92 716.688 1307.06 716.81 1308.28 716.81C1310.07 716.81 1311.61 716.119 1312.91 714.736C1314.22 713.435 1314.87 710.751 1314.87 706.684V637.022H1336.7V710.466C1336.7 714.533 1335.93 718.274 1334.39 721.69C1332.92 725.187 1330.48 727.993 1327.07 730.108C1323.65 732.223 1319.06 733.28 1313.28 733.28ZM1314.38 619.942C1314.38 616.201 1315.48 613.679 1317.67 612.378C1319.95 611.077 1322.72 610.426 1325.97 610.426C1329.06 610.426 1331.74 611.077 1334.02 612.378C1336.38 613.679 1337.56 616.201 1337.56 619.942C1337.56 623.602 1336.38 626.123 1334.02 627.506C1331.74 628.807 1329.06 629.458 1325.97 629.458C1322.72 629.458 1319.95 628.807 1317.67 627.506C1315.48 626.123 1314.38 623.602 1314.38 619.942ZM1380.71 635.802C1386.81 635.802 1392.1 636.981 1396.57 639.34C1401.04 641.617 1404.46 645.033 1406.82 649.588C1409.26 654.061 1410.48 659.633 1410.48 666.302V675.818H1371.44C1371.6 680.21 1372.82 683.707 1375.1 686.31C1377.46 688.913 1380.83 690.214 1385.22 690.214C1389.29 690.214 1392.95 689.807 1396.2 688.994C1399.54 688.181 1402.95 686.879 1406.45 685.09V700.34C1403.44 702.048 1400.11 703.268 1396.45 704C1392.79 704.813 1388.19 705.22 1382.66 705.22C1376.32 705.22 1370.62 704 1365.58 701.56C1360.54 699.12 1356.55 695.379 1353.62 690.336C1350.78 685.212 1349.35 678.746 1349.35 670.938C1349.35 662.967 1350.66 656.42 1353.26 651.296C1355.86 646.091 1359.52 642.227 1364.24 639.706C1368.96 637.103 1374.45 635.802 1380.71 635.802ZM1381.32 650.076C1378.72 650.076 1376.56 651.093 1374.85 653.126C1373.14 655.078 1372.13 658.209 1371.8 662.52H1390.71C1390.71 660.161 1390.35 658.047 1389.61 656.176C1388.88 654.305 1387.83 652.841 1386.44 651.784C1385.14 650.645 1383.43 650.076 1381.32 650.076ZM1451.72 705.22C1445.3 705.22 1439.68 704.041 1434.89 701.682C1430.17 699.242 1426.51 695.501 1423.91 690.458C1421.38 685.334 1420.12 678.787 1420.12 670.816C1420.12 662.683 1421.55 656.054 1424.39 650.93C1427.32 645.725 1431.31 641.902 1436.35 639.462C1441.39 637.022 1447.09 635.802 1453.43 635.802C1457.25 635.802 1460.95 636.249 1464.53 637.144C1468.19 638.039 1471.32 639.177 1473.93 640.56L1467.95 655.81C1465.59 654.671 1463.43 653.777 1461.48 653.126C1459.53 652.475 1457.46 652.15 1455.26 652.15C1452.74 652.15 1450.5 652.841 1448.55 654.224C1446.6 655.525 1445.05 657.559 1443.91 660.324C1442.86 663.089 1442.33 666.546 1442.33 670.694C1442.33 674.842 1442.86 678.258 1443.91 680.942C1445.05 683.545 1446.6 685.497 1448.55 686.798C1450.5 688.099 1452.74 688.75 1455.26 688.75C1458.19 688.75 1461.08 688.221 1463.92 687.164C1466.85 686.107 1469.53 684.683 1471.97 682.894V699.73C1469.37 701.519 1466.4 702.902 1463.07 703.878C1459.81 704.773 1456.03 705.22 1451.72 705.22ZM1515.75 688.872C1517.7 688.872 1519.45 688.669 1521 688.262C1522.62 687.855 1524.33 687.327 1526.12 686.676V701.804C1523.84 702.78 1521.36 703.593 1518.68 704.244C1516 704.895 1512.58 705.22 1508.43 705.22C1504.37 705.22 1500.75 704.569 1497.57 703.268C1494.48 701.885 1492.04 699.567 1490.25 696.314C1488.55 692.979 1487.69 688.384 1487.69 682.528V652.394H1480.01V643.854L1489.77 637.266L1495.5 623.114H1509.65V637.022H1525.39V652.394H1509.65V681.796C1509.65 684.155 1510.18 685.944 1511.24 687.164C1512.3 688.303 1513.8 688.872 1515.75 688.872ZM1584.39 683.748C1584.39 688.14 1583.5 691.963 1581.71 695.216C1579.92 698.388 1577.07 700.869 1573.17 702.658C1569.27 704.366 1564.1 705.22 1557.68 705.22C1553.12 705.22 1549.05 704.935 1545.48 704.366C1541.98 703.797 1538.4 702.78 1534.74 701.316V684.724C1538.73 686.432 1542.75 687.774 1546.82 688.75C1550.97 689.726 1554.26 690.214 1556.7 690.214C1559.22 690.214 1561.01 689.807 1562.07 688.994C1563.21 688.181 1563.78 687.042 1563.78 685.578C1563.78 684.521 1563.41 683.585 1562.68 682.772C1561.95 681.959 1560.56 681.023 1558.53 679.966C1556.58 678.909 1553.81 677.567 1550.23 675.94C1546.74 674.232 1543.81 672.483 1541.45 670.694C1539.17 668.905 1537.46 666.749 1536.33 664.228C1535.19 661.707 1534.62 658.616 1534.62 654.956C1534.62 648.612 1537.02 643.854 1541.82 640.682C1546.61 637.429 1552.92 635.802 1560.73 635.802C1564.87 635.802 1568.78 636.249 1572.44 637.144C1576.18 638.039 1580 639.421 1583.91 641.292L1578.05 655.2C1575.94 654.224 1573.78 653.37 1571.58 652.638C1569.47 651.906 1567.48 651.337 1565.61 650.93C1563.74 650.523 1562.15 650.32 1560.85 650.32C1559.06 650.32 1557.68 650.645 1556.7 651.296C1555.81 651.865 1555.36 652.76 1555.36 653.98C1555.36 654.956 1555.68 655.81 1556.33 656.542C1556.98 657.274 1558.25 658.128 1560.12 659.104C1561.99 659.999 1564.67 661.219 1568.17 662.764C1571.83 664.309 1574.84 665.936 1577.2 667.644C1579.64 669.352 1581.43 671.467 1582.56 673.988C1583.78 676.509 1584.39 679.763 1584.39 683.748Z" fill="white"/>
<path d="M198.608 796.368C198.608 798.16 198.272 799.709 197.6 801.016C196.928 802.323 195.957 803.387 194.688 804.208C193.456 805.029 192 805.608 190.32 805.944V806.168C193.531 806.541 195.92 807.549 197.488 809.192C199.056 810.835 199.84 812.981 199.84 815.632C199.84 817.947 199.299 820.019 198.216 821.848C197.133 823.64 195.453 825.04 193.176 826.048C190.936 827.056 188.043 827.56 184.496 827.56C182.405 827.56 180.464 827.392 178.672 827.056C176.88 826.757 175.163 826.197 173.52 825.376V820.784C175.2 821.605 177.011 822.259 178.952 822.744C180.893 823.192 182.76 823.416 184.552 823.416C188.136 823.416 190.712 822.725 192.28 821.344C193.885 819.925 194.688 817.984 194.688 815.52C194.688 813.84 194.24 812.496 193.344 811.488C192.485 810.443 191.216 809.677 189.536 809.192C187.856 808.707 185.84 808.464 183.488 808.464H179.624V804.264H183.544C185.747 804.264 187.576 803.947 189.032 803.312C190.525 802.677 191.645 801.8 192.392 800.68C193.176 799.523 193.568 798.197 193.568 796.704C193.568 794.763 192.915 793.269 191.608 792.224C190.301 791.141 188.528 790.6 186.288 790.6C184.869 790.6 183.581 790.749 182.424 791.048C181.267 791.309 180.184 791.701 179.176 792.224C178.205 792.709 177.216 793.288 176.208 793.96L173.744 790.6C174.715 789.853 175.816 789.163 177.048 788.528C178.317 787.893 179.717 787.389 181.248 787.016C182.779 786.643 184.44 786.456 186.232 786.456C190.413 786.456 193.512 787.389 195.528 789.256C197.581 791.123 198.608 793.493 198.608 796.368ZM222.927 827H218.111V799.056C218.111 797.973 218.111 797.059 218.111 796.312C218.148 795.565 218.186 794.875 218.223 794.24C218.26 793.568 218.298 792.877 218.335 792.168C217.738 792.765 217.196 793.269 216.711 793.68C216.226 794.091 215.61 794.613 214.863 795.248L210.607 798.72L208.031 795.416L218.839 787.016H222.927V827ZM249.417 837.64C248.521 837.64 247.737 837.565 247.065 837.416C246.393 837.304 245.795 837.136 245.273 836.912V832.656C245.87 832.805 246.505 832.936 247.177 833.048C247.849 833.16 248.558 833.216 249.305 833.216C250.238 833.216 251.115 833.029 251.937 832.656C252.795 832.283 253.486 831.629 254.009 830.696C254.531 829.763 254.793 828.456 254.793 826.776V787.016H259.833V826.384C259.833 828.96 259.403 831.069 258.545 832.712C257.686 834.392 256.473 835.624 254.905 836.408C253.337 837.229 251.507 837.64 249.417 837.64ZM281.081 796.48C284.74 796.48 287.446 797.283 289.201 798.888C290.956 800.493 291.833 803.051 291.833 806.56V827H288.249L287.297 822.744H287.073C286.214 823.827 285.318 824.741 284.385 825.488C283.489 826.197 282.444 826.72 281.249 827.056C280.092 827.392 278.673 827.56 276.993 827.56C275.201 827.56 273.577 827.243 272.121 826.608C270.702 825.973 269.582 825.003 268.761 823.696C267.94 822.352 267.529 820.672 267.529 818.656C267.529 815.669 268.705 813.373 271.057 811.768C273.409 810.125 277.03 809.229 281.921 809.08L287.017 808.912V807.12C287.017 804.619 286.476 802.883 285.393 801.912C284.31 800.941 282.78 800.456 280.801 800.456C279.233 800.456 277.74 800.699 276.321 801.184C274.902 801.632 273.577 802.155 272.345 802.752L270.833 799.056C272.14 798.347 273.689 797.749 275.481 797.264C277.273 796.741 279.14 796.48 281.081 796.48ZM282.537 812.496C278.804 812.645 276.209 813.243 274.753 814.288C273.334 815.333 272.625 816.808 272.625 818.712C272.625 820.392 273.129 821.624 274.137 822.408C275.182 823.192 276.508 823.584 278.113 823.584C280.652 823.584 282.761 822.893 284.441 821.512C286.121 820.093 286.961 817.928 286.961 815.016V812.328L282.537 812.496ZM315.552 796.424C319.136 796.424 321.842 797.301 323.672 799.056C325.501 800.773 326.416 803.573 326.416 807.456V827H321.544V807.792C321.544 805.365 321.002 803.555 319.92 802.36C318.837 801.165 317.138 800.568 314.824 800.568C311.501 800.568 309.205 801.501 307.936 803.368C306.666 805.235 306.032 807.923 306.032 811.432V827H301.104V796.984H305.08L305.808 801.072H306.088C306.76 800.027 307.581 799.168 308.552 798.496C309.56 797.787 310.661 797.264 311.856 796.928C313.05 796.592 314.282 796.424 315.552 796.424ZM360.809 796.984V827H356.777L356.049 823.024H355.825C355.19 824.069 354.369 824.928 353.361 825.6C352.353 826.272 351.252 826.757 350.057 827.056C348.862 827.392 347.612 827.56 346.305 827.56C343.916 827.56 341.9 827.187 340.257 826.44C338.652 825.656 337.438 824.461 336.617 822.856C335.796 821.251 335.385 819.179 335.385 816.64V796.984H340.369V816.304C340.369 818.693 340.91 820.485 341.993 821.68C343.076 822.875 344.756 823.472 347.033 823.472C349.273 823.472 351.028 823.061 352.297 822.24C353.604 821.381 354.518 820.149 355.041 818.544C355.601 816.901 355.881 814.923 355.881 812.608V796.984H360.809ZM381.706 796.48C385.365 796.48 388.071 797.283 389.826 798.888C391.581 800.493 392.458 803.051 392.458 806.56V827H388.874L387.922 822.744H387.698C386.839 823.827 385.943 824.741 385.01 825.488C384.114 826.197 383.069 826.72 381.874 827.056C380.717 827.392 379.298 827.56 377.618 827.56C375.826 827.56 374.202 827.243 372.746 826.608C371.327 825.973 370.207 825.003 369.386 823.696C368.565 822.352 368.154 820.672 368.154 818.656C368.154 815.669 369.33 813.373 371.682 811.768C374.034 810.125 377.655 809.229 382.546 809.08L387.642 808.912V807.12C387.642 804.619 387.101 802.883 386.018 801.912C384.935 800.941 383.405 800.456 381.426 800.456C379.858 800.456 378.365 800.699 376.946 801.184C375.527 801.632 374.202 802.155 372.97 802.752L371.458 799.056C372.765 798.347 374.314 797.749 376.106 797.264C377.898 796.741 379.765 796.48 381.706 796.48ZM383.162 812.496C379.429 812.645 376.834 813.243 375.378 814.288C373.959 815.333 373.25 816.808 373.25 818.712C373.25 820.392 373.754 821.624 374.762 822.408C375.807 823.192 377.133 823.584 378.738 823.584C381.277 823.584 383.386 822.893 385.066 821.512C386.746 820.093 387.586 817.928 387.586 815.016V812.328L383.162 812.496ZM415.729 796.424C416.289 796.424 416.886 796.461 417.521 796.536C418.193 796.573 418.771 796.648 419.257 796.76L418.641 801.296C418.155 801.184 417.614 801.091 417.017 801.016C416.457 800.941 415.915 800.904 415.393 800.904C414.235 800.904 413.134 801.147 412.089 801.632C411.043 802.117 410.11 802.808 409.289 803.704C408.467 804.563 407.814 805.608 407.329 806.84C406.881 808.072 406.657 809.453 406.657 810.984V827H401.729V796.984H405.761L406.321 802.472H406.545C407.179 801.352 407.945 800.344 408.841 799.448C409.737 798.515 410.763 797.787 411.921 797.264C413.078 796.704 414.347 796.424 415.729 796.424ZM420.158 796.984H425.422L431.918 814.064C432.291 815.072 432.627 816.043 432.926 816.976C433.262 817.909 433.56 818.824 433.822 819.72C434.083 820.579 434.288 821.419 434.438 822.24H434.662C434.886 821.307 435.24 820.093 435.726 818.6C436.211 817.069 436.715 815.539 437.238 814.008L443.342 796.984H448.662L435.726 831.144C435.016 833.011 434.176 834.635 433.206 836.016C432.272 837.435 431.115 838.517 429.734 839.264C428.39 840.048 426.747 840.44 424.806 840.44C423.91 840.44 423.126 840.384 422.454 840.272C421.782 840.197 421.203 840.104 420.718 839.992V836.072C421.128 836.147 421.614 836.221 422.174 836.296C422.771 836.371 423.387 836.408 424.022 836.408C425.179 836.408 426.168 836.184 426.99 835.736C427.848 835.325 428.576 834.709 429.174 833.888C429.771 833.104 430.275 832.171 430.686 831.088L432.254 827.112L420.158 796.984ZM492.315 827H465.883V822.912L476.355 812.328C478.371 810.312 480.07 808.52 481.451 806.952C482.833 805.384 483.878 803.853 484.587 802.36C485.297 800.829 485.651 799.168 485.651 797.376C485.651 795.173 484.998 793.512 483.691 792.392C482.385 791.235 480.686 790.656 478.595 790.656C476.654 790.656 474.937 790.992 473.443 791.664C471.987 792.336 470.494 793.269 468.963 794.464L466.331 791.16C467.377 790.264 468.515 789.461 469.747 788.752C471.017 788.043 472.379 787.483 473.835 787.072C475.329 786.661 476.915 786.456 478.595 786.456C481.097 786.456 483.243 786.885 485.035 787.744C486.827 788.603 488.209 789.835 489.179 791.44C490.187 793.008 490.691 794.893 490.691 797.096C490.691 798.664 490.449 800.157 489.963 801.576C489.478 802.957 488.787 804.32 487.891 805.664C486.995 807.008 485.913 808.371 484.643 809.752C483.374 811.133 481.974 812.571 480.443 814.064L472.099 822.296V822.52H492.315V827ZM524.53 806.952C524.53 810.2 524.288 813.093 523.802 815.632C523.317 818.171 522.533 820.336 521.45 822.128C520.405 823.883 519.024 825.227 517.306 826.16C515.626 827.093 513.592 827.56 511.202 827.56C508.216 827.56 505.733 826.739 503.754 825.096C501.813 823.453 500.357 821.101 499.386 818.04C498.453 814.941 497.986 811.245 497.986 806.952C497.986 802.621 498.416 798.925 499.274 795.864C500.17 792.803 501.589 790.469 503.53 788.864C505.472 787.221 508.029 786.4 511.202 786.4C514.189 786.4 516.672 787.221 518.65 788.864C520.629 790.469 522.104 792.803 523.074 795.864C524.045 798.925 524.53 802.621 524.53 806.952ZM502.914 806.952C502.914 810.611 503.176 813.653 503.698 816.08C504.258 818.507 505.136 820.336 506.33 821.568C507.562 822.763 509.186 823.36 511.202 823.36C513.218 823.36 514.824 822.763 516.018 821.568C517.25 820.373 518.146 818.563 518.706 816.136C519.266 813.672 519.546 810.611 519.546 806.952C519.546 803.293 519.266 800.269 518.706 797.88C518.146 795.453 517.25 793.643 516.018 792.448C514.824 791.216 513.218 790.6 511.202 790.6C509.186 790.6 507.562 791.216 506.33 792.448C505.136 793.643 504.258 795.453 503.698 797.88C503.176 800.269 502.914 803.293 502.914 806.952ZM556.409 827H529.977V822.912L540.449 812.328C542.465 810.312 544.164 808.52 545.545 806.952C546.926 805.384 547.972 803.853 548.681 802.36C549.39 800.829 549.745 799.168 549.745 797.376C549.745 795.173 549.092 793.512 547.785 792.392C546.478 791.235 544.78 790.656 542.689 790.656C540.748 790.656 539.03 790.992 537.537 791.664C536.081 792.336 534.588 793.269 533.057 794.464L530.425 791.16C531.47 790.264 532.609 789.461 533.841 788.752C535.11 788.043 536.473 787.483 537.929 787.072C539.422 786.661 541.009 786.456 542.689 786.456C545.19 786.456 547.337 786.885 549.129 787.744C550.921 788.603 552.302 789.835 553.273 791.44C554.281 793.008 554.785 794.893 554.785 797.096C554.785 798.664 554.542 800.157 554.057 801.576C553.572 802.957 552.881 804.32 551.985 805.664C551.089 807.008 550.006 808.371 548.737 809.752C547.468 811.133 546.068 812.571 544.537 814.064L536.193 822.296V822.52H556.409V827ZM590.248 817.928H584.424V827H579.664V817.928H560.512V813.728L579.328 786.792H584.424V813.504H590.248V817.928ZM579.664 800.904C579.664 799.933 579.664 799.056 579.664 798.272C579.701 797.451 579.739 796.685 579.776 795.976C579.813 795.267 579.832 794.595 579.832 793.96C579.869 793.288 579.907 792.653 579.944 792.056H579.72C579.421 792.765 579.048 793.531 578.6 794.352C578.152 795.173 577.723 795.864 577.312 796.424L565.328 813.504H579.664V800.904Z" fill="white"/>
<path d="M157 309.52V212H352.04V407.04H157" fill="#005F9F"/>
<path d="M212 318.476V325.874H235.623V393.048H252.386V325.874H276.009V318.612C276.009 314.527 276.009 311.213 275.827 311.123C275.827 310.987 261.426 310.941 243.936 310.941L212.136 311.077V318.521L212 318.476ZM318.166 310.896C322.8 311.985 326.343 314.073 329.523 317.386C331.204 319.202 333.703 322.379 333.884 323.196C333.884 323.468 326.025 328.779 321.255 331.729C321.074 331.865 320.347 331.093 319.62 329.913C317.258 326.555 314.85 325.102 311.079 324.83C305.628 324.467 301.994 327.326 301.994 332.092C301.994 333.544 302.266 334.361 302.811 335.542C304.038 338.038 306.309 339.536 313.351 342.622C326.343 348.205 331.976 351.881 335.383 357.146C339.245 363.047 340.108 372.306 337.519 379.25C334.611 386.83 327.524 391.959 317.394 393.638C314.214 394.183 306.945 394.092 303.538 393.502C296.27 392.141 289.319 388.509 285.049 383.835C283.368 382.019 280.143 377.162 280.324 376.845L282.051 375.755L288.865 371.807L293.998 368.811L295.179 370.4C296.678 372.76 300.04 375.937 301.994 377.026C307.899 380.067 315.804 379.659 319.711 376.119C321.391 374.575 322.118 372.941 322.118 370.672C322.118 368.584 321.8 367.631 320.756 366.042C319.302 364.045 316.394 362.411 308.217 358.78C298.814 354.786 294.816 352.244 291.091 348.341C288.956 345.981 287.002 342.304 286.094 339.263C285.412 336.631 285.185 330.186 285.821 327.599C287.775 318.521 294.634 312.167 304.447 310.351C307.627 309.716 315.122 309.988 318.257 310.805L318.166 310.896Z" fill="white"/>
</g>
<defs>
<clipPath id="clip0_51_10">
<rect width="1920" height="960" fill="white"/>
</clipPath>
</defs>
</svg>
