<svg width="47" height="47" viewBox="0 0 47 47" fill="none" xmlns="http://www.w3.org/2000/svg">
<rect width="47" height="47" rx="3" fill="black"/>
<path fill-rule="evenodd" clip-rule="evenodd" d="M0 3.31802V3C0 1.73598 0.78174 0.654546 1.88812 0.212793L40.1713 47H35.7424L0 3.31802ZM43.7701 47L5.31278 0H9.74173L46.7419 45.2192C46.2747 46.2685 45.2228 47 44 47H43.7701Z" fill="#292929"/>
<rect width="47" height="47" rx="3" fill="url(#paint0_radial_81_438)"/>
<path d="M7.64705 17.2318L10.6255 12.2178L7.64705 7.20385H9.93555L12.8335 12.2178L9.92405 17.2318H7.64705ZM7.41705 25.7243C7.41705 25.249 7.48988 24.8312 7.63555 24.4708C7.78121 24.1105 7.97288 23.8115 8.21055 23.5738C8.44821 23.3285 8.72038 23.1445 9.02705 23.0218C9.33371 22.8992 9.64805 22.8378 9.97005 22.8378C10.7674 22.8378 11.373 23.0755 11.787 23.5508C12.201 24.0185 12.408 24.7047 12.408 25.6093C12.408 25.7013 12.4042 25.7972 12.3965 25.8968C12.3965 25.9965 12.3927 26.077 12.385 26.1383H8.87755C8.87755 26.491 9.02321 26.7708 9.31455 26.9778C9.60588 27.1772 9.98155 27.2768 10.4415 27.2768C10.7252 27.2768 10.9935 27.2462 11.2465 27.1848C11.5072 27.1235 11.7257 27.0622 11.902 27.0008L12.0975 28.2083C11.8522 28.2927 11.5915 28.3617 11.3155 28.4153C11.0395 28.4767 10.729 28.5073 10.384 28.5073C9.92405 28.5073 9.51005 28.4498 9.14205 28.3348C8.78171 28.2122 8.47121 28.0358 8.21055 27.8058C7.95755 27.5682 7.76205 27.2768 7.62405 26.9318C7.48605 26.5868 7.41705 26.1843 7.41705 25.7243ZM11.0395 25.1608C11.0395 25.0152 11.0204 24.8772 10.982 24.7468C10.9437 24.6088 10.8824 24.4862 10.798 24.3788C10.7137 24.2715 10.6064 24.1872 10.476 24.1258C10.3457 24.0568 10.1847 24.0223 9.99305 24.0223C9.80905 24.0223 9.64805 24.053 9.51005 24.1143C9.37971 24.1757 9.26855 24.26 9.17655 24.3673C9.09221 24.4747 9.02321 24.5973 8.96955 24.7353C8.92355 24.8733 8.89288 25.0152 8.87755 25.1608H11.0395ZM16.755 22.9183C17.054 22.9183 17.2994 22.9643 17.491 23.0563C17.6827 23.1483 17.8322 23.2863 17.9395 23.4703C18.0545 23.6543 18.1312 23.8882 18.1695 24.1718C18.2079 24.4478 18.227 24.7737 18.227 25.1493V28.3808H17.077V25.0803C17.077 24.8657 17.0617 24.6932 17.031 24.5628C17.008 24.4325 16.9735 24.3328 16.9275 24.2638C16.8892 24.1948 16.8394 24.1488 16.778 24.1258C16.7244 24.1028 16.6669 24.0913 16.6055 24.0913C16.5365 24.0913 16.4637 24.099 16.387 24.1143C16.3104 24.122 16.2414 24.1412 16.18 24.1718C16.203 24.3175 16.2222 24.4785 16.2375 24.6548C16.2529 24.8312 16.2605 25.0267 16.2605 25.2413V26.3223H15.1105V25.0803C15.1105 24.7123 15.0722 24.4555 14.9955 24.3098C14.9265 24.1642 14.8115 24.0913 14.6505 24.0913C14.6045 24.0913 14.547 24.0952 14.478 24.1028C14.4167 24.1105 14.3554 24.122 14.294 24.1373V28.3808H13.144V23.1828C13.443 23.0985 13.7382 23.0333 14.0295 22.9873C14.3209 22.9413 14.5777 22.9183 14.8 22.9183C14.9994 22.9183 15.1757 22.9452 15.329 22.9988C15.49 23.0448 15.628 23.1253 15.743 23.2403C15.8734 23.156 16.0267 23.0832 16.203 23.0218C16.3794 22.9528 16.5634 22.9183 16.755 22.9183ZM23.1605 28.0243C23.1605 28.4613 23.1069 28.8255 22.9995 29.1168C22.8922 29.4158 22.7427 29.6535 22.551 29.8298C22.367 30.0138 22.1447 30.1442 21.884 30.2208C21.631 30.2975 21.355 30.3358 21.056 30.3358C20.688 30.3358 20.3469 30.2898 20.0325 30.1978C19.7182 30.1058 19.4154 29.987 19.124 29.8413L19.561 28.6453C19.7527 28.7527 19.9827 28.8523 20.251 28.9443C20.527 29.044 20.7762 29.0938 20.9985 29.0938C21.2362 29.0938 21.4202 29.021 21.5505 28.8753C21.6809 28.7373 21.746 28.4767 21.746 28.0933V24.1488H19.561V22.9758H23.1605V28.0243ZM22.988 21.4233C22.988 21.6993 22.8999 21.9178 22.7235 22.0788C22.5472 22.2398 22.3364 22.3203 22.091 22.3203C21.8457 22.3203 21.6349 22.2398 21.4585 22.0788C21.2899 21.9178 21.2055 21.6993 21.2055 21.4233C21.2055 21.1397 21.2899 20.9173 21.4585 20.7563C21.6349 20.5953 21.8457 20.5148 22.091 20.5148C22.3364 20.5148 22.5472 20.5953 22.7235 20.7563C22.8999 20.9173 22.988 21.1397 22.988 21.4233ZM24.667 25.7243C24.667 25.249 24.7399 24.8312 24.8855 24.4708C25.0312 24.1105 25.2229 23.8115 25.4605 23.5738C25.6982 23.3285 25.9704 23.1445 26.277 23.0218C26.5837 22.8992 26.898 22.8378 27.22 22.8378C28.0174 22.8378 28.623 23.0755 29.037 23.5508C29.451 24.0185 29.658 24.7047 29.658 25.6093C29.658 25.7013 29.6542 25.7972 29.6465 25.8968C29.6465 25.9965 29.6427 26.077 29.635 26.1383H26.1275C26.1275 26.491 26.2732 26.7708 26.5645 26.9778C26.8559 27.1772 27.2315 27.2768 27.6915 27.2768C27.9752 27.2768 28.2435 27.2462 28.4965 27.1848C28.7572 27.1235 28.9757 27.0622 29.152 27.0008L29.3475 28.2083C29.1022 28.2927 28.8415 28.3617 28.5655 28.4153C28.2895 28.4767 27.979 28.5073 27.634 28.5073C27.174 28.5073 26.76 28.4498 26.392 28.3348C26.0317 28.2122 25.7212 28.0358 25.4605 27.8058C25.2075 27.5682 25.012 27.2768 24.874 26.9318C24.736 26.5868 24.667 26.1843 24.667 25.7243ZM28.2895 25.1608C28.2895 25.0152 28.2704 24.8772 28.232 24.7468C28.1937 24.6088 28.1324 24.4862 28.048 24.3788C27.9637 24.2715 27.8564 24.1872 27.726 24.1258C27.5957 24.0568 27.4347 24.0223 27.243 24.0223C27.059 24.0223 26.898 24.053 26.76 24.1143C26.6297 24.1757 26.5185 24.26 26.4265 24.3673C26.3422 24.4747 26.2732 24.5973 26.2195 24.7353C26.1735 24.8733 26.1429 25.0152 26.1275 25.1608H28.2895ZM33.9705 27.4723C33.9705 27.8097 33.867 28.0665 33.66 28.2428C33.453 28.4192 33.2154 28.5073 32.947 28.5073C32.809 28.5073 32.6787 28.4843 32.556 28.4383C32.4334 28.3923 32.3222 28.3272 32.2225 28.2428C32.1305 28.1508 32.0539 28.0435 31.9925 27.9208C31.9389 27.7905 31.912 27.641 31.912 27.4723C31.912 27.3113 31.9389 27.1695 31.9925 27.0468C32.0539 26.9165 32.1305 26.8092 32.2225 26.7248C32.3222 26.6405 32.4334 26.5753 32.556 26.5293C32.6787 26.4833 32.809 26.4603 32.947 26.4603C33.2154 26.4603 33.453 26.5485 33.66 26.7248C33.867 26.9012 33.9705 27.1503 33.9705 27.4723ZM8.82005 37.6438C8.82005 38.1268 8.90821 38.5217 9.08455 38.8283C9.26855 39.135 9.55988 39.2883 9.95855 39.2883C10.0735 39.2883 10.1809 39.2845 10.2805 39.2768C10.3802 39.2692 10.4837 39.2577 10.591 39.2423V36.2983C10.4837 36.237 10.361 36.1872 10.223 36.1488C10.085 36.1028 9.93938 36.0798 9.78605 36.0798C9.44871 36.0798 9.20338 36.214 9.05005 36.4823C8.89671 36.7507 8.82005 37.1378 8.82005 37.6438ZM12.0055 40.2198C11.7449 40.3042 11.4267 40.3732 11.051 40.4268C10.6754 40.4805 10.3074 40.5073 9.94705 40.5073C9.10371 40.5073 8.46355 40.2582 8.02655 39.7598C7.59721 39.2615 7.38255 38.5792 7.38255 37.7128C7.38255 36.8312 7.56271 36.1373 7.92305 35.6313C8.29105 35.1177 8.83155 34.8608 9.54455 34.8608C9.73621 34.8608 9.92405 34.8838 10.108 34.9298C10.292 34.9682 10.453 35.0257 10.591 35.1023V32.6413L12.0055 32.3998V40.2198ZM13.167 37.7243C13.167 37.249 13.2399 36.8312 13.3855 36.4708C13.5312 36.1105 13.7229 35.8115 13.9605 35.5738C14.1982 35.3285 14.4704 35.1445 14.777 35.0218C15.0837 34.8992 15.398 34.8378 15.72 34.8378C16.5174 34.8378 17.123 35.0755 17.537 35.5508C17.951 36.0185 18.158 36.7047 18.158 37.6093C18.158 37.7013 18.1542 37.7972 18.1465 37.8968C18.1465 37.9965 18.1427 38.077 18.135 38.1383H14.6275C14.6275 38.491 14.7732 38.7708 15.0645 38.9778C15.3559 39.1772 15.7315 39.2768 16.1915 39.2768C16.4752 39.2768 16.7435 39.2462 16.9965 39.1848C17.2572 39.1235 17.4757 39.0622 17.652 39.0008L17.8475 40.2083C17.6022 40.2927 17.3415 40.3617 17.0655 40.4153C16.7895 40.4767 16.479 40.5073 16.134 40.5073C15.674 40.5073 15.26 40.4498 14.892 40.3348C14.5317 40.2122 14.2212 40.0358 13.9605 39.8058C13.7075 39.5682 13.512 39.2768 13.374 38.9318C13.236 38.5868 13.167 38.1843 13.167 37.7243ZM16.7895 37.1608C16.7895 37.0152 16.7704 36.8772 16.732 36.7468C16.6937 36.6088 16.6324 36.4862 16.548 36.3788C16.4637 36.2715 16.3564 36.1872 16.226 36.1258C16.0957 36.0568 15.9347 36.0223 15.743 36.0223C15.559 36.0223 15.398 36.053 15.26 36.1143C15.1297 36.1757 15.0185 36.26 14.9265 36.3673C14.8422 36.4747 14.7732 36.5973 14.7195 36.7353C14.6735 36.8733 14.6429 37.0152 14.6275 37.1608H16.7895ZM20.7915 40.3808C20.4465 39.6985 20.0939 38.9012 19.7335 37.9888C19.3809 37.0688 19.0435 36.0645 18.7215 34.9758H20.205C20.274 35.2672 20.3545 35.5777 20.4465 35.9073C20.5462 36.237 20.6497 36.5705 20.757 36.9078C20.8644 37.2375 20.9717 37.5595 21.079 37.8738C21.194 38.1882 21.3014 38.4757 21.401 38.7363C21.5007 38.4757 21.6119 38.1882 21.7345 37.8738C21.8572 37.5595 21.976 37.2375 22.091 36.9078C22.2137 36.5705 22.3287 36.237 22.436 35.9073C22.551 35.5777 22.643 35.2672 22.712 34.9758H24.1495C23.8275 36.0645 23.471 37.0688 23.08 37.9888C22.689 38.9012 22.321 39.6985 21.976 40.3808H20.7915Z" fill="white"/>
<defs>
<radialGradient id="paint0_radial_81_438" cx="0" cy="0" r="1" gradientUnits="userSpaceOnUse" gradientTransform="translate(23.6358 24.4509) rotate(90.3452) scale(22.5495)">
<stop/>
<stop offset="1" stop-opacity="0"/>
</radialGradient>
</defs>
</svg>
