<svg width="173" height="173" viewBox="0 0 173 173" fill="none" xmlns="http://www.w3.org/2000/svg">
<rect width="173" height="173" rx="3" fill="white"/>
<path fill-rule="evenodd" clip-rule="evenodd" d="M0 12.2112V3C0 1.34314 1.34315 0 3 0H6.3106L147.866 173H131.564L0 12.2112ZM161.113 173L19.5572 0H35.8595L173 167.604V170C173 171.657 171.657 173 170 173H161.113Z" fill="#F8F8F8"/>
<rect width="173" height="173" rx="3" fill="url(#paint0_radial_42_14)"/>
<path d="M27.224 96.776L33.44 86.312L27.224 75.848H32L38.048 86.312L31.976 96.776H27.224ZM57.7696 95.264C56.9696 95.264 56.2256 95.136 55.5376 94.88C54.8656 94.624 54.2736 94.256 53.7616 93.776C53.2656 93.28 52.8816 92.672 52.6096 91.952C52.3376 91.232 52.2016 90.416 52.2016 89.504C52.2016 88.576 52.3376 87.744 52.6096 87.008C52.8816 86.272 53.2496 85.648 53.7136 85.136C54.1936 84.624 54.7536 84.24 55.3936 83.984C56.0336 83.712 56.7216 83.576 57.4576 83.576C58.1136 83.576 58.7296 83.688 59.3056 83.912C59.8816 84.136 60.3856 84.48 60.8176 84.944C61.2656 85.392 61.6176 85.96 61.8736 86.648C62.1296 87.32 62.2576 88.104 62.2576 89C62.2576 89.16 62.2496 89.352 62.2336 89.576C62.2336 89.8 62.2256 89.992 62.2096 90.152H54.8176C54.8496 90.68 54.9536 91.136 55.1296 91.52C55.3056 91.888 55.5376 92.192 55.8256 92.432C56.1136 92.672 56.4336 92.856 56.7856 92.984C57.1376 93.096 57.5056 93.152 57.8896 93.152C58.2256 93.152 58.5456 93.12 58.8496 93.056C59.1696 92.992 59.4656 92.88 59.7376 92.72C60.0256 92.56 60.2976 92.352 60.5536 92.096L61.9456 93.44C61.5936 93.856 61.1936 94.208 60.7456 94.496C60.3136 94.768 59.8416 94.96 59.3296 95.072C58.8336 95.2 58.3136 95.264 57.7696 95.264ZM54.8656 88.112H59.6176C59.6176 87.728 59.5616 87.384 59.4496 87.08C59.3536 86.776 59.2096 86.52 59.0176 86.312C58.8256 86.104 58.5856 85.952 58.2976 85.856C58.0256 85.744 57.7056 85.688 57.3376 85.688C57.0336 85.688 56.7376 85.736 56.4496 85.832C56.1776 85.912 55.9296 86.056 55.7056 86.264C55.4816 86.472 55.2976 86.728 55.1536 87.032C55.0096 87.336 54.9136 87.696 54.8656 88.112ZM63.9856 95V83.84H66.2656V84.656C66.4576 84.4 66.6576 84.192 66.8656 84.032C67.0736 83.872 67.2896 83.76 67.5136 83.696C67.7536 83.616 67.9856 83.576 68.2096 83.576C68.4816 83.576 68.7376 83.624 68.9776 83.72C69.2176 83.8 69.4336 83.944 69.6256 84.152C69.8336 84.344 69.9936 84.6 70.1056 84.92C70.2816 84.616 70.4816 84.368 70.7056 84.176C70.9296 83.968 71.1856 83.816 71.4736 83.72C71.7776 83.624 72.1056 83.576 72.4576 83.576C72.8736 83.576 73.2256 83.648 73.5136 83.792C73.8016 83.936 74.0336 84.144 74.2096 84.416C74.4016 84.688 74.5376 85.024 74.6176 85.424C74.6976 85.824 74.7376 86.272 74.7376 86.768V95H72.3856V87.344C72.3856 86.864 72.3616 86.496 72.3136 86.24C72.2656 85.968 72.1936 85.784 72.0976 85.688C72.0016 85.576 71.8736 85.52 71.7136 85.52C71.5056 85.52 71.3056 85.624 71.1136 85.832C70.9216 86.024 70.7616 86.296 70.6336 86.648C70.5216 86.984 70.4656 87.384 70.4656 87.848V95H68.2576V87.416C68.2576 86.648 68.2016 86.136 68.0896 85.88C67.9776 85.624 67.7696 85.496 67.4656 85.496C67.3216 85.496 67.1776 85.544 67.0336 85.64C66.9056 85.736 66.7856 85.88 66.6736 86.072C66.5776 86.248 66.4976 86.48 66.4336 86.768C66.3696 87.04 66.3376 87.352 66.3376 87.704V95H63.9856ZM79.8496 99.224C79.0976 99.224 78.4096 99.08 77.7856 98.792C77.1616 98.504 76.6016 98.08 76.1056 97.52L77.5696 95.552L77.7136 95.384L77.9056 95.504C77.9376 95.632 77.9696 95.76 78.0016 95.888C78.0336 96.016 78.1376 96.184 78.3136 96.392C78.5056 96.568 78.7216 96.704 78.9616 96.8C79.2176 96.912 79.5136 96.968 79.8496 96.968C80.2496 96.968 80.5856 96.88 80.8576 96.704C81.1296 96.528 81.3296 96.256 81.4576 95.888C81.5856 95.536 81.6496 95.088 81.6496 94.544V85.976H77.7616V83.84H84.4096V94.304C84.4096 95.472 84.1936 96.416 83.7616 97.136C83.3296 97.872 82.7696 98.4 82.0816 98.72C81.3936 99.056 80.6496 99.224 79.8496 99.224ZM82.8496 81.992C82.3856 81.992 81.9856 81.832 81.6496 81.512C81.3136 81.192 81.1456 80.808 81.1456 80.36C81.1456 79.88 81.3056 79.488 81.6256 79.184C81.9456 78.88 82.3536 78.728 82.8496 78.728C83.2976 78.728 83.6896 78.888 84.0256 79.208C84.3776 79.528 84.5536 79.912 84.5536 80.36C84.5536 80.808 84.3776 81.192 84.0256 81.512C83.6896 81.832 83.2976 81.992 82.8496 81.992ZM93.7696 95.264C92.9696 95.264 92.2256 95.136 91.5376 94.88C90.8656 94.624 90.2736 94.256 89.7616 93.776C89.2656 93.28 88.8816 92.672 88.6096 91.952C88.3376 91.232 88.2016 90.416 88.2016 89.504C88.2016 88.576 88.3376 87.744 88.6096 87.008C88.8816 86.272 89.2496 85.648 89.7136 85.136C90.1936 84.624 90.7536 84.24 91.3936 83.984C92.0336 83.712 92.7216 83.576 93.4576 83.576C94.1136 83.576 94.7296 83.688 95.3056 83.912C95.8816 84.136 96.3856 84.48 96.8176 84.944C97.2656 85.392 97.6176 85.96 97.8736 86.648C98.1296 87.32 98.2576 88.104 98.2576 89C98.2576 89.16 98.2496 89.352 98.2336 89.576C98.2336 89.8 98.2256 89.992 98.2096 90.152H90.8176C90.8496 90.68 90.9536 91.136 91.1296 91.52C91.3056 91.888 91.5376 92.192 91.8256 92.432C92.1136 92.672 92.4336 92.856 92.7856 92.984C93.1376 93.096 93.5056 93.152 93.8896 93.152C94.2256 93.152 94.5456 93.12 94.8496 93.056C95.1696 92.992 95.4656 92.88 95.7376 92.72C96.0256 92.56 96.2976 92.352 96.5536 92.096L97.9456 93.44C97.5936 93.856 97.1936 94.208 96.7456 94.496C96.3136 94.768 95.8416 94.96 95.3296 95.072C94.8336 95.2 94.3136 95.264 93.7696 95.264ZM90.8656 88.112H95.6176C95.6176 87.728 95.5616 87.384 95.4496 87.08C95.3536 86.776 95.2096 86.52 95.0176 86.312C94.8256 86.104 94.5856 85.952 94.2976 85.856C94.0256 85.744 93.7056 85.688 93.3376 85.688C93.0336 85.688 92.7376 85.736 92.4496 85.832C92.1776 85.912 91.9296 86.056 91.7056 86.264C91.4816 86.472 91.2976 86.728 91.1536 87.032C91.0096 87.336 90.9136 87.696 90.8656 88.112ZM105.002 95.288C104.49 95.288 104.058 95.112 103.706 94.76C103.354 94.408 103.178 93.984 103.178 93.488C103.178 92.992 103.354 92.568 103.706 92.216C104.058 91.864 104.49 91.688 105.002 91.688C105.498 91.688 105.922 91.864 106.274 92.216C106.626 92.568 106.802 92.992 106.802 93.488C106.802 93.984 106.626 94.408 106.274 94.76C105.922 95.112 105.498 95.288 105.002 95.288ZM116.69 95.264C116.066 95.264 115.474 95.144 114.914 94.904C114.37 94.664 113.882 94.296 113.45 93.8C113.018 93.304 112.674 92.688 112.418 91.952C112.178 91.216 112.058 90.352 112.058 89.36C112.058 88.4 112.178 87.56 112.418 86.84C112.658 86.104 112.986 85.496 113.402 85.016C113.834 84.52 114.33 84.152 114.89 83.912C115.45 83.672 116.058 83.552 116.714 83.552C117.082 83.552 117.434 83.6 117.77 83.696C118.122 83.792 118.434 83.936 118.706 84.128C118.994 84.304 119.226 84.552 119.402 84.872V78.896H122.066H122.306V79.112C122.21 79.208 122.146 79.312 122.114 79.424C122.098 79.536 122.09 79.728 122.09 80L122.066 93.512C122.066 93.768 122.082 94.016 122.114 94.256C122.146 94.496 122.218 94.744 122.33 95H119.666C119.586 94.824 119.53 94.68 119.498 94.568C119.466 94.456 119.442 94.344 119.426 94.232C119.426 94.104 119.426 93.952 119.426 93.776C119.234 94.112 118.994 94.392 118.706 94.616C118.418 94.84 118.106 95 117.77 95.096C117.434 95.208 117.074 95.264 116.69 95.264ZM117.146 93.08C117.514 93.08 117.834 93.008 118.106 92.864C118.394 92.704 118.626 92.472 118.802 92.168C118.994 91.864 119.13 91.48 119.21 91.016C119.306 90.536 119.354 89.992 119.354 89.384C119.354 88.552 119.274 87.864 119.114 87.32C118.954 86.76 118.706 86.344 118.37 86.072C118.034 85.8 117.602 85.664 117.074 85.664C116.706 85.664 116.37 85.752 116.066 85.928C115.762 86.088 115.514 86.328 115.322 86.648C115.13 86.968 114.978 87.352 114.866 87.8C114.77 88.248 114.722 88.752 114.722 89.312C114.722 90.096 114.826 90.768 115.034 91.328C115.258 91.888 115.554 92.32 115.922 92.624C116.29 92.928 116.698 93.08 117.146 93.08ZM129.77 95.264C128.97 95.264 128.226 95.136 127.538 94.88C126.866 94.624 126.274 94.256 125.762 93.776C125.266 93.28 124.882 92.672 124.61 91.952C124.338 91.232 124.202 90.416 124.202 89.504C124.202 88.576 124.338 87.744 124.61 87.008C124.882 86.272 125.25 85.648 125.714 85.136C126.194 84.624 126.754 84.24 127.394 83.984C128.034 83.712 128.722 83.576 129.458 83.576C130.114 83.576 130.73 83.688 131.306 83.912C131.882 84.136 132.386 84.48 132.818 84.944C133.266 85.392 133.618 85.96 133.874 86.648C134.13 87.32 134.258 88.104 134.258 89C134.258 89.16 134.25 89.352 134.234 89.576C134.234 89.8 134.226 89.992 134.21 90.152H126.818C126.85 90.68 126.954 91.136 127.13 91.52C127.306 91.888 127.538 92.192 127.826 92.432C128.114 92.672 128.434 92.856 128.786 92.984C129.138 93.096 129.506 93.152 129.89 93.152C130.226 93.152 130.546 93.12 130.85 93.056C131.17 92.992 131.466 92.88 131.738 92.72C132.026 92.56 132.298 92.352 132.554 92.096L133.946 93.44C133.594 93.856 133.194 94.208 132.746 94.496C132.314 94.768 131.842 94.96 131.33 95.072C130.834 95.2 130.314 95.264 129.77 95.264ZM126.866 88.112H131.618C131.618 87.728 131.562 87.384 131.45 87.08C131.354 86.776 131.21 86.52 131.018 86.312C130.826 86.104 130.586 85.952 130.298 85.856C130.026 85.744 129.706 85.688 129.338 85.688C129.034 85.688 128.738 85.736 128.45 85.832C128.178 85.912 127.93 86.056 127.706 86.264C127.482 86.472 127.298 86.728 127.154 87.032C127.01 87.336 126.914 87.696 126.866 88.112ZM140.162 95L135.962 83.84H138.794L141.65 91.832H141.266L142.778 88.184C143.082 87.416 143.322 86.664 143.498 85.928C143.69 85.192 143.81 84.496 143.858 83.84H146.402C146.322 84.544 146.146 85.288 145.874 86.072C145.618 86.856 145.322 87.664 144.986 88.496L142.298 95H140.162Z" fill="black"/>
<defs>
<radialGradient id="paint0_radial_42_14" cx="0" cy="0" r="1" gradientUnits="userSpaceOnUse" gradientTransform="translate(87 90) rotate(90.3452) scale(83.0015)">
<stop stop-color="white"/>
<stop offset="1" stop-color="white" stop-opacity="0"/>
</radialGradient>
</defs>
</svg>

